<?xml version="1.0" encoding="UTF-8"?>
<svg id="Calque_2" data-name="Calque 2" xmlns="http://www.w3.org/2000/svg" viewBox="0 0 31 30.94">
  <defs>
    <style>
      .cls-1 {
        fill: #fff;
        stroke-width: 0px;
      }
    </style>
  </defs>
  <g id="Calque_1-2" data-name="Calque 1">
    <g id="Actualiser">
      <g>
        <path class="cls-1" d="M25.99,5.92c-.28.36-.55.71-.81,1.06-.14.19-.29.36-.42.54-.04.11.02.24.12.28.11.03.23,0,.33,0-.14,0-.31.06-.42-.05-.12-.11-.05-.27.05-.37-.06.08-.14.16-.12.27.01.1.1.19.19.19.18.01.36.03.57.06-.23.09-.49.03-.73.16-.13,0-.28.02-.37-.09-.09-.1-.08-.27.02-.38l.56-.62c.32-.34.4-.39,1.04-1.11l.39-.43c.12-.13.29-.32.32-.34l.32-.3c-.07.3-.14.34-.27.41-.24.2-.55.43-.77.7Z"/>
        <path class="cls-1" d="M27.47,7.97c-.26.01-.52.02-.77.03.27-.02.53-.04.77-.03Z"/>
        <path class="cls-1" d="M25.03,4.92c-.25-.17-.5-.34-.73-.5.25.15.49.33.73.5Z"/>
        <path class="cls-1" d="M27.3,3.33c.09-.13.16-.25.23-.36.1-.14.28-.23.46-.18.18.04.31.22.32.41.06.37.12.73.19,1.11.03.19.06.39.1.59-.04-.19-.08-.38-.11-.57-.09-.39-.16-.77-.27-1.15-.09-.18-.33-.27-.51-.2-.17.08-.26.24-.4.34Z"/>
        <path class="cls-1" d="M26.57,3.82c-.62.77-1.55,1.82-2.31,2.56.74-.75,1.66-1.8,2.31-2.56Z"/>
        <path class="cls-1" d="M16.62,2.57s-.02.04-.05.05c-.03,0-.06,0-.09.02l-.64-.11-.65-.04c.11-.01.21-.06.32-.06.48.02.57.18,1.12.14Z"/>
        <path class="cls-1" d="M25.3,5.11h.03s.25.19.25.19c0,0,.01.02.02.03-.11-.08-.21-.15-.3-.21Z"/>
        <path class="cls-1" d="M17.17,2.66s0,.09.03.13c-.24-.07-.48-.12-.72-.15l.08-.02c.17-.02.41.05.6.05Z"/>
        <path class="cls-1" d="M22.32,5.13c.14.08.31.09.39.11.35.31.69.61,1.03.91.08.03.21.13.37.18.07.09.13.18.18.26-.88-.7-1.8-1.36-2.79-1.96.28.14.54.32.82.49Z"/>
        <path class="cls-1" d="M1.75,13.59c.25-1.53,1.07-3.14,1.57-4.58-.99,1.5-1.72,3.88-2.11,4.08-.21.09-.09-.53.19-1.34.3-.8.74-1.76,1.06-2.4q-.12.16-.24.31c.12-.16.24-.31.27-.48-.25.3-.61.96-.8,1.12l.05-.35c-.68.81-1.29,2.54-1.74,3.6.47-1.29.99-2.47,1.63-3.76.64-1.26,1.41-2.54,2.33-3.76.93-1.22,2.08-2.29,3.34-3.23l1-.61.5-.3.53-.23c.36-.16.71-.31,1.06-.46.36-.13.73-.22,1.09-.32.4-.11.8-.28,1.2-.34.4-.07.8-.15,1.21-.23.4-.08.8-.16,1.21-.18.41-.03.82-.09,1.23-.07,1.63-.02,3.22.22,4.69.64.28.08.72.29,1.2.52.47.26.99.53,1.39.8.75.41,1.48.86,2.18,1.33.35.23.7.47,1.04.71.05,0,.07-.02.09-.05,0-.01.01-.02.01-.03,0-.03,0-.05-.01-.05,0,0,0,0,0,0h0s0,.02,0,.02l.03.14c.1.43.2.86.3,1.29l.07.3h0s0-.04,0-.04c0-.02,0-.04-.01-.04,0-.08.01-.2.02-.35,0-.09.02-.19.05-.3.03-.1.14-.22.22-.16.07.05.12.17.19.32.05.12.09.26.14.41.02.04,0-.07,0-.09-.13-.07-.03.07-.11.13-.06-.11-.11-.25-.16-.4-.06-.13-.05-.41-.11-.17.03-.03.04-.08.03-.13l.02.14.05.3c-.02-.12-.04-.24-.06-.36l-.02-.09s0,.04,0,.06c-.02.05-.06.09-.11.09-.18-.06-.29-.23-.47-.33l-.1-.07c-.07-.06-.12-.22-.15-.31-.04-.07.06-.02-.18-.21-.18-.14-.38-.27-.63-.37.2.16.38.32.57.49l.14.12.02.03.06.07.28.34c.18.2.38.46.61.67.15.11.31-.08.28-.13.02.05.03.09.04.13h.01s.02.14,0,.08l-.1-.47-.04-.2c.02.06.04.11.06.18.01.05.02.1.03.16v-.18c-.03-.16-.04-.32-.06-.48,0-.16-.04-.37-.21-.39-.17-.03-.24.14-.35.23l-.3.35c.09-.16.19-.32.3-.49.12-.15.2-.41.42-.43.1-.01.19.03.24.1.05.07.06.17.08.25l.14.56.2.88.09.45v.06s.01.09,0,.13c-.03.08-.09.15-.17.18-.18.08-.34-.07-.45-.19-.25-.24-.51-.47-.76-.7-.15-.13-.3-.26-.46-.38l-.24-.18-.31-.23c.1.1.18.19.26.28.08.08.16.16.24.23.17.14.34.29.51.43.33.28.6.52.96,1.01-.31-.29-.63-.59-.95-.89l-.53-.48-.27-.24-.33-.27c-.58-.48-1.19-.94-1.82-1.38.14.07.28.15.43.23-1.06-.91-2.42-1.57-3.7-2.15-.11-.06-.23-.1-.35-.15.11.05.24.09.35.15,1.18.55,2.25,1.21,3.27,1.92-.49-.28-1-.6-1.63-.96.31.24.76.58,1.22.9.61.41,1.2.83,1.77,1.28-.89-.67-1.84-1.24-2.76-1.67.63.42,1.26.85,1.87,1.31.59.45,1.25.98,1.68,1.37-.13-.11-.27-.22-.41-.33l-.48-.37-1.01-.72c-1.11-.83-2.3-1.58-3.6-2.17l.15.06-.3-.13c-.52-.2-1.03-.45-1.58-.59-.49-.15-.98-.23-1.48-.25l-.25-.05c.16,0,.24-.03-.05-.11-1.29-.33-2.73-.13-4.22-.03-.2.01-.43.02-.68.08-.24.07-.5.15-.78.24-.16.01-.23.05-.3.1l-.36.11c-.3.07-.58.19-.84.33.27-.12.55-.25.84-.33l.33-.09c-.07.05-.14.11-.3.15.51-.12,1.02-.25,1.53-.38.53-.06,1.06-.12,1.59-.18,1.06-.13,2.16-.05,3.23.11-.13,0-.32,0-.4.02.22-.01.43.02.64.03.69.11,1.37.31,2.04.51-.2-.06-.4-.08-.58-.08,1.9.59,3.67,1.56,5.33,2.67.5.38,1.01.79,1.47,1.19.43.37.87.77,1.3,1.18.42.4.83.8,1.24,1.2-.45-.5-.85-.94-1.25-1.34-.29-.29-.57-.56-.86-.81.29.23.57.47.85.71.37.32.73.65,1.09.98.18.15.33.4.6.38.25,0,.47-.25.44-.5-.08-.42-.15-.83-.23-1.25-.08-.47-.16-.94-.24-1.42.2.34.45.98.66,1.32.07,0-.05-1,.08-.43.26,1.06.39,2.07.49,2.87-.02.34-.36.61-.62.67-.27.07-.36-.02-.45.07-.01.02.09.13.23.24.13.13.38.23.67.18.58-.11.84-.36.63-.02-.2.27-.86.54-1.08.46-.14,0-.32,0-.56-.05-.12-.03-.21-.01-.36-.07-.16-.07-.32-.14-.48-.22-.19-.11-.36-.16-.6-.39-.22-.21-.46-.44-.71-.67-.06-.07-.16-.13-.29-.2-.42-.37-.84-.73-1.24-1.08-.19-.16-.44-.36-.58-.47-.1-.08-.2-.16-.3-.24-.38-.3-.71-.55-.95-.74-.18-.13-.35-.26-.53-.4-.08-.09-.14-.17-.18-.25-.13-.05-.26-.1-.39-.15-.48-.34-.98-.61-1.47-.9-.27-.17-.55-.35-.8-.5,0,.03.02.09-.04.09-.64-.28-1.29-.52-1.94-.7-.26-.11-.5-.2-.7-.33-.78.1-2.38-.22-3.62.09h0c-.3.05-.61.07-.91.12-.29.08-.59.15-.89.23-.1,0-.21,0-.3-.01-.13.08-.29.12-.36.16-.46.14-.86.26-1.27.36-.06.05-.16.18-.3.25-.28.15-.54.31-.8.47l-.47.25-.44.32-.75.53-.68.61c-.48.38-.85.88-1.28,1.31-.05.01-.09,0-.13-.02-.06.19-.25.39-.32.55,0-.04,0-.06-.02-.07-.27.5-.41.54-.69.97-.06.1-.07.22-.12.32l-.09.14c-.43.43-.65.99-.88,1.6-.3.58-.55,1.2-.78,1.82-.17.49-.34.66-.49,1Z"/>
        <path class="cls-1" d="M15.03,2.47c-.57-.04-1.17.04-1.76.05.63-.05,1.2-.24,1.76-.05Z"/>
        <path class="cls-1" d="M30.82,9.07c.05-.36.1-.81.13-1.33v.98s-.02.49-.02.49c0,.07,0,.19-.01.22l-.08.09c-.23.29-.88.61-1.15.6h-.38c-.14,0-.32-.03-.48-.05-.14.01-.41-.14-.63-.24-.24-.13-.44-.15-.73-.42-.18-.17-.37-.34-.55-.52v-.02c.18.16.36.33.55.51.25.23.43.28.64.38.2.09.43.22.61.27.31.05.63.11.82.08.16.02.56-.08.88-.31.15-.11.27-.23.34-.34.04-.05.06-.1.07-.15.02-.03,0-.18-.01-.26Z"/>
        <path class="cls-1" d="M16.57,2.62l-.08.02h0s.06-.02.09-.02Z"/>
        <path class="cls-1" d="M29.08,4.63l-.03-.16c.1.4.19.79.29,1.17-.09-.32-.18-.66-.26-1.02Z"/>
        <path class="cls-1" d="M27.18,2.58c-.54.64-1.08,1.35-1.59,1.98-.34.38-.69.77-1.04,1.16-.37.4-.75.8-1.17,1.23h-.01s0,0,0,0c.64-.74,1.28-1.48,1.92-2.22.6-.68,1.28-1.49,1.89-2.14Z"/>
        <path class="cls-1" d="M30.65,3.67c-.07-.48-.15-1.01-.22-1.54-.02-.15-.05-.3-.09-.43.05.12.08.26.11.41.1.51.2,1.01.29,1.51-.05-.1-.07.02-.09.05Z"/>
        <path class="cls-1" d="M29.81,7.99c0-.08-.01-.16-.03-.25.08.23.06.48-.09.66.05-.07.13-.26.12-.41Z"/>
        <path class="cls-1" d="M27.79,0c.19-.02.57-.02.93.09-.22-.04-.45-.04-.63,0-.09-.04-.19-.07-.3-.09Z"/>
        <path class="cls-1" d="M23.64,3.99c-.29.34-.57.67-.85,1,.31-.39.63-.79.95-1.19-.03.09-.06.16-.09.19Z"/>
      </g>
      <g>
        <path class="cls-1" d="M5.01,25.03c.28-.36.55-.71.81-1.06.14-.19.29-.36.42-.54.04-.11-.02-.24-.12-.28-.11-.03-.23,0-.33,0,.14,0,.31-.06.42.05.12.11.05.27-.05.37.06-.08.14-.16.12-.27-.01-.1-.1-.19-.19-.19-.18-.01-.36-.03-.57-.06.23-.09.49-.03.73-.16.13,0,.28-.02.37.09.09.1.08.27-.02.38l-.56.62c-.32.34-.4.39-1.04,1.11l-.39.43c-.12.13-.29.32-.32.34l-.32.3c.07-.3.14-.34.27-.41.24-.2.55-.43.77-.7Z"/>
        <path class="cls-1" d="M3.53,22.97c.26-.01.52-.02.77-.03-.27.02-.53.04-.77.03Z"/>
        <path class="cls-1" d="M5.97,26.03c.25.17.5.34.73.5-.25-.15-.49-.33-.73-.5Z"/>
        <path class="cls-1" d="M3.7,27.61c-.09.13-.16.25-.23.36-.1.14-.28.23-.46.18-.18-.04-.31-.22-.32-.41-.06-.37-.12-.73-.19-1.11-.03-.19-.06-.39-.1-.59.04.19.08.38.11.57.09.39.16.77.27,1.15.09.18.33.27.51.2.17-.08.26-.24.4-.34Z"/>
        <path class="cls-1" d="M4.43,27.12c.62-.77,1.55-1.82,2.31-2.56-.74.75-1.66,1.8-2.31,2.56Z"/>
        <path class="cls-1" d="M14.38,28.37s.02-.04.05-.05c.03,0,.06,0,.09-.02l.64.11.65.04c-.11.01-.21.06-.32.06-.48-.02-.57-.18-1.12-.14Z"/>
        <path class="cls-1" d="M5.7,25.83h-.03s-.25-.19-.25-.19c0,0-.01-.02-.02-.03.11.08.21.15.3.21Z"/>
        <path class="cls-1" d="M13.83,28.28s0-.09-.03-.13c.24.07.48.12.72.15l-.08.02c-.17.02-.41-.05-.6-.05Z"/>
        <path class="cls-1" d="M8.68,25.81c-.14-.08-.31-.09-.39-.11-.35-.31-.69-.61-1.03-.91-.08-.03-.21-.13-.37-.18-.07-.09-.13-.18-.18-.26.88.7,1.8,1.36,2.79,1.96-.28-.14-.54-.32-.82-.49Z"/>
        <path class="cls-1" d="M29.25,17.35c-.25,1.53-1.07,3.14-1.57,4.58.99-1.5,1.72-3.88,2.11-4.08.21-.09.09.53-.19,1.34-.3.8-.74,1.76-1.06,2.4q.12-.16.24-.31c-.12.16-.24.31-.27.48.25-.3.61-.96.8-1.12l-.05.35c.68-.81,1.29-2.54,1.74-3.6-.47,1.29-.99,2.47-1.63,3.76-.64,1.26-1.41,2.54-2.33,3.76-.93,1.22-2.08,2.29-3.34,3.23l-1,.61-.5.3-.53.23c-.36.16-.71.31-1.06.46-.36.13-.73.22-1.09.32-.4.11-.8.28-1.2.34-.4.07-.8.15-1.21.23-.4.08-.8.16-1.21.18-.41.03-.82.09-1.23.07-1.63.02-3.22-.22-4.69-.64-.28-.08-.72-.29-1.2-.52-.47-.26-.99-.53-1.39-.8-.75-.41-1.48-.86-2.18-1.33-.35-.23-.7-.47-1.04-.71-.05,0-.07.02-.09.05-.04.06.02.12,0,.07-.1-.43-.2-.86-.3-1.3l-.08-.35-.02-.09s0,0,0,0h0s0,.04,0,.04c0,.02,0,.04.01.04,0,.08-.01.2-.02.35,0,.09-.02.19-.05.3-.03.1-.14.22-.22.16-.07-.05-.12-.17-.19-.32-.05-.12-.09-.26-.14-.41-.02-.04,0,.07,0,.09.13.07.03-.07.11-.13.06.11.11.25.16.4.06.13.05.41.11.17-.03.03-.04.08-.03.13l-.02-.14-.05-.3c.02.13.05.26.07.39.02.12,0-.01.04-.04.03-.04.1-.06.15-.04.16.13.32.27.51.39.07.06.12.22.15.31.04.07-.06.02.18.21.18.14.38.27.63.37-.13-.11-.26-.21-.38-.32-.1-.09-.3-.26-.33-.29l-.16-.2-.42-.49-.25-.28c-.07-.1-.2-.2-.31-.14-.12.03-.1.23-.12.12l-.03-.1h-.01s-.02-.14,0-.08l.1.47.04.2c-.02-.06-.04-.11-.06-.18-.01-.05-.02-.1-.03-.16v.18c.03.16.04.32.06.48,0,.16.04.37.21.39.17.03.24-.14.35-.23l.3-.35c-.09.16-.19.32-.3.49-.12.15-.2.41-.42.43-.1.01-.19-.03-.25-.1-.05-.07-.06-.16-.08-.25l-.14-.56-.23-1.01-.06-.29s-.04-.09,0-.22c.04-.11.14-.18.26-.19.24,0,.37.25.54.37l.49.45c.17.14.33.29.5.42l.26.2.33.25c-.1-.1-.18-.19-.26-.27-.07-.08-.15-.15-.24-.23-.17-.14-.34-.28-.5-.42-.33-.28-.61-.53-.97-1.03.5.47,1.01.96,1.53,1.41l.39.34c.21.17.42.35.64.52.43.34.87.67,1.33.99-.14-.07-.28-.15-.43-.23,1.06.91,2.42,1.57,3.7,2.15.11.06.23.1.35.15-.11-.05-.24-.09-.35-.15-1.18-.55-2.25-1.21-3.27-1.92.49.28,1,.6,1.63.96-.31-.24-.76-.58-1.22-.9-.61-.41-1.2-.83-1.77-1.28.89.67,1.84,1.24,2.76,1.67-.63-.42-1.26-.85-1.87-1.31-.59-.45-1.25-.98-1.68-1.37.13.11.27.22.41.33l.48.37,1.01.72c1.11.83,2.3,1.58,3.6,2.17l-.15-.06.3.13c.52.2,1.03.45,1.58.59.49.15.98.23,1.48.25l.25.05c-.16,0-.24.03.05.11,1.29.33,2.73.13,4.22.03.2-.01.43-.02.68-.08.24-.07.5-.15.78-.24.16-.01.23-.05.3-.1l.36-.11c.3-.07.58-.19.84-.33-.27.12-.55.25-.84.33l-.33.09c.07-.05.14-.11.3-.15-.51.12-1.02.25-1.53.38-.53.06-1.06.12-1.59.18-1.06.13-2.16.05-3.23-.11.13,0,.32,0,.4-.02-.22.01-.43-.02-.64-.03-.69-.11-1.37-.31-2.04-.51.2.06.4.08.58.08-1.9-.59-3.67-1.56-5.33-2.67-.75-.57-1.48-1.17-2.08-1.73-.64-.58-1.28-1.2-1.93-1.84.77.87,1.42,1.54,2.11,2.15-.46-.37-.9-.75-1.33-1.14l-.64-.59c-.11-.09-.2-.21-.33-.28-.13-.08-.29-.07-.42,0-.13.07-.23.19-.25.34-.02.15.03.26.05.39l.14.74c.09.55.19,1.09.28,1.65-.2-.34-.45-.98-.66-1.32-.07,0,.05,1-.08.43-.26-1.06-.39-2.07-.49-2.87.02-.34.36-.61.62-.67.27-.07.36.02.45-.07.01-.02-.09-.13-.23-.24-.13-.13-.38-.23-.67-.18-.57.11-.84.36-.63.02.2-.27.86-.54,1.08-.46.14,0,.32,0,.56.05.12.03.21.01.36.07.16.07.32.14.48.22.35.1.85.66,1.31,1.06.06.06.16.12.29.2.42.37.84.73,1.24,1.08.19.16.44.36.58.47.1.08.2.16.3.24.38.3.71.55.95.74.18.13.35.26.53.4.08.09.14.17.18.25.13.05.26.1.39.15.48.34.98.61,1.47.9.27.17.55.35.8.5,0-.03-.02-.09.04-.09.64.28,1.29.52,1.94.7.26.11.5.2.7.33.78-.1,2.38.22,3.62-.09h0c.3-.05.61-.07.91-.12.29-.08.59-.15.89-.23.1,0,.21,0,.3.01.13-.08.29-.12.35-.16.46-.14.86-.26,1.27-.36.06-.05.16-.18.3-.25.28-.15.54-.31.8-.47l.47-.25.44-.32.75-.53.68-.61c.48-.38.85-.88,1.28-1.31.05-.01.09,0,.13.02.06-.19.25-.39.32-.55,0,.04,0,.06.02.07.27-.5.41-.54.69-.97.06-.1.07-.22.12-.32l.09-.14c.43-.43.65-.99.88-1.6.3-.58.55-1.2.78-1.82.17-.49.34-.66.49-1Z"/>
        <path class="cls-1" d="M15.97,28.47c.57.04,1.17-.04,1.76-.05-.63.05-1.2.24-1.76.05Z"/>
        <path class="cls-1" d="M.18,21.87c-.05.36-.1.81-.13,1.33v-1.07s.02-.53.02-.53c0-.12.03-.11.05-.15.03-.03.07-.07.11-.11.33-.35,1.03-.58,1.21-.54.25,0,.6,0,1.02.13l.75.34c.27.17.59.52.88.77v.02c-.24-.22-.49-.44-.75-.67-.23-.15-.45-.22-.68-.34-.11-.05-.24-.12-.34-.15l-.25-.04c-.16-.02-.35-.06-.46-.05-.13,0-.24,0-.37.03-.15.03-.37.11-.55.22-.18.11-.33.25-.42.37-.09.12-.13.18-.09.44Z"/>
        <path class="cls-1" d="M14.43,28.33l.08-.02h0s-.05.02-.09.02Z"/>
        <path class="cls-1" d="M1.92,26.31l.03.16c-.1-.4-.19-.79-.29-1.17.09.32.18.66.26,1.02Z"/>
        <path class="cls-1" d="M3.82,28.36c.54-.64,1.08-1.35,1.59-1.98.34-.38.69-.77,1.04-1.16.37-.4.75-.8,1.17-1.23h.01s0,0,0,0c-.64.74-1.28,1.48-1.92,2.22-.6.68-1.28,1.49-1.89,2.14Z"/>
        <path class="cls-1" d="M.35,27.27c.07.48.15,1.01.22,1.54.02.15.05.3.09.43-.05-.12-.08-.26-.11-.41-.1-.51-.2-1.01-.29-1.51.05.1.07-.02.09-.05Z"/>
        <path class="cls-1" d="M1.19,22.95c0,.08.01.16.03.25-.08-.23-.06-.48.09-.66-.05.07-.13.26-.12.41Z"/>
        <path class="cls-1" d="M3.21,30.93c-.19.02-.57.02-.93-.09.22.04.45.04.63,0,.09.04.19.07.3.09Z"/>
        <path class="cls-1" d="M7.36,26.95c.29-.34.57-.67.85-1-.31.39-.63.79-.95,1.19.04-.09.06-.16.09-.19Z"/>
      </g>
    </g>
  </g>
</svg>