<?xml version="1.0" encoding="UTF-8"?>
<svg id="Calque_2" data-name="Calque 2" xmlns="http://www.w3.org/2000/svg" viewBox="0 0 26.75 17.64">
  <defs>
    <style>
      .cls-1 {
        fill: #fff;
        stroke-width: 0px;
      }
    </style>
  </defs>
  <g id="Calque_1-2" data-name="Calque 1">
    <g id="Flèche">
      <g>
        <path class="cls-1" d="M22.97,6.31c.77-.05,1.56-.03,2.27-.05-.28,0-.57.01-.85.02.42,0,.78.01,1.22.06-.13.06-.41.01-.48.09-1.04,0-2.08-.09-3.09-.18.4-.18.65.07.93.06Z"/>
        <path class="cls-1" d="M26.75,6.43c-.1,0-.21,0-.31,0,.11,0,.21-.01.31,0Z"/>
        <path class="cls-1" d="M16.12,7.05c-.12.01-.24.02-.35.02.12-.02.23-.02.35-.02Z"/>
        <path class="cls-1" d="M21.61,6.74c-.06.01-.12.02-.19.03-.48-.02-.96-.04-1.45-.07.53.02,1.1-.05,1.64.04Z"/>
        <path class="cls-1" d="M22.13,6.9c.49,0,.98.02,1.44.1-.46-.06-.95-.09-1.44-.1Z"/>
        <path class="cls-1" d="M12.48,7.96s0,.03-.02.04c-.01,0-.03.01-.04.02-.2-.02-.39-.04-.59-.06.05,0,.09-.04.14-.04.22.02.26.09.5.04Z"/>
        <path class="cls-1" d="M16.25,7.04s0,0,.01,0c.04,0,.08,0,.12-.01,0,0,0,0,.01,0-.05,0-.1.01-.15.01Z"/>
        <path class="cls-1" d="M12.73,7.97s0,.06.03.08c-.11-.01-.22-.02-.33-.03.01,0,.03-.01.04-.02.07-.02.19,0,.27-.03Z"/>
        <path class="cls-1" d="M15.25,8.19c.07,0,.13-.06.17-.07.18.04.37.08.58.1.03-.01.1-.02.17-.05.04.02.08.04.13.06-.48,0-.96-.02-1.46-.04.13,0,.27,0,.41,0Z"/>
        <path class="cls-1" d="M3.8,7.38c.63-.04,1.37.11,1.98-.04-.72-.1-1.72-.13-1.83-.38-.11-.25.99-.02,1.56-.03q-.08-.03-.15-.05c.07.03.15.05.22.02-.15-.05-.44-.1-.52-.19l.13-.06c-.38-.19-1.1-.23-1.48-.42,1.86.61,4.45.35,6.72.3,1.27-.08,2.44-.31,3.54-.56.21-.03.71-.02,1.07,0,.63-.04,1.27-.08,1.89-.18,1.33-.11,2.63.03,4.05,0,.28,0,.67.24-.03.31-.58.08-1.17.12-1.75.12.07-.08.35-.03.48-.09-.43-.05-.79-.07-1.22-.06.28,0,.57-.01.85-.02-.71.02-1.49,0-2.27.05-.28,0-.53-.24-.93-.06,1.01.09,2.05.18,3.09.18,0,0,0,0,0,0,.46-.01.88,0,1.33,0-.14.01-.28.02-.4.01.65.07,1.29.08,1.93.1-1.81.27-3.82.09-5.66.18.52.13,1.2-.06,1.65.1-.84,0-1.68-.02-2.55-.05.06,0,.13-.02.19-.03-.53-.09-1.11-.02-1.64-.04-.05,0-.1,0-.14,0,.05,0,.1,0,.14,0,.49.03.97.05,1.45.07-.22.03-.45.03-.73.02.15.05.37.08.58.1.28,0,.57,0,.85.02-.44,0-.86.04-1.26.11.59.05,1.2.06,1.79.09-.33,0-.65.02-.98.03-.55-.03-1.1-.05-1.65-.07.02,0,.04,0,.06,0-.04,0-.08,0-.13,0-.22,0-.44-.01-.66-.01-.2,0-.39.04-.58.08-.03,0-.07,0-.1,0,.06-.02.09-.05-.03-.06-.51-.07-1.06.05-1.64-.05-.15-.03-.36-.01-.58,0-.06-.02-.09,0-.12.01-.05,0-.1,0-.14.01-.12,0-.24,0-.35.02.12,0,.23-.01.35-.02.04,0,.09,0,.13,0-.03.02-.06.05-.13.05.82.02,1.66.05,2.51.03-.05.02-.12.04-.15.05.08-.02.17-.04.25-.06.27,0,.55-.01.82-.03-.08.01-.16.03-.22.06.78.01,1.57,0,2.36-.03.74.04,1.47.07,2.2.1-.39-.07-.8-.11-1.22-.13,1.11-.03,2.23-.05,3.34.02-.2.09-.48.15-.6.27,0,.06.37.08.16.11-.76.16-1.3.02-1.61.33-.06.09.79.39.52.45-.23.03-.64.06-1.08.08-.13,0-.26-.01-.4-.01-.02,0-.05.01-.08.03-.48.01-.94.02-1.19,0-.09,0-.19-.01-.28-.02-.05-.02-.09-.04-.12-.07-.06.02-.12.04-.18.05-.25-.02-.5-.03-.74-.04-.14-.03-.27-.06-.41-.08,0,.02.02.05,0,.07-.31,0-.61-.02-.91-.02-.12-.03-.24-.06-.34-.12-.33.18-1.09.07-1.62.09h0c-.27,0-.53,0-.81,0-.04-.02-.09-.04-.13-.06-.07.03-.14.03-.17.05-.22-.02-.4-.06-.58-.1-.03.01-.1.07-.17.07-.14,0-.28,0-.41,0-.16,0-.32-.01-.48-.02-.54-.03-1.07-.07-1.6-.12-.02-.02-.02-.05-.03-.08-.08.04-.2,0-.27.03.01,0,.02-.02.02-.04-.24.05-.29-.02-.5-.05-.05,0-.09.03-.14.04-.02,0-.05,0-.07,0-.25-.13-.49-.08-.76-.09-.27-.03-.55-.07-.82-.1-.22-.02-.3-.11-.45-.16Z"/>
        <path class="cls-1" d="M11.76,7.94c-.26-.03-.51-.06-.76-.09.27,0,.52-.04.76.09Z"/>
        <path class="cls-1" d="M18.72,8.14c.1.05.21.09.34.12-.65-.01-1.3-.01-1.96-.02h0c.53-.03,1.29.08,1.62-.1Z"/>
        <path class="cls-1" d="M12.46,8s-.02.01-.04.02c0,0,0,0,0,0,.01,0,.02-.01.04-.02Z"/>
        <path class="cls-1" d="M19.97,7.06s.04,0,.06,0c-.16.01-.32.02-.48.03.13-.02.27-.03.42-.03Z"/>
        <path class="cls-1" d="M21.68,7.13c.33-.01.65-.02.98-.03.42.02.83.05,1.22.13-.73-.02-1.46-.06-2.2-.1Z"/>
        <path class="cls-1" d="M19.98,8.21c.13.02.27.05.41.08-.14,0-.27-.01-.41-.01.03-.02,0-.05,0-.07Z"/>
        <path class="cls-1" d="M18.63,7.12s.07,0,.1,0c-.08.02-.17.04-.25.06.03-.01.1-.03.15-.05Z"/>
        <path class="cls-1" d="M21.42,8.35c-.1,0-.2-.01-.3-.02.06-.01.12-.03.18-.05.03.03.07.05.12.07Z"/>
        <path class="cls-1" d="M22.98,8.34c.14,0,.27,0,.4.01-.16,0-.32.01-.48.02.04-.02.07-.04.08-.03Z"/>
      </g>
      <g>
        <path class="cls-1" d="M13.85,14.96c.42.33.79.72,1.15,1.05-.14-.13-.29-.26-.43-.39.22.2.37.39.53.65-.12,0-.21-.19-.33-.14-.51-.5-.91-1.11-1.31-1.69.38,0,.24.39.39.52Z"/>
        <path class="cls-1" d="M15.57,16.91c-.05-.05-.1-.1-.15-.14.06.04.12.09.15.14Z"/>
        <path class="cls-1" d="M9.75,12.41c-.07-.05-.14-.09-.19-.15.08.04.13.09.19.15Z"/>
        <path class="cls-1" d="M12.74,14.75s-.09-.03-.13-.06c-.21-.25-.42-.51-.63-.78.24.28.59.48.76.83Z"/>
        <path class="cls-1" d="M12.82,15.17c.24.23.45.5.59.81-.16-.29-.37-.55-.59-.81Z"/>
        <path class="cls-1" d="M7.01,11.61s-.03.02-.05.03c-.01,0-.02,0-.04,0-.07-.12-.15-.23-.22-.35.03.02.08,0,.11.03.08.13.03.23.2.29Z"/>
        <path class="cls-1" d="M9.82,12.47s0,0,.01,0c.02.02.05.03.07.05,0,0,0,0,0,.01-.03-.02-.06-.03-.09-.06Z"/>
        <path class="cls-1" d="M7.13,11.74s-.06.06-.07.1c-.04-.07-.08-.13-.13-.2.01,0,.03,0,.04,0,.06.01.08.1.16.1Z"/>
        <path class="cls-1" d="M8.11,13.2s.13,0,.16,0c.05.13.1.26.18.39.03,0,.07.03.13.03,0,.04,0,.09,0,.13-.22-.24-.45-.49-.67-.75.07.06.14.13.2.2Z"/>
        <path class="cls-1" d="M3.42,6.78c.35.26.55.78,1.01.92-.25-.45-.7-.98-.48-1.29.21-.32.5.46.79.72q0-.06-.02-.13c0,.06.02.13.08.13-.02-.13-.1-.32-.06-.45h.13c.01-.38-.29-.77-.28-1.16.26,1.55,1.79,2.53,2.94,3.58.7.52,1.51.86,2.31,1.13.14.07.36.33.51.52.35.26.7.52,1.11.72.77.53,1.25,1.3,1.97,1.96.14.13.07.58-.34.32-.37-.19-.69-.44-.98-.73.12-.05.2.14.33.14-.16-.26-.31-.45-.53-.65.14.13.29.26.43.39-.36-.33-.73-.72-1.15-1.05-.14-.13,0-.51-.39-.52.4.58.8,1.19,1.31,1.69,0,0,0,0,0,0,.24.21.43.43.65.64-.08-.06-.16-.11-.21-.18.24.39.54.72.83,1.04-1.16-.6-1.95-1.76-2.94-2.55.11.39.64.52.69.91-.41-.41-.8-.84-1.18-1.29.04.02.08.04.13.06-.16-.36-.52-.55-.76-.83-.02-.03-.04-.05-.06-.08.02.03.04.05.06.08.21.27.42.53.63.78-.14-.07-.25-.19-.37-.34.02.13.1.26.18.39.13.14.27.28.4.43-.22-.2-.47-.37-.72-.5.23.34.52.64.78.96-.17-.15-.34-.3-.51-.44-.24-.29-.48-.59-.73-.87.01,0,.02.02.04.03-.02-.02-.04-.04-.06-.06-.1-.11-.2-.22-.3-.33-.1-.09-.23-.15-.36-.2-.02-.02-.03-.03-.05-.05.06,0,.1,0,.05-.08-.17-.32-.57-.46-.75-.85-.05-.1-.16-.19-.29-.27,0-.05-.04-.05-.07-.05-.03-.02-.06-.04-.08-.06-.06-.05-.12-.11-.19-.15.06.05.13.1.19.15.02.02.05.04.07.06-.04,0-.08.02-.11-.01.38.41.76.85,1.18,1.25-.05,0-.1-.02-.13-.02.06.02.12.04.18.06.14.13.28.25.43.37-.05-.02-.11-.04-.18-.04.37.39.77.75,1.18,1.11.32.4.64.79.96,1.17-.11-.27-.28-.5-.46-.73.57.51,1.13,1.03,1.6,1.65-.19,0-.39-.07-.58,0-.06.06.1.26-.04.19-.54-.2-.65-.61-1.14-.43-.12.06-.03.8-.23.73-.14-.08-.37-.25-.61-.45-.05-.07-.11-.14-.18-.21,0-.01-.03,0-.07,0-.25-.22-.47-.44-.58-.58-.04-.05-.08-.11-.11-.16,0-.04,0-.09.01-.13-.05,0-.1-.02-.14-.03-.1-.14-.21-.27-.32-.4-.04-.1-.07-.19-.11-.28-.02.02-.04.06-.07.07-.14-.16-.28-.31-.42-.47-.03-.09-.05-.18-.04-.29-.35.03-.6-.46-.88-.69h0c-.13-.12-.25-.26-.38-.39,0-.04,0-.08,0-.13-.06,0-.1-.03-.13-.03-.08-.13-.13-.26-.18-.39-.03,0-.12.03-.16,0-.06-.08-.13-.14-.2-.2-.07-.08-.14-.17-.21-.26-.23-.3-.44-.6-.65-.91.02-.03.04-.06.07-.1-.08,0-.1-.09-.16-.1.02,0,.03-.01.05-.03-.17-.07-.12-.16-.2-.29-.02-.02-.08-.01-.11-.03,0-.01-.02-.03-.03-.04.02-.25-.15-.33-.28-.46-.1-.17-.2-.33-.29-.5-.08-.13-.03-.26-.05-.39Z"/>
        <path class="cls-1" d="M6.68,11.25c-.09-.15-.19-.31-.28-.46.13.14.29.21.28.46Z"/>
        <path class="cls-1" d="M9.85,14.84c0,.11,0,.2.04.29-.3-.33-.62-.64-.93-.97h0c.28.22.54.71.88.68Z"/>
        <path class="cls-1" d="M6.97,11.64s-.02,0-.04,0c0,0,0,0,0,0,.01,0,.03,0,.04,0Z"/>
        <path class="cls-1" d="M11.6,14.29s.02.02.03.03c-.09-.06-.18-.13-.27-.2.09.04.16.1.24.17Z"/>
        <path class="cls-1" d="M12.37,15.2c.17.15.34.29.51.44.18.23.34.46.46.73-.33-.38-.64-.78-.96-1.17Z"/>
        <path class="cls-1" d="M10.38,15.52c.04.09.07.19.11.28-.06-.07-.12-.14-.18-.21.03,0,.05-.05.07-.07Z"/>
        <path class="cls-1" d="M10.89,13.71s.03.03.05.05c-.06-.02-.12-.04-.18-.06.03,0,.09.01.13.02Z"/>
        <path class="cls-1" d="M10.94,16.37c-.04-.06-.08-.11-.12-.17.04.02.09.03.14.03-.02.05-.02.09-.01.13Z"/>
        <path class="cls-1" d="M11.7,17.12c.06.07.13.14.18.21-.08-.07-.17-.14-.25-.21.04,0,.07,0,.07,0Z"/>
      </g>
      <g>
        <path class="cls-1" d="M2.73,10.01c-.35.41-.76.76-1.1,1.1.14-.14.28-.27.41-.41-.21.21-.41.35-.68.5,0-.12.2-.2.15-.32.53-.48,1.15-.85,1.75-1.22-.02.38-.4.22-.54.36Z"/>
        <path class="cls-1" d="M.69,11.63c.05-.05.1-.1.15-.15-.05.06-.09.11-.15.15Z"/>
        <path class="cls-1" d="M5.49,6.05c.05-.07.1-.13.16-.19-.04.07-.1.13-.16.19Z"/>
        <path class="cls-1" d="M3,8.92s.04-.09.06-.12c.26-.2.53-.39.81-.59-.29.22-.51.57-.87.71Z"/>
        <path class="cls-1" d="M2.57,8.97c-.24.23-.52.42-.84.55.3-.14.57-.34.84-.55Z"/>
        <path class="cls-1" d="M6.42,3.36s-.02-.03-.03-.05c0-.01,0-.02,0-.04.12-.07.24-.14.36-.2-.02.03-.01.08-.04.11-.13.07-.23.02-.3.18Z"/>
        <path class="cls-1" d="M5.43,6.11s0,0,0,.01c-.02.02-.03.05-.05.07,0,0,0,0-.01,0,.02-.03.04-.06.06-.08Z"/>
        <path class="cls-1" d="M6.29,3.46s-.06-.06-.09-.08c.07-.04.13-.08.2-.12,0,.01,0,.03,0,.04-.02.06-.11.08-.11.16Z"/>
        <path class="cls-1" d="M4.78,4.37s0,.13-.01.16c-.13.04-.26.08-.4.16,0,.03-.04.07-.04.13-.04,0-.09-.01-.13,0,.25-.21.51-.42.79-.63-.06.07-.13.13-.21.19Z"/>
        <path class="cls-1" d="M11.43,0c-.28.34-.81.51-.97.96.47-.23,1.01-.65,1.32-.42.31.23-.48.48-.76.76q.06,0,.13,0c-.06,0-.13,0-.13.07.13,0,.33-.09.45-.03v.13c.38.03.78-.25,1.17-.22-1.56.18-2.62,1.66-3.73,2.76-.56.68-.93,1.47-1.24,2.25-.07.13-.34.34-.55.49-.28.34-.56.68-.78,1.07-.56.74-1.36,1.18-2.06,1.87-.14.14-.58.04-.3-.36.21-.36.48-.67.77-.94.04.12-.15.2-.15.32.27-.15.47-.29.68-.5-.14.14-.28.27-.41.41.34-.34.75-.69,1.1-1.1.14-.14.51.02.54-.36-.6.37-1.23.74-1.75,1.22,0,0,0,0,0,0-.23.22-.45.41-.67.62.06-.08.12-.16.19-.2-.4.22-.74.5-1.08.78.65-1.13,1.86-1.85,2.7-2.81-.39.09-.56.61-.94.64.43-.39.88-.75,1.35-1.11-.02.04-.04.08-.06.12.36-.14.58-.49.87-.71.03-.02.05-.04.08-.06-.03.02-.05.04-.08.06-.28.2-.55.39-.81.59.08-.13.2-.24.36-.35-.13,0-.26.08-.4.16-.15.13-.3.25-.45.37.21-.21.4-.45.53-.7-.35.21-.67.49-1,.73.16-.16.31-.32.47-.48.3-.22.61-.45.91-.69,0,.01-.02.02-.03.03.02-.02.04-.04.06-.06.12-.09.23-.19.35-.29.1-.1.16-.22.22-.35.02-.02.03-.03.05-.05,0,.06,0,.1.08.06.33-.15.49-.54.88-.7.1-.04.2-.15.29-.28.05,0,.05-.03.05-.07.02-.03.04-.05.06-.08.06-.06.12-.11.16-.19-.06.06-.11.12-.16.19-.02.02-.04.04-.06.07,0-.04-.01-.08.02-.11-.43.36-.89.71-1.31,1.12,0-.05.02-.1.02-.13-.02.06-.05.12-.07.18-.14.13-.27.27-.39.41.03-.05.05-.11.05-.17-.41.35-.79.73-1.17,1.12-.41.3-.82.6-1.22.9.27-.1.52-.25.75-.42-.53.55-1.08,1.08-1.72,1.51.01-.19.09-.39.04-.57-.06-.06-.26.08-.19-.05.23-.53.65-.62.49-1.11-.06-.12-.8-.07-.72-.27.09-.14.27-.36.48-.58.07-.05.15-.11.22-.17.01,0,.01-.03,0-.07.23-.24.46-.45.61-.54.06-.04.11-.07.16-.11.04,0,.09,0,.13.02,0-.05.02-.1.04-.14.14-.1.28-.2.42-.3.1-.03.2-.06.29-.1-.02-.02-.06-.04-.07-.07.17-.13.33-.26.49-.4.09-.03.18-.04.29-.03,0-.35.49-.58.73-.85h0c.14-.13.28-.25.42-.37.04,0,.08,0,.13,0,0-.06.04-.1.04-.13.13-.07.27-.11.4-.16,0-.03-.02-.13.01-.16.08-.06.15-.12.21-.19.09-.07.18-.13.27-.19.31-.22.62-.41.94-.6.03.02.06.05.09.08,0-.08.09-.1.11-.16,0,.02,0,.03.03.05.08-.16.17-.11.3-.18.02-.02.02-.08.03-.11.01,0,.03-.02.04-.02.25.03.33-.13.48-.25.17-.09.34-.18.52-.27.13-.07.26-.02.39-.03Z"/>
        <path class="cls-1" d="M6.8,3.04c.16-.09.32-.17.48-.25-.14.12-.22.28-.48.25Z"/>
        <path class="cls-1" d="M3.06,6.02c-.1-.01-.2,0-.29.03.34-.29.67-.58,1.01-.88h0c-.24.28-.74.51-.73.86Z"/>
        <path class="cls-1" d="M6.4,3.31s0-.02,0-.04c0,0,0,0,0,0,0,.01,0,.03,0,.04Z"/>
        <path class="cls-1" d="M3.51,7.8s-.02.02-.03.03c.07-.09.14-.17.21-.26-.04.08-.11.16-.18.23Z"/>
        <path class="cls-1" d="M2.57,8.52c-.16.16-.31.32-.47.48-.23.17-.48.32-.75.42.4-.31.81-.6,1.22-.9Z"/>
        <path class="cls-1" d="M2.35,6.52c-.09.04-.19.06-.29.1.08-.06.15-.11.22-.17,0,.03.04.05.07.07Z"/>
        <path class="cls-1" d="M4.13,7.12s-.03.03-.05.05c.03-.06.05-.12.07-.18,0,.03-.02.08-.02.13Z"/>
        <path class="cls-1" d="M1.47,7.03c.06-.04.12-.08.17-.12-.02.04-.03.08-.04.14-.05-.02-.09-.02-.13-.02Z"/>
        <path class="cls-1" d="M.69,7.76c-.07.06-.14.12-.22.17.07-.08.15-.16.23-.24,0,.04,0,.07,0,.07Z"/>
      </g>
    </g>
  </g>
</svg>