<?xml version="1.0" encoding="UTF-8"?>
<svg id="Calque_2" data-name="Calque 2" xmlns="http://www.w3.org/2000/svg" viewBox="0 0 32.8 31.71">
  <defs>
    <style>
      .cls-1 {
        fill: #fff;
        stroke-width: 0px;
      }
    </style>
  </defs>
  <g id="Calque_1-2" data-name="Calque 1">
    <g id="Calendrier">
      <g>
        <path class="cls-1" d="M.71,16.92c-.02-1.75-.04-3.48-.05-5.19,0-.85,0-1.7,0-2.53-.01-.75-.02-1.84.27-2.77-.11.38-.19.76-.23,1.14-.04.38-.05.8-.04,1.09v1.9c.01-.48.01-.93.01-1.38,0-.45,0-.86.04-1.43.11-1.07.5-2.12,1.19-3.06-.17.31-.44.79-.62,1.27-.19.47-.27.93-.26,1.12-.14.67-.13,1.39-.13,1.93l-.02,1.74c-.02,1.16-.04,2.32-.06,3.48-.06,2.3-.12,4.6-.18,6.87-.27-1.8.1-2.91.1-4.18Z"/>
        <path class="cls-1" d="M7.17,2.06c-.55.02-1.09.07-1.6.22.54-.17,1.1-.22,1.6-.22Z"/>
        <path class="cls-1" d="M22.05,29.75c.54-.01,1.07-.02,1.58-.03-.52.03-1.05.03-1.58.03Z"/>
        <path class="cls-1" d="M1.35,23.02c.02.29.03.57.05.85-.01.51,0,1.12.09,1.69.12.57.31,1.13.59,1.65.56,1.04,1.44,1.93,2.53,2.46-1.18-.58-2.22-1.57-2.79-2.82-.29-.62-.46-1.29-.51-1.97-.04-.7.01-1.25.04-1.87Z"/>
        <path class="cls-1" d="M1.59,20.71c-.01-2.18.03-4.39.15-6.45-.09,2.07-.13,4.24-.15,6.45Z"/>
        <path class="cls-1" d="M30.01,20.44s-.04-.03-.05-.09c0-.07-.02-.12-.03-.17l.09-2.63c.01.22.05.42.06.64-.03.97-.14,1.17-.07,2.26Z"/>
        <path class="cls-1" d="M21.46,29.76h-.06c-.18.02-.36.02-.54.03-.02,0-.04,0-.07,0,.23,0,.44-.01.66-.02Z"/>
        <path class="cls-1" d="M30,21.56s-.09.04-.12.11l.05-1.49.03.16c.03.33-.01.85.04,1.21Z"/>
        <path class="cls-1" d="M25.94,28.03c-.32,0-.6.09-.75.11-.82-.06-1.64-.11-2.61-.15-.15.02-.47.02-.77.07-.18-.03-.37-.06-.57-.09,1.07,0,2.14.02,3.23.02.53,0,1.07,0,1.61.01.38,0,.75-.07,1.12-.18-.4.14-.78.21-1.27.2Z"/>
        <path class="cls-1" d="M7.59,3.49c2.84-.06,6.12.17,8.89-.07-3.25-.14-7.72-.2-8.2-.57-.48-.38,4.44-.03,6.98-.05q-.34-.04-.67-.08c.34.04.67.08.97.04-.67-.08-1.98-.15-2.35-.28l.6-.09c-1.71-.28-4.92-.34-6.63-.63,4.17.46,9.16.59,14.38.59,1.3,0,2.62,0,3.95-.01.62-.02,1.46,0,2.16.21.72.2,1.41.53,2.01.98,1.21.89,2.07,2.24,2.35,3.71.07.37.1.74.12,1.11v.97c.02.65.02,1.29.03,1.92.06,2.84.18,5.57.33,8.22.08,1.3.16,2.6.24,3.9l.07.95c.01.36.02.79-.03,1.18-.08.8-.31,1.59-.67,2.32-.27.55-.88,1.42-1.8,2.12-.91.71-2.11,1.2-3.16,1.33-.23.04-.46.08-.69.09-.23.02-.48.03-.63.03l-1.06.03c-.71.02-1.41.04-2.12.06-1.41.04-2.82.1-4.23.17-2.99.09-5.93.08-8.92.05-.75,0-1.5-.01-2.25-.02-.98,0-2.06-.21-3-.64-1.9-.86-3.46-2.56-4.05-4.66-.27-.82-.2-1.92-.09-2.1.05-.09.1-.09.16.21.07.33.1.95.42,1.91.55,1.57,1.66,2.9,3.08,3.71.71.41,1.49.69,2.3.82.39.07.83.09,1.2.09h.99c-.15.06-.54.07-.97.08-.21,0-.53-.01-.77-.02-.26-.03-.49-.05-.68-.06.3.05.6.13.89.14l.44.03h.35c.46.02.9.03,1.34.04.89,0,1.76,0,2.71.01l-3.81.03c3.17-.02,6.68,0,10.15-.08,1.27,0,2.38.36,4.18.1-4.52-.13-9.19-.27-13.83-.27h.02c-.55-.01-.95.02-1.62-.03-.61-.05-1.22-.17-1.78-.4-1.14-.42-2.14-1.16-2.9-2.13.49.6,1.09,1.1,1.65,1.49-1.49-1.01-2.52-2.62-2.81-4.35-.08-.42-.1-.89-.1-1.29v-1.08s.03-2.16.03-2.16c.04,1.03.08,2.05.12,3.08,0,1.13.31,2.45.98,3.48.65,1.06,1.63,1.91,2.76,2.43.57.25,1.17.44,1.8.51.3.04.64.05.91.05h.81c4.3,0,8.61.03,12.71-.04-2.31-.19-5.38.08-7.39-.16,3.76,0,7.54.03,11.41.08-.28.02-.56.03-.85.05.6.03,1.21.05,1.82.06.64.01,1.42-.06,2.09-.29,1.38-.44,2.56-1.4,3.32-2.55.13-.21.27-.42.38-.65-.1.22-.24.43-.38.65-.71,1.06-1.75,1.88-2.91,2.33-.58.23-1.2.35-1.81.4-.65.04-1.11,0-1.67,0,.51-.03.95-.02,1.58-.06.61-.05,1.26-.16,1.91-.42-.37.1-.82.22-1.32.28-.5.08-1.06.04-1.52.03-1.27,0-2.55-.02-3.81-.02.97-.02,1.93-.03,2.89-.05.47-.02.94-.03,1.4-.05.49-.03.98-.09,1.44-.24-.69.16-1.43.14-2.08.13l-2.01-.03c-1.34-.02-2.69-.03-4.02-.05l4.38-.04,1.84.03c.6.02,1.28,0,1.9-.15,1.27-.3,2.43-1.06,3.21-2.14l-.18.25c.12-.17.25-.32.35-.49.57-.87.89-1.9.92-2.95,0-.9-.05-1.76-.11-2.62v-.44c.03.28.07.41.09-.12.11-2.28-.08-4.74.07-7.35.04-.68.02-1.61-.01-2.6.03-.27.01-.41-.02-.54l-.02-.65c0-.53,0-1.06-.03-1.58.01.51.02,1.04.03,1.58v.59c-.02-.14-.06-.28-.06-.57-.03,3.65-.07,7.44-.05,11.25-.03-.24-.06-.54-.08-.69.03.38.06.75.08,1.12l.02,1.85c.01.6.02,1.26-.11,1.9.06-.38.07-.74.03-1.05-.05,1.82-1.06,3.58-2.63,4.53-.77.49-1.67.78-2.58.82-.9.04-1.77.02-2.66.04-3.31-.05-6.6-.1-9.86-.15,1.76.11,3.6.16,5.48.19-2.5.01-4.99.03-7.49.04l-3.74-.02c-.61-.01-1.26.02-1.91-.12-.64-.13-1.26-.38-1.81-.72.86.41,2.14.56,2.69.37-.05-.04-1.54-.32-.66-.23.77.06,1.59-.04,2.31-.04.73-.02,1.39-.03,2-.05,1.21-.04,2.17-.1,2.86-.34.26-.13-3.55-.58-2.32-.68,1.03-.04,2.87-.08,4.86-.11.58,0,1.17.01,1.79.02.08,0,.21-.02.37-.05,2.15-.02,4.21-.02,5.34,0,.42.01.84.02,1.26.03.22.03.41.06.55.1.24-.04.57-.05.74-.08.79,0,1.57-.25,2.2-.72.37-.23.71-.53.99-.88-.03,0-.1.03-.08-.06.28-.41.47-.87.57-1.36.05-.24.07-.49.08-.74v-1.02c.04-.55.1-1.06.18-1.51-.26-1.48-.1-4.89-.14-7.26h0c0-1.19,0-2.39.01-3.61.03-.2.06-.39.09-.57-.04-.3-.05-.62-.07-.77.02-.47.04-.91.06-1.34.01-.32.01-.64-.04-.95-.04-.11-.19-.28-.28-.5-.17-.44-.43-.83-.74-1.16-.35-.4-.77-.73-1.26-.97-.41-.2-.85-.33-1.3-.39l-.34-.03h-.44s-.9-.04-.9-.04c-1.19-.03-2.38-.07-3.57-.1-.08-.03-.09-.08-.11-.12-.37.05-.88.01-1.21.04.06-.01.1-.03.09-.05-1.08.07-1.29-.03-2.26-.07-.22,0-.42.04-.64.06h-.32c-1.1-.2-2.2-.14-3.42-.14l-3.67-.15c-.97-.04-1.34-.16-2.01-.24Z"/>
        <path class="cls-1" d="M30.03,17.22l.13-3.42c0,1.23.06,2.32-.13,3.42Z"/>
        <path class="cls-1" d="M10.37,28.1c-.45-.08-.96-.14-1.51-.17,2.91,0,5.81.02,8.77.03h0c-2.37.05-5.78-.12-7.26.15Z"/>
        <path class="cls-1" d="M29.96,20.34l-.03-.16h0s.02.1.03.16Z"/>
        <path class="cls-1" d="M4.87,29.2l-.25-.13c.64.33,1.34.52,2.04.58-.57-.03-1.2-.17-1.79-.45Z"/>
        <path class="cls-1" d="M1.93,22.7l-.04-4.38c.03-1.88.08-3.72.19-5.48-.05,3.26-.1,6.54-.15,9.86Z"/>
        <path class="cls-1" d="M5.59,27.63c-.35-.21-.66-.49-.91-.8.28.29.6.53.96.71-.08,0-.04.06-.05.09Z"/>
        <path class="cls-1" d="M10.78,29.63h-.44c.37-.02.75-.05,1.12-.08-.15.02-.45.05-.69.08Z"/>
        <path class="cls-1" d="M3.77,23.87c0,.2-.02.5,0,.62,0,.14,0,.29.03.43-.05-.16-.07-.33-.12-.51.04-.12.08-.33.1-.54Z"/>
        <path class="cls-1" d="M3.75,16.9c0-.61.01-1.21.02-1.78,0,.71.02,1.44.03,2.15-.03-.16-.06-.29-.05-.37Z"/>
      </g>
      <g>
        <path class="cls-1" d="M26.17,10.43c.96-.07,1.92-.05,2.8-.08-.35,0-.7.02-1.05.03.52-.01.97.02,1.5.09-.16.09-.51.02-.59.13-1.28,0-2.57-.14-3.81-.27.5-.27.8.1,1.15.1Z"/>
        <path class="cls-1" d="M30.84,10.6c-.13,0-.25,0-.38,0,.13-.01.26-.02.38,0Z"/>
        <path class="cls-1" d="M17.7,11.53c-.15.02-.29.03-.44.03.14-.03.29-.03.44-.03Z"/>
        <path class="cls-1" d="M24.49,11.07c-.08.02-.15.04-.23.05-.59-.03-1.19-.07-1.79-.11.66.03,1.36-.08,2.02.06Z"/>
        <path class="cls-1" d="M25.13,11.32c.6-.01,1.21.03,1.78.15-.57-.09-1.17-.13-1.78-.15Z"/>
        <path class="cls-1" d="M13.21,12.9s0,.04-.03.05c-.02,0-.03.02-.05.03-.24-.03-.48-.06-.73-.09.06-.01.12-.05.18-.06.27.03.32.14.62.07Z"/>
        <path class="cls-1" d="M17.86,11.52s.01,0,.02-.01c.05,0,.1-.01.15-.02,0,0,.01,0,.02,0-.06.01-.12.02-.18.02Z"/>
        <path class="cls-1" d="M13.52,12.91s0,.09.03.12c-.14-.02-.27-.03-.41-.05.02,0,.03-.02.04-.03.09-.03.23.01.33-.04Z"/>
        <path class="cls-1" d="M16.63,13.25c.09,0,.17-.09.21-.11.23.06.45.11.72.15.04-.02.13-.02.21-.07.05.03.1.06.16.09-.59-.01-1.19-.03-1.81-.06.17,0,.34,0,.51,0Z"/>
        <path class="cls-1" d="M2.49,12.03c.78-.06,1.69.17,2.45-.07-.89-.14-2.13-.2-2.26-.57-.13-.38,1.22-.03,1.92-.05q-.09-.04-.19-.08c.09.04.19.08.27.04-.18-.08-.54-.15-.65-.28l.16-.09c-.47-.28-1.36-.34-1.83-.63,2.3.91,5.5.53,8.3.45,1.56-.13,3.02-.46,4.38-.84.26-.05.87-.02,1.32,0,.78-.06,1.56-.13,2.34-.28,1.65-.17,3.24.04,5,0,.35,0,.83.36-.03.47-.72.13-1.44.18-2.17.18.08-.12.43-.05.59-.13-.54-.07-.98-.1-1.5-.09.35,0,.7-.02,1.05-.03-.87.02-1.84,0-2.8.08-.35,0-.66-.36-1.15-.1,1.25.13,2.53.27,3.81.27,0,0,0,0,0,0,.57-.02,1.09,0,1.64,0-.17.02-.35.04-.5.02.8.1,1.59.13,2.39.15-2.23.4-4.72.13-6.99.28.64.19,1.48-.08,2.04.16-1.04,0-2.08-.03-3.15-.08.08-.01.16-.03.23-.05-.66-.14-1.37-.02-2.03-.06-.06,0-.12,0-.18-.01.06,0,.12,0,.18.01.61.04,1.2.08,1.79.11-.27.04-.56.05-.9.02.18.08.45.11.72.15.35,0,.7.01,1.05.02-.54.01-1.07.07-1.55.16.73.08,1.48.09,2.21.13-.4.01-.81.03-1.21.04-.67-.04-1.35-.07-2.04-.1.03,0,.05,0,.08,0-.05,0-.1,0-.16,0-.27,0-.54-.02-.81-.02-.24,0-.48.05-.72.11-.04,0-.08,0-.12,0,.08-.04.11-.07-.03-.09-.63-.11-1.31.08-2.03-.07-.19-.04-.44-.02-.72.01-.07-.03-.11-.01-.15.02-.06,0-.12.01-.18.02-.15,0-.29,0-.44.03.14,0,.29-.02.44-.03.05,0,.11,0,.16,0-.04.03-.08.07-.16.07,1.01.03,2.05.07,3.1.05-.06.03-.15.06-.19.08.1-.03.21-.06.31-.08.34,0,.68-.02,1.02-.04-.1.02-.2.05-.28.1.97.02,1.94-.01,2.91-.05.91.05,1.82.11,2.72.15-.49-.11-.99-.16-1.51-.19,1.38-.05,2.75-.08,4.13.04-.25.13-.59.23-.74.4,0,.08.45.11.19.16-.94.24-1.61.03-1.99.5-.07.13.98.58.64.68-.28.04-.79.08-1.34.11-.16-.01-.32-.02-.49-.02-.02,0-.06.02-.1.05-.59.02-1.16.02-1.47,0-.12-.01-.23-.02-.35-.03-.06-.03-.11-.06-.15-.1-.07.03-.15.06-.22.07-.31-.02-.61-.04-.92-.06-.17-.04-.34-.09-.5-.12,0,.03.03.07,0,.1-.38-.01-.75-.02-1.13-.03-.15-.04-.29-.09-.42-.17-.41.26-1.35.1-2,.14h0c-.33,0-.66,0-1,0-.06-.03-.11-.06-.16-.09-.08.04-.17.05-.21.07-.27-.04-.49-.09-.72-.15-.04.02-.12.11-.21.11-.18,0-.35,0-.51,0-.19,0-.39-.02-.59-.03-.67-.05-1.33-.11-1.98-.19-.02-.03-.03-.08-.03-.12-.1.05-.24.01-.33.04.02-.01.03-.03.03-.05-.3.07-.35-.03-.62-.07-.06,0-.12.04-.18.06-.03,0-.06,0-.09-.01-.3-.19-.61-.13-.94-.13-.34-.05-.67-.1-1.01-.15-.27-.04-.37-.16-.55-.24Z"/>
        <path class="cls-1" d="M12.32,12.88c-.32-.04-.63-.09-.94-.13.34,0,.64-.06.94.13Z"/>
        <path class="cls-1" d="M20.92,13.18c.12.08.26.14.42.17-.8-.02-1.6-.02-2.42-.03h0c.65-.05,1.59.12,2-.15Z"/>
        <path class="cls-1" d="M13.18,12.95s-.03.02-.04.03c0,0,0,0,0,0,.01-.01.03-.02.05-.03Z"/>
        <path class="cls-1" d="M22.46,11.55s.05,0,.08,0c-.2.02-.39.04-.59.05.16-.03.33-.04.51-.05Z"/>
        <path class="cls-1" d="M24.58,11.65c.4-.02.8-.03,1.21-.04.52.03,1.03.08,1.51.19-.9-.04-1.8-.09-2.72-.15Z"/>
        <path class="cls-1" d="M22.47,13.28c.17.03.33.08.5.12-.17,0-.34-.02-.5-.02.03-.03,0-.07,0-.1Z"/>
        <path class="cls-1" d="M20.81,11.64s.08,0,.12,0c-.1.03-.21.05-.31.08.04-.02.13-.05.19-.08Z"/>
        <path class="cls-1" d="M24.26,13.49c-.12-.01-.25-.02-.37-.03.07-.02.15-.04.22-.07.04.04.09.08.15.1Z"/>
        <path class="cls-1" d="M26.18,13.48c.17,0,.33,0,.49.02-.2.01-.4.02-.59.03.05-.03.08-.06.1-.05Z"/>
      </g>
      <g>
        <path class="cls-1" d="M24.2,17.48c.49.21.84.65,1.05,1.09-.09-.17-.19-.34-.32-.49.18.22.28.46.3.76-.11-.05-.11-.25-.24-.23-.27-.57-.69-1.14-1.34-1.46.36-.17.39.26.54.34Z"/>
        <path class="cls-1" d="M25.23,19.58c0-.07-.01-.13-.01-.19.02.06.03.13.01.19Z"/>
        <path class="cls-1" d="M21.63,19.25s.01.09,0,.13c-.02-.05-.02-.09,0-.13Z"/>
        <path class="cls-1" d="M23.25,17.79s-.07.03-.1.04c-.22-.05-.47-.08-.72-.05.26-.05.57-.17.82,0Z"/>
        <path class="cls-1" d="M23.42,18.08c.2.05.38.21.44.41-.08-.19-.24-.33-.44-.41Z"/>
        <path class="cls-1" d="M22.95,19.57h0s0,0,0,0c0,0-.04.04-.04.04.04-.05.04-.05.04-.05Z"/>
        <path class="cls-1" d="M21.64,19.2h-.01s0-.06,0-.06h0s0,.04,0,.06Z"/>
        <rect class="cls-1" x="22.95" y="19.57" width="0" height="0" transform="translate(-7.12 21.96) rotate(-45)"/>
        <path class="cls-1" d="M22.97,19.58h0s-.02,0-.03,0h0s0,0,0,0c-.02,0,.07,0,.01,0,0,0,.01,0,.02,0Z"/>
        <path class="cls-1" d="M23.8,19.6c.05.18-.2.24-.08.47.24-.07.34-.36.71-.39.4-.02-.02.45-.13.63l.1-.02c-.05.01-.1.02-.07.07.1-.02.23-.11.36-.11l.06.1c.35-.08.51-.51.78-.77-.46.65-.82,1.12-1.31,1.53-.47.4-1.17.68-1.83.53-.73-.06-1.58-.33-2.25-1.06-.11-.14-.19-.56-.16-.85-.09-.51-.05-1.04.06-1.6.4-1.17,1.66-1.77,2.89-1.8.27,0,.52.38-.02.47-.43.13-.83.29-1.2.48,0-.13.2-.16.26-.27-.33.05-.59.17-.84.39.16-.14.34-.27.54-.38-.48.26-.96.68-1.18,1.24-.08.18-.52.25-.35.64.32-.75.93-1.28,1.57-1.62h0c.28-.16.58-.24.89-.28-.1.03-.19.07-.28.07.47,0,.89.04,1.3.17-.63.02-1.19.12-1.71.38-.51.26-.94.74-1.04,1.28.26-.2.25-.69.61-.72-.32.33-.55.76-.64,1.24-.01-.03-.02-.07-.04-.11-.18.3-.03.66.04.96l.02.09s-.01-.06-.02-.09c-.06-.29-.05-.58,0-.85.04.13.04.25.03.41.07-.09.1-.21.13-.32.01-.15.04-.3.09-.43-.05.22-.01.45.1.63.06-.28.11-.55.26-.78-.04.14-.07.28-.07.42-.07.22-.09.48-.04.72l-.02-.03.02.05c.02.1.06.19.1.28.05.08.14.13.24.15l.03.03s-.08.01-.06.07c.08.26.39.27.56.51.05.07.15.08.26.08.02.03.04.02.06,0h.07c.05,0,.11,0,.16-.01-.05,0-.11,0-.16,0-.02,0-.03,0-.06,0,.02-.03.04-.06.07-.06-.35-.1-.65-.32-.89-.59.04,0,.08,0,.1,0-.04,0-.09-.01-.13-.03-.08-.09-.15-.18-.22-.28.04.02.08.04.13.04-.13-.29-.23-.61-.21-.95.1-.31.29-.55.5-.73-.18.04-.33.16-.43.32.14-.47.58-.88,1.08-.88-.05.15-.12.28-.08.45.04.07.14.07.11.13-.08.28-.3.22,0,.59.1.05.48.46.37.35,0,0,0,0,0,0h0s0,0,0,0c0,0-.01,0,0,0h.01s0,0,0,0h0s-.02,0-.03,0h0s.01,0,.01,0c-.01.01.04-.03-.03.02.07-.06.02-.01.03-.02,0,0,0,0,0,0h0s0,0,0,0h0s0,.04,0,.07c0-.01,0-.13,0-.09,0,0,0,.01,0,.02h0s.05.1.11.13c.02.03.05.06.08.09-.03-.05,0-.02-.01-.04,0,.01.02.02.04.04-.04-.06.04,0,.08,0,0,0-.03-.03-.04-.04h.01c.17.08.14.01.15-.01.06-.01.12-.04.17-.08.04-.03.16-.04.25-.07Z"/>
        <path class="cls-1" d="M22.94,19.58s-.04.08-.05.12c0,0-.05.04.05-.12Z"/>
        <path class="cls-1" d="M22.95,19.58h0s0,0,0,0c.01,0,0,0,0,0Z"/>
        <polygon class="cls-1" points="22.95 19.57 22.95 19.57 22.95 19.57 22.95 19.57"/>
        <path class="cls-1" d="M22.58,18.3h.02c-.06.04-.1.07-.15.1.03-.04.07-.08.12-.1Z"/>
        <path class="cls-1" d="M23.18,18.37c.11,0,.22.02.33.06.12.09.2.22.21.38-.13-.18-.3-.35-.54-.44Z"/>
        <polygon class="cls-1" points="22.94 19.57 22.94 19.58 22.94 19.57 22.94 19.57"/>
        <path class="cls-1" d="M22.2,18.59l.03-.02s-.01.08-.02.11c0-.02,0-.06,0-.09Z"/>
        <path class="cls-1" d="M22.95,19.58v.02s0,0,0-.01h0Z"/>
        <polygon class="cls-1" points="22.94 19.58 22.94 19.58 22.94 19.58 22.94 19.58"/>
      </g>
      <g>
        <path class="cls-1" d="M11.35,3.26c.07.13.05.26.08.38,0-.05-.02-.1-.03-.14.01.07-.02.13-.09.21-.09-.02-.02-.07-.13-.08,0-.18.14-.35.27-.52.27.07-.1.11-.1.16Z"/>
        <path class="cls-1" d="M11.18,3.89s0-.03,0-.05c.01.02.02.04,0,.05Z"/>
        <path class="cls-1" d="M10.25,2.1s-.03-.04-.03-.06c.03.02.03.04.03.06Z"/>
        <path class="cls-1" d="M10.71,3.03s-.04-.02-.05-.03c.03-.08.07-.16.11-.25-.03.09.08.19-.06.28Z"/>
        <path class="cls-1" d="M10.47,3.11c.01.08-.03.17-.15.24.09-.08.13-.16.15-.24Z"/>
        <path class="cls-1" d="M8.88,1.48s-.04,0-.05,0c0,0-.02,0-.03,0,.03-.03.06-.07.09-.1.01,0,.05.02.06.02-.03.04-.14.04-.07.09Z"/>
        <path class="cls-1" d="M10.26,2.12s0,0,.01,0c0,0,.01.01.02.02,0,0,0,0,0,0-.01,0-.02-.02-.02-.02Z"/>
        <path class="cls-1" d="M8.87,1.52s-.09,0-.12,0c.02-.02.03-.04.05-.06,0,0,.02,0,.03,0,.03.01-.01.03.04.05Z"/>
        <path class="cls-1" d="M8.53,1.95s.09.02.11.03c-.06.03-.11.06-.15.1.02,0,.02.02.07.03-.03,0-.06.01-.09.02.01-.08.03-.16.06-.25,0,.02,0,.05,0,.07Z"/>
        <path class="cls-1" d="M9.75.02c.06.11-.17.23.07.34.14-.12.2-.29.57-.31.38-.02.03.17.05.26t.08-.03s-.08.03-.04.04c.08-.03.15-.07.28-.09l.09.02C11.14.19,11.2.06,11.48,0c-.91.31-.53.75-.45,1.14.13.21.46.41.84.6.05.04.02.12,0,.18.06.11.13.21.28.32.17.23-.04.44,0,.68,0,.05-.36.11-.47,0-.13-.1-.18-.2-.18-.3.12.01.05.06.13.08.07-.07.1-.13.09-.21,0,.05.02.1.03.14-.02-.12,0-.25-.08-.38,0-.05.36-.09.1-.16-.13.17-.27.35-.27.52,0,0,0,0,0,0,.02.08,0,.15,0,.22-.02-.02-.04-.05-.02-.07-.1.11-.13.22-.15.33-.4-.31-.13-.65-.28-.96-.19.09.08.2-.16.28,0-.14.03-.28.08-.43.01.01.03.02.05.03.14-.09.02-.19.06-.28,0,0,0-.02.01-.02,0,0,0,.02-.01.02-.04.08-.08.16-.11.25-.04-.04-.05-.08-.02-.12-.08.03-.11.06-.15.1,0,.05-.01.1-.02.14-.01-.07-.07-.15-.16-.21-.08.1-.09.2-.13.3-.01-.06-.03-.11-.04-.17.04-.09.07-.19.1-.28,0,0,0,0,0,.01,0,0,0-.01,0-.02,0-.04.02-.07.02-.11,0-.03-.05-.07-.11-.1,0,0,0-.01,0-.02.04.01.07.02.09,0,.11-.09-.08-.18.07-.28.04-.03.02-.06-.01-.1.03-.01.01-.02-.02-.02,0,0-.01-.02-.02-.02,0-.02,0-.04-.03-.06,0,.02.02.04.03.06,0,0,0,.01,0,.02-.03,0-.07-.01-.07-.02-.03.14-.07.28-.05.42-.03,0-.06-.02-.08-.03.03.01.06.03.08.04,0,.05.02.09.04.14-.02-.01-.05-.03-.1-.04-.02.13.01.27.05.4-.05.12-.11.25-.15.37.11-.07.16-.14.19-.21.05.19.07.38-.04.56-.13-.03-.23-.08-.4-.1-.08,0-.11.06-.16.03-.24-.13-.03-.22-.5-.27-.13,0-.58.13-.68.09-.04-.04-.08-.11-.11-.18.01-.02.02-.04.02-.07,0,0-.02,0-.05-.01-.02-.08-.02-.16,0-.2.01-.02.02-.03.03-.05.03,0,.06-.02.1-.02-.03,0-.06-.02-.07-.03.02-.04.04-.08.06-.13.04-.02.09-.05.12-.07-.03,0-.07,0-.1,0,.01-.05.02-.1.03-.15.04-.02.09-.04.17-.06-.26-.06-.1-.18-.14-.27h0s0-.09.01-.14c.03,0,.06-.01.09-.02-.04-.01-.05-.02-.07-.03.04-.04.09-.07.15-.1-.02,0-.11-.02-.11-.03,0-.02,0-.05,0-.07,0-.03.02-.05.03-.08.05-.09.11-.18.19-.27.03,0,.08,0,.12,0-.05-.01-.01-.03-.04-.05.01,0,.03,0,.05,0-.07-.04.03-.05.07-.09,0,0-.04-.02-.06-.02,0,0,0,0,.01-.01.19-.04.13-.08.13-.13.05-.05.1-.09.15-.14.04-.04.16-.05.24-.08Z"/>
        <path class="cls-1" d="M8.9,1.36s.09-.09.13-.13c0,.05.06.09-.13.13Z"/>
        <path class="cls-1" d="M8.61,2.54c-.08.02-.14.04-.17.06.02-.11.02-.22.03-.33h0c.04.09-.13.22.14.27Z"/>
        <path class="cls-1" d="M8.83,1.48s-.02,0-.03,0c0,0,0,0,0,0,.01,0,.02,0,.03,0Z"/>
        <path class="cls-1" d="M10.23,2.75s0,0,0,.01c-.02-.03-.04-.05-.05-.08.03.02.04.05.05.07Z"/>
        <path class="cls-1" d="M10.13,3.04c.02.05.03.11.04.17-.03.07-.08.14-.19.21.04-.12.09-.25.15-.37Z"/>
        <path class="cls-1" d="M8.5,2.75s-.08.05-.12.07c0-.02.02-.05.02-.07.03,0,.07,0,.1,0Z"/>
        <path class="cls-1" d="M10.14,2.52s0,.01,0,.02c-.03-.01-.05-.03-.08-.04.02,0,.05.02.08.03Z"/>
        <path class="cls-1" d="M8.29,2.99s.02-.03.03-.05c.02.01.04.02.07.03-.04,0-.08.01-.1.02Z"/>
        <path class="cls-1" d="M8.31,3.26s0,.05-.02.07c-.01-.03-.02-.05-.03-.08.03,0,.06.01.05.01Z"/>
      </g>
      <g>
        <path class="cls-1" d="M24.67,3.79c.07.15.05.31.08.45,0-.06-.02-.11-.03-.17.01.08-.02.15-.09.24-.09-.03-.02-.08-.13-.09,0-.2.14-.41.27-.61.27.08-.1.13-.1.18Z"/>
        <path class="cls-1" d="M24.5,4.53s0-.04,0-.06c.01.02.02.04,0,.06Z"/>
        <path class="cls-1" d="M23.57,2.44s-.03-.05-.03-.07c.03.02.03.05.03.07Z"/>
        <path class="cls-1" d="M24.04,3.52s-.04-.02-.05-.04c.03-.09.07-.19.11-.29-.03.11.08.22-.06.32Z"/>
        <path class="cls-1" d="M23.79,3.62c.01.1-.03.19-.15.28.09-.09.13-.19.15-.28Z"/>
        <path class="cls-1" d="M22.2,1.73s-.04,0-.05,0c0,0-.02,0-.03,0,.03-.04.06-.08.09-.12.01,0,.05.02.06.03-.03.04-.14.05-.07.1Z"/>
        <path class="cls-1" d="M23.58,2.47s0,0,.01,0c0,0,.01.02.02.02,0,0,0,0,0,0-.01,0-.02-.02-.02-.03Z"/>
        <path class="cls-1" d="M22.19,1.77s-.09,0-.12,0c.02-.02.03-.04.05-.07,0,0,.02,0,.03,0,.03.01-.01.04.04.05Z"/>
        <path class="cls-1" d="M21.85,2.27s.09.03.11.03c-.06.04-.11.07-.15.11.02,0,.02.02.07.03-.03,0-.06.02-.09.03.01-.09.03-.19.06-.29,0,.03,0,.05,0,.08Z"/>
        <path class="cls-1" d="M23.08.02c.06.12-.17.27.07.39.14-.14.2-.34.57-.36.38-.02.03.19.05.31t.08-.03s-.08.03-.04.04c.08-.03.15-.09.28-.1l.09.03c.28-.08.34-.22.63-.29-.91.37-.53.88-.45,1.32.13.25.46.48.84.7.05.04.02.14,0,.21.06.12.13.25.28.37.17.26-.04.52,0,.8,0,.06-.36.13-.47,0-.13-.11-.18-.23-.18-.34.12.01.05.07.13.09.07-.09.1-.16.09-.24,0,.06.02.11.03.17-.02-.14,0-.29-.08-.45,0-.06.36-.1.1-.18-.13.2-.27.4-.27.61,0,0,0,0,0,0,.02.09,0,.17,0,.26-.02-.03-.04-.06-.02-.08-.1.13-.13.25-.15.38-.4-.36-.13-.75-.28-1.11-.19.1.08.24-.16.32,0-.17.03-.33.08-.5.01.01.03.02.05.04.14-.11.02-.22.06-.32,0,0,0-.02.01-.03,0,0,0,.02-.01.03-.04.1-.08.19-.11.29-.04-.04-.05-.09-.02-.14-.08.03-.11.07-.15.11,0,.06-.01.11-.02.17-.01-.09-.07-.17-.16-.25-.08.12-.09.24-.13.35-.01-.06-.03-.13-.04-.19.04-.11.07-.22.1-.33,0,0,0,0,0,.01,0,0,0-.02,0-.02,0-.04.02-.09.02-.13,0-.04-.05-.08-.11-.11,0,0,0-.01,0-.02.04.01.07.02.09,0,.11-.1-.08-.21.07-.32.04-.03.02-.07-.01-.11.03-.01.01-.02-.02-.02,0,0-.01-.02-.02-.03,0-.02,0-.05-.03-.07,0,.02.02.05.03.07,0,0,0,.02,0,.03-.03,0-.07-.01-.07-.03-.03.16-.07.33-.05.49-.03-.01-.06-.02-.08-.03.03.02.06.03.08.05,0,.05.02.11.04.16-.02-.02-.05-.03-.1-.04-.02.15.01.31.05.46-.05.15-.11.29-.15.43.11-.08.16-.16.19-.24.05.22.08.44-.04.66-.13-.04-.23-.09-.4-.12-.08,0-.11.07-.16.03-.24-.15-.03-.26-.5-.32-.13-.01-.58.16-.68.1-.04-.05-.08-.13-.11-.21.01-.03.02-.05.02-.08,0,0-.02,0-.05-.02-.02-.09-.02-.18,0-.23.01-.02.02-.04.03-.06.03,0,.06-.02.1-.02-.03-.01-.06-.02-.07-.03.02-.05.04-.1.06-.15.04-.03.09-.05.12-.08-.03,0-.07,0-.1,0,.01-.06.02-.12.03-.18.04-.02.09-.05.17-.07-.26-.06-.1-.21-.14-.32h0c0-.05,0-.11.01-.16.03,0,.06-.02.09-.03-.04-.01-.05-.03-.07-.03.04-.04.09-.08.15-.11-.02,0-.11-.02-.11-.03,0-.03,0-.05,0-.08,0-.03.02-.06.03-.09.05-.11.11-.21.19-.32.03,0,.08,0,.12,0-.05-.02-.01-.04-.04-.05.01,0,.03,0,.05,0-.07-.05.03-.06.07-.1,0,0-.04-.02-.06-.03,0,0,0,0,.01-.01.19-.05.13-.1.13-.15.05-.05.1-.11.15-.16.04-.04.16-.06.24-.09Z"/>
        <path class="cls-1" d="M22.23,1.58c.04-.05.09-.1.13-.15,0,.05.06.1-.13.15Z"/>
        <path class="cls-1" d="M21.93,2.95c-.08.02-.14.04-.17.07.02-.13.02-.26.03-.38h0c.04.1-.13.25.14.32Z"/>
        <path class="cls-1" d="M22.15,1.72s-.02,0-.03,0c0,0,0,0,0,0,.01,0,.02,0,.03,0Z"/>
        <path class="cls-1" d="M23.56,3.2s0,0,0,.01c-.02-.03-.04-.06-.05-.09.03.03.04.05.05.08Z"/>
        <path class="cls-1" d="M23.45,3.54c.02.06.03.13.04.19-.03.08-.08.16-.19.24.04-.14.09-.29.15-.43Z"/>
        <path class="cls-1" d="M21.82,3.2s-.08.05-.12.08c0-.03.02-.05.02-.08.03,0,.07,0,.1,0Z"/>
        <path class="cls-1" d="M23.46,2.94s0,.01,0,.02c-.03-.02-.05-.03-.08-.05.02,0,.05.02.08.03Z"/>
        <path class="cls-1" d="M21.62,3.48s.02-.04.03-.06c.02.01.04.02.07.03-.04,0-.08.01-.1.02Z"/>
        <path class="cls-1" d="M21.63,3.79s0,.05-.02.08c-.01-.03-.02-.06-.03-.09.03,0,.06.01.05.02Z"/>
      </g>
      <g>
        <path class="cls-1" d="M17.56,17.48c.49.21.84.65,1.05,1.09-.09-.17-.19-.34-.32-.49.18.22.28.46.3.76-.11-.05-.11-.25-.24-.23-.27-.57-.69-1.14-1.34-1.46.36-.17.39.26.54.34Z"/>
        <path class="cls-1" d="M18.58,19.58c0-.07-.01-.13-.01-.19.02.06.03.13.01.19Z"/>
        <path class="cls-1" d="M14.98,19.25s.01.09,0,.13c-.02-.05-.02-.09,0-.13Z"/>
        <path class="cls-1" d="M16.6,17.79s-.07.03-.1.04c-.22-.05-.47-.08-.72-.05.26-.05.57-.17.82,0Z"/>
        <path class="cls-1" d="M16.77,18.08c.2.05.38.21.44.41-.08-.19-.24-.33-.44-.41Z"/>
        <path class="cls-1" d="M16.3,19.57h0s0,0,0,0c0,0-.04.04-.04.04.04-.05.04-.05.04-.05Z"/>
        <path class="cls-1" d="M14.99,19.2h-.01s0-.06,0-.06h0s0,.04,0,.06Z"/>
        <rect class="cls-1" x="16.3" y="19.57" width="0" height="0" transform="translate(-9.06 17.26) rotate(-45)"/>
        <path class="cls-1" d="M16.32,19.58h0s-.02,0-.03,0h0s0,0,0,0c-.02,0,.07,0,.01,0,0,0,.01,0,.02,0Z"/>
        <path class="cls-1" d="M17.15,19.6c.05.18-.2.24-.08.47.24-.07.34-.36.71-.39.4-.02-.02.45-.13.63l.1-.02c-.05.01-.1.02-.07.07.1-.02.23-.11.36-.11l.06.1c.35-.08.51-.51.78-.77-.46.65-.82,1.12-1.31,1.53-.47.4-1.17.68-1.83.53-.73-.06-1.58-.33-2.25-1.06-.11-.14-.19-.56-.16-.85-.09-.51-.05-1.04.06-1.6.4-1.17,1.66-1.77,2.89-1.8.27,0,.52.38-.02.47-.43.13-.83.29-1.2.48,0-.13.2-.16.26-.27-.33.05-.59.17-.84.39.16-.14.34-.27.54-.38-.48.26-.96.68-1.18,1.24-.08.18-.52.25-.35.64.32-.75.93-1.28,1.57-1.62h0c.28-.16.58-.24.89-.28-.1.03-.19.07-.28.07.47,0,.89.04,1.3.17-.63.02-1.19.12-1.71.38-.51.26-.94.74-1.04,1.28.26-.2.25-.69.61-.72-.32.33-.55.76-.64,1.24-.01-.03-.02-.07-.04-.11-.18.3-.03.66.04.96l.02.09s-.01-.06-.02-.09c-.06-.29-.05-.58,0-.85.04.13.04.25.03.41.07-.09.1-.21.13-.32.01-.15.04-.3.09-.43-.05.22-.01.45.1.63.06-.28.11-.55.26-.78-.04.14-.07.28-.07.42-.07.22-.09.48-.04.72l-.02-.03.02.05c.02.1.06.19.1.28.05.08.14.13.24.15l.03.03s-.08.01-.06.07c.08.26.39.27.56.51.05.07.15.08.26.08.02.03.04.02.06,0h.07c.05,0,.11,0,.16-.01-.05,0-.11,0-.16,0-.02,0-.03,0-.06,0,.02-.03.04-.06.07-.06-.35-.1-.65-.32-.89-.59.04,0,.08,0,.1,0-.04,0-.09-.01-.13-.03-.08-.09-.15-.18-.22-.28.04.02.08.04.13.04-.13-.29-.23-.61-.21-.95.1-.31.29-.55.5-.73-.18.04-.33.16-.43.32.14-.47.58-.88,1.08-.88-.05.15-.12.28-.08.45.04.07.14.07.11.13-.08.28-.3.22,0,.59.1.05.48.46.37.35,0,0,0,0,0,0h0s0,0,0,0c0,0-.01,0,0,0h.01s0,0,0,0h0s-.02,0-.03,0h0s0,0,0,0h.01s.04-.03-.03.02c.07-.06.02-.01.03-.02,0,0,0,0,0,0h0s0,0,0,0h0s0,.04,0,.07c0-.01,0-.13,0-.09,0,0,0,.01,0,.02h0s.05.1.11.13c.02.03.05.06.08.09-.03-.05,0-.02-.01-.04,0,.01.02.02.04.04-.04-.06.04,0,.08,0,0,0-.03-.03-.04-.04h.01c.17.08.14.01.15-.01.06-.01.12-.04.17-.08.04-.03.16-.04.25-.07Z"/>
        <path class="cls-1" d="M16.29,19.58s-.04.08-.05.12c0,0-.05.04.05-.12Z"/>
        <path class="cls-1" d="M16.3,19.58h0s0,0,0,0h0s0,0,0,0Z"/>
        <polygon class="cls-1" points="16.3 19.57 16.3 19.57 16.3 19.57 16.3 19.57"/>
        <path class="cls-1" d="M15.93,18.3h.02c-.06.04-.1.07-.15.1.03-.04.07-.08.12-.1Z"/>
        <path class="cls-1" d="M16.53,18.37c.11,0,.22.02.33.06.12.09.2.22.21.38-.13-.18-.3-.35-.54-.44Z"/>
        <polygon class="cls-1" points="16.29 19.57 16.29 19.58 16.29 19.57 16.29 19.57"/>
        <path class="cls-1" d="M15.55,18.59l.03-.02s-.01.08-.02.11c0-.02,0-.06,0-.09Z"/>
        <path class="cls-1" d="M16.3,19.58v.02s0,0,0-.01h0Z"/>
        <polygon class="cls-1" points="16.29 19.58 16.29 19.58 16.3 19.58 16.29 19.58"/>
      </g>
      <g>
        <path class="cls-1" d="M11,17.48c.49.21.84.65,1.05,1.09-.09-.17-.19-.34-.32-.49.18.22.28.46.3.76-.11-.05-.11-.25-.24-.23-.27-.57-.69-1.14-1.34-1.46.36-.17.39.26.54.34Z"/>
        <path class="cls-1" d="M12.02,19.58c0-.07-.01-.13-.01-.19.02.06.03.13.01.19Z"/>
        <path class="cls-1" d="M8.43,19.25s.01.09,0,.13c-.02-.05-.02-.09,0-.13Z"/>
        <path class="cls-1" d="M10.04,17.79s-.07.03-.1.04c-.22-.05-.47-.08-.72-.05.26-.05.57-.17.82,0Z"/>
        <path class="cls-1" d="M10.22,18.08c.2.05.38.21.44.41-.08-.19-.24-.33-.44-.41Z"/>
        <path class="cls-1" d="M9.75,19.57h0s0,0,0,0c0,0-.04.04-.04.04.04-.05.04-.05.04-.05Z"/>
        <path class="cls-1" d="M8.43,19.2h-.01s0-.06,0-.06h0s0,.04,0,.06Z"/>
        <rect class="cls-1" x="9.74" y="19.57" width="0" height="0" transform="translate(-10.98 12.62) rotate(-45)"/>
        <path class="cls-1" d="M9.77,19.58h0s-.02,0-.03,0h0s0,0,0,0c-.02,0,.07,0,.01,0,0,0,.01,0,.02,0Z"/>
        <path class="cls-1" d="M10.59,19.6c.05.18-.2.24-.08.47.24-.07.34-.36.71-.39.4-.02-.02.45-.13.63l.1-.02c-.05.01-.1.02-.07.07.1-.02.23-.11.36-.11l.06.1c.35-.08.51-.51.78-.77-.46.65-.82,1.12-1.31,1.53-.47.4-1.17.68-1.83.53-.73-.06-1.58-.33-2.25-1.06-.11-.14-.19-.56-.16-.85-.09-.51-.05-1.04.06-1.6.4-1.17,1.66-1.77,2.89-1.8.27,0,.52.38-.02.47-.43.13-.83.29-1.2.48,0-.13.2-.16.26-.27-.33.05-.59.17-.84.39.16-.14.34-.27.54-.38-.48.26-.96.68-1.18,1.24-.08.18-.52.25-.35.64.32-.75.93-1.28,1.57-1.62h0c.28-.16.58-.24.89-.28-.1.03-.19.07-.28.07.47,0,.89.04,1.3.17-.63.02-1.19.12-1.71.38-.51.26-.94.74-1.04,1.28.26-.2.25-.69.61-.72-.32.33-.55.76-.64,1.24-.01-.03-.02-.07-.04-.11-.18.3-.03.66.04.96l.02.09s-.01-.06-.02-.09c-.06-.29-.05-.58,0-.85.04.13.04.25.03.41.07-.09.1-.21.13-.32.01-.15.04-.3.09-.43-.05.22-.01.45.1.63.06-.28.11-.55.26-.78-.04.14-.07.28-.07.42-.07.22-.09.48-.04.72l-.02-.03.02.05c.02.1.06.19.1.28.05.08.14.13.24.15l.03.03s-.08.01-.06.07c.08.26.39.27.56.51.05.07.15.08.26.08.02.03.04.02.06,0h.07c.05,0,.11,0,.16-.01-.05,0-.11,0-.16,0-.02,0-.03,0-.06,0,.02-.03.04-.06.07-.06-.35-.1-.65-.32-.89-.59.04,0,.08,0,.1,0-.04,0-.09-.01-.13-.03-.08-.09-.15-.18-.22-.28.04.02.08.04.13.04-.13-.29-.23-.61-.21-.95.1-.31.29-.55.5-.73-.18.04-.33.16-.43.32.14-.47.58-.88,1.08-.88-.05.15-.12.28-.08.45.04.07.14.07.11.13-.08.28-.3.22,0,.59.1.05.48.46.37.35,0,0,0,0,0,0h0s0,0,0,0c0,0-.01,0,0,0h.01s0,0,0,0h0s-.02,0-.03,0h0s0,0,0,0h.01s.04-.03-.03.02c.07-.06.02-.01.03-.02,0,0,0,0,0,0h0s0,0,0,0h0s0,.04,0,.07c0-.01,0-.13,0-.09,0,0,0,.01,0,.02h0s.05.1.11.13c.02.03.05.06.08.09-.03-.05,0-.02-.01-.04,0,.01.02.02.04.04-.04-.06.04,0,.08,0,0,0-.03-.03-.04-.04h.01c.17.08.14.01.15-.01.06-.01.12-.04.17-.08.04-.03.16-.04.25-.07Z"/>
        <path class="cls-1" d="M9.74,19.58s-.04.08-.05.12c0,0-.05.04.05-.12Z"/>
        <path class="cls-1" d="M9.74,19.58h0s0,0,0,0h0s0,0,0,0Z"/>
        <polygon class="cls-1" points="9.75 19.57 9.75 19.57 9.75 19.57 9.75 19.57"/>
        <path class="cls-1" d="M9.37,18.3h.02c-.06.04-.1.07-.15.1.03-.04.07-.08.12-.1Z"/>
        <path class="cls-1" d="M9.97,18.37c.11,0,.22.02.33.06.12.09.2.22.21.38-.13-.18-.3-.35-.54-.44Z"/>
        <polygon class="cls-1" points="9.74 19.57 9.74 19.58 9.74 19.57 9.74 19.57"/>
        <path class="cls-1" d="M9,18.59l.03-.02s-.01.08-.02.11c0-.02,0-.06,0-.09Z"/>
        <path class="cls-1" d="M9.74,19.58v.02s0,0,0-.01h0Z"/>
        <polygon class="cls-1" points="9.74 19.58 9.73 19.58 9.74 19.58 9.74 19.58"/>
      </g>
    </g>
  </g>
</svg>