<?xml version="1.0" encoding="UTF-8"?>
<svg id="Calque_2" data-name="Calque 2" xmlns="http://www.w3.org/2000/svg" viewBox="0 0 27.3 33.15">
  <defs>
    <style>
      .cls-1 {
        fill: #fff;
        stroke-width: 0px;
      }
    </style>
  </defs>
  <g id="Calque_1-2" data-name="Calque 1">
    <g id="Clochette">
      <g>
        <path class="cls-1" d="M10.97,3.1c-2.39.77-4.42,2.55-5.64,4.55.5-.79,1.06-1.55,1.74-2.18-.99.98-1.72,1.93-2.44,3.19.1-.44.66-1.2.69-1.46.98-1.45,2.3-2.65,3.82-3.42,1.52-.77,3.17-1.09,4.82-.94-1.3.23-2.08,0-2.99.26Z"/>
        <path class="cls-1" d="M3.3,12.22c.02-.25.13-.64.2-.96-.07.34-.14.65-.2.96Z"/>
        <path class="cls-1" d="M25.09,17.23c.06.43.12.86.17,1.27-.07-.42-.12-.85-.17-1.27Z"/>
        <path class="cls-1" d="M15.47,2.24c.22,0,.43.05.66.07,1.63.35,3.15,1.16,4.37,2.32-.67-.63-1.47-1.14-2.33-1.54-.86-.4-1.79-.63-2.69-.86Z"/>
        <path class="cls-1" d="M13.67,1.85c-1.73-.02-3.47.39-4.98,1.09,1.5-.72,3.22-1.14,4.98-1.09Z"/>
        <path class="cls-1" d="M20.2,27.53s-.03.04-.08.05c-.05,0-.1.02-.14.03l-2.14-.09c.18-.01.34-.05.52-.06.79.03.95.14,1.83.07Z"/>
        <path class="cls-1" d="M25.03,16.75l-.02-.04c-.02-.15-.04-.29-.06-.43,0-.02,0-.03,0-.05.03.18.05.36.08.53Z"/>
        <path class="cls-1" d="M21.11,27.54s.03.09.09.12l-1.21-.05.13-.03c.27-.03.69.01.98-.04Z"/>
        <path class="cls-1" d="M27.14,20.18c-.03-.26-.14-.47-.18-.59-.01-.67-.03-1.34-.08-2.12-.04-.12-.07-.37-.14-.61.02-.15.03-.3.04-.47.17,1.72.33,3.47.51,5.29-.05-.49-.11-.98-.16-1.5Z"/>
        <path class="cls-1" d="M1.84,12.4c-.19,2.3-.72,4.91-.74,7.17.44-2.6.89-6.21,1.31-6.55.42-.34-.37,3.58-.58,5.64q.07-.27.14-.53c-.07.27-.14.53-.12.78.14-.53.33-1.58.49-1.86l.03.49c.44-1.35.79-3.93,1.22-5.28-.42,1.66-.77,3.49-1.08,5.43-.15.97-.3,1.97-.43,2.99-.07.51-.13,1.03-.2,1.54-.03.25-.07.55-.08.75-.02.21,0,.41.03.62.15.82.78,1.53,1.57,1.79.4.14.79.12,1.38.11l1.61-.02c2.15-.03,4.29-.06,6.34-.09,2.3-.06,4.52-.18,6.67-.33,1.05-.08,2.11-.16,3.16-.24.69-.06,1.06-.44,1.27-.87.08-.16.21-.42.22-.74,0-.1,0-.12,0-.3l-.05-.55c-.03-.36-.06-.72-.09-1.04-.31-2.28-.62-4.56-1.01-6.81-.08-.61-.16-1.2-.24-1.8l-.11-.9-.04-.25-.1-.39c-.25-1.04-.57-2.05-1.03-2.97-.9-1.84-2.31-3.34-4.29-4.05-.39-.14-.85-.37-.96-.5-.11-.13.16-.23,1.2.09,1.74.51,3.21,1.75,4.22,3.36-.21-.13-.66-.9-1.01-1.14.82,1.08,1.34,2.11,1.84,3.4-.31-.88-.75-1.68-1.24-2.42.63.92,1.13,2.02,1.49,3.23.18.59.36,1.27.42,1.77.09.7.18,1.39.26,2.1.12,1.02-.15,1.96.27,3.38-.14-1.84-.28-3.7-.42-5.56-.03-.3-.01-.28-.07-.55l-.14-.64c-.09-.42-.22-.84-.35-1.25-.28-.82-.63-1.59-1.06-2.31h.02c-.8-1.25-1.74-2.21-2.94-2.93.37.22.76.44,1.04.72-1.51-1.39-3.58-2.08-5.73-2.14,1.51-.04,3.09.19,4.47.9,1.4.67,2.57,1.8,3.44,3.16.85,1.37,1.4,2.94,1.75,4.55.2,1.68.4,3.34.6,4.98,0-.94-.14-2.02-.27-3.08-.06-.53-.13-1.05-.17-1.54-.03-.39-.14-.85-.16-1.24.07.34.2.75.23,1.04l.12,1.12c.08.76.15,1.53.23,2.29.14,1.53.29,3.07.44,4.64-.04-.22-.08-.44-.12-.68.04.97.14,1.97.25,2.97.05.47.15,1.08.14,1.37,0,.36-.11.7-.29,1-.07.1-.14.21-.22.3.09-.09.15-.19.22-.3.17-.27.27-.58.31-.9.02-.17.02-.3,0-.5l-.06-.66c-.08-.88-.16-1.75-.23-2.61.13.78.22,1.62.31,2.63.02-.55-.03-1.34-.08-2.12-.1-1.03-.21-2.05-.31-3.07.18,1.57.4,3.12.65,4.53-.15-2.14-.38-4.34-.57-6.49l.43,3.53c.09.99.18,1.98.27,2.98.04.49.1,1.02.13,1.48.01.45-.08.91-.29,1.31.03-.06.05-.13.08-.19-.04.13-.11.25-.17.37-.36.6-.97,1.06-1.65,1.23-.58.17-1.33.12-2.02.21h-.35c.22-.03.33-.07-.1-.09-1.85-.11-3.85.08-5.97-.07-.56-.04-1.3-.02-2.11.01-.22-.03-.34-.01-.44.02l-.53.02c-.43,0-.86,0-1.28.03.41-.01.85-.02,1.28-.03h.48c-.11.02-.23.06-.46.06,2.96.03,6.04.07,9.13.05-.2.03-.43.06-.56.08.31-.03.61-.06.91-.08.49,0,1.01,0,1.48-.02.45-.03.9-.17,1.28-.42-.22.15-.44.29-.65.39,1.31-.33,2.23-1.72,2.05-3.06-.17-1.42-.34-2.84-.5-4.26-.12-1.34-.23-2.67-.35-4l-.18-1.99c-.06-.67-.09-1.32-.27-1.96.15.7.14,1.41.2,2.16.06.75.12,1.5.18,2.25l-.36-3.02c-.08-.97-.4-1.93-.69-2.88-.66-1.86-1.66-3.62-3.13-4.94.33.16.64.45.98.68.3.26.59.5.8.63.06-.07-.78-1.12-.24-.56,1.01,1.02,1.58,2.13,2.02,3.05.41.93.71,1.67,1.08,2.18.1.09.05-.67-.03-1.36-.09-.68-.18-1.27.06-.77.2.42.41,1.02.63,1.73.1.37.2.71.3,1.16l.07.41.04.29c.02.2.05.39.08.59.04.47.09.95.13,1.44,0,.06.04.16.08.29.21,1.74.39,3.39.46,4.31.03.34.05.68.08,1.02,0,.18-.02.33-.05.46.06.21.1.42.14.63.04.45.08.9.11,1.35.03.48.1.78.09,1.55-.06.74-.32,1.45-.7,2.05.03,0,.12-.08.08.06-.42.71-1.03,1.31-1.75,1.7-.7.4-1.61.58-2.31.55-.45-.04-.86-.09-1.23-.17-1.2.26-3.97.1-5.89.14h0c-.97,0-1.94,0-2.93,0-.16-.03-.32-.06-.46-.09-.24.04-.5.05-.62.07-.79-.04-1.45-.09-2.12-.15-.12.02-.35.11-.61.11h-1.5c-.57-.01-1.15-.02-1.74-.03l-.74-.02h-.37s-.18-.01-.18-.01l-.26-.02c-.69-.05-1.37-.27-1.95-.64-1.16-.73-1.92-2.01-1.98-3.34.03-.09.07-.11.11-.13-.05-.2-.03-.44-.01-.67.02-.18.04-.35.04-.48,0,.05.02.09.05.08.03-.88.15-1.03.27-1.81.02-.18,0-.35,0-.52l.04-.26c.29-.87.33-1.76.44-2.75l.48-2.94c.12-.78.28-1.06.42-1.6Z"/>
        <path class="cls-1" d="M17.59,27.5l-2.78-.13c.99,0,1.88-.06,2.78.13Z"/>
        <path class="cls-1" d="M24.92,7.3c-.11-.4-.23-.86-.47-1.32.65,1.19,1.12,2.43,1.47,3.69l.23.95c.04.13.08.36.11.58l.06.48c.06.59.12,1.19.19,1.78h0c-.05-.48-.11-1-.17-1.55l-.04-.41-.02-.22-.04-.31c-.07-.39-.13-.62-.2-.93-.27-1.16-.7-2.2-1.09-2.76Z"/>
        <path class="cls-1" d="M20.12,27.58l-.13.03h0s.09-.02.14-.03Z"/>
        <path class="cls-1" d="M20.87,4.26c-.05-.06-.11-.1-.17-.15.44.37.86.78,1.23,1.23-.31-.35-.67-.72-1.06-1.08Z"/>
        <path class="cls-1" d="M15.3,1.64c-1.18-.14-2.39-.15-3.56.08-1.52.22-2.94.81-4.2,1.55,1.12-.75,2.39-1.3,3.72-1.58,1.33-.29,2.7-.25,4.04-.06Z"/>
        <path class="cls-1" d="M22.02,2.97c-.41-.4-.83-.83-1.31-1.18.5.32.94.72,1.38,1.11-.1-.06-.06.04-.07.07Z"/>
        <path class="cls-1" d="M23.65,8.22c-.04-.11-.09-.22-.14-.33.16.26.28.55.42.82-.06-.11-.18-.32-.28-.49Z"/>
        <path class="cls-1" d="M16.63,0c.42.09.82.22,1.23.36-.25-.06-.49-.11-.74-.15-.12-.07-.29-.14-.48-.21Z"/>
        <path class="cls-1" d="M10.07.19c-.56.19-1.11.36-1.61.6.3-.15.62-.3.95-.41.33-.12.65-.25.99-.33-.15.07-.26.13-.33.14Z"/>
      </g>
      <g>
        <path class="cls-1" d="M17.32,28.16c.2-.44.43-.87.57-1.3-.05.17-.12.33-.18.5.1-.25.21-.44.38-.68.05.11-.08.25.02.33-.25.63-.71,1.15-1.18,1.55-.08-.36.31-.25.4-.41Z"/>
        <path class="cls-1" d="M18.41,26.06s-.02.11-.04.16c0-.06.01-.14.04-.16Z"/>
        <path class="cls-1" d="M14.24,31.36c-.08.02-.17.04-.25.05.08-.03.17-.04.25-.05Z"/>
        <path class="cls-1" d="M17.31,29.24s-.03.09-.05.13c-.24.21-.49.42-.78.57.3-.19.5-.52.82-.7Z"/>
        <path class="cls-1" d="M17.73,29.12c.2-.28.42-.54.69-.77-.24.24-.46.5-.69.77Z"/>
        <path class="cls-1" d="M11.2,32.37s-.02.04-.04.04c-.01,0-.03,0-.04.01-.16-.09-.32-.18-.47-.28.04.01.1-.02.14,0,.17.1.17.21.41.22Z"/>
        <path class="cls-1" d="M14.34,31.35s0-.01,0-.01l.08-.02s0,0,.01,0c-.03.01-.07.02-.1.03Z"/>
        <path class="cls-1" d="M11.41,32.46s-.02.08-.01.12c-.09-.05-.18-.1-.28-.15l.04-.02c.07,0,.16.07.25.04Z"/>
        <path class="cls-1" d="M13.61,33.12c.07,0,.12-.1.15-.12.17.05.34.09.55.11.03-.02.1-.03.15-.08.04.03.08.06.13.08-.45.02-.92.07-1.36-.02.12,0,.25,0,.38.02Z"/>
        <path class="cls-1" d="M7.56,26.39c.13.48.06,1.09.45,1.47-.07-.57-.17-1.32.2-1.45.35-.14.16.67.32,1.05q.02-.06.04-.12c-.02.06-.04.12.02.15.04-.12.05-.34.16-.43l.11.06c.19-.31.15-.82.41-1-.39.51-.3,1.39.04,2.04.34.69.93,1.23,1.5,1.6.7.36,1.49.25,2.11-.03.12-.03.39,0,.58.05.34-.07.67-.13.91-.36.53-.29,1.1-.36,1.59-.89.09-.09.51-.01.32.34-.14.31-.37.56-.64.72-.03-.11.14-.14.14-.25-.22.09-.41.11-.58.25l.36-.23c-.3.2-.65.36-1.04.5-.16.03-.32-.27-.5-.01.53.06,1.13.07,1.61-.25h0c.21-.13.4-.26.58-.43-.04.07-.09.14-.16.16.35-.14.63-.41.89-.69-.19.55-.61.99-1.1,1.3-.49.32-1.05.43-1.58.62.35.12.69-.22,1.02-.12-.48.22-1.03.25-1.57.23.04-.02.08-.04.12-.06-.33-.09-.69-.05-1.03-.08-.03,0-.06-.02-.09-.03.03.01.06.02.09.03.3.05.61.14.91.14-.13.07-.29.05-.47.01.09.08.23.14.38.17.18,0,.36-.01.56-.02-.28.02-.56.13-.83.19.2.07.4.06.61.06.21,0,.42.01.62-.02-.21.08-.44.09-.66.12-.38.01-.76-.09-1.14-.13h.04s-.09,0-.09,0c-.15-.04-.29-.07-.43-.11-.13-.03-.28.01-.42.02l-.06-.02c.05-.02.08-.05.01-.1-.14-.11-.32-.15-.5-.2-.17-.07-.34-.16-.48-.31-.07-.07-.18-.15-.32-.21-.02-.05-.04-.04-.08-.03l-.09-.04c-.07-.04-.13-.09-.2-.13.06.05.13.1.2.13.02.01.05.03.08.05-.04.01-.08.03-.11,0,.41.37.92.68,1.49.85-.05.01-.09.03-.13.04.07,0,.13-.01.19-.02.18.05.38.06.57.08-.06,0-.12.03-.17.06.27.07.54.12.82.11.28.01.55.02.83-.04.26.01.52.02.78-.02.26-.02.52-.06.76-.15-.3.01-.58.02-.87.05.75-.17,1.42-.52,2.09-.91-.03.19-.13.38-.11.58.05.07.29-.07.19.07-.37.53-.85.53-.92,1.05-.01.16.88.26.7.45-.18.13-.53.31-.92.48-.12.02-.25.04-.37.06-.02,0-.04.03-.07.06-.45.14-.87.17-1.11.15-.09,0-.18,0-.26-.01-.05-.02-.09-.05-.12-.1-.05.04-.11.06-.16.08-.24-.03-.45-.07-.66-.1-.12-.05-.25-.1-.34-.15,0,.03.01.07-.01.1-.28-.07-.55-.13-.81-.19-.1-.06-.19-.13-.25-.24-.37.16-.99-.24-1.42-.47h0c-.22-.1-.42-.27-.62-.42-.02-.05-.03-.09-.04-.14-.08,0-.13-.04-.17-.04-.13-.15-.21-.32-.29-.47-.04,0-.14.02-.19-.03-.1-.11-.17-.18-.25-.28-.08-.11-.16-.23-.25-.36-.26-.42-.44-.85-.58-1.28.02-.03.06-.05.1-.07-.08-.04-.08-.14-.13-.19.02,0,.04,0,.06,0-.15-.15-.07-.23-.11-.41-.02-.04-.07-.06-.09-.09v-.06c.1-.25-.03-.42-.08-.63-.02-.22-.02-.45-.02-.68,0-.18.11-.27.17-.4Z"/>
        <path class="cls-1" d="M10.6,32.11c-.18-.15-.36-.3-.55-.45.22.13.43.17.55.45Z"/>
        <path class="cls-1" d="M16.79,32.3c.12.02.25.02.37,0-.56.31-1.16.55-1.79.69h0c.25-.07.55-.15.83-.25.28-.1.52-.23.59-.43Z"/>
        <path class="cls-1" d="M11.16,32.41l-.04.02h0s.03-.01.04-.02Z"/>
        <path class="cls-1" d="M16.81,30.37l.04-.02c-.09.09-.18.17-.25.25.06-.08.13-.15.21-.22Z"/>
        <path class="cls-1" d="M17.78,29.58c.15-.19.27-.39.4-.6.2-.23.4-.47.63-.67-.29.46-.63.89-1.03,1.27Z"/>
        <path class="cls-1" d="M17.86,31.74c.12-.05.26-.09.39-.15-.1.08-.22.15-.33.23,0-.04-.04-.06-.06-.08Z"/>
        <path class="cls-1" d="M16.03,30.97l.06-.04c-.04.05-.08.11-.13.16.02-.03.04-.08.06-.13Z"/>
        <path class="cls-1" d="M19.02,30.96c-.07.06-.14.13-.21.19.03-.05.05-.11.06-.17.05,0,.1,0,.15-.02Z"/>
        <path class="cls-1" d="M19.89,29.8c.07-.1.13-.2.21-.3-.07.13-.14.26-.2.39,0-.04-.02-.08,0-.09Z"/>
      </g>
    </g>
  </g>
</svg>