<?xml version="1.0" encoding="UTF-8"?>
<svg id="Calque_2" data-name="Calque 2" xmlns="http://www.w3.org/2000/svg" viewBox="0 0 31.59 27.96">
  <defs>
    <style>
      .cls-1 {
        fill: #fff;
        stroke-width: 0px;
      }
    </style>
  </defs>
  <g id="Calque_1-2" data-name="Calque 1">
    <g id="Coeur">
      <g>
        <path class="cls-1" d="M24.47,20.86c-1.04,1.08-2.07,2.14-3.09,3.19-.51.52-1.02,1.04-1.52,1.54-.25.25-.49.5-.74.75-.26.26-.43.46-.8.79.29-.26.46-.44.65-.64l.57-.58,1.14-1.17c-.57.58-1.1,1.11-1.64,1.64l-.41.39c-.15.14-.35.33-.55.47-.4.31-.87.54-1.38.7.29-.14.75-.37,1.12-.64.37-.26.68-.61.71-.71,2.79-2.83,5.7-5.56,8.52-8.22-.89,1.28-1.83,1.69-2.58,2.47Z"/>
        <path class="cls-1" d="M11.62,26.46c.33.37.7.69,1.11.94-.44-.26-.82-.6-1.11-.94Z"/>
        <path class="cls-1" d="M20.16,2.05c-.44.11-.86.32-1.26.5.39-.2.81-.4,1.26-.5Z"/>
        <path class="cls-1" d="M27.69,16.71c.17-.21.32-.4.48-.6,1.25-1.47,2.01-3.4,2.04-5.41,0,2.16-.85,4.56-2.52,6.01Z"/>
        <path class="cls-1" d="M26.12,17.94c-1.3,1.33-2.67,2.64-3.99,3.81,1.31-1.19,2.65-2.48,3.99-3.81Z"/>
        <path class="cls-1" d="M9.06,3.05s-.03.03-.07.04c-.04,0-.08,0-.12,0-.59-.08-1.2-.16-1.8-.06.15-.03.28-.1.43-.12.68,0,.81.1,1.56.14Z"/>
        <path class="cls-1" d="M20.65,1.93l.04-.02c.16-.02.31-.05.46-.07.02,0,.03,0,.06,0-.19.03-.38.06-.56.09Z"/>
        <path class="cls-1" d="M9.8,3.26s0,.09.03.14c-.31-.15-.63-.21-.96-.3h.11c.23.02.56.11.81.16Z"/>
        <path class="cls-1" d="M18.39,4.91c.14-.16.25-.33.32-.4.24-.14.47-.28.74-.37.25-.13.54-.2.83-.29.08-.07.28-.1.46-.19.12.01.24,0,.38.01-.67.11-1.32.34-1.94.69-.29.21-.6.39-.86.65l-.21.18s-.05.04-.12.11l-.21.22-.86.89c.31-.32.61-.65.92-.98.19-.21.24-.24.32-.31l.23-.21Z"/>
        <path class="cls-1" d="M12.47,25.25c-1.64-1.8-3.3-4.07-5.02-5.71,1.71,2.19,4.17,5.13,4.16,5.68-.02.56-2.51-2.85-3.95-4.48q.16.24.32.49c-.16-.24-.32-.49-.52-.65.32.49.99,1.38,1.1,1.7l-.4-.33c.74,1.29,2.49,3.41,3.24,4.7-1.99-3-4.68-6.31-7.6-9.69-.37-.42-.73-.85-1.1-1.27l-.56-.64c-.19-.24-.4-.47-.56-.73-.71-1.01-1.18-2.18-1.42-3.38-.46-2.42.11-5.02,1.56-6.94C3.27,1.8,5.9.45,8.54.49c1.32,0,2.63.34,3.79.94.28.16.58.31.84.49l.78.58.7.65c.15.15.14.13.17.14l.07.03s.06.04.09.07l.05.05s.03.05.08-.01c.14-.15.31-.3.46-.44-.02,0,.18-.18.29-.3l.4-.39c.26-.26.58-.46.87-.7.61-.43,1.29-.78,2-1.05,1.42-.53,2.99-.69,4.5-.47,1.61.28,3.11,1.03,4.31,2.1.3.27.6.54.84.86.27.3.52.61.72.96.22.33.43.67.59,1.03.18.36.35.72.45,1,.13.32.23.54.38.94.15.37.26.76.36,1.14.19.78.29,1.58.3,2.39.02,1.62-.35,3.26-1.11,4.78-.31.6-.84,1.22-1.06,1.32-.24.09,0-.21.7-1.64,1.07-2.41,1.14-5.18.22-7.63.25.23.51,1.46.65,2.03-.09-.96-.35-1.87-.66-2.63-.15-.36-.26-.67-.45-1.08-.2-.41-.38-.84-.67-1.23.19.27.34.55.48.84.14.28.3.6.39.83l.32.75c.11.27.24.59.34.89-.12-.37-.29-.8-.42-1.09-.15-.33-.25-.62-.44-1-.36-.76-.79-1.51-1.37-2.17-1.12-1.35-2.71-2.39-4.46-2.79-.32-.09-.62-.18-.94-.24-.32-.07-.64-.16-.99-.18-.35-.04-.72-.07-1.11,0-.4.03-.82.14-1.26.33,2.32-.59,4.84-.03,6.77,1.29.98.65,1.78,1.54,2.42,2.51.34.48.56,1.01.81,1.52.2.49.37.87.58,1.43l-.02-.02c.73,1.92.79,3.86.31,5.78.13-.6.22-1.22.27-1.76-.15,1.43-.61,2.8-1.34,4.01-.37.6-.79,1.17-1.3,1.67l-1.32,1.31c.57-.67,1.16-1.24,1.8-2.08.59-.81,1.06-1.72,1.36-2.68.6-1.92.6-4.05-.1-5.97-.18-.5-.36-.89-.54-1.32-.19-.42-.41-.92-.67-1.35-.51-.89-1.22-1.65-2.02-2.29-1.61-1.25-3.71-1.86-5.67-1.6,1.11-.02,2.39.1,3.56.54,1.16.43,2.19,1.15,2.75,1.91-1.24-1.24-2.9-2.1-4.68-2.3-1.77-.22-3.66.21-5.17,1.23.21-.18.43-.31.66-.46-.53.22-1.01.57-1.47.93l-.64.59-.34.36-.68.73c-.12.23-.2-.02-.3-.11l-.27-.34-.19-.25.19.25.24.32.12.16s.08.17.13.07l.62-.62.32-.32c.11-.11.18-.19.4-.39l.56-.51c.2-.15.41-.29.62-.44l-.56.43c-.17.17-.35.33-.53.51l-.26.25-.17.18c-.12.12-.24.24-.37.37.15-.1.33-.25.54-.44.23-.2.63-.55.96-.81.92-.74,2.03-1.25,3.17-1.48-.89.16-1.71.59-2.44,1.04-.34.27-.7.5-.98.82l-.43.44c-.12.14-.21.25-.31.37.29-.28.8-.77,1.26-1.1.48-.36,1.01-.65,1.56-.9,1.11-.47,2.34-.65,3.51-.53-1.3-.11-2.61.17-3.76.75-.24.13-.49.24-.72.38l-.67.46c-.41.34-.85.74-1.14,1.05l-.96.98c-.33.63-.59-.15-.87-.4l.13.15-.26-.31c-.24-.29-.38-.51-.71-.86l-.44-.48-.5-.43c-.29-.27-.66-.44-.99-.64-.36-.15-.71-.33-1.08-.41l-.37-.12c.24.04.37.05-.08-.12-1.95-.7-4.34-.26-6.32.97-.53.32-1.16.89-1.68,1.62-.18.17-.23.29-.27.4l-.3.5c-.24.41-.44.84-.58,1.28.17-.43.35-.87.58-1.28l.28-.45c-.04.12-.08.25-.22.47.84-1.37,2.1-2.57,3.67-3.17,1.53-.65,3.32-.71,4.92-.21-.2-.05-.48-.07-.6-.08.33.02.65.12.97.2,1.02.38,1.95.99,2.73,1.75-.22-.24-.5-.39-.72-.53.3.24.58.5.83.8.28.29.48.55.69.81l.65.79.16.2s.05.1.08.06l.09-.1.36-.38c.49-.51.9-1,1.46-1.53.27-.27.56-.53.89-.75.3-.25.65-.42.99-.61,2.66-1.29,5.98-.65,8,1.35-1.03-1.14-2.57-1.91-4.23-2.1,2.23.14,4.32,1.43,5.55,3.28.33.45.56.96.8,1.46.2.5.41.97.6,1.5.36,1.05.49,2.16.42,3.26-.08-.8-.31-1.85-.61-2.26-.05.05.12,1.36-.05.61-.17-.68-.39-1.28-.64-1.83-.26-.57-.49-1.1-.73-1.51-.47-.85-1.04-1.4-1.58-1.6-.11-.03.26.55.47,1.09.2.54.29.99.04.65-.38-.61-1.22-1.59-2.42-2.16-.16-.11-.34-.17-.52-.25-.18-.09-.37-.15-.57-.19-.05-.02-.14-.02-.25-.02-.69-.13-1.38-.14-1.98-.04-.59.11-1.08.28-1.42.43-.24.14-.51.22-.73.39-.13.06-.25.11-.36.13-.13.12-.23.28-.36.41-.17.1-.89.88-1.4,1.39-.54.56-1.08,1.12-1.62,1.67-.3.58-.58-.15-.86-.47-.28-.38-.56-.75-.83-1.11,0,.04.07.2-.05.09l-.97-1.21-.51-.58c-.34-.33-.7-.63-1.09-.87-.31-.22-.59-.44-.86-.6-.52-.08-1.34-.23-2.24-.19-.9.03-1.88.32-2.56.76h0c-.7.42-1.32.99-1.82,1.67-.1.1-.19.2-.29.29-.09.2-.19.4-.21.5-.34.59-.58,1.13-.76,1.7,0,.11.05.33.03.55-.05.45-.08.89-.03,1.32.03.5.1,1.01.24,1.51.22.84.62,1.62,1.13,2.31l1.89,2.36c.02.07,0,.11-.03.15.25.2.5.56.71.76-.05-.03-.08-.05-.09-.02.66.65.69.85,1.21,1.51.12.14.27.25.4.38l.17.22c.47.84,1.13,1.5,1.82,2.3l1.94,2.47c.52.65.63.97.95,1.46Z"/>
        <path class="cls-1" d="M6.85,3.05c-.79.13-1.55.43-2.23.87.7-.5,1.43-.89,2.23-.87Z"/>
        <path class="cls-1" d="M26.96,6.81c.06.27.19.75.33,1.19l-.36-.86-.32-.66-.39-.61-.45-.55c-.64-.7-1.47-1.21-2.38-1.48h0c.74.18,1.56.67,2.18,1.28.62.61,1.08,1.27,1.39,1.69Z"/>
        <path class="cls-1" d="M8.98,3.09h-.11s0,0,0,0c.03,0,.07,0,.12,0Z"/>
        <path class="cls-1" d="M29.67,10.68v.24c0-.61-.08-1.22-.2-1.82.13.47.2,1.01.2,1.58Z"/>
        <path class="cls-1" d="M27.08,16.5l-2.6,2.69c-1.15,1.12-2.3,2.2-3.44,3.2,2-1.95,4.01-3.91,6.04-5.89Z"/>
        <path class="cls-1" d="M27.94,10.7c-.03.41-.13.81-.24,1.2.08-.4.14-.8.14-1.21.03.08.07.01.1,0Z"/>
        <path class="cls-1" d="M28.19,5.84l.17.33c-.17-.27-.31-.55-.52-.79.08.08.26.3.36.46Z"/>
        <path class="cls-1" d="M26.35,14.59c.19-.22.36-.45.53-.68-.08.15-.15.31-.23.47-.09.05-.2.12-.3.22Z"/>
        <path class="cls-1" d="M22.29,18.73c-.37.37-.74.72-1.09,1.07.42-.44.85-.89,1.28-1.33-.08.12-.14.22-.19.26Z"/>
      </g>
    </g>
  </g>
</svg>