<?xml version="1.0" encoding="UTF-8"?>
<svg id="Calque_2" data-name="Calque 2" xmlns="http://www.w3.org/2000/svg" viewBox="0 0 30.14 30.36">
  <defs>
    <style>
      .cls-1 {
        fill: #fff;
        stroke-width: 0px;
      }
    </style>
  </defs>
  <g id="Calque_1-2" data-name="Calque 1">
    <g id="Croix">
      <g>
        <path class="cls-1" d="M25.57,24.56c1.01.94,1.97,1.94,2.86,2.82-.36-.35-.72-.71-1.07-1.06.54.53.96,1.01,1.44,1.6-.22-.11-.52-.51-.69-.51-1.29-1.31-2.47-2.74-3.63-4.11.69.32.73.9,1.09,1.25Z"/>
        <path class="cls-1" d="M30.14,29.48c-.13-.13-.26-.26-.38-.38.14.13.28.25.38.38Z"/>
        <path class="cls-1" d="M16.29,16.62c-.16-.14-.32-.28-.46-.43.16.13.31.28.46.43Z"/>
        <path class="cls-1" d="M23.43,23.27c-.09-.06-.18-.13-.27-.2-.57-.63-1.14-1.26-1.72-1.92.64.7,1.43,1.35,1.99,2.12Z"/>
        <path class="cls-1" d="M23.89,24.1c.61.61,1.19,1.27,1.67,1.94-.51-.65-1.08-1.29-1.67-1.94Z"/>
        <path class="cls-1" d="M10.81,12.96s-.04.02-.06.01c-.02-.01-.05-.02-.07-.03-.22-.27-.44-.54-.66-.81.07.05.16.08.22.14.24.3.22.43.58.69Z"/>
        <path class="cls-1" d="M16.46,16.78s.02,0,.02,0c.05.05.11.09.16.14,0,0,0,.01.01.02-.07-.05-.13-.11-.2-.17Z"/>
        <path class="cls-1" d="M11.11,13.28s-.05.07-.05.12c-.13-.15-.25-.3-.38-.46.02.01.05.02.07.03.11.07.22.25.37.31Z"/>
        <path class="cls-1" d="M13.99,16.72c.09.09.23.11.29.13.19.27.37.54.62.84.06.03.15.12.26.17.02.07.06.15.09.23-.58-.61-1.17-1.24-1.77-1.9.17.17.34.34.51.53Z"/>
        <path class="cls-1" d="M.68,1.33c.83.76,1.57,1.85,2.5,2.47-.79-1.02-2-2.33-1.86-2.72.14-.4,1.25,1.24,1.97,1.94q-.06-.12-.13-.25c.06.12.13.25.24.3-.13-.25-.44-.67-.45-.86l.23.11c-.27-.68-1.11-1.63-1.39-2.32,1.66,3,5.14,6.02,8,8.85,1.66,1.52,3.36,2.78,4.99,3.91.29.23.89.88,1.32,1.36.83.76,1.66,1.52,2.54,2.21,1.77,1.57,3.22,3.36,5.02,5.13.36.35.58,1.11-.37.29-.81-.65-1.57-1.36-2.3-2.1.17,0,.47.41.69.51-.49-.6-.91-1.07-1.44-1.6.36.35.72.71,1.07,1.06-.89-.88-1.85-1.89-2.86-2.82-.36-.35-.4-.93-1.09-1.25,1.16,1.37,2.35,2.79,3.63,4.11,0,0,0,0-.01,0,.58.58,1.09,1.12,1.65,1.68-.18-.16-.37-.33-.51-.5.73.9,1.51,1.73,2.29,2.56-2.53-2.02-4.83-4.77-7.21-6.99.5.79,1.55,1.47,1.93,2.2-1.04-1.07-2.06-2.16-3.1-3.29.09.07.18.14.27.2-.56-.77-1.35-1.42-1.99-2.12-.06-.06-.11-.13-.17-.19.05.06.11.13.17.19.58.65,1.15,1.29,1.72,1.92-.3-.25-.59-.54-.92-.91.13.25.37.54.61.84.35.36.7.73,1.04,1.1-.55-.55-1.12-1.05-1.67-1.49.67.8,1.42,1.58,2.13,2.37-.41-.4-.83-.81-1.24-1.21-.65-.72-1.3-1.44-1.98-2.17.03.03.06.05.08.08-.05-.05-.11-.11-.16-.16-.26-.28-.53-.57-.8-.85-.25-.25-.52-.46-.8-.66-.04-.04-.08-.08-.12-.12.1.05.17.06.03-.1-.55-.72-1.37-1.29-1.98-2.13-.16-.22-.43-.47-.73-.73-.06-.1-.11-.12-.16-.14-.06-.06-.13-.11-.19-.17-.15-.15-.3-.3-.46-.43.15.14.3.29.46.43.06.06.11.11.17.16-.06-.02-.13-.03-.21-.11.99,1.05,2.01,2.16,3.07,3.22-.08-.04-.2-.11-.25-.14.12.09.25.17.37.26.35.34.69.68,1.05,1.02-.12-.09-.23-.16-.35-.22.96,1.01,1.95,1.98,2.95,2.96.88.98,1.74,1.94,2.62,2.9-.41-.58-.88-1.13-1.38-1.69,1.41,1.38,2.81,2.78,4.11,4.27-.34-.16-.75-.45-1.03-.48-.05.07.37.54.08.31-1.11-.8-1.63-1.64-2.36-1.7-.16.02.56,1.41.16,1.13-.32-.26-.85-.76-1.43-1.3-.15-.17-.31-.34-.48-.52-.01-.03-.07-.05-.14-.07-.61-.6-1.18-1.18-1.47-1.52-.11-.13-.22-.25-.33-.38-.04-.08-.07-.16-.08-.23-.1-.05-.19-.11-.27-.17-.29-.33-.59-.66-.88-.98-.14-.2-.27-.41-.42-.6-.02.02-.02.08-.07.07-.37-.4-.74-.79-1.11-1.18-.13-.18-.23-.37-.29-.55-.6-.23-1.42-1.32-2.11-1.96h0c-.33-.33-.66-.68-.99-1.03-.04-.07-.07-.15-.09-.23-.11-.05-.2-.14-.26-.17-.24-.3-.43-.57-.61-.84-.06-.03-.2-.05-.29-.13-.17-.19-.34-.36-.51-.53-.19-.21-.38-.42-.57-.63-.64-.72-1.25-1.44-1.85-2.16,0-.05.03-.08.05-.12-.14-.07-.25-.24-.36-.31.03,0,.05,0,.06-.01-.35-.26-.33-.39-.58-.69-.06-.06-.15-.09-.22-.14-.03-.03-.05-.07-.08-.1-.17-.44-.52-.71-.85-1.06-.3-.38-.61-.76-.91-1.14-.24-.3-.26-.49-.39-.74Z"/>
        <path class="cls-1" d="M9.93,12.03c-.29-.35-.57-.71-.85-1.06.33.35.68.62.85,1.06Z"/>
        <path class="cls-1" d="M18.34,21.08c.07.18.17.37.29.55-.79-.84-1.59-1.66-2.41-2.5h0c.68.64,1.51,1.72,2.11,1.95Z"/>
        <path class="cls-1" d="M10.74,12.97s-.04-.02-.07-.03c0,0,0,0,0,0,.02,0,.05.01.07.03Z"/>
        <path class="cls-1" d="M21.05,21.52s.05.05.08.08c-.21-.19-.42-.38-.63-.57.18.14.37.31.55.49Z"/>
        <path class="cls-1" d="M23.11,23.77c.41.4.83.81,1.24,1.21.5.55.97,1.11,1.38,1.69-.88-.95-1.74-1.92-2.62-2.9Z"/>
        <path class="cls-1" d="M19.82,22.74c.14.19.28.4.42.6-.16-.18-.33-.36-.49-.53.05.01.05-.04.07-.07Z"/>
        <path class="cls-1" d="M19.33,19.89s.08.08.12.12c-.12-.09-.25-.17-.37-.26.05.02.16.1.25.14Z"/>
        <path class="cls-1" d="M21.47,24.72c-.12-.13-.23-.27-.35-.4.09.06.18.12.27.17,0,.07.04.15.08.23Z"/>
        <path class="cls-1" d="M23.4,26.69c.17.18.33.35.48.52-.2-.19-.41-.39-.61-.59.07.03.12.04.14.07Z"/>
      </g>
      <g>
        <path class="cls-1" d="M23.96,4.89c.91-1.03,1.89-2.01,2.75-2.93-.34.37-.69.73-1.03,1.1.52-.55.98-.98,1.57-1.48-.1.23-.5.53-.5.7-1.28,1.32-2.67,2.54-4.02,3.73.31-.7.88-.75,1.22-1.12Z"/>
        <path class="cls-1" d="M28.77.21c-.13.13-.25.26-.37.39.12-.14.25-.28.37-.39Z"/>
        <path class="cls-1" d="M16.25,14.37c-.14.16-.27.32-.41.47.12-.17.27-.32.41-.47Z"/>
        <path class="cls-1" d="M22.73,7.07c-.06.09-.13.18-.2.27-.61.58-1.24,1.17-1.87,1.77.68-.66,1.31-1.46,2.07-2.04Z"/>
        <path class="cls-1" d="M23.55,6.58c.59-.62,1.24-1.22,1.89-1.72-.64.52-1.27,1.11-1.89,1.72Z"/>
        <path class="cls-1" d="M12.73,19.94s.02.04.01.06c-.01.02-.02.05-.03.07-.26.23-.53.46-.8.68.05-.07.08-.16.14-.22.29-.25.42-.24.67-.59Z"/>
        <path class="cls-1" d="M16.41,14.19s0-.02,0-.02c.05-.06.09-.11.14-.17,0,0,.01,0,.02-.01-.05.07-.11.14-.17.2Z"/>
        <path class="cls-1" d="M13.05,19.63s.07.05.12.05c-.15.13-.3.26-.45.39,0-.02.02-.05.02-.07.07-.11.24-.23.31-.37Z"/>
        <path class="cls-1" d="M16.41,16.67c.09-.09.1-.23.13-.29.27-.19.54-.39.83-.64.03-.06.11-.15.16-.27.07-.03.15-.06.22-.1-.6.6-1.21,1.2-1.85,1.81.16-.18.33-.35.51-.53Z"/>
        <path class="cls-1" d="M1.35,30.36c.74-.85,1.81-1.62,2.41-2.56-1,.82-2.28,2.05-2.68,1.92-.4-.13,1.2-1.28,1.89-2.02q-.12.07-.24.13c.12-.07.24-.13.29-.25-.24.13-.66.45-.85.47l.1-.23c-.68.29-1.61,1.15-2.28,1.44,2.96-1.73,5.9-5.29,8.65-8.22,1.48-1.7,2.69-3.42,3.79-5.09.22-.3.86-.92,1.33-1.35.74-.85,1.48-1.7,2.15-2.6,1.53-1.81,3.28-3.31,5.01-5.15.34-.37,1.09-.61.3.36-.63.82-1.32,1.6-2.04,2.35,0-.17.4-.48.5-.7-.59.5-1.05.93-1.57,1.48.34-.37.69-.73,1.03-1.1-.86.92-1.84,1.9-2.75,2.93-.34.37-.92.42-1.22,1.12,1.34-1.19,2.73-2.41,4.02-3.73,0,0,0,0,0,.01.56-.6,1.09-1.12,1.64-1.69-.16.19-.32.38-.49.52.88-.75,1.69-1.55,2.5-2.35-1.96,2.58-4.65,4.95-6.81,7.38.78-.52,1.43-1.58,2.15-1.98-1.04,1.07-2.11,2.12-3.21,3.18.07-.09.14-.18.2-.28-.76.58-1.39,1.39-2.07,2.04-.06.06-.12.12-.19.17.06-.06.12-.11.19-.17.64-.6,1.26-1.18,1.87-1.77-.24.31-.53.6-.89.94.24-.13.54-.38.83-.64.36-.36.71-.71,1.07-1.06-.53.56-1.02,1.14-1.44,1.71.79-.69,1.55-1.46,2.31-2.18-.39.42-.79.85-1.18,1.27-.7.67-1.41,1.34-2.12,2.03.02-.03.05-.06.07-.09-.05.05-.1.11-.15.16-.28.27-.55.54-.83.82-.24.26-.45.53-.64.82-.04.04-.08.08-.12.13.05-.1.06-.17-.1-.03-.71.57-1.26,1.4-2.08,2.03-.22.17-.46.44-.71.75-.09.06-.12.11-.14.17-.05.07-.11.13-.17.2-.14.15-.29.3-.41.47.14-.15.28-.31.41-.47.05-.06.11-.12.16-.17-.01.06-.03.13-.11.21,1.03-1.02,2.11-2.06,3.15-3.15-.04.09-.11.2-.13.25.08-.13.17-.25.25-.38.33-.35.67-.71.99-1.08-.09.12-.16.24-.21.35.98-.98,1.94-2,2.89-3.03.95-.9,1.9-1.79,2.83-2.69-.56.42-1.11.91-1.65,1.42,1.34-1.45,2.71-2.88,4.16-4.22-.15.35-.43.76-.46,1.04.07.05.54-.38.31-.09-.77,1.13-1.6,1.67-1.64,2.4.02.16,1.4-.6,1.13-.18-.25.32-.73.87-1.26,1.46-.17.15-.34.32-.51.49-.03.02-.04.07-.07.14-.58.62-1.15,1.21-1.48,1.51-.12.11-.25.22-.37.33-.08.04-.15.07-.23.08-.05.1-.1.19-.17.28-.33.3-.64.6-.96.9-.2.14-.4.28-.59.43.03.02.08.02.07.07-.39.38-.77.76-1.16,1.14-.18.13-.36.23-.54.31-.22.6-1.28,1.46-1.91,2.15h0c-.33.34-.67.68-1.01,1.02-.07.04-.15.07-.22.1-.05.12-.14.21-.16.27-.29.25-.56.44-.83.64-.03.06-.04.2-.13.29-.18.17-.35.35-.51.53-.2.19-.41.39-.62.58-.7.66-1.41,1.29-2.12,1.91-.05,0-.08-.03-.12-.05-.06.14-.24.26-.31.37,0-.03,0-.05-.01-.06-.25.36-.38.34-.67.59-.06.06-.09.15-.14.22-.03.03-.06.05-.1.08-.44.18-.7.53-1.04.88-.37.31-.75.63-1.12.94-.29.25-.48.27-.73.4Z"/>
        <path class="cls-1" d="M11.82,20.84c-.35.29-.69.59-1.04.88.34-.34.6-.7,1.04-.88Z"/>
        <path class="cls-1" d="M20.66,12.21c.18-.07.36-.18.54-.31-.82.81-1.62,1.63-2.44,2.47h0c.63-.7,1.69-1.56,1.91-2.16Z"/>
        <path class="cls-1" d="M12.74,20.01s-.01.04-.02.07c0,0,0,0,0,0,0-.02.01-.05.03-.07Z"/>
        <path class="cls-1" d="M21.04,9.49s.05-.05.08-.08c-.18.22-.37.43-.56.64.13-.19.3-.37.48-.56Z"/>
        <path class="cls-1" d="M23.24,7.38c.39-.42.79-.85,1.18-1.27.54-.51,1.09-1,1.65-1.42-.93.9-1.88,1.79-2.83,2.69Z"/>
        <path class="cls-1" d="M22.29,10.69c.19-.15.39-.29.59-.43-.18.17-.35.34-.52.5.01-.05-.05-.05-.07-.07Z"/>
        <path class="cls-1" d="M19.45,11.26s.08-.08.12-.13c-.08.12-.17.25-.25.38.02-.05.09-.17.13-.25Z"/>
        <path class="cls-1" d="M24.23,9c-.13.12-.26.24-.39.36.06-.09.12-.18.17-.28.07-.01.15-.04.23-.08Z"/>
        <path class="cls-1" d="M26.15,7.01c.17-.17.34-.34.51-.49-.19.21-.38.42-.58.63.02-.07.04-.12.07-.14Z"/>
      </g>
    </g>
  </g>
</svg>