<?xml version="1.0" encoding="UTF-8"?>
<svg id="Calque_2" data-name="Calque 2" xmlns="http://www.w3.org/2000/svg" viewBox="0 0 31.26 32.49">
  <defs>
    <style>
      .cls-1 {
        fill: #fff;
        stroke-width: 0px;
      }
    </style>
  </defs>
  <g id="Calque_1-2" data-name="Calque 1">
    <g id="_Éditer" data-name="Éditer">
      <g>
        <path class="cls-1" d="M27.42,24.75c.49-.53.97-1.06,1.46-1.58l.18-.2.13-.15c.08-.1.17-.21.24-.32.15-.22.26-.46.35-.7.09-.25.15-.5.18-.76.02-.13.03-.26.03-.38v-.49c0-.68,0-1.35-.01-2.01v1.57s.02.78.02.78c0,.24,0,.4-.03.61.04-.28.03-.55.04-.96,0-.37,0-.73.01-1.1.02-.72.05-1.44.07-2.26.09.48.02,1.52.13,1.77v1.44s-.02.69-.02.69c0,.19-.03.38-.07.56-.16.76-.52,1.38-1.13,1.95-1.35,1.33-2.71,2.66-4.04,3.97.83-1.26,1.73-1.66,2.45-2.43Z"/>
        <path class="cls-1" d="M30.22,12.55c0,.39,0,.76,0,1.13-.01-.39-.02-.78,0-1.13Z"/>
        <path class="cls-1" d="M4.9,30.45c-.42-.1-.84-.26-1.2-.49.37.21.78.38,1.2.49Z"/>
        <path class="cls-1" d="M24.41,28.82c-.14.18-.27.33-.43.47-.63.49-1.41.79-2.2.85-.8.02-1.77-.03-2.65-.04.5,0,.99,0,1.5,0h.76c.22-.01.45-.04.67-.07.89-.16,1.7-.59,2.35-1.21Z"/>
        <path class="cls-1" d="M25.91,27.62c1.23-1.31,2.52-2.59,3.79-3.74-1.24,1.17-2.51,2.44-3.79,3.74Z"/>
        <path class="cls-1" d="M.18,18.59s-.04-.03-.05-.08c0-.05-.02-.1-.03-.14l.09-2.17c.01.18.05.35.06.53-.03.8-.14.97-.07,1.86Z"/>
        <path class="cls-1" d="M5.38,30.55h.05c.15.01.29.03.44.02.02,0,.03,0,.05,0-.18,0-.36,0-.54-.03Z"/>
        <path class="cls-1" d="M.17,19.51s-.09.03-.12.09l.05-1.23.03.13c.03.27-.01.7.04,1Z"/>
        <path class="cls-1" d="M.94,29.62c.21.29.48.48.61.58.57.7,1.29,1.33,2.31,1.76.17.04.51.16.85.19.18.09.4.14.62.2-2.43-.28-4.63-2.14-5.27-4.62.19.65.48,1.29.88,1.89Z"/>
        <path class="cls-1" d="M18.15.7c-2.34.06-5.04-.17-7.33.07,2.68.14,6.37.2,6.76.57.39.38-3.66.03-5.76.05q.28.04.55.08c-.28-.04-.55-.08-.8-.04.55.08,1.63.15,1.94.28l-.49.09c1.41.28,4.06.34,5.47.63-3.44-.46-7.56-.59-11.86-.59-.57,0-.99,0-1.45.12-.45.11-.88.3-1.26.57-.77.53-1.33,1.35-1.55,2.24-.12.47-.13.85-.11,1.43,0,.54.02,1.08.02,1.62.01,1.08.03,2.14.04,3.19.13,4.68.46,9.02.84,13.09.02.38.03,1.04.03,1.76,0,.21,0,.29,0,.42,0,.12.03.24.04.36.05.23.11.46.2.65.34.67.95,1.19,1.64,1.41.35.11.7.15,1.06.13.57-.03,1.15-.06,1.74-.1,2.46-.09,4.89-.08,7.35-.05,1.23.01,2.48.03,3.74.04.63,0,1.27,0,1.91,0h.48c.09,0,.19,0,.28-.02.19-.02.38-.06.56-.13.29-.09.64-.2.79-.18.13,0,.11.29-.71.65-.17.07-.35.12-.53.16-.2.04-.32.05-.63.06-.54.02-1.08.04-1.62.05-1.08.03-2.16.04-3.25.04.25-.12,1.29-.05,1.77-.13-1.6-.07-2.92-.1-4.49-.09l3.14-.03c-2.62.02-5.51,0-8.37.08-.52,0-1.02-.09-1.56-.14-.24-.03-.63-.04-.78-.06-.17,0-.36,0-.67-.01.31.11.56.14.97.17l1.41.05,2.85.09c1.91.05,3.82.09,5.74.08h-.02c1.71,0,3.25,0,4.9,0-.51.02-1.03.04-1.49.02.6.02,1.19.04,1.77.06.44,0,.89-.07,1.3-.24.41-.17.79-.42,1.11-.73l1.23-1.26c-.54.61-1.12,1.38-1.58,1.74-.52.42-1.19.69-1.88.75-1.63.05-3.48.05-5.23.05-3.52,0-7.14-.02-10.44.03,1.82.22,4.41-.08,6.05.17-1.55,0-3.1-.01-4.67-.02h-1.18c-.34-.03-.67-.06-.98-.15-.64-.17-1.23-.52-1.7-.99.15.13.31.24.48.33-.63-.52-1.11-1.22-1.37-2-.13-.41-.17-.78-.18-1.25,0-.51,0-1.01,0-1.5v-.53s0,.53,0,.53c0,.45-.02.91-.03,1.35-.02.48,0,.77.07,1.15.14.72.51,1.39,1.03,1.91-.51-.44-.93-1.08-1.1-1.92.01.47.25,1.14.66,1.7.58.71,1.4,1.22,2.29,1.41-1.38-.28-2.58-1.27-3.11-2.49.31.95,1,1.79,1.89,2.29.45.25.94.42,1.45.49.5.07,1.06.05,1.61.07-.61,0-1.21.05-1.76-.04-.56-.09-1.1-.29-1.59-.58-.8-.52-1.43-1.31-1.73-2.22-.15-.45-.25-.92-.24-1.4l.02-1.53v.24s0-.47,0-.47c0-.8.01-1.61.02-2.42,0-.73-.05-1.44-.11-2.15v-.36c.03.23.07.34.09-.1.11-1.88-.08-3.91.07-6.06.04-.56.02-1.33-.01-2.15.03-.22.01-.34-.02-.45l-.02-.54c0-.44,0-.88-.03-1.3.01.42.02.86.03,1.3v.49c-.02-.11-.06-.23-.06-.47-.03,3.01-.07,6.13-.05,9.27-.03-.2-.06-.44-.08-.57.03.31.06.62.08.93.01,1.01.03,2.02.04,3.04-.02-.3-.05-.58-.1-.83,0,1.44-.02,2.91.02,4.33.08,1.39.9,2.71,2.08,3.42.54.35,1.16.59,1.81.68.63.08,1.34.05,2.01.07,1.36.02,2.71.05,4.05.07-1.45-.11-2.97-.16-4.52-.19,4.11-.05,8.23-.07,12.34.04-.74.13-1.76.23-2.22.4.03.08,1.35.11.58.16-2.8.24-4.81.03-5.96.5-.22.13,2.93.58,1.91.68-.85.04-2.37.08-4.01.11-.48,0-.97-.01-1.47-.02-.06,0-.17.02-.3.05-.44,0-.88,0-1.31.01-.22,0-.43,0-.63,0-.27-.02-.54-.01-.8-.06-1.03-.14-1.86-.53-2.39-.87-.4-.25-.76-.55-1.09-.88-.16-.19-.26-.37-.34-.51-.2-.2-.41-.41-.57-.66C.25,28.3-.04,26.98,0,25.89c.04-.5.08-1.02.12-1.5-.03.01-.07.09-.1,0,.01-1.13.02-2.26.03-3.38.04-.46.09-.87.17-1.25-.26-1.22-.1-4.03-.14-5.99h0c0-.98,0-1.97.01-2.98.03-.17.06-.32.09-.47-.04-.25-.05-.51-.07-.63.04-.8.09-1.47.15-2.15-.02-.12-.11-.35-.11-.62,0-.26,0-.52,0-.77v-.38s.02-.48.02-.48c.07-.75.29-1.49.65-2.17C1.44,1.96,2.41,1.05,3.55.53c.57-.26,1.18-.44,1.79-.5C5.64,0,5.99,0,6.24,0l.73.03c.06.03.08.08.09.12.3-.05.73-.01,1-.04-.05.01-.08.03-.08.05.89-.07,1.06.03,1.86.07.18,0,.35-.04.53-.06h.26c.91.2,1.81.14,2.82.14l3.03.15c.8.04,1.11.16,1.66.24Z"/>
        <path class="cls-1" d="M.2,15.94l.13-2.82c0,1.01.06,1.91-.13,2.82Z"/>
        <path class="cls-1" d="M14.51,32.27c.37.08.79.14,1.25.17-2.4,0-4.79-.02-7.23-.03h0c1.95-.05,4.77.12,5.99-.15Z"/>
        <path class="cls-1" d="M.12,18.51l-.03-.13h0s.02.08.03.13Z"/>
        <path class="cls-1" d="M19.11,30.64h.23c-.59.02-1.18.04-1.77.05.47-.03,1-.04,1.54-.05Z"/>
        <path class="cls-1" d="M25.02,29.03l2.46-2.64,1.63-1.61c.53-.54,1.13-.99,1.58-1.62-.38.62-.92,1.06-1.37,1.54l-1.43,1.44c-.95.96-1.91,1.93-2.87,2.9Z"/>
        <path class="cls-1" d="M19.14,32.37c.48.04,1,.08,1.5.12-.51,0-1.01-.01-1.51-.02.09-.03.01-.07,0-.1Z"/>
        <path class="cls-1" d="M14.17,30.74h.36c-.3.02-.61.05-.93.08.13-.02.37-.05.57-.08Z"/>
        <path class="cls-1" d="M25.46,31.15c-.42.32-.87.59-1.34.8.27-.14.53-.31.77-.51.16-.05.36-.15.58-.29Z"/>
        <path class="cls-1" d="M29.64,26.84c.35-.36.7-.71,1.03-1.05-.4.43-.81.87-1.21,1.3.07-.12.13-.21.18-.25Z"/>
      </g>
      <g>
        <path class="cls-1" d="M27.01,6.9c1.1-.99.74-2.52-.24-3.02.37.2.68.55.83.95-.23-.6-.66-1.03-1.32-1.25.24-.06.62.21.78.19.76.51,1.02,1.56.65,2.34-.09.19-.21.37-.35.52l-.65.59c-.48.43-.96.86-1.44,1.29.53-.9,1.24-1.08,1.75-1.59Z"/>
        <path class="cls-1" d="M24.5,3.99c.13-.12.26-.24.41-.32-.16.1-.28.22-.41.32Z"/>
        <path class="cls-1" d="M15.44,19.9c-.21.23-.42.45-.61.65.19-.23.4-.44.61-.65Z"/>
        <path class="cls-1" d="M25.01,9.78c-.11.14-.21.26-.3.37-.88.82-1.77,1.66-2.69,2.51.98-.93,1.93-2.03,2.99-2.88Z"/>
        <path class="cls-1" d="M26.11,9.03c.43-.44.88-.87,1.33-1.28.47-.41.89-.78,1.14-1.3-.24.53-.65.91-1.12,1.32-.45.42-.9.85-1.35,1.27Z"/>
        <path class="cls-1" d="M7.71,19.37s-.03-.03-.04-.08c0-.05,0-.09,0-.12.17-.59.4-1.13.68-1.64-.05.14-.07.27-.12.41-.26.58-.41.68-.52,1.43Z"/>
        <path class="cls-1" d="M15.67,19.66v-.03s.22-.23.22-.23c.01,0,.02-.01.03-.02-.09.1-.17.19-.25.28Z"/>
        <path class="cls-1" d="M7.58,20.27s-.09.03-.12.11c.04-.57.12-.85.21-1.2,0,.04,0,.08,0,.12-.02.25-.12.54-.1.97Z"/>
        <path class="cls-1" d="M14.64,22.8c.2-.12.32-.31.4-.38.26-.15.55-.34.82-.57l.59-.49c.04-.08.17-.2.26-.35.1-.05.19-.1.29-.16l-.65.63c-.25.23-.37.37-.78.73-.7.56-1.38.88-2.1,1.17.38-.16.76-.35,1.17-.56Z"/>
        <path class="cls-1" d="M23.32,3.15c-1.09,1.18-2.56,2.33-3.5,3.6,1.4-1.2,3.23-2.95,3.68-2.87.46.08-1.75,1.8-2.75,2.83q.16-.11.32-.21c-.16.11-.32.21-.41.36.32-.21.9-.68,1.14-.74l-.18.3c.88-.48,2.21-1.72,3.09-2.21-3.98,2.69-8.35,7.61-12.36,11.72-.27.29-.53.59-.8.88-.12.14-.28.31-.37.43-.09.11-.17.24-.25.37-.32.56-.56,1.22-.67,1.83-.03.15-.05.31-.06.45,0,.12-.02.35,0,.36.03.13.07.25.15.33.15.18.43.13.54.03.06-.02-.06-.01.14-.04.14-.02.3-.05.48-.1.36-.09.78-.23,1.1-.37.27-.15.53-.32.71-.48.12-.1.1-.09.27-.28l.41-.44c.54-.59,1.07-1.19,1.58-1.8,2.28-2.5,4.75-4.65,7.28-7.22.5-.51,1.46-.95.28.38-.95,1.12-1.98,2.2-3.03,3.25.04-.2.59-.65.77-.95-.83.72-1.49,1.34-2.25,2.11l1.51-1.53c-1.26,1.28-2.68,2.66-4.03,4.09-.5.51-1.21.69-1.75,1.59,1.91-1.71,3.88-3.46,5.75-5.31v.02c.83-.83,1.58-1.57,2.38-2.37-.24.26-.48.53-.71.73,1.24-1.08,2.41-2.21,3.58-3.34-2.98,3.51-6.8,6.91-9.99,10.28,1.06-.78,2.1-2.2,3.08-2.83-.76.74-1.52,1.49-2.29,2.24-.39.37-.78.74-1.17,1.12-.38.35-.82.81-1.13,1.03.11-.09.18-.19.25-.28-.8.58-2.21,1.25-3.19,1.28-.06,0-.13,0-.2,0,.06,0,.14.01.2,0,.9-.03,2.14-.44,2.94-1.01-.34.31-.82.58-1.42.78.35-.05.83-.22,1.26-.46.29-.18.48-.33.74-.6l.77-.75c-.36.38-.73.75-1.1,1.14-.35.31-.76.58-1.17.82.68-.26,1.26-.59,1.79-1.14l1.65-1.56-1.73,1.77c-.95.89-2.32,1.39-3.61,1.53.05,0,.1-.01.15-.02-.1.02-.19.02-.27.03-.45.02-.94-.05-1.27-.37-.29-.3-.4-.7-.46-1.12,0-.07,0-.15,0-.22.02.14.05.19.1-.05.11-.57.29-1.19.55-1.8.26-.61.61-1.22,1.15-1.64.3-.25.66-.63,1.03-1.05.13-.09.17-.16.2-.23l.25-.27c.21-.21.42-.43.61-.66-.19.21-.4.43-.61.66l-.23.24c.03-.08.06-.16.18-.28-.37.36-.74.72-1.12,1.09-.39.38-.76.71-1.03,1.13-.56.84-.98,1.86-1.08,2.85-.02-.11-.03-.29-.03-.37,0,.21,0,.4.02.58-.04.59.22,1.28.84,1.44-.18-.04-.34-.1-.49-.17.33.31.81.39,1.26.38.44-.01.94-.11,1.39-.26.92-.3,1.82-.74,2.47-1.44,1.37-1.28,2.73-2.56,4.06-3.82-.78.62-1.56,1.32-2.34,2.04,1.97-2.02,3.96-4.02,6.04-5.92-.27.45-.7,1.01-.8,1.36.07.05.74-.57.4-.16-1.2,1.52-2.33,2.34-2.55,3.23-.01.2,1.84-1,1.41-.44-.38.44-1.1,1.2-1.87,2.01-.24.23-.48.46-.73.69-.04.02-.07.09-.11.18-.85.87-1.67,1.69-2.15,2.12-.13.12-.47.43-.72.59-.15.08-.29.14-.4.15-.14.13-.29.25-.44.35-.7.36-1.39.61-2.13.79-.22.02-.42.06-.64.07-.24.02-.38.02-.74.02.01.03.12.06,0,.1-.69,0-1.36-.08-1.93-.39-.28-.16-.54-.35-.76-.58-.2-.25-.37-.52-.5-.81-.16-.5-.18-1.01-.09-1.43-.26-1.52.58-3.37,1.74-4.79h0c.18-.21.29-.31.41-.43l.36-.36.73-.72c.1-.06.2-.12.29-.16.09-.15.21-.28.26-.36.41-.36.78-.65,1.15-.94.04-.08.1-.25.22-.38.26-.25.51-.5.74-.74.29-.27.58-.55.88-.83,1-.94,2-1.85,3-2.74.05,0,.09.02.13.04.11-.19.34-.36.46-.51-.02.04-.02.06,0,.08.38-.48.54-.49.95-.85.09-.09.14-.2.22-.3l.14-.12c.57-.31.97-.79,1.46-1.28l1.57-1.36c.41-.36.65-.42.97-.64Z"/>
        <path class="cls-1" d="M8.46,17.35c.19-.33.4-.65.64-.96.13-.16.25-.31.41-.47l.23-.23.18-.16-.18.18-.23.25c-.14.17-.26.33-.37.49-.23.31-.43.61-.68.89Z"/>
        <path class="cls-1" d="M21.29,16.42c.24-.12.48-.29.73-.48-1.18,1.15-2.35,2.3-3.54,3.47h0c.93-.98,2.41-2.22,2.82-2.99Z"/>
        <path class="cls-1" d="M7.67,19.29s0-.07,0-.12h0s0,.07,0,.12Z"/>
        <path class="cls-1" d="M22.39,13.05l.12-.11c-.28.3-.55.59-.83.89.21-.25.45-.51.71-.78Z"/>
        <path class="cls-1" d="M25.55,10.06l1.73-1.77c.38-.37.8-.69,1.14-1.11.34-.42.56-.93.67-1.45-.06.5-.24.97-.52,1.39-.28.43-.66.72-.99,1.04-.68.63-1.36,1.27-2.04,1.91Z"/>
        <path class="cls-1" d="M23.62,14.27c.26-.2.54-.42.82-.64-.25.24-.5.48-.75.71.03-.07-.04-.06-.07-.07Z"/>
        <path class="cls-1" d="M20.05,15.5l.17-.18c-.13.16-.26.33-.39.51.05-.08.14-.21.22-.33Z"/>
        <path class="cls-1" d="M26.37,11.83c-.19.17-.37.34-.56.51.09-.12.18-.24.27-.37.09-.03.19-.08.29-.14Z"/>
        <path class="cls-1" d="M29.16,9.05l.19-.18.29-.31c.18-.21.35-.43.49-.66-.16.29-.36.57-.59.81l-.27.29-.21.22c.04-.09.08-.16.11-.18Z"/>
      </g>
      <g>
        <path class="cls-1" d="M22.98,27.44c.07.57.05,1.15.08,1.67l-.03-.63c.01.31-.02.58-.09.89-.09-.1-.02-.3-.13-.35,0-.76.14-1.53.27-2.27.27.29-.1.48-.1.69Z"/>
        <path class="cls-1" d="M22.81,30.22c0-.08,0-.15,0-.23.01.08.02.16,0,.23Z"/>
        <path class="cls-1" d="M22.4,22.51c.03-.08.06-.17.11-.23-.03.08-.07.16-.11.23Z"/>
        <path class="cls-1" d="M22.34,26.44s-.04-.09-.05-.14c.03-.33.07-.69.11-1.07-.03.39.08.81-.06,1.21Z"/>
        <path class="cls-1" d="M22.1,26.82c.01.36-.03.72-.15,1.06.09-.34.13-.7.15-1.06Z"/>
        <path class="cls-1" d="M24.09,19.61s0-.04,0-.06c.01,0,.02-.02.03-.04.2-.03.4-.04.61-.03-.05.02-.08.07-.13.08-.22,0-.29-.08-.51.05Z"/>
        <path class="cls-1" d="M22.36,22.59s0,.01,0,.01l-.03.08s0,0-.01,0c0-.04.02-.07.03-.1Z"/>
        <path class="cls-1" d="M23.84,19.68s-.04-.08-.06-.1c.11-.03.23-.04.34-.06-.01.01-.02.02-.03.04-.06.05-.19.04-.25.12Z"/>
        <path class="cls-1" d="M21.49,20.86c-.05.06-.03.17-.03.21-.16.12-.33.24-.49.42,0,.04-.04.11-.04.19-.05.02-.1.04-.15.07.26-.45.61-.86,1.02-1.21-.11.11-.19.2-.31.32Z"/>
        <path class="cls-1" d="M30.83,20.29c-.47.06-1-.17-1.46.07.53.14,1.27.2,1.35.57.08.38-.73.03-1.15.05q.06.04.11.08c-.06-.04-.11-.08-.16-.04.11.08.32.15.39.28l-.1.09c.28.28.81.34,1.09.63-1.37-.91-3.28-.53-4.95-.45-.51.06-.82.18-1.08.4-.25.21-.42.49-.5.77-.04.09-.21.18-.33.27-.13.23-.21.48-.15.73,0,.27-.04.38-.07.72-.03.49-.07.99-.04,1.51,0,.21-.36.5-.47-.02-.13-.43-.18-.86-.18-1.29.12.05.05.26.13.35.04-.16.06-.3.07-.45,0-.08,0-.15.01-.21,0-.04,0-.09,0-.13l.02.53v-.4c0-.08-.01-.16,0-.24.02-.16.03-.33.07-.5.04-.13.41-.05.26-.32-.16.15-.32.33-.42.55-.05.11-.09.22-.12.34,0,.07-.02.13-.03.19,0,.1,0,.19,0,.29h0c.02.34,0,.64,0,.97-.02-.1-.04-.21-.02-.3-.1.48-.13.95-.15,1.42-.2-.67-.23-1.37-.23-2.08,0-.39.02-.6.06-.87.06-.26.13-.5.22-.75-.32.18-.18.65-.44.85.07-.5.31-.96.66-1.32-.01.04-.02.08-.02.12.28-.16.43-.45.7-.6.02-.01.05-.02.07-.03-.02,0-.05.02-.07.03-.25.12-.47.29-.67.48.05-.12.13-.24.27-.32-.12,0-.23.07-.35.15-.11.13-.22.27-.32.41.12-.24.25-.47.36-.73-.33.22-.57.56-.78.9.08-.21.17-.41.29-.6.25-.28.54-.53.86-.72l-.03.03.06-.05c.13-.07.25-.15.39-.2.11-.06.21-.16.32-.26l.06-.03s-.03.09.05.08c.34,0,.67-.24,1.08-.1.11.04.26.02.43-.01.04.03.07.01.09-.02l.11-.02c.09,0,.17,0,.26-.03-.08,0-.17.02-.26.03-.03,0-.06,0-.1,0,.02-.03.05-.07.09-.07-.61-.03-1.2-.1-1.75.13.03-.04.06-.08.08-.11-.05.05-.09.09-.14.14-.18.07-.34.16-.49.27.04-.05.07-.1.09-.16-.5.22-.91.63-1.2,1.09-.34.38-.6.85-.72,1.36.21-.38.33-.58.43-.76-.13.36-.2.72-.23,1.1-.03.36-.03.81-.09,1.2-.13-.15-.23-.35-.4-.44-.08,0-.11.27-.16.12-.24-.55-.03-.97-.44-1.31-.14-.1-.65.7-.73.43-.03-.24-.03-.68.07-1.14.06-.16.1-.27.15-.4.01-.01,0-.05-.01-.1.17-.49.43-.92.61-1.12.07-.08.14-.15.2-.22.05-.03.1-.04.16-.04.02-.07.04-.13.07-.19.19-.18.4-.34.6-.5.14-.05.29-.11.41-.15-.02-.02-.06-.04-.06-.08.27-.17.55-.31.85-.43.13-.02.26,0,.38.04.22-.38,1.06-.41,1.59-.43h0c.2,0,.4,0,.61,0,.03.03.06.06.09.09.05-.04.1-.05.13-.07.16.04.29.09.43.15.02-.02.07-.11.12-.11.1,0,.21,0,.3,0,.11.01.23.02.35.03.4.05.79.11,1.18.19.01.03.02.08.02.12.06-.05.14-.01.2-.04-.01.01-.02.03-.02.05.18-.07.21.03.37.07.04,0,.07-.04.11-.06h.05c.18.2.36.14.56.14l.6.15c.16.04.22.16.33.24Z"/>
        <path class="cls-1" d="M24.8,19.49c.25,0,.54.05.73.09-.21,0-.48.07-.73-.09Z"/>
        <path class="cls-1" d="M20.24,24.29c-.08.11-.14.17-.18.27,0-.18.01-.64.07-.97.05-.35.14-.71.27-1.05h0c-.17.55-.45,1.38-.18,1.74Z"/>
        <path class="cls-1" d="M24.09,19.56s.02-.02.03-.04h0s-.02.03-.03.04Z"/>
        <path class="cls-1" d="M21.86,25.23v.05c-.02-.13-.04-.24-.05-.35.03.09.04.2.05.31Z"/>
        <path class="cls-1" d="M21.76,26.49c.01.24.03.48.04.72-.03.31-.08.61-.19.9.05-.51.1-1.07.15-1.62Z"/>
        <path class="cls-1" d="M20.13,25.23c-.04.09-.08.2-.12.3,0-.1.01-.2.02-.3.03.02.07,0,.1,0Z"/>
        <path class="cls-1" d="M21.77,24.24v.07c-.02-.06-.05-.13-.07-.19.02.03.05.08.07.12Z"/>
        <path class="cls-1" d="M19.92,26.3c.01-.08.02-.15.03-.22.02.04.04.09.07.13-.04.02-.08.05-.1.09Z"/>
        <path class="cls-1" d="M19.94,27.44c0,.1,0,.2-.02.29,0-.12-.02-.24-.03-.35.03.03.06.05.05.06Z"/>
      </g>
    </g>
  </g>
</svg>