<?xml version="1.0" encoding="UTF-8"?>
<svg id="Calque_2" data-name="Calque 2" xmlns="http://www.w3.org/2000/svg" viewBox="0 0 32.54 33.08">
  <defs>
    <style>
      .cls-1 {
        fill: #fff;
        stroke-width: 0px;
      }
    </style>
  </defs>
  <g id="Calque_1-2" data-name="Calque 1">
    <g id="Discuter">
      <g>
        <path class="cls-1" d="M18.98,29.99c1.65-.02,3.28-.04,4.89-.05.4,0,.8,0,1.2,0,.19,0,.41,0,.58,0,.16-.01.32-.01.47-.03.62-.07,1.21-.27,1.73-.56-.42.23-.87.39-1.34.5-.48.09-.91.11-1.55.11.22,0,.44,0,.65,0,.17-.01.35-.01.51-.03.34-.04.66-.11.98-.21.64-.2,1.24-.52,1.81-1.01-.25.41-1.13.86-1.31,1.04-.42.18-.86.32-1.32.37-.23.05-.46.03-.69.05h-.81c-1.09-.03-2.18-.05-3.27-.07-2.17-.06-4.34-.12-6.47-.18,1.69-.27,2.74.1,3.94.1Z"/>
        <path class="cls-1" d="M30.58,25.14c0,.37-.04.73-.11,1.08.07-.37.09-.74.11-1.08Z"/>
        <path class="cls-1" d="M2.1,12.97c.07-.5.19-.99.33-1.45-.12.48-.25.96-.33,1.45Z"/>
        <path class="cls-1" d="M13.46,30.51c-.19-.07-.48-.19-.71-.29-1.77-.91-3.51-1.94-5.06-3.23,1.69,1.4,3.86,2.46,5.77,3.53Z"/>
        <path class="cls-1" d="M15.41,30.87c2.05-.01,4.13.03,6.08.15-1.95-.09-4-.13-6.08-.15Z"/>
        <path class="cls-1" d="M11.32.73s.02-.05.08-.08c.06-.02.12-.05.16-.07.88-.25,1.79-.3,2.68-.41-.22.03-.42.11-.64.15-.98.12-1.22.03-2.28.41Z"/>
        <path class="cls-1" d="M1.99,13.52v.05c-.02.17-.03.34-.05.51,0,.02,0,.04-.01.06.02-.21.02-.41.06-.62Z"/>
        <path class="cls-1" d="M10.21,1.08s-.06-.07-.15-.07c.48-.2.99-.31,1.49-.43l-.15.07c-.32.12-.85.21-1.18.43Z"/>
        <path class="cls-1" d="M1.66,8.78c-.15.3-.16.61-.2.76-.38.76-.69,1.56-.97,2.53-.01.16-.07.48-.09.79-.07.17-.15.36-.2.57.35-2.19,1.13-4.36,2.38-6.37-.34.53-.61,1.12-.91,1.71Z"/>
        <path class="cls-1" d="M32.01,24.75c-.06-2.67.17-5.76-.07-8.37-.14,3.06-.2,7.28-.57,7.73-.38.45-.03-4.18-.05-6.58q-.04.32-.08.63c.04-.32.08-.63.04-.91-.08.63-.15,1.86-.28,2.21l-.09-.56c-.28,1.61-.34,4.64-.63,6.25.23-1.97.37-4.12.47-6.4.05-1.14.08-2.31.1-3.5v-.45c.02-.12.01-.19-.02-.32l-.17-.85c-.15-.56-.3-1.13-.52-1.67-.4-1.11-1-2.15-1.65-3.15-.69-.97-1.48-1.89-2.36-2.69-1.77-1.59-3.9-2.74-6.08-3.34-2.45-.61-4.98-.52-7.2.11-2.21.65-4.06,1.88-5.41,3.41-.14.13-.3.34-.5.56-.2.22-.44.47-.65.77-.46.56-.89,1.25-1.22,1.83-.54,1.07-.9,2.22-1.16,3.38-.23,1.17-.3,2.36-.24,3.52.12,2.47.8,4.74,2.21,6.72,1.42,1.97,3.47,3.64,5.97,4.98,1,.52,2.25,1.59-.32.35-2.1-1.03-4.06-2.36-5.54-4.09.25.13.94.97,1.39,1.23-1.19-1.19-2.02-2.27-2.78-3.66.47.95,1.15,1.79,1.86,2.59-1.84-1.97-3.12-4.7-3.23-7.68-.06-1.09.36-2,.39-3.54-.46,1.88-.57,3.9-.21,5.82.37,1.92,1.28,3.72,2.58,5.25h-.02c1.17,1.34,2.47,2.39,3.98,3.35-.48-.28-.95-.6-1.33-.9,1.01.81,2.1,1.52,3.25,2.16.57.32,1.16.63,1.76.92l.23.12c.08,0,.12,0,.24,0h1.02s-.72.04-.72.04l-.35.02-.17.02c-.12,0-.65-.26-1.08-.46-.87-.4-1.73-.84-2.56-1.33-1.65-.98-3.22-2.16-4.47-3.6-1.25-1.44-2.18-3.13-2.66-4.93-.48-1.8-.57-3.7-.37-5.52-.27,1.01-.23,2.23-.14,3.39.06.58.18,1.14.26,1.67.15.52.23,1.02.33,1.46-1.11-3.17-.92-6.8.35-10.02-.07.25-.17.48-.21.73.77-1.99,1.86-4.02,3.37-5.51.12-.14.28-.25.42-.38-.14.12-.3.23-.42.38-1.39,1.35-2.45,3.01-3.16,4.78.13-.42.29-.85.51-1.27.19-.44.46-.88.77-1.34-.4.46-.84,1.22-1.23,2.01-.44,1.07-.8,2.17-1.01,3.3.31-1.75.87-3.42,1.58-4.88-1.25,2.08-1.98,4.57-2.11,7.02.05-1.35.24-2.7.64-4,.67-2.17,1.86-4.19,3.46-5.83l-.17.2.35-.39c.32-.31.67-.59,1.01-.89.35-.28.74-.52,1.1-.78.69-.42,1.36-.86,2.09-1.19l.37-.15c-.22.13-.32.21.14.05,1.98-.6,4.29-1.06,6.67-.66.31.06.67.12,1.07.18.4.06.82.18,1.27.26.24.08.36.11.48.12l.57.18c.47.14.91.35,1.36.52-.43-.2-.88-.4-1.36-.52l-.52-.17c.13.01.26.02.52.11-1.58-.58-3.3-.9-5.04-.92-1.74.02-3.51.26-5.17.87.18-.12.46-.23.58-.28-.33.1-.64.29-.95.43-.26.11-.53.21-.78.33l-.74.41c-.51.25-.94.63-1.41.95.26-.21.5-.42.71-.61-2.78,1.74-4.69,4.66-5.6,7.79-.96,2.92-1.07,6.12-.18,9.05-.44-1.59-.54-3.32-.46-5.05-.06,2.3.32,4.64,1.39,6.67.5,1.03,1.18,1.97,1.91,2.86.77.85,1.58,1.68,2.5,2.39-.75-.4-1.68-1.09-2.17-1.36-.06.1,1.07,1.15.37.59-1.28-1.03-2.15-2.17-2.81-3.14-.29-.48-.55-.9-.82-1.36-.22-.41-.45-.76-.69-1.05-.1-.1.07.78.27,1.56.24.76.45,1.43.1.88-.6-.89-1.4-2.72-1.75-4.78-.11-.6-.14-1.22-.16-1.86,0-.08-.03-.21-.07-.38-.09-2.25.37-4.35.76-5.46.12-.42.27-.83.45-1.22.11-.2.21-.37.3-.49.06-.27.17-.52.27-.77.26-.52.53-1.03.85-1.51.29-.5.64-.96,1-1.41.39-.5.9-.91,1.34-1.35-.03-.01-.13.03-.07-.07,1.05-.98,2.18-1.89,3.47-2.52.52-.26,1.04-.41,1.5-.5.33-.21.79-.44,1.35-.6.29-.09.58-.17.89-.27.31-.08.65-.12.99-.18.34-.05.69-.12,1.04-.15.35-.02.7-.03,1.04-.05.69-.05,1.36,0,1.97.02h0c1.23.07,2.45.32,3.65.66.19.09.36.19.53.28.31.06.61.16.77.19.91.42,1.64.83,2.33,1.32.14.06.44.11.71.31.53.38,1.06.72,1.52,1.13.57.45,1.06.98,1.58,1.5,1.66,1.84,2.88,3.98,3.63,6.25,0,.08-.04.12-.08.15.16.34.27.84.4,1.15-.03-.06-.06-.09-.08-.07.17.52.22.84.27,1.15,0,.14.09.35.05.6-.01.18-.02.38-.04.61,0,.21.04.4.06.6v.3c-.2,1.04-.14,2.07-.14,3.22l-.15,3.46c-.04.91-.16,1.26-.24,1.9Z"/>
        <path class="cls-1" d="M14.56.17c1.16-.05,2.32,0,3.46.19-.62-.1-1.21-.07-1.78-.12-.57-.02-1.12,0-1.69-.07Z"/>
        <path class="cls-1" d="M2.43,24.41c.21.43.43.94.79,1.4C1.29,23.41.11,20.31,0,17.2h0c.04,1.24.33,2.77.75,4.13.48,1.35,1.12,2.51,1.67,3.08Z"/>
        <path class="cls-1" d="M11.4.66l.15-.07h.01s-.1.05-.16.07Z"/>
        <path class="cls-1" d="M7.34,27.39l.21.17c-.55-.39-1.06-.83-1.57-1.28.43.33.86.75,1.36,1.11Z"/>
        <path class="cls-1" d="M13.52,31.19c1.41.02,2.76-.02,4.14-.03,1.77.03,3.5.08,5.16.19-3.09-.05-6.15-.08-9.31-.16Z"/>
        <path class="cls-1" d="M6.29,28.77c.46.42.93.81,1.42,1.2-.51-.36-1.01-.72-1.49-1.12.11.05.06-.04.07-.07Z"/>
        <path class="cls-1" d="M3.51,23.27c.07.12.15.23.23.35-.23-.27-.41-.58-.61-.88.08.12.25.35.38.53Z"/>
        <path class="cls-1" d="M11.69,32.34c-.39-.21-.77-.42-1.16-.63.24.11.48.21.72.29.11.1.25.22.43.33Z"/>
        <path class="cls-1" d="M19,33.03c.58,0,1.14.01,1.68.02-.67,0-1.35.02-2.03.03.15-.03.28-.06.35-.05Z"/>
      </g>
      <g>
        <path class="cls-1" d="M16.33,9.56c.23-.07.46-.05.67-.08-.08,0-.17.02-.25.03.13-.01.23.02.36.09-.04.09-.12.02-.14.13-.31,0-.61-.14-.91-.27.12-.27.19.1.28.1Z"/>
        <path class="cls-1" d="M17.45,9.73s-.06,0-.09,0c.03-.01.06-.02.09,0Z"/>
        <path class="cls-1" d="M14.31,10.66s-.07.03-.1.03c.03-.03.07-.03.1-.03Z"/>
        <path class="cls-1" d="M15.93,10.2s-.04.04-.06.05c-.14-.03-.28-.07-.43-.11.16.03.33-.08.48.06Z"/>
        <path class="cls-1" d="M16.08,10.45c.14-.01.29.03.43.15-.14-.09-.28-.13-.43-.15Z"/>
        <path class="cls-1" d="M13.23,12.03s0,.04,0,.05c0,0,0,.02-.01.03-.06-.03-.12-.06-.17-.09.01-.01.03-.05.04-.06.06.03.08.14.15.07Z"/>
        <path class="cls-1" d="M14.35,10.65s0,0,0-.01c.01,0,.02-.01.04-.02,0,0,0,0,0,0-.01.01-.03.02-.04.02Z"/>
        <path class="cls-1" d="M13.31,12.04s0,.09,0,.12c-.03-.02-.07-.03-.1-.05,0,0,0-.02.01-.03.02-.03.06.01.08-.04Z"/>
        <path class="cls-1" d="M14.05,12.38s.04-.09.05-.11c.05.06.11.11.17.15,0-.02.03-.02.05-.07.01.03.02.06.04.09-.14-.01-.28-.03-.43-.06.04,0,.08,0,.12,0Z"/>
        <path class="cls-1" d="M10.67,11.16c.19-.06.4.17.59-.07-.21-.14-.51-.2-.54-.57-.03-.38.29-.03.46-.05t-.04-.08s.04.08.06.04c-.04-.08-.13-.15-.15-.28l.04-.09c-.11-.28-.32-.34-.44-.63.55.91,1.32.53,1.99.45.37-.13.72-.46,1.05-.84.06-.05.21-.02.31,0,.19-.06.37-.13.56-.28.39-.17.78.04,1.2,0,.08,0,.2.36,0,.47-.17.13-.34.18-.52.18.02-.12.1-.05.14-.13-.13-.07-.23-.1-.36-.09.08,0,.17-.02.25-.03-.21.02-.44,0-.67.08-.08,0-.16-.36-.28-.1.3.13.61.27.91.27,0,0,0,0,0,0,.14-.02.26,0,.39,0-.04.02-.08.04-.12.02.19.1.38.13.57.15-.53.4-1.13.13-1.67.28.15.19.35-.08.49.16-.25,0-.5-.03-.75-.08.02-.01.04-.03.06-.05-.16-.14-.33-.02-.48-.06-.01,0-.03,0-.04-.01.01,0,.03,0,.04.01.14.04.29.08.43.11-.06.04-.13.05-.22.02.04.08.11.11.17.15.08,0,.17.01.25.02-.13.01-.26.07-.37.16.17.08.35.09.53.13-.1.01-.19.03-.29.04-.16-.04-.32-.07-.49-.1,0,0,.01,0,.02,0-.01,0-.03,0-.04,0-.06,0-.13-.02-.19-.02-.06,0-.12.05-.17.11,0,0-.02,0-.03,0,.02-.04.03-.07,0-.09-.15-.11-.31.08-.48-.07-.05-.04-.11-.02-.17.01-.02-.03-.03-.01-.04.02-.01,0-.03.01-.04.02-.03,0-.07,0-.1.03.03,0,.07-.02.1-.03.01,0,.03,0,.04,0,0,.03-.02.07-.04.07.24.03.49.07.74.05-.02.03-.04.06-.05.08.02-.03.05-.06.07-.08.08,0,.16-.02.24-.04-.02.02-.05.05-.07.1.23.02.46-.01.7-.05.22.05.43.11.65.15-.12-.11-.24-.16-.36-.19.33-.05.66-.08.99.04-.06.13-.14.23-.18.4,0,.08.11.11.05.16-.22.24-.38.03-.48.5-.02.13.23.58.15.68-.07.04-.19.08-.32.11-.04-.01-.08-.02-.12-.02,0,0-.01.02-.02.05-.14.02-.28.02-.35,0-.03-.01-.06-.02-.08-.03-.01-.03-.03-.06-.04-.1-.02.03-.03.06-.05.07-.07-.02-.15-.04-.22-.06-.04-.04-.08-.09-.12-.12,0,.03,0,.07,0,.1-.09-.01-.18-.02-.27-.03-.04-.04-.07-.09-.1-.17-.1.26-.32.1-.48.14h0c-.08,0-.16,0-.24,0-.01-.03-.03-.06-.04-.09-.02.04-.04.05-.05.07-.06-.04-.12-.09-.17-.15,0,.02-.03.11-.05.11-.04,0-.08,0-.12,0-.05,0-.09-.02-.14-.03-.16-.05-.32-.11-.47-.19,0-.03,0-.08,0-.12-.02.05-.06.01-.08.04,0-.01,0-.03,0-.05-.07.07-.08-.03-.15-.07-.01,0-.03.04-.04.06,0,0-.01,0-.02-.01-.07-.19-.14-.13-.23-.13-.08-.05-.16-.1-.24-.15-.06-.04-.09-.16-.13-.24Z"/>
        <path class="cls-1" d="M13.02,12.01c-.08-.04-.15-.09-.23-.13.08,0,.15-.06.23.13Z"/>
        <path class="cls-1" d="M15.08,12.31c.03.08.06.14.1.17-.19-.02-.38-.02-.58-.03h0c.16-.05.38.12.48-.15Z"/>
        <path class="cls-1" d="M13.23,12.08s0,.02-.01.03c0,0,0,0,0,0,0-.01,0-.02.01-.03Z"/>
        <path class="cls-1" d="M15.44,10.68s.01,0,.02,0c-.05.02-.09.04-.14.05.04-.03.08-.04.12-.05Z"/>
        <path class="cls-1" d="M15.95,10.78c.1-.02.19-.03.29-.04.12.03.25.08.36.19-.22-.04-.43-.09-.65-.15Z"/>
        <path class="cls-1" d="M15.45,12.41s.08.08.12.12c-.04,0-.08-.02-.12-.02,0-.03,0-.07,0-.1Z"/>
        <path class="cls-1" d="M15.05,10.77s.02,0,.03,0c-.02.03-.05.05-.07.08,0-.02.03-.05.05-.08Z"/>
        <path class="cls-1" d="M15.87,12.62s-.06-.02-.09-.03c.02-.02.03-.04.05-.07,0,.04.02.08.04.1Z"/>
        <path class="cls-1" d="M16.33,12.61s.08,0,.12.02c-.05.01-.09.02-.14.03.01-.03.02-.06.02-.05Z"/>
      </g>
      <g>
        <path class="cls-1" d="M20.85,15.14c.41-.07.83-.05,1.2-.08-.15,0-.3.02-.45.03.22-.01.41.02.64.09-.07.09-.22.02-.25.13-.55,0-1.1-.14-1.63-.27.21-.27.34.1.49.1Z"/>
        <path class="cls-1" d="M22.85,15.31c-.06,0-.11,0-.16,0,.06-.01.11-.02.16,0Z"/>
        <path class="cls-1" d="M17.21,16.24c-.06.02-.13.03-.19.03.06-.03.12-.03.19-.03Z"/>
        <path class="cls-1" d="M20.13,15.78s-.07.04-.1.05c-.25-.03-.51-.07-.77-.11.28.03.59-.08.87.06Z"/>
        <path class="cls-1" d="M20.4,16.02c.26-.01.52.03.76.15-.24-.09-.5-.13-.76-.15Z"/>
        <path class="cls-1" d="M15.29,17.61s0,.04-.01.05c0,0-.01.02-.02.03-.1-.03-.21-.06-.31-.09.03-.01.05-.05.08-.06.11.03.14.14.27.07Z"/>
        <path class="cls-1" d="M17.28,16.23s0,0,0-.01c.02,0,.04-.01.06-.02,0,0,0,0,0,0-.03.01-.05.02-.08.02Z"/>
        <path class="cls-1" d="M15.42,17.62s0,.09.01.12c-.06-.02-.12-.03-.18-.05,0,0,.01-.02.02-.03.04-.03.1.01.14-.04Z"/>
        <path class="cls-1" d="M16.75,17.96s.07-.09.09-.11c.1.06.19.11.31.15.02-.02.06-.02.09-.07.02.03.04.06.07.09-.25-.01-.51-.03-.77-.06.07,0,.14,0,.22,0Z"/>
        <path class="cls-1" d="M10.69,16.74c.34-.06.72.17,1.05-.07-.38-.14-.91-.2-.97-.57-.06-.38.53-.03.83-.05t-.08-.08s.08.08.11.04c-.08-.08-.23-.15-.28-.28l.07-.09c-.2-.28-.58-.34-.78-.63.99.91,2.36.53,3.56.45.67-.13,1.29-.46,1.88-.84.11-.05.38-.02.56,0,.34-.06.67-.13,1-.28.71-.17,1.39.04,2.14,0,.15,0,.36.36-.01.47-.31.13-.62.18-.93.18.04-.12.18-.05.25-.13-.23-.07-.42-.1-.64-.09.15,0,.3-.02.45-.03-.38.02-.79,0-1.2.08-.15,0-.28-.36-.49-.1.53.13,1.09.27,1.63.27,0,0,0,0,0,0,.24-.02.47,0,.7,0-.07.02-.15.04-.21.02.34.1.68.13,1.02.15-.96.4-2.03.13-3,.28.27.19.64-.08.87.16-.44,0-.89-.03-1.35-.08.03-.01.07-.03.1-.05-.28-.14-.59-.02-.87-.06-.03,0-.05,0-.08-.01.03,0,.05,0,.08.01.26.04.52.08.77.11-.12.04-.24.05-.39.02.08.08.19.11.31.15.15,0,.3.01.45.02-.23.01-.46.07-.67.16.31.08.63.09.95.13-.17.01-.35.03-.52.04-.29-.04-.58-.07-.88-.1.01,0,.02,0,.03,0-.02,0-.04,0-.07,0-.12,0-.23-.02-.35-.02-.1,0-.21.05-.31.11-.02,0-.03,0-.05,0,.03-.04.05-.07-.01-.09-.27-.11-.56.08-.87-.07-.08-.04-.19-.02-.31.01-.03-.03-.05-.01-.06.02-.03,0-.05.01-.08.02-.06,0-.13,0-.19.03.06,0,.12-.02.19-.03.02,0,.05,0,.07,0-.02.03-.03.07-.07.07.43.03.88.07,1.33.05-.03.03-.07.06-.08.08.04-.03.09-.06.13-.08.15,0,.29-.02.44-.04-.04.02-.08.05-.12.1.41.02.83-.01,1.25-.05.39.05.78.11,1.17.15-.21-.11-.43-.16-.65-.19.59-.05,1.18-.08,1.77.04-.11.13-.25.23-.32.4,0,.08.19.11.08.16-.4.24-.69.03-.85.5-.03.13.42.58.27.68-.12.04-.34.08-.57.11-.07-.01-.14-.02-.21-.02,0,0-.02.02-.04.05-.25.02-.5.02-.63,0-.05-.01-.1-.02-.15-.03-.03-.03-.05-.06-.07-.1-.03.03-.06.06-.09.07-.13-.02-.26-.04-.39-.06-.07-.04-.14-.09-.22-.12,0,.03.01.07,0,.1-.16-.01-.32-.02-.48-.03-.07-.04-.13-.09-.18-.17-.17.26-.58.1-.86.14h0c-.14,0-.28,0-.43,0-.02-.03-.05-.06-.07-.09-.04.04-.07.05-.09.07-.11-.04-.21-.09-.31-.15-.02.02-.05.11-.09.11-.08,0-.15,0-.22,0-.08,0-.17-.02-.25-.03-.29-.05-.57-.11-.85-.19,0-.03-.01-.08-.01-.12-.04.05-.1.01-.14.04,0-.01.01-.03.01-.05-.13.07-.15-.03-.27-.07-.03,0-.05.04-.08.06-.01,0-.03,0-.04-.01-.13-.19-.26-.13-.4-.13-.14-.05-.29-.1-.43-.15-.11-.04-.16-.16-.24-.24Z"/>
        <path class="cls-1" d="M14.91,17.58c-.14-.04-.27-.09-.4-.13.14,0,.27-.06.4.13Z"/>
        <path class="cls-1" d="M18.59,17.88c.05.08.11.14.18.17-.34-.02-.69-.02-1.04-.03h0c.28-.05.68.12.86-.15Z"/>
        <path class="cls-1" d="M15.28,17.66s-.01.02-.02.03c0,0,0,0,0,0,0-.01.01-.02.02-.03Z"/>
        <path class="cls-1" d="M19.25,16.25s.02,0,.03,0c-.08.02-.17.04-.25.05.07-.03.14-.04.22-.05Z"/>
        <path class="cls-1" d="M20.16,16.36c.17-.02.35-.03.52-.04.22.03.44.08.65.19-.39-.04-.77-.09-1.17-.15Z"/>
        <path class="cls-1" d="M19.26,17.99c.07.03.14.08.22.12-.07,0-.14-.02-.22-.02.01-.03,0-.07,0-.1Z"/>
        <path class="cls-1" d="M18.55,16.35s.03,0,.05,0c-.04.03-.09.05-.13.08.02-.02.05-.05.08-.08Z"/>
        <path class="cls-1" d="M20.02,18.19c-.05-.01-.11-.02-.16-.03.03-.02.06-.04.09-.07.02.04.04.08.06.1Z"/>
        <path class="cls-1" d="M20.85,18.18c.07,0,.14,0,.21.02-.08.01-.17.02-.25.03.02-.03.03-.06.04-.05Z"/>
      </g>
      <g>
        <path class="cls-1" d="M20.73,20.71c.41-.07.83-.05,1.2-.08-.15,0-.3.02-.45.03.22-.01.41.02.64.09-.07.09-.22.02-.25.13-.55,0-1.1-.14-1.63-.27.21-.27.34.1.49.1Z"/>
        <path class="cls-1" d="M22.73,20.88c-.06,0-.11,0-.16,0,.06-.01.11-.02.16,0Z"/>
        <path class="cls-1" d="M17.1,21.81c-.06.02-.13.03-.19.03.06-.03.12-.03.19-.03Z"/>
        <path class="cls-1" d="M20.01,21.35s-.07.04-.1.05c-.25-.03-.51-.07-.77-.11.28.03.59-.08.87.06Z"/>
        <path class="cls-1" d="M20.28,21.6c.26-.01.52.03.76.15-.24-.09-.5-.13-.76-.15Z"/>
        <path class="cls-1" d="M15.17,23.18s0,.04-.01.05c0,0-.01.02-.02.03-.1-.03-.21-.06-.31-.09.03-.01.05-.05.08-.06.11.03.14.14.27.07Z"/>
        <path class="cls-1" d="M17.17,21.8s0,0,0-.01c.02,0,.04-.01.06-.02,0,0,0,0,0,0-.03.01-.05.02-.08.02Z"/>
        <path class="cls-1" d="M15.3,23.19s0,.09.01.12c-.06-.02-.12-.03-.18-.05,0,0,.01-.02.02-.03.04-.03.1.01.14-.04Z"/>
        <path class="cls-1" d="M16.64,23.53s.07-.09.09-.11c.1.06.19.11.31.15.02-.02.06-.02.09-.07.02.03.04.06.07.09-.25-.01-.51-.03-.77-.06.07,0,.14,0,.22,0Z"/>
        <path class="cls-1" d="M10.57,22.31c.34-.06.72.17,1.05-.07-.38-.14-.91-.2-.97-.57-.06-.38.53-.03.83-.05t-.08-.08s.08.08.11.04c-.08-.08-.23-.15-.28-.28l.07-.09c-.2-.28-.58-.34-.78-.63.99.91,2.36.53,3.56.45.67-.13,1.29-.46,1.88-.84.11-.05.38-.02.56,0,.34-.06.67-.13,1-.28.71-.17,1.39.04,2.14,0,.15,0,.36.36-.01.47-.31.13-.62.18-.93.18.04-.12.18-.05.25-.13-.23-.07-.42-.1-.64-.09.15,0,.3-.02.45-.03-.38.02-.79,0-1.2.08-.15,0-.28-.36-.49-.1.53.13,1.09.27,1.63.27,0,0,0,0,0,0,.24-.02.47,0,.7,0-.07.02-.15.04-.21.02.34.1.68.13,1.02.15-.96.4-2.03.13-3,.28.27.19.64-.08.87.16-.44,0-.89-.03-1.35-.08.03-.01.07-.03.1-.05-.28-.14-.59-.02-.87-.06-.03,0-.05,0-.08-.01.03,0,.05,0,.08.01.26.04.52.08.77.11-.12.04-.24.05-.39.02.08.08.19.11.31.15.15,0,.3.01.45.02-.23.01-.46.07-.67.16.31.08.63.09.95.13-.17.01-.35.03-.52.04-.29-.04-.58-.07-.88-.1.01,0,.02,0,.03,0-.02,0-.04,0-.07,0-.12,0-.23-.02-.35-.02-.1,0-.21.05-.31.11-.02,0-.03,0-.05,0,.03-.04.05-.07-.01-.09-.27-.11-.56.08-.87-.07-.08-.04-.19-.02-.31.01-.03-.03-.05-.01-.06.02-.03,0-.05.01-.08.02-.06,0-.13,0-.19.03.06,0,.12-.02.19-.03.02,0,.05,0,.07,0-.02.03-.03.07-.07.07.43.03.88.07,1.33.05-.03.03-.07.06-.08.08.04-.03.09-.06.13-.08.15,0,.29-.02.44-.04-.04.02-.08.05-.12.1.41.02.83-.01,1.25-.05.39.05.78.11,1.17.15-.21-.11-.43-.16-.65-.19.59-.05,1.18-.07,1.77.04-.11.13-.25.23-.32.4,0,.08.19.11.08.16-.4.24-.69.03-.85.5-.03.13.42.58.27.68-.12.04-.34.08-.57.11-.07-.01-.14-.02-.21-.02,0,0-.02.02-.04.05-.25.02-.5.02-.63,0-.05-.01-.1-.02-.15-.03-.03-.03-.05-.06-.07-.1-.03.03-.06.06-.09.07-.13-.02-.26-.04-.39-.06-.07-.04-.14-.09-.22-.12,0,.03.01.07,0,.1-.16-.01-.32-.02-.48-.03-.07-.04-.13-.09-.18-.17-.17.26-.58.1-.86.14h0c-.14,0-.28,0-.43,0-.02-.03-.05-.06-.07-.09-.04.04-.07.05-.09.07-.11-.04-.21-.09-.31-.15-.02.02-.05.11-.09.11-.08,0-.15,0-.22,0-.08,0-.17-.02-.25-.03-.29-.05-.57-.11-.85-.19,0-.03-.01-.08-.01-.12-.04.05-.1.01-.14.04,0-.01.01-.03.01-.05-.13.07-.15-.03-.27-.07-.03,0-.05.04-.08.06-.01,0-.03,0-.04-.01-.13-.19-.26-.13-.4-.13-.14-.05-.29-.1-.43-.15-.11-.04-.16-.16-.24-.24Z"/>
        <path class="cls-1" d="M14.79,23.16c-.14-.04-.27-.09-.4-.13.14,0,.27-.06.4.13Z"/>
        <path class="cls-1" d="M18.48,23.46c.05.08.11.14.18.17-.34-.02-.69-.02-1.04-.03h0c.28-.05.68.12.86-.15Z"/>
        <path class="cls-1" d="M15.16,23.24s-.01.02-.02.03c0,0,0,0,0,0,0-.01.01-.02.02-.03Z"/>
        <path class="cls-1" d="M19.14,21.83s.02,0,.03,0c-.08.02-.17.04-.25.05.07-.03.14-.04.22-.05Z"/>
        <path class="cls-1" d="M20.05,21.93c.17-.02.35-.03.52-.04.22.03.44.08.65.19-.39-.04-.77-.09-1.17-.15Z"/>
        <path class="cls-1" d="M19.14,23.56c.07.03.14.08.22.12-.07,0-.14-.02-.22-.02.01-.03,0-.07,0-.1Z"/>
        <path class="cls-1" d="M18.43,21.93s.03,0,.05,0c-.04.03-.09.05-.13.08.02-.02.05-.05.08-.08Z"/>
        <path class="cls-1" d="M19.91,23.77c-.05-.01-.11-.02-.16-.03.03-.02.06-.04.09-.07.02.04.04.08.06.1Z"/>
        <path class="cls-1" d="M20.73,23.76c.07,0,.14,0,.21.02-.08.01-.17.02-.25.03.02-.03.03-.06.04-.05Z"/>
      </g>
    </g>
  </g>
</svg>