<?xml version="1.0" encoding="UTF-8"?>
<svg id="Calque_2" data-name="Calque 2" xmlns="http://www.w3.org/2000/svg" viewBox="0 0 26.78 27.01">
  <defs>
    <style>
      .cls-1 {
        fill: #fff;
        stroke-width: 0px;
      }
    </style>
  </defs>
  <g id="Calque_1-2" data-name="Calque 1">
    <g id="Filtre">
      <g>
        <path class="cls-1" d="M11.54,3.09c-2.7.07-5.43.05-7.89.07l2.96-.03c-1.48.01-2.73-.02-4.24-.09.45-.09,1.43-.02,1.67-.13,3.61,0,7.23.14,10.75.27-1.4.27-2.26-.11-3.25-.1Z"/>
        <path class="cls-1" d="M1.12,3.62c-.07-.11-.11-.2-.09-.31,0,.12.04.2.09.31Z"/>
        <path class="cls-1" d="M19.76,11.41c-.23.35-.45.7-.67,1.04.21-.35.44-.69.67-1.04Z"/>
        <path class="cls-1" d="M16.28,2.46c.23-.02.44-.03.66-.05,1.65.04,3.34.07,5.05.11-1.86-.03-3.85.08-5.71-.06Z"/>
        <path class="cls-1" d="M14.49,2.21c-1.69.01-3.41-.04-5.02-.16,1.61.09,3.3.13,5.02.16Z"/>
        <path class="cls-1" d="M16.27,23.78s0,.05-.03.09c-.04.04-.07.07-.09.1l-1.69,1.15c.13-.11.23-.24.37-.34.62-.42.81-.44,1.44-1Z"/>
        <path class="cls-1" d="M20.02,11.02v-.04s.24-.36.24-.36c.01-.01.02-.02.03-.04-.09.15-.18.29-.27.44Z"/>
        <path class="cls-1" d="M17.25,22.88s.1,0,.18-.06c-.2.31-.46.57-.76.78l-.52.36.08-.1c.09-.08.16-.13.39-.31.26-.19.49-.43.62-.67Z"/>
        <path class="cls-1" d="M19.48,14.87c.14-.21.19-.43.24-.54.41-.49.81-.99,1.27-1.59.05-.11.18-.31.28-.53.11-.09.22-.2.33-.32-.95,1.35-1.92,2.74-2.92,4.17.26-.39.53-.79.81-1.19Z"/>
        <path class="cls-1" d="M.19,4.75c1.39,1.72,2.75,3.88,4.24,5.45-1.42-2.09-3.49-4.89-3.41-5.42.07-.52,2.12,2.72,3.33,4.28q-.13-.23-.25-.46c.13.23.25.46.43.62-.25-.46-.81-1.31-.89-1.62l.35.32c-.58-1.23-2.05-3.25-2.63-4.48,2.1,3.74,5.26,7.95,8.61,12.23.31.37.48.85.48,1.34l.02,1.12c.01.72.02,1.43.03,2.14.01.71.02,1.42.03,2.12v.88c.03.21,0,.41.04.61.09.37.48.62.84.57.38-.03.61-.38.85-.57.8-.69,1.92-1.63,2.65-2.29.11-.11.17-.27.15-.41,0-.04-.01-.07-.02-.11v-.05s-.03-.14-.03-.14l-.05-.61-.23-2.4c-.01-.18-.02-.43-.02-.71,0-.09-.02-.41.02-.7.03-.29.11-.59.24-.88.06-.14.14-.28.23-.42l.22-.32.3-.43c.2-.28.4-.56.58-.82,1.19-1.86,2.38-3.72,3.49-5.6.48-.77.98-1.52,1.48-2.27.41-.59.81-1.19,1.21-1.78,0,.01.05-.02.01-.04h0s0,0,0,0h-.13s-.54,0-.54,0c-.36,0-.73,0-1.1,0-.74,0-1.48,0-2.24,0-.99,0-2.35-.36.09-.47,1.01-.06,2.02-.11,3.04-.13.37-.01.74-.02,1.1-.03.18-.02.38,0,.5.13-.09.02-.18-.04-.28-.05-.11-.01-.22,0-.3.04.2.01.37.09.42.26.07.16,0,.33-.11.46v.02s0-.02,0-.02c.16-.16.16-.46-.07-.56.21.09.23.4.05.56-.38.56-.76,1.14-1.15,1.72-.46.7-.92,1.4-1.39,2.11-.55.82-1.34,1.33-1.91,2.63.81-1.09,1.62-2.2,2.44-3.31.75-1.03,1.49-2.06,2.23-3.08.21-.2.3-.56.07-.78,0,0,0,0,.01,0-.1-.1-.25-.15-.38-.14-.16,0-.32,0-.48,0-.76,0-1.51,0-2.29,0,.48-.02.98-.04,1.4-.02-2.26-.11-4.5-.13-6.73-.15,1.98-.12,4.04-.18,6.12-.21h1.57c.33,0,.6-.05.89.02.28.08.49.34.53.63.06.3-.13.56-.3.79-.65.95-1.3,1.9-1.94,2.84-.67,1.01-1.34,2.01-2,3,1.17-1.37,2.29-3.5,3.37-4.65-1.65,2.42-3.33,4.83-5.07,7.28.11-.19.21-.37.33-.57-.58.73-1.13,1.52-1.67,2.32l-.4.6-.21.31c-.1.14-.19.29-.26.44-.14.31-.21.65-.2.99v.74s-.02.5-.02.5v-.5s.03-.65.03-.65c0-.3.03-.61.14-.89.09-.27.3-.57.43-.74l.37-.51c.49-.69.97-1.37,1.45-2.04-.39.65-.85,1.32-1.41,2.11.36-.39.81-.99,1.27-1.59.56-.81,1.13-1.62,1.69-2.43-.85,1.26-1.64,2.52-2.34,3.71,1.23-1.65,2.42-3.4,3.63-5.08l-1.88,2.84c-.55.78-1.11,1.55-1.66,2.34l-.85,1.2c-.16.23-.26.5-.29.78-.02.3-.01.54-.02.78v-.22s0,.44,0,.44c0,.76-.01,1.52-.02,2.29,0,.34.02.68.04,1.02.02.3.06.59-.05.87-.04.09-.1.17-.16.25.08-.18.1-.25-.13,0-.07.07-.16.12-.24.18-.65.44-1.36,1-2.05,1.54-.34.25-.68.51-1.02.77-.31.21-.6.49-.98.49-.39.03-1.04-.19-1.24-.79-.02-.18-.02-.26-.06-.32l-.02-.4v-.51c-.02-.2-.02-.4-.03-.61,0,.2,0,.4.01.61,0,.17.01.34.02.51v.37c-.02-.07-.06-.15-.06-.34,0,.29-.04.58.06.86.09.28.29.52.55.66.26.14.57.19.86.12.3-.06.53-.27.77-.45,1.08-.81,2.18-1.62,3.27-2.44.11-.08.21-.16.3-.26-.06.12-.19.25-.25.32-.03.03-.04.04-.05.05l.05-.05c.18-.16.33-.34.41-.57.2-.39.1-.8.11-1.3,0-.48-.02-.95-.03-1.43.02.29.05.55.1.78v-2.05s0-1.04,0-1.04c0-.38.17-.74.39-1.03.76-1.14,1.52-2.28,2.28-3.42,1.49-2.1,2.97-4.18,4.44-6.25-.86,1.07-1.71,2.22-2.56,3.41,1.12-1.67,2.24-3.33,3.36-4.99.21-.31.48-.63.47-1.04,0-.39-.19-.78-.51-.99-.33-.24-.74-.2-1.13-.22-.43-.01-.87-.02-1.31-.03.71-.12,1.6-.25,2.18-.37.05-.11-1.36-.15-.52-.19.47-.03.93,0,1.3.23.36.22.63.57.75.93.13.37.12.75.02,1.08-.1.32-.27.6-.43.88-.1.17-.2.34-.3.52-.09.17-.14.27-.2.41-.11.25-.19.49-.24.72,0,.08.2-.09.47-.33.14-.13.29-.26.43-.4.21-.22.42-.45.6-.65.4-.45.57-.7.36-.18-.04.06-.07.13-.14.25-.49.76-1.31,2.03-2.18,3.39-.26.37-.53.74-.8,1.13-.04.04-.08.14-.12.26-.93,1.39-1.82,2.71-2.35,3.43-.19.27-.39.53-.58.79-.12.13-.23.23-.33.3-.09.19-.18.37-.28.55-.45.63-.89,1.25-1.33,1.86-.04.04-.08.1-.1.16-.01-.01-.02.19-.03.28,0,.12-.02.24-.03.35.03,0,.07-.09.1,0-.01,1.07-.02,2.13-.03,3.19-.03.15-.02.59-.1.89-.07.32-.21.61-.37.84-.11.33-.35.71-.75,1.03-.16.13-.32.27-.49.4-.15.12-.3.24-.46.36-.32.24-.66.5-1.01.76-.38.28-.76.56-1.14.83-.58.45-1.16.86-1.69,1h0c-.67.19-1.43.11-2.06-.24-.63-.34-1.12-.94-1.32-1.61-.05-.23-.06-.48-.05-.71-.08-.36-.06-.79-.09-.98,0-.38.02-.5.03-.68.01-.17.02-.34.04-.51.03-.33.06-.65.08-.97-.02-.12-.11-.33-.11-.58v-1.44c.01-.55.02-1.1.03-1.66v-.35s.02-.09.01-.13c0-.09-.04-.17-.09-.24-.77-1.09-1.54-2.17-2.3-3.25,0-.07.02-.1.04-.14-.22-.19-.43-.54-.6-.72.04.03.07.04.09.02-.57-.63-.58-.81-1.01-1.44-.1-.13-.24-.24-.35-.36l-.14-.21c-.37-.8-.94-1.43-1.51-2.2l-1.61-2.36c-.43-.62-.51-.93-.76-1.39Z"/>
        <path class="cls-1" d="M14.25,25.26l-1.44.99c-.6.39-1.17.56-1.82.51.7.03,1.27-.22,1.84-.62.28-.19.58-.42.84-.58.18-.11.37-.22.57-.31Z"/>
        <path class="cls-1" d="M26.56,3.89c.19-.54.19-1.25-.09-1.91.24.5.35,1.07.3,1.62-.04.55-.21,1.07-.57,1.61-.99,1.45-1.99,2.9-3.01,4.38h0c.41-.62.91-1.34,1.4-2.04.24-.35.48-.7.7-1.03.3-.46.58-.9.86-1.33.32-.52.4-.95.42-1.3Z"/>
        <path class="cls-1" d="M16.24,23.86l-.08.1h0s.05-.06.09-.1Z"/>
        <path class="cls-1" d="M22.01,1.98h-.22c.57-.02,1.13-.03,1.69-.05-.47.03-.96.04-1.47.05Z"/>
        <path class="cls-1" d="M16.03,1.88l-3.4.04c-1.46-.03-2.89-.08-4.26-.19,2.53.05,5.09.1,7.66.15Z"/>
        <path class="cls-1" d="M21.98.25c-.45-.04-.94-.08-1.42-.12.48,0,.95.02,1.42.02-.09.03-.01.07,0,.1Z"/>
        <path class="cls-1" d="M24.82,4.2c.06-.1.12-.2.16-.31-.08.27-.24.51-.37.77v.02s0-.01,0-.02c.05-.11.14-.3.22-.46Z"/>
        <path class="cls-1" d="M16.94.04c.35,0,.7.02,1.04.03-.21.02-.41.04-.62.07-.11-.04-.26-.08-.43-.1Z"/>
        <path class="cls-1" d="M11.53.05c-.48,0-.94-.01-1.39-.02.55,0,1.12-.02,1.67-.03-.13.03-.23.06-.29.05Z"/>
      </g>
    </g>
  </g>
</svg>