<?xml version="1.0" encoding="UTF-8"?>
<svg id="Calque_2" data-name="Calque 2" xmlns="http://www.w3.org/2000/svg" viewBox="0 0 17.52 31.45">
  <defs>
    <style>
      .cls-1 {
        fill: #ffffff;
        stroke-width: 0px;
      }
    </style>
  </defs>
  <g id="Calque_1-2" data-name="Calque 1">
    <g id="Fleche_droite" data-name="Fleche droite">
      <g>
        <path class="cls-1" d="M6.43,26.72c-.93,1.04-1.92,2.04-2.8,2.96l1.05-1.11c-.52.55-1,.99-1.59,1.5.1-.23.5-.54.51-.71,1.3-1.33,2.72-2.57,4.08-3.77-.31.7-.89.76-1.24,1.13Z"/>
        <path class="cls-1" d="M1.54,31.45c.13-.14.26-.27.38-.4-.13.15-.25.29-.38.4Z"/>
        <path class="cls-1" d="M14.29,17.14c.14-.16.27-.32.41-.47-.11.16-.27.31-.41.47Z"/>
        <path class="cls-1" d="M7.69,24.52c.06-.09.13-.19.2-.28.62-.58,1.25-1.18,1.9-1.79-.69.66-1.33,1.48-2.1,2.06Z"/>
        <path class="cls-1" d="M6.86,25.01c-.6.63-1.26,1.23-1.92,1.74.65-.53,1.29-1.12,1.92-1.74Z"/>
        <path class="cls-1" d="M10.66,13.29s-.04.02-.07,0c-.02-.01-.04-.03-.07-.03-.22-.28-.43-.55-.65-.84.07.06.16.09.22.15.24.31.22.44.57.71Z"/>
        <path class="cls-1" d="M14.12,17.32v.02s-.15.17-.15.17c0,0-.01,0-.02.01.06-.07.11-.14.17-.21Z"/>
        <path class="cls-1" d="M10.96,13.63s-.05.07-.06.11l-.37-.47s.05.02.07.03c.11.08.22.26.36.33Z"/>
        <path class="cls-1" d="M12.83,16.12s.07.02.12.02c.02,0,.03,0,.04.01-.12.04-.23.07-.29.09.02.02,0,.03.03.06-.04-.01-.07-.02-.1-.03.06-.04.11-.09.17-.13l-.05-.1s.06.05.07.08Z"/>
        <path class="cls-1" d="M.63,1.31c.83.79,1.56,1.91,2.49,2.56-.78-1.05-1.98-2.4-1.83-2.79.14-.4,1.24,1.28,1.95,2.01q-.06-.13-.13-.25c.06.13.13.25.24.31-.13-.25-.43-.68-.44-.88l.23.11c-.26-.69-1.1-1.68-1.36-2.37,1.62,3.07,5.09,6.21,7.93,9.13,1.65,1.58,3.34,2.89,4.97,4.08.07.06.16.15.27.25.14.15.3.32.47.5.42.47.89.99,1.3,1.44l.8.81c-.57.62-1.14,1.25-1.73,1.9-.15.16-.29.33-.44.49l-.2.23-.11.14c-.14.18-.28.36-.43.55-1.56,1.83-3.33,3.34-5.09,5.2-.35.37-1.1.61-.3-.36.64-.83,1.34-1.62,2.08-2.37,0,.17-.4.48-.51.71.6-.51,1.07-.94,1.59-1.5l-1.05,1.11c.87-.93,1.87-1.92,2.8-2.96.18-.19.41-.29.64-.44.13-.09.19-.12.37-.31.19-.2.38-.43.55-.7l-.82.77-.52.46c-.35.31-.69.62-1.03.93-.69.63-1.37,1.27-2.02,1.93h0c-.59.59-1.11,1.12-1.67,1.69.16-.19.33-.39.49-.53-.89.76-1.72,1.57-2.54,2.38,2-2.61,4.71-4.98,6.95-7.47-.82.56-1.46,1.61-2.21,2.02.53-.53,1.07-1.07,1.61-1.61.69-.68,1.39-1.36,2.11-2.06-.08.11-.17.22-.27.35.21-.18.43-.37.63-.57-.36-.42-.77-.85-1.17-1.26-.2-.21-.4-.42-.6-.62-.14-.16-.28-.31-.43-.46l-.17-.2c.06.07.11.13.17.2.71.8,1.39,1.59,2.07,2.35-.08.08-.15.15-.23.22.07-.08.13-.15.19-.22-.34-.33-.66-.68-1.03-1.09.17.3.48.68.78,1.05l.03.04-1.38,1.37c.45-.47.88-.94,1.24-1.37-.24-.22-.49-.45-.76-.68.2.23.39.46.58.68-.69.66-1.34,1.29-2.02,1.94l1.3-1.39c.19-.18.38-.36.58-.55l-1.68-1.9.08.08-.16-.16-.79-.88c-.25-.25-.52-.48-.8-.69l-.12-.13c.1.06.17.07.03-.1-.54-.74-1.36-1.34-1.96-2.2-.16-.23-.43-.48-.72-.75-.05-.1-.11-.13-.16-.15l-.19-.18c-.15-.15-.3-.31-.46-.44.14.15.3.3.46.44l.17.17c-.06-.02-.13-.03-.21-.12.98,1.09,1.99,2.23,3.05,3.33-.09-.05-.19-.11-.25-.15.13.09.25.18.37.27.34.35.69.69,1.04,1.05-.12-.09-.23-.17-.35-.23.41.43.81.87,1.22,1.3.45.47.91.94,1.37,1.42l-.52.55c-1,.95-2,1.9-2.98,2.82.57-.43,1.13-.92,1.68-1.44-1.37,1.46-2.75,2.91-4.23,4.26.16-.35.44-.77.47-1.05-.07-.05-.54.39-.32.09.79-1.14,1.62-1.69,1.67-2.42-.02-.17-1.42.61-1.14.19.26-.32.75-.88,1.29-1.47.17-.17.34-.33.52-.5.03-.02.05-.07.07-.14.25-.26.49-.51.7-.74.04-.04.08-.08.13-.1l.1-.06s.1-.02.17-.03c-.06-.02-.11-.04-.15-.05-.03-.07-.08-.15-.14-.23.05,0-.16-.3-.28-.48-.02.02-.02.08-.07.07-.37-.41-.74-.82-1.1-1.22-.12-.19-.22-.38-.29-.56-.6-.25-1.41-1.36-2.09-2.03h0c-.32-.34-.65-.7-.98-1.06-.04-.08-.07-.15-.09-.23-.11-.06-.2-.15-.26-.18-.24-.31-.42-.59-.61-.87-.06-.03-.2-.05-.29-.14-.17-.19-.34-.37-.51-.54-.18-.21-.37-.43-.56-.65-.63-.74-1.24-1.49-1.83-2.23,0-.05.03-.08.06-.11-.14-.07-.25-.25-.36-.33.03,0,.05,0,.06,0-.35-.27-.33-.4-.57-.71-.06-.06-.15-.09-.22-.15l-.08-.1c-.16-.45-.51-.73-.84-1.09l-.9-1.18c-.24-.31-.25-.5-.38-.75Z"/>
        <path class="cls-1" d="M9.8,12.34c-.28-.36-.56-.73-.84-1.09.33.36.68.64.84,1.09Z"/>
        <path class="cls-1" d="M9.82,19.34c-.18.07-.37.18-.55.31.83-.83,1.65-1.65,2.48-2.49h0c-.64.71-1.72,1.57-1.94,2.18Z"/>
        <path class="cls-1" d="M10.6,13.3s-.04-.02-.07-.03h0s.05.01.07.03Z"/>
        <path class="cls-1" d="M9.41,22.08l-.08.08c.19-.22.38-.44.57-.65-.14.19-.31.38-.49.57Z"/>
        <path class="cls-1" d="M7.18,24.21l-1.2,1.29c-.55.52-1.1,1.01-1.68,1.44.94-.89,1.91-1.8,2.88-2.72Z"/>
        <path class="cls-1" d="M8.17,20.87c-.18.13-.4.29-.6.44.18-.17.35-.34.53-.51-.01.05.04.05.07.07Z"/>
        <path class="cls-1" d="M11.03,20.29l-.12.13c.08-.12.17-.25.26-.38-.03.06-.09.16-.14.25Z"/>
        <path class="cls-1" d="M6.2,22.59c.13-.12.27-.24.4-.36-.06.09-.12.18-.17.28-.07.01-.15.04-.23.08Z"/>
        <path class="cls-1" d="M4.25,24.59c-.18.17-.34.33-.52.5.19-.21.39-.43.59-.64-.02.07-.04.12-.07.14Z"/>
      </g>
      <g>
        <path class="cls-1" d="M12.89,17.35c.47-.53,1-1.01,1.45-1.47-.18.18-.36.37-.55.55.27-.27.53-.48.87-.69-.03.14-.26.27-.23.4-.69.65-1.48,1.19-2.23,1.72.08-.44.5-.33.68-.51Z"/>
        <path class="cls-1" d="M15.52,15.12c-.07.07-.13.13-.2.19.06-.08.13-.15.2-.19Z"/>
        <path class="cls-1" d="M9.09,22.42c-.07.09-.14.17-.21.24.06-.09.14-.17.21-.24Z"/>
        <path class="cls-1" d="M12.42,18.66c-.03.05-.06.11-.09.15-.34.28-.68.55-1.04.83.38-.31.68-.75,1.13-.98Z"/>
        <path class="cls-1" d="M12.94,18.52c.32-.31.67-.58,1.06-.78-.37.22-.72.49-1.06.78Z"/>
        <path class="cls-1" d="M7.61,25.68s.02.03.02.05c0,.01,0,.03,0,.04-.15.1-.3.2-.45.3.02-.04.03-.1.06-.13.17-.11.27-.06.38-.26Z"/>
        <path class="cls-1" d="M9.17,22.33s0-.01,0-.02c.02-.03.05-.06.07-.09,0,0,0,0,.01,0-.02.04-.05.07-.08.11Z"/>
        <path class="cls-1" d="M7.78,25.53s.06.06.1.07c-.08.06-.17.11-.25.17,0-.01,0-.03,0-.04.03-.07.13-.11.15-.2Z"/>
        <path class="cls-1" d="M9.69,24.21s.03-.15.03-.19c.16-.07.32-.14.49-.25,0-.04.05-.08.07-.16.05,0,.1,0,.15-.01-.32.29-.66.58-1.01.87.08-.09.17-.18.28-.26Z"/>
        <path class="cls-1" d="M1.25,30.44c.38-.44,1.02-.73,1.27-1.28-.58.34-1.28.93-1.61.72-.33-.21.64-.64,1-1.01q-.08.02-.15.04c.08-.02.15-.04.17-.11-.15.03-.4.16-.54.12l.03-.15c-.45.03-.96.43-1.41.46,1.86-.49,3.32-2.39,4.77-3.85.75-.88,1.31-1.86,1.78-2.82.1-.17.45-.46.71-.66.38-.44.75-.88,1.07-1.38.77-.95,1.77-1.6,2.68-2.53.18-.18.69-.16.3.36-.3.45-.65.85-1.04,1.22-.03-.13.2-.25.23-.4-.34.22-.59.42-.87.69.18-.18.36-.37.55-.55-.45.46-.99.93-1.45,1.47-.18.18-.6.07-.68.51.76-.53,1.55-1.08,2.23-1.72,0,0,0,0,0,0,.3-.3.58-.55.88-.83-.08.1-.16.2-.26.26.5-.33.94-.71,1.38-1.1-.93,1.42-2.45,2.47-3.57,3.72.48-.18.74-.81,1.2-.91-.56.52-1.14,1.03-1.75,1.52.03-.05.06-.1.09-.15-.45.23-.75.67-1.13.98-.03.03-.07.05-.1.08.04-.03.07-.05.1-.08.35-.28.7-.55,1.04-.83-.11.17-.27.31-.47.47.15-.04.32-.14.49-.25.19-.17.39-.34.58-.51-.28.28-.53.59-.73.9.45-.31.85-.68,1.28-1.02-.21.21-.41.43-.62.64-.39.31-.78.63-1.17.96.01-.02.02-.03.04-.05-.03.03-.05.05-.08.08-.15.13-.3.26-.45.39-.13.13-.22.28-.31.45-.02.02-.04.04-.06.06.02-.07.01-.11-.08-.05-.41.24-.65.72-1.14.97-.13.07-.25.21-.38.37-.06.02-.07.05-.07.09-.03.03-.05.07-.08.1-.08.08-.15.15-.21.24.07-.07.14-.16.21-.24.03-.03.06-.06.08-.09,0,.04,0,.09-.04.13.56-.49,1.15-.98,1.7-1.52-.01.05-.04.12-.05.15.04-.07.07-.15.11-.22.18-.18.35-.36.52-.54-.04.07-.07.14-.08.21.53-.47,1.03-.98,1.53-1.5.53-.42,1.05-.83,1.56-1.26-.34.16-.64.38-.94.62.71-.73,1.43-1.44,2.24-2.05-.04.22-.16.46-.13.67.06.06.32-.14.22.02-.34.65-.85.83-.73,1.37.05.13.93-.07.81.17-.12.17-.37.46-.64.76-.09.07-.19.15-.28.23-.02,0-.02.04-.02.09-.31.31-.61.6-.8.74-.07.05-.14.1-.21.15-.05.01-.1.01-.15,0-.02.06-.04.11-.07.16-.18.14-.36.28-.53.42-.12.05-.24.11-.35.16.02.02.06.04.07.07-.21.18-.42.36-.63.55-.11.05-.22.08-.34.08-.04.4-.66.75-.98,1.11h0c-.18.17-.36.33-.55.5-.05,0-.1.01-.15.01-.01.07-.06.12-.07.16-.17.11-.33.18-.49.25,0,.04.01.14-.03.19-.1.08-.19.17-.27.26-.11.09-.22.18-.34.27-.39.3-.79.59-1.19.86-.03-.01-.07-.04-.1-.07-.02.09-.12.13-.15.2,0-.02,0-.04-.02-.05-.11.2-.21.15-.38.26-.03.03-.03.09-.06.13-.02.01-.04.02-.06.04-.29.01-.41.21-.6.38-.21.13-.43.27-.65.4-.17.11-.31.07-.46.11Z"/>
        <path class="cls-1" d="M7.11,26.11c-.2.13-.4.25-.6.38.19-.17.3-.36.6-.38Z"/>
        <path class="cls-1" d="M11.94,22c.12,0,.24-.03.34-.08-.44.39-.87.79-1.32,1.2h0c.32-.36.94-.72.98-1.12Z"/>
        <path class="cls-1" d="M7.63,25.73s0,.03,0,.04c0,0,0,0,0,0,0-.02,0-.03,0-.04Z"/>
        <path class="cls-1" d="M11.66,20.04s.03-.02.04-.04c-.09.11-.19.22-.28.33.06-.1.15-.2.24-.3Z"/>
        <path class="cls-1" d="M12.87,19.04c.21-.21.41-.43.62-.64.3-.24.61-.46.94-.62-.51.43-1.04.84-1.56,1.26Z"/>
        <path class="cls-1" d="M12.85,21.3c.11-.06.24-.11.35-.16-.1.08-.19.16-.29.24,0-.04-.04-.05-.07-.07Z"/>
        <path class="cls-1" d="M10.84,20.94s.04-.04.06-.06c-.04.07-.07.14-.11.22,0-.03.03-.1.05-.15Z"/>
        <path class="cls-1" d="M13.95,20.55c-.07.05-.15.11-.22.16.03-.05.05-.1.07-.16.05.01.1.01.15,0Z"/>
        <path class="cls-1" d="M14.98,19.57c.09-.08.19-.16.28-.23-.1.11-.2.21-.3.32,0-.04,0-.08.02-.09Z"/>
      </g>
    </g>
  </g>
</svg>