<?xml version="1.0" encoding="UTF-8"?>
<svg id="Calque_2" data-name="Calque 2" xmlns="http://www.w3.org/2000/svg" viewBox="0 0 18.11 11.48">
  <defs>
    <style>
      .cls-1 {
        fill: #fff;
        stroke-width: 0px;
      }
    </style>
  </defs>
  <g id="Calque_1-2" data-name="Calque 1">
    <g id="Fleche_bas" data-name="Fleche bas">
      <g>
        <path class="cls-1" d="M14.36,2.82c.55-.61,1.16-1.15,1.69-1.68l-.63.63c.32-.31.61-.55.99-.81-.04.16-.3.31-.28.44-.79.75-1.69,1.39-2.55,2.02.13-.48.57-.39.78-.6Z"/>
        <path class="cls-1" d="M17.38.23c-.08.08-.16.15-.23.22.07-.09.15-.17.23-.22Z"/>
        <path class="cls-1" d="M9.86,8.52c-.08.1-.17.2-.26.29.08-.12.17-.2.26-.29Z"/>
        <path class="cls-1" d="M13.75,4.26c-.03.06-.07.12-.11.17-.38.31-.77.63-1.19.96.43-.36.79-.85,1.3-1.13Z"/>
        <path class="cls-1" d="M14.32,4.07c.37-.36.78-.68,1.21-.92-.42.26-.82.58-1.21.92Z"/>
        <path class="cls-1" d="M6.15,8.13s-.03.02-.05.03c-.02,0-.03,0-.05,0-.13-.16-.26-.32-.39-.49.05.03.11.03.15.06.14.18.11.29.35.41Z"/>
        <path class="cls-1" d="M9.95,8.42v-.02s.09-.1.09-.1c0,0,0,0,.01,0-.03.05-.07.09-.1.13Z"/>
        <path class="cls-1" d="M6.33,8.32s-.05.07-.06.11l-.22-.27s.03,0,.05,0c.08.03.14.14.24.16Z"/>
        <path class="cls-1" d="M9.18,11.38s.05.04.07.05c.07-.1.13-.23.16-.28.26-.16.53-.33.85-.59.04-.07.14-.17.22-.3.07-.02.14-.04.22-.08-.46.42-.94.85-1.45,1.3-.21-.2-.44-.42-.67-.65.19.17.39.35.6.54Z"/>
        <path class="cls-1" d="M0,1.34c.53.4.95,1.09,1.58,1.36-.46-.62-1.21-1.37-1.03-1.72.17-.35.79.68,1.24,1.06q-.03-.08-.06-.16c.03.08.06.16.14.18-.06-.16-.24-.43-.22-.58l.16.03c-.11-.48-.62-1.03-.73-1.51.83,1.99,3.1,3.54,4.91,5.09.53.4,1.09.75,1.64,1.06.28.15.56.3.84.44.14.07.28.13.42.2.07,0,.11-.03.15-.05.05-.02.09.05.14.13h.03c.06-.14.1-.27.04-.38,0-.01-.02,0,0-.03l.09-.1c.06-.07.12-.13.18-.19.13-.13.25-.25.37-.37.25-.24.51-.47.78-.7.53-.46,1.08-.92,1.61-1.44.21-.21.76-.22.3.36-.36.51-.78.96-1.23,1.39-.03-.13.23-.28.28-.44-.38.26-.68.49-.99.81l.63-.63c-.53.52-1.14,1.07-1.69,1.68-.09.09-.27-.24-.22.08.05,0,.11-.02.19-.04.03-.01.02,0,.07-.04l.16-.12c.11-.08.22-.17.32-.25.43-.33.85-.68,1.25-1.05h0c.34-.33.68-.62,1.01-.95-.1.11-.19.23-.3.3.57-.39,1.08-.83,1.58-1.28-.56.79-1.27,1.5-2.01,2.19-.37.34-.74.69-1.11,1.02l-.54.52c-.13.13-.2.21-.3.33.08,0,.15-.05.22-.11.04-.03.07-.06.1-.1l.16-.16c.21-.22.42-.43.68-.5l-.49.45c-.14.12-.28.25-.43.38-.22.18-.43.36-.64.51.03-.05.06-.09.08-.14-.06.01-.12.04-.17.08-.17-.2-.37-.3-.54-.49l-.06-.07s.04.05.06.07c.19.22.37.42.54.62l.09-.07s-.06.09-.09.13c-.08-.05-.17-.14-.26-.24.05.15.15.28.26.43h.03c.15-.15.31-.28.46-.42-.16.16-.32.35-.49.58-.07-.04-.14-.07-.22-.1.08.09.15.17.22.25.3-.22.62-.5.95-.76l-.64.65-.31.25c-.26-.27-.52-.53-.77-.79l.04.03-.08-.07-.43-.42c-.16-.13-.34-.24-.53-.33l-.08-.07c.07.02.12.01.04-.09-.32-.44-.87-.69-1.22-1.21-.09-.14-.27-.27-.46-.4-.03-.06-.06-.07-.1-.07l-.13-.09c-.09-.08-.19-.16-.3-.23.09.08.19.15.3.23.03.03.07.06.11.09-.04,0-.09,0-.15-.04.61.6,1.24,1.23,1.91,1.82-.06-.02-.13-.04-.17-.05.09.04.17.08.25.12.21.19.45.38.66.55-.06-.03-.15-.07-.23-.08.46.44.9.82,1.34,1.19l.31-.32c.5-.39,1.07-.85,1.67-1.36-.36.19-.76.49-1.04.71.76-.77,1.64-1.63,2.56-2.34-.06.24-.21.51-.19.72.06.06.36-.18.23,0-.42.72-.98.95-.9,1.52.04.14,1.01-.14.86.12-.15.2-.43.52-.76.86-.11.08-.21.17-.32.27-.01,0-.05.07-.07.13-.66.65-1.32,1.26-1.68,1.56-.14.11-.27.22-.4.33-.07.03-.13.04-.17.02-.04.05-.07.1-.1.14-.05-.02-.1-.05-.14-.08-.36-.35-.69-.68-1.01-1-.17-.21-.35-.44-.5-.62-.01.03,0,.09-.05.09-.33-.32-.65-.63-.97-.93-.07-.12-.12-.24-.14-.37-.43-.04-.91-.7-1.35-1.05h0c-.2-.18-.41-.38-.62-.57-.02-.05-.03-.1-.04-.16-.08-.01-.14-.06-.18-.07-.14-.18-.25-.35-.35-.52-.04,0-.15.01-.2-.04-.1-.11-.21-.2-.32-.29-.11-.12-.23-.24-.35-.36-.39-.42-.76-.84-1.12-1.27,0-.04.04-.07.06-.11-.1-.02-.16-.13-.24-.16.02,0,.04,0,.05-.03-.24-.12-.2-.23-.35-.41-.04-.03-.1-.03-.15-.06l-.05-.06c-.06-.31-.29-.44-.5-.64L.19,1.84c-.14-.18-.12-.33-.19-.49Z"/>
        <path class="cls-1" d="M5.6,7.61c-.17-.21-.33-.42-.5-.64.21.2.44.32.5.64Z"/>
        <path class="cls-1" d="M12.97,7.87c.13-.01.26-.05.38-.11-.51.46-1.01.92-1.52,1.38h0c.38-.41,1.08-.84,1.15-1.27Z"/>
        <path class="cls-1" d="M6.09,8.16s-.03,0-.05,0h0s.03,0,.05,0Z"/>
        <path class="cls-1" d="M12.82,5.79l.05-.04c-.12.13-.23.26-.33.38.08-.12.18-.23.28-.34Z"/>
        <path class="cls-1" d="M14.2,4.63l.72-.73c.34-.28.69-.53,1.07-.74-.57.47-1.18.97-1.79,1.47Z"/>
        <path class="cls-1" d="M14,7.05c.12-.06.26-.13.4-.2-.11.09-.22.19-.33.28,0-.04-.04-.05-.07-.07Z"/>
        <path class="cls-1" d="M11.85,6.81l.07-.07c-.04.08-.09.16-.14.24.02-.04.04-.11.06-.17Z"/>
        <path class="cls-1" d="M15.26,6.16c-.09.07-.17.13-.25.19.03-.05.06-.11.08-.18.05,0,.11,0,.16-.01Z"/>
        <path class="cls-1" d="M16.44,5.04c.11-.1.21-.19.32-.27-.12.12-.24.25-.35.36,0-.05.01-.09.03-.09Z"/>
      </g>
    </g>
  </g>
</svg>