<?xml version="1.0" encoding="UTF-8"?>
<svg id="Calque_2" data-name="Calque 2" xmlns="http://www.w3.org/2000/svg" viewBox="0 0 32.43 32.26">
  <defs>
    <style>
      .cls-1 {
        fill: #fff;
        stroke-width: 0px;
      }
    </style>
  </defs>
  <g id="Calque_1-2" data-name="Calque 1">
    <g id="Langue">
      <g>
        <path class="cls-1" d="M24.57,3.07c2.95,1.64,5.2,4.4,6.46,7.21-.53-1.11-1.12-2.2-1.89-3.16,1.1,1.47,1.85,2.88,2.35,4.68-.26-.51-.63-1.66-.89-1.86-1.89-4.01-5.46-7.26-9.68-8.59,1.76.28,2.62,1.09,3.66,1.71Z"/>
        <path class="cls-1" d="M32.13,16.68c-.02-.45-.05-.88-.07-1.31.04.46.07.91.07,1.31Z"/>
        <path class="cls-1" d="M2.07,13.15c-.12.46-.17.94-.24,1.4.04-.47.1-.94.24-1.4Z"/>
        <path class="cls-1" d="M18.98,1.67c-.27-.02-.53-.05-.78-.07-1.96-.25-3.99-.14-5.98.38,2.14-.58,4.58-.82,6.76-.31Z"/>
        <path class="cls-1" d="M20.98,2.4c1.9.59,3.67,1.66,5.02,2.96-1.36-1.28-3.1-2.32-5.02-2.96Z"/>
        <path class="cls-1" d="M6.61,25.81s.05,0,.09.02c.04.04.08.06.11.08.22.29.5.51.74.77.24.26.52.49.8.71-.15-.1-.31-.16-.46-.27-.56-.57-.65-.71-1.29-1.32Z"/>
        <path class="cls-1" d="M2.2,12.63v-.05c.04-.16.07-.32.12-.47,0-.02.02-.03.03-.05-.06.19-.1.38-.15.58Z"/>
        <path class="cls-1" d="M6.01,25.12s.05-.08.04-.15c.23.33.51.62.76.94l-.11-.08c-.2-.18-.46-.51-.69-.71Z"/>
        <path class="cls-1" d="M3.35,16.62c.01-.25-.06-.48-.08-.6.06-.66.24-1.29.4-2.04,0-.12.07-.36.09-.6.07-.13.14-.27.2-.41-.49,1.61-.69,3.36-.53,5.14-.04-.48-.07-.97-.07-1.47Z"/>
        <path class="cls-1" d="M30.68,17.04c.02,1.24-.26,2.55-.64,3.81-.44,1.24-.95,2.45-1.53,3.51.85-1.14,1.56-2.71,1.97-4.05.44-1.34.61-2.44.8-2.65.1-.1.14.1.14.5-.03.4-.12.99-.26,1.66-.31,1.34-1.02,2.9-1.55,3.92q.17-.26.34-.52c-.18.26-.32.52-.43.77.36-.5.96-1.55,1.16-1.84-.04.18-.07.37-.12.56.21-.34.43-.79.66-1.28.21-.5.38-1.06.57-1.62.13-.57.28-1.15.38-1.69.08-.54.16-1.04.25-1.46-.23,2.03-.76,4.19-1.78,6.25-1.01,2.06-2.48,4-4.35,5.58-1.88,1.56-4.17,2.71-6.6,3.29-2.43.57-4.98.5-7.31-.1-5.25-1.25-9.43-4.99-11.42-9.51-.21-.42-.41-1.19-.62-2.04-.15-.86-.31-1.81-.3-2.61-.14-1.41,0-2.83.2-4.24.29-1.39.64-2.78,1.25-4.07C4.08,3.71,9.88.05,16.35,0c1.31.05,2.98.49-.12.47-2.55.16-5.08.86-7.36,2.05.22-.23,1.34-.74,1.86-.98-1.8.62-3.22,1.4-4.68,2.59.98-.78,2.01-1.51,3.15-2.06-2.83,1.37-5.48,3.85-7.07,6.9-.53,1.11-1.4,2-1.56,3.82C1.76,8.45,4.87,4.64,8.88,2.52l-.02.02c1.78-.97,3.57-1.5,5.5-1.75-.6.11-1.21.2-1.72.34,2.78-.6,5.63-.43,8.29.34-3.8-.95-8.1-.56-11.74,1.35-3.64,1.87-6.48,5.26-7.59,9.01.45-1,.91-2.19,1.57-3.23.61-1.07,1.4-2,2.13-2.61C2.82,8.5,1.27,11.93.95,15.56c0-.27,0-.54.02-.8-.43,2.25-.09,4.73.63,6.88l.2.58-.2-.58c-.63-2-.83-4.08-.66-6.08-.02.92-.01,1.9.1,3.07-.02-.32,0-.7,0-1.12,0-.42-.02-.87.04-1.32.03-.59.05-1.19.17-1.77.05-.29.09-.59.15-.88l.23-.85c-.46,1.76-.58,3.58-.33,5.19-.1-2.43.3-4.97,1.32-7.18-.49,1.24-.89,2.52-1.03,3.85-.35,2.2-.23,4.51.44,6.71-.04-.08-.06-.17-.08-.25.04.17.11.33.17.49.27.86.64,1.68,1.06,2.48.21.35.43.68.66,1.01.23.32.51.61.76.91l.24.32c-.18-.18-.29-.25,0,.14,1.27,1.68,3.19,2.98,5.3,4.11.27.17.62.3,1,.43.38.14.8.29,1.25.37.23.09.37.11.49.11.19.04.39.1.59.12.48.07.97.15,1.44.18-.47-.06-.95-.12-1.44-.18-.18-.02-.36-.08-.53-.12.13,0,.26,0,.52.05-3.28-.69-6.4-2.55-8.63-5.22.17.14.37.32.48.41-.25-.23-.51-.46-.72-.73-.34-.45-.69-.89-.97-1.37l-.44-.72-.38-.75c.17.29.32.56.49.78-1.49-2.81-2.15-6.1-1.7-9.3.22-1.5.7-2.93,1.37-4.26.65-1.34,1.51-2.57,2.53-3.63-1.15,1.1-2.17,2.47-2.87,4.05.9-2.1,2.28-3.99,4.02-5.48,1.73-1.51,3.85-2.53,6.06-3.05-.77.3-1.77.81-2.16,1.16.05.03,1.4-.4.64-.08-2.68,1.3-4.37,2.69-4.86,3.86-.01.06.13-.02.35-.16.24-.14.53-.3.82-.47.55-.33,1.09-.49.7-.17-.61.56-1.72,1.57-2.58,2.91-.27.37-.51.79-.77,1.2-.03.05-.05.16-.08.29-.77,1.54-1.18,3.14-1.3,4.04-.06.33-.13.66-.14.99-.03.17-.08.32-.13.44.03.21.02.43.05.64.02.45.01.9.05,1.34.07.44.11.88.19,1.32.1.48.13.98.28,1.45.02-.02.04-.11.1-.03.34,1.05.81,2.06,1.4,2.99.19.41.43.75.57,1.1.47.4,1.15,1.12,1.96,1.83.82.7,1.79,1.38,2.66,1.78h0c.43.2.87.42,1.33.57l.69.26.71.19c.15.07.29.13.43.21.25.01.51.03.63.03.77.19,1.44.24,2.11.34.12-.01.35-.12.61-.14.26-.01.52-.02.77-.03.25-.03.49-.08.74-.11.57-.05,1.14-.2,1.71-.34,1.92-.49,3.7-1.43,5.22-2.66.07-.02.11,0,.15.03.18-.25.55-.49.71-.72-.02.05-.03.09-.01.1.55-.72.77-.75,1.27-1.4.11-.15.18-.31.28-.46.06-.07.1-.14.16-.22.66-.68,1.06-1.53,1.43-2.5.2-.48.42-.95.55-1.46l.23-.75.16-.77c.14-.63.26-1.15.39-1.71Z"/>
        <path class="cls-1" d="M8.56,27.57c.73.59,1.53,1.08,2.36,1.52-.91-.42-1.75-.82-2.36-1.52Z"/>
        <path class="cls-1" d="M8.8,5.99c.32-.17.72-.3,1.1-.5-1.02.54-1.89,1.3-2.73,2.09-.8.83-1.51,1.75-2.09,2.77h-.01c.46-.81,1.11-1.77,1.86-2.51.71-.78,1.46-1.39,1.86-1.84Z"/>
        <path class="cls-1" d="M6.7,25.83l.11.08h0s-.07-.04-.11-.08Z"/>
        <path class="cls-1" d="M12.35,2.49l.25-.06c-.62.15-1.21.43-1.81.65.47-.19.99-.45,1.56-.59Z"/>
        <path class="cls-1" d="M19.16,2.28c1.27.25,2.54.61,3.71,1.2,1.49.77,2.81,1.8,3.84,2.97-1.02-1.02-2.17-1.91-3.44-2.64-1.28-.71-2.67-1.21-4.11-1.53Z"/>
        <path class="cls-1" d="M12.85,4.15c.47-.08.94-.18,1.43-.19-.48.04-.94.18-1.4.29.08-.05,0-.07-.02-.1Z"/>
        <path class="cls-1" d="M7.62,4.96l.31-.24c-.25.22-.5.44-.75.66.1-.1.29-.28.44-.43Z"/>
        <path class="cls-1" d="M17.92,3.95c-.34-.07-.7-.06-1.04-.1.21,0,.41-.02.63-.04.11.05.25.08.42.14Z"/>
        <path class="cls-1" d="M23.02,5.69c.2.13.4.25.6.38.18.14.36.28.54.42-.44-.34-.92-.63-1.41-.91.12.04.22.07.27.11Z"/>
      </g>
      <g>
        <path class="cls-1" d="M25.73,10.28c.93-.07,1.86-.05,2.71-.08-.34,0-.68.02-1.02.03.51-.01.94.02,1.46.09-.16.09-.49.02-.57.13-1.24,0-2.49-.14-3.69-.27.48-.27.78.1,1.12.1Z"/>
        <path class="cls-1" d="M30.25,10.45c-.12,0-.25,0-.37,0,.13-.01.25-.02.37,0Z"/>
        <path class="cls-1" d="M17.52,11.38c-.14.02-.28.03-.42.03.14-.03.28-.03.42-.03Z"/>
        <path class="cls-1" d="M24.1,10.92c-.07.02-.15.04-.23.05-.57-.03-1.15-.07-1.74-.11.64.03,1.32-.08,1.96.06Z"/>
        <path class="cls-1" d="M24.72,11.17c.58-.01,1.17.03,1.72.15-.55-.09-1.13-.13-1.72-.15Z"/>
        <path class="cls-1" d="M13.17,12.75s0,.04-.03.05c-.02,0-.03.02-.05.03-.23-.03-.47-.06-.7-.09.06-.01.11-.05.17-.06.26.03.31.14.6.07Z"/>
        <path class="cls-1" d="M17.68,11.37s0,0,.01-.01c.05,0,.1-.01.14-.02,0,0,.01,0,.02,0-.06.01-.12.02-.18.02Z"/>
        <path class="cls-1" d="M13.47,12.76s0,.09.03.12c-.13-.02-.27-.03-.4-.05.02,0,.03-.02.04-.03.09-.03.23.01.32-.04Z"/>
        <path class="cls-1" d="M16.48,13.1c.08,0,.16-.09.2-.11.22.06.44.11.7.15.04-.02.12-.02.2-.07.05.03.1.06.15.09-.57-.01-1.15-.03-1.75-.06.16,0,.32,0,.5,0Z"/>
        <path class="cls-1" d="M2.78,11.88c.76-.06,1.63.17,2.37-.07-.87-.14-2.06-.2-2.19-.57-.13-.38,1.19-.03,1.86-.05q-.09-.04-.18-.08c.09.04.18.08.26.04-.18-.08-.53-.15-.63-.28l.16-.09c-.46-.28-1.31-.34-1.77-.63,2.23.91,5.33.53,8.04.45,1.52-.13,2.92-.46,4.24-.84.25-.05.85-.02,1.28,0,.76-.06,1.52-.13,2.26-.28,1.6-.17,3.14.04,4.85,0,.34,0,.81.36-.03.47-.69.13-1.4.18-2.1.18.08-.12.42-.05.57-.13-.52-.07-.95-.1-1.46-.09.34,0,.68-.02,1.02-.03-.85.02-1.78,0-2.71.08-.34,0-.64-.36-1.12-.1,1.21.13,2.45.27,3.69.27,0,0,0,0,0,0,.55-.02,1.05,0,1.59,0-.17.02-.34.04-.48.02.78.1,1.54.13,2.31.15-2.17.4-4.58.13-6.77.28.62.19,1.44-.08,1.97.16-1.01,0-2.01-.03-3.05-.08.08-.01.15-.03.23-.05-.64-.14-1.32-.02-1.96-.06-.06,0-.11,0-.17-.01.06,0,.11,0,.17.01.59.04,1.17.08,1.74.11-.26.04-.54.05-.87.02.18.08.44.11.7.15.34,0,.68.01,1.02.02-.52.01-1.03.07-1.51.16.71.08,1.43.09,2.14.13-.39.01-.78.03-1.17.04-.65-.04-1.31-.07-1.98-.1.03,0,.05,0,.08,0-.05,0-.1,0-.15,0-.26,0-.52-.02-.79-.02-.24,0-.47.05-.7.11-.04,0-.08,0-.12,0,.07-.04.11-.07-.03-.09-.61-.11-1.27.08-1.96-.07-.18-.04-.43-.02-.7.01-.07-.03-.11-.01-.14.02-.06,0-.12.01-.17.02-.14,0-.28,0-.42.03.14,0,.28-.02.42-.03.05,0,.11,0,.16,0-.04.03-.07.07-.15.07.98.03,1.99.07,3,.05-.06.03-.15.06-.18.08.1-.03.2-.06.3-.08.33,0,.66-.02.99-.04-.1.02-.19.05-.27.1.94.02,1.88-.01,2.82-.05.88.05,1.76.11,2.63.15-.47-.11-.96-.16-1.46-.19,1.33-.05,2.67-.08,4,.04-.24.13-.57.23-.72.4,0,.08.44.11.19.16-.91.24-1.56.03-1.93.5-.07.13.95.58.62.68-.28.04-.77.08-1.3.11-.15-.01-.31-.02-.48-.02-.02,0-.05.02-.1.05-.58.02-1.12.02-1.43,0-.11-.01-.22-.02-.34-.03-.06-.03-.11-.06-.15-.1-.07.03-.14.06-.21.07-.3-.02-.59-.04-.89-.06-.16-.04-.33-.09-.49-.12,0,.03.03.07,0,.1-.37-.01-.73-.02-1.09-.03-.15-.04-.28-.09-.4-.17-.39.26-1.31.1-1.94.14h0c-.32,0-.64,0-.96,0-.05-.03-.1-.06-.15-.09-.08.04-.16.05-.2.07-.26-.04-.48-.09-.7-.15-.04.02-.11.11-.2.11-.17,0-.33,0-.49,0-.19,0-.38-.02-.57-.03-.65-.05-1.29-.11-1.92-.19-.02-.03-.03-.08-.03-.12-.1.05-.24.01-.32.04.02-.01.03-.03.02-.05-.29.07-.34-.03-.6-.07-.06,0-.11.04-.17.06-.03,0-.06,0-.09-.01-.29-.19-.59-.13-.91-.13-.33-.05-.65-.1-.98-.15-.26-.04-.36-.16-.54-.24Z"/>
        <path class="cls-1" d="M12.31,12.73c-.31-.04-.61-.09-.91-.13.33,0,.62-.06.91.13Z"/>
        <path class="cls-1" d="M20.64,13.03c.12.08.26.14.4.17-.78-.02-1.55-.02-2.34-.03h0c.63-.05,1.54.12,1.94-.15Z"/>
        <path class="cls-1" d="M13.14,12.81s-.03.02-.04.03c0,0,0,0,0,0,.01-.01.03-.02.05-.03Z"/>
        <path class="cls-1" d="M22.13,11.4s.05,0,.08,0c-.19.02-.38.04-.57.05.15-.03.32-.04.5-.05Z"/>
        <path class="cls-1" d="M24.18,11.5c.39-.02.78-.03,1.17-.04.5.03.99.08,1.46.19-.87-.04-1.75-.09-2.63-.15Z"/>
        <path class="cls-1" d="M22.14,13.13c.16.03.32.08.49.12-.16,0-.33-.02-.49-.02.03-.03,0-.07,0-.1Z"/>
        <path class="cls-1" d="M20.53,11.5s.08,0,.12,0c-.1.03-.2.05-.3.08.04-.02.12-.05.18-.08Z"/>
        <path class="cls-1" d="M23.87,13.34c-.12-.01-.24-.02-.36-.03.07-.02.14-.04.21-.07.04.04.09.08.15.1Z"/>
        <path class="cls-1" d="M25.73,13.33c.16,0,.32,0,.48.02-.19.01-.38.02-.58.03.04-.03.08-.06.1-.05Z"/>
      </g>
      <g>
        <path class="cls-1" d="M25.73,20.89c.93-.07,1.86-.05,2.71-.08-.34,0-.68.02-1.02.03.51-.01.94.02,1.46.09-.16.09-.49.02-.57.13-1.24,0-2.49-.14-3.69-.27.48-.27.78.1,1.12.1Z"/>
        <path class="cls-1" d="M30.25,21.06c-.12,0-.25,0-.37,0,.13-.01.25-.02.37,0Z"/>
        <path class="cls-1" d="M17.52,21.99c-.14.02-.28.03-.42.03.14-.03.28-.03.42-.03Z"/>
        <path class="cls-1" d="M24.1,21.53c-.07.02-.15.04-.23.05-.57-.03-1.15-.07-1.74-.11.64.03,1.32-.08,1.96.06Z"/>
        <path class="cls-1" d="M24.72,21.77c.58-.01,1.17.03,1.72.15-.55-.09-1.13-.13-1.72-.15Z"/>
        <path class="cls-1" d="M13.17,23.36s0,.04-.03.05c-.02,0-.03.02-.05.03-.23-.03-.47-.06-.7-.09.06-.01.11-.05.17-.06.26.03.31.14.6.07Z"/>
        <path class="cls-1" d="M17.68,21.98s0,0,.01-.01c.05,0,.1-.01.14-.02,0,0,.01,0,.02,0-.06.01-.12.02-.18.02Z"/>
        <path class="cls-1" d="M13.47,23.37s0,.09.03.12c-.13-.02-.27-.03-.4-.05.02,0,.03-.02.04-.03.09-.03.23.01.32-.04Z"/>
        <path class="cls-1" d="M16.48,23.71c.08,0,.16-.09.2-.11.22.06.44.11.7.15.04-.02.12-.02.2-.07.05.03.1.06.15.09-.57-.01-1.15-.03-1.75-.06.16,0,.32,0,.5,0Z"/>
        <path class="cls-1" d="M2.78,22.49c.76-.06,1.63.17,2.37-.07-.87-.14-2.06-.2-2.19-.57-.13-.38,1.19-.03,1.86-.05q-.09-.04-.18-.08c.09.04.18.08.26.04-.18-.08-.53-.15-.63-.28l.16-.09c-.46-.28-1.31-.34-1.77-.63,2.23.91,5.33.53,8.04.45,1.52-.13,2.92-.46,4.24-.84.25-.05.85-.02,1.28,0,.76-.06,1.52-.13,2.26-.28,1.6-.17,3.14.04,4.85,0,.34,0,.81.36-.03.47-.69.13-1.4.18-2.1.18.08-.12.42-.05.57-.13-.52-.07-.95-.1-1.46-.09.34,0,.68-.02,1.02-.03-.85.02-1.78,0-2.71.08-.34,0-.64-.36-1.12-.1,1.21.13,2.45.27,3.69.27,0,0,0,0,0,0,.55-.02,1.05,0,1.59,0-.17.02-.34.04-.48.02.78.1,1.54.13,2.31.15-2.17.4-4.58.13-6.77.28.62.19,1.44-.08,1.97.16-1.01,0-2.01-.03-3.05-.08.08-.01.15-.03.23-.05-.64-.14-1.32-.02-1.96-.06-.06,0-.11,0-.17-.01.06,0,.11,0,.17.01.59.04,1.17.08,1.74.11-.26.04-.54.05-.87.02.18.08.44.11.7.15.34,0,.68.01,1.02.02-.52.01-1.03.07-1.51.16.71.08,1.43.09,2.14.13-.39.01-.78.03-1.17.04-.65-.04-1.31-.07-1.98-.1.03,0,.05,0,.08,0-.05,0-.1,0-.15,0-.26,0-.52-.02-.79-.02-.24,0-.47.05-.7.11-.04,0-.08,0-.12,0,.07-.04.11-.07-.03-.09-.61-.11-1.27.08-1.96-.07-.18-.04-.43-.02-.7.01-.07-.03-.11-.01-.14.02-.06,0-.12.01-.17.02-.14,0-.28,0-.42.03.14,0,.28-.02.42-.03.05,0,.11,0,.16,0-.04.03-.07.07-.15.07.98.03,1.99.07,3,.05-.06.03-.15.06-.18.08.1-.03.2-.06.3-.08.33,0,.66-.02.99-.04-.1.02-.19.05-.27.1.94.02,1.88-.01,2.82-.05.88.05,1.76.11,2.63.15-.47-.11-.96-.16-1.46-.19,1.33-.05,2.67-.07,4,.04-.24.13-.57.23-.72.4,0,.08.44.11.19.16-.91.24-1.56.03-1.93.5-.07.13.95.58.62.68-.28.04-.77.08-1.3.11-.15-.01-.31-.02-.48-.02-.02,0-.05.02-.1.05-.58.02-1.12.02-1.43,0-.11-.01-.22-.02-.34-.03-.06-.03-.11-.06-.15-.1-.07.03-.14.06-.21.07-.3-.02-.59-.04-.89-.06-.16-.04-.33-.09-.49-.12,0,.03.03.07,0,.1-.37-.01-.73-.02-1.09-.03-.15-.04-.28-.09-.4-.17-.39.26-1.31.1-1.94.14h0c-.32,0-.64,0-.96,0-.05-.03-.1-.06-.15-.09-.08.04-.16.05-.2.07-.26-.04-.48-.09-.7-.15-.04.02-.11.11-.2.11-.17,0-.33,0-.49,0-.19,0-.38-.02-.57-.03-.65-.05-1.29-.11-1.92-.19-.02-.03-.03-.08-.03-.12-.1.05-.24.01-.32.04.02-.01.03-.03.02-.05-.29.07-.34-.03-.6-.07-.06,0-.11.04-.17.06-.03,0-.06,0-.09-.01-.29-.19-.59-.13-.91-.13-.33-.05-.65-.1-.98-.15-.26-.04-.36-.16-.54-.24Z"/>
        <path class="cls-1" d="M12.31,23.34c-.31-.04-.61-.09-.91-.13.33,0,.62-.06.91.13Z"/>
        <path class="cls-1" d="M20.64,23.63c.12.08.26.14.4.17-.78-.02-1.55-.02-2.34-.03h0c.63-.05,1.54.12,1.94-.15Z"/>
        <path class="cls-1" d="M13.14,23.41s-.03.02-.04.03c0,0,0,0,0,0,.01-.01.03-.02.05-.03Z"/>
        <path class="cls-1" d="M22.13,22.01s.05,0,.08,0c-.19.02-.38.04-.57.05.15-.03.32-.04.5-.05Z"/>
        <path class="cls-1" d="M24.18,22.11c.39-.02.78-.03,1.17-.04.5.03.99.08,1.46.19-.87-.04-1.75-.09-2.63-.15Z"/>
        <path class="cls-1" d="M22.14,23.74c.16.03.32.08.49.12-.16,0-.33-.02-.49-.02.03-.03,0-.07,0-.1Z"/>
        <path class="cls-1" d="M20.53,22.1s.08,0,.12,0c-.1.03-.2.05-.3.08.04-.02.12-.05.18-.08Z"/>
        <path class="cls-1" d="M23.87,23.95c-.12-.01-.24-.02-.36-.03.07-.02.14-.04.21-.07.04.04.09.08.15.1Z"/>
        <path class="cls-1" d="M25.73,23.94c.16,0,.32,0,.48.02-.19.01-.38.02-.58.03.04-.03.08-.06.1-.05Z"/>
      </g>
      <g>
        <path class="cls-1" d="M13.4,26.87c.69.83,1.39,1.66,2.13,2.3-.28-.27-.58-.52-.84-.81.4.42.74.79,1.14,1.23-.19-.05-.44-.36-.58-.35-1.05-1-1.87-2.24-2.48-3.5.5.33.4.81.64,1.13Z"/>
        <path class="cls-1" d="M16.96,30.63c-.08-.05-.21-.14-.32-.21.12.07.26.15.32.21Z"/>
        <path class="cls-1" d="M9.14,18.09c-.02-.17-.05-.35-.06-.52.04.17.04.35.06.52Z"/>
        <path class="cls-1" d="M11.81,25.6c-.06-.07-.12-.14-.17-.22-.14-.31-.29-.62-.43-.94-.12-.33-.23-.66-.35-.99.14.36.3.72.48,1.08.19.35.37.7.48,1.08Z"/>
        <path class="cls-1" d="M11.99,26.37c.18.3.38.6.57.9.15.26.33.56.53.91-.2-.33-.38-.62-.55-.89-.19-.3-.38-.6-.55-.92Z"/>
        <path class="cls-1" d="M8.26,12.42s-.04-.02-.04-.05c0-.02,0-.05-.01-.07.11-.3.2-.6.34-.88-.01.08,0,.16-.02.23-.12.32-.24.37-.26.76Z"/>
        <path class="cls-1" d="M9.16,18.28v.02s.04.18.04.18c0,0,0,.01,0,.02-.01-.07-.02-.14-.03-.22Z"/>
        <path class="cls-1" d="M8.15,12.81s-.09,0-.13.01l.18-.51s0,.04.01.06c0,.12-.09.29-.06.43Z"/>
        <path class="cls-1" d="M7.36,16.82c0,.11.1.21.12.27-.04.29-.09.59-.11.94.02.05.03.17.08.27-.03.07-.06.14-.08.21,0-.77-.09-1.54,0-2.36,0,.22-.02.45-.02.68Z"/>
        <path class="cls-1" d="M16,1.65c-.69.68-1.63,1.32-2.06,2.18.81-.74,1.94-1.73,2.31-1.55.36.17-1.04,1-1.58,1.66q.1-.06.2-.11c-.1.05-.2.11-.24.21.2-.11.55-.37.72-.37l-.07.2c.57-.2,1.37-.9,1.91-.98-1.22.44-2.49,1.58-3.49,2.91-1.02,1.33-1.83,2.9-2.43,4.39-.6,1.7-.71,3.41-.49,4.9,0,.28-.03.94-.09,1.41.02.42.1.86.15,1.28.05.43.15.84.29,1.24.4,1.73.66,3.43,1.54,5.11.18.32.1.97-.43.18-.45-.65-.83-1.38-1.06-2.15.14.05.19.44.33.58-.1-.59-.26-1.05-.4-1.61.08.38.24.73.36,1.1-.17-.45-.32-.93-.43-1.44-.06-.25-.13-.5-.19-.76-.05-.25-.1-.51-.15-.78-.05-.39.23-.75-.04-1.28-.04.7.03,1.39.07,2.11.12.7.21,1.42.46,2.09h-.01c.19.6.41,1.13.65,1.7-.09-.17-.18-.34-.23-.5.12.43.26.86.46,1.26.18.41.38.81.62,1.18-1.72-1.94-2.33-4.84-2.71-7.38-.09.75.27,1.68.22,2.34-.27-1.17-.37-2.38-.35-3.61.02.09.04.18.06.27.07-.77.04-1.56.11-2.3l.04-.2c-.01.07-.03.13-.04.2-.06.68-.19,1.35-.17,2.04-.07-.31-.07-.64-.01-1.03-.08.21-.16.51-.17.83l.03,1.22c-.02-.62-.15-1.24-.21-1.81-.08.42-.04.86-.05,1.3,0,.44,0,.88.05,1.31-.1-.47-.11-.95-.15-1.42-.03-.8.08-1.6.14-2.4v.09c0-.06,0-.12.01-.18l.16-.94c.04-.28.02-.57.04-.86l.03-.14c.01.1.04.15.1-.02.26-.69.33-1.51.76-2.26.12-.19.22-.47.32-.78.06-.07.06-.12.05-.17l.06-.2c.06-.16.14-.31.19-.48-.07.15-.14.31-.19.48-.02.06-.05.12-.07.18-.01-.05-.03-.11,0-.2-.5,1.08-.99,2.23-1.23,3.45,0-.09-.02-.18-.02-.24,0,.13,0,.25,0,.38-.11.39-.12.79-.17,1.19,0-.12-.02-.24-.05-.34-.1.56-.19,1.13-.18,1.71l-.03.86.06.86c0,.54-.01,1.08.05,1.62.05.54.08,1.08.2,1.6-.05-.58-.04-1.19-.1-1.8.2,1.62.67,3.17,1.16,4.72-.25-.22-.48-.56-.69-.69-.08.04.06.56-.08.28-.29-.51-.45-.98-.6-1.36-.13-.39-.26-.69-.55-.87-.15-.07-.29,1.35-.48.95-.12-.35-.33-.98-.48-1.68-.02-.22-.04-.42-.07-.64,0-.03-.03-.07-.07-.12-.15-.76-.17-1.5-.16-1.9,0-.15,0-.3.01-.45.02-.08.05-.15.09-.2-.04-.09-.07-.19-.09-.28.04-.41.08-.81.11-1.2.05-.22.11-.45.16-.65-.03,0-.08.03-.1-.01.09-.49.17-.98.25-1.46.06-.19.17-.35.28-.49-.07-.28.01-.72.13-1.18.14-.46.35-.93.46-1.34h0c.14-.41.33-.79.5-1.18.05-.06.11-.1.16-.15,0-.12.04-.22.04-.28.19-.29.37-.52.55-.75,0-.06-.03-.19.02-.29.11-.2.21-.38.32-.57.13-.2.27-.41.41-.63.49-.7,1.01-1.35,1.57-1.95.04,0,.08.02.12.04.03-.14.17-.25.22-.36,0,.03,0,.05.02.06.18-.33.31-.32.54-.56.05-.06.06-.14.1-.21l.08-.07c.4-.16.59-.48.89-.78.32-.27.66-.53.99-.79.27-.2.45-.2.67-.29Z"/>
        <path class="cls-1" d="M8.59,11.32c.17-.36.34-.73.52-1.1-.15.41-.21.79-.52,1.1Z"/>
        <path class="cls-1" d="M8.19,22.33c-.03.18-.02.37,0,.57-.17-.5-.28-1.02-.39-1.54l-.17-.78-.11-.79h0c.11.84.29,2.08.66,2.53Z"/>
        <path class="cls-1" d="M8.21,12.37s-.01-.04-.01-.06h0s.01.04.01.06Z"/>
        <path class="cls-1" d="M10.35,23.64l.03.09c-.11-.21-.22-.42-.3-.65.11.23.18.39.27.56Z"/>
        <path class="cls-1" d="M11.36,25.98c.27.4.52.82.82,1.2.33.53.66,1.05.96,1.57-.69-.85-1.25-1.8-1.78-2.77Z"/>
        <path class="cls-1" d="M8.75,24.29c.04.2.1.44.14.66-.08-.21-.16-.42-.24-.62.04.03.07-.02.09-.04Z"/>
        <path class="cls-1" d="M9.63,21.79s.02.09.04.14c-.06-.11-.11-.23-.17-.34.03.05.08.13.13.2Z"/>
        <path class="cls-1" d="M9.56,26.52c-.07-.15-.13-.3-.2-.45.06.08.13.15.2.22-.01.07-.01.14,0,.23Z"/>
        <path class="cls-1" d="M10.94,28.67c.13.18.25.37.37.54-.17-.19-.33-.41-.49-.62.06.03.11.05.12.08Z"/>
      </g>
      <g>
        <path class="cls-1" d="M21.3,28.19c-.66,1.03-1.5,1.96-2.31,2.73.32-.32.64-.63.93-.98-.44.51-.88.88-1.44,1.28.1-.2.48-.44.47-.61,1.17-1.12,2.3-2.3,3.25-3.6-.1.69-.65.81-.9,1.17Z"/>
        <path class="cls-1" d="M16.91,32.26c.15-.1.29-.2.43-.3-.14.11-.26.21-.43.3Z"/>
        <path class="cls-1" d="M23.79,18.09c0-.18-.01-.35,0-.53.02.17.01.35,0,.53Z"/>
        <path class="cls-1" d="M21.91,26.08c.03-.09.05-.19.09-.28.18-.31.36-.63.55-.95.16-.33.32-.67.48-1-.18.37-.31.77-.48,1.15-.19.38-.39.75-.64,1.08Z"/>
        <path class="cls-1" d="M21.29,26.62c-.18.32-.39.62-.63.9-.23.28-.47.55-.74.77.26-.23.49-.5.72-.78.24-.28.45-.57.65-.89Z"/>
        <path class="cls-1" d="M22.01,13.07s-.04,0-.06-.01c-.01-.02-.02-.03-.04-.04-.04-.27-.05-.54-.12-.8.03.06.09.11.12.17.04.3-.05.38.1.69Z"/>
        <path class="cls-1" d="M23.79,18.29v.02s.02.18.02.18c0,0,0,.01,0,.02,0-.07-.01-.15-.01-.22Z"/>
        <path class="cls-1" d="M22.08,13.41s-.08.03-.11.06l-.06-.45s.03.03.04.04c.05.09.05.25.13.35Z"/>
        <path class="cls-1" d="M22.13,16.8c0,.1.08.18.1.23-.07.25-.14.5-.19.79.02.05.02.14.06.24-.04.05-.07.11-.1.17.02-.64.13-1.31.11-1.97.01.18.04.36.02.55Z"/>
        <path class="cls-1" d="M16.26,2.37c.73.55,1.31,1.47,2.07,2-.57-.91-1.6-1.95-1.48-2.33.14-.4,1.12.99,1.68,1.62q-.05-.11-.09-.22c.05.11.09.22.19.27-.09-.22-.33-.59-.33-.77l.2.09c-.2-.63-.91-1.42-1.25-2.07.88,1.35,1.89,2.62,2.96,4.06,1.06,1.41,2.12,2.95,2.86,4.55.89,1.74,1.71,3.43,2.28,5.18.1.33.1,1.16.1,1.74.05.52.03,1.02.06,1.53.03.51.03,1.02.02,1.54-.11,2.19-.9,4.22-1.9,6.33-.21.42-.82.8-.4-.25.29-.89.62-1.76.88-2.66.08.14-.13.54-.11.77.27-.64.52-1.17.65-1.84-.08.45-.24.88-.36,1.32.17-.54.35-1.12.46-1.72.06-.3.12-.6.19-.91.04-.31.07-.62.1-.92.04-.45.51-.81.25-1.47-.09.8-.32,1.6-.48,2.4-.24.79-.42,1.59-.7,2.37h0c-.19.7-.47,1.31-.74,1.96.07-.21.14-.42.23-.6-.25.46-.47.92-.73,1.35-.25.45-.49.89-.78,1.3,1.18-2.59,2.36-5.54,2.48-8.4-.3.76-.13,1.86-.56,2.48.29-1.26.46-2.55.54-3.87,0,.1.02.2.04.29.21-.82,0-1.72,0-2.55l-.02-.22c0,.08.01.15.02.22-.01.77.05,1.53-.03,2.26-.02-.34-.02-.69-.03-1.12-.07.23-.07.57-.13.9l-.08,1.29c0-.66.02-1.32-.11-1.91,0,.45-.08.9-.11,1.35-.04.45-.06.9-.16,1.34.07-.49.05-.98.06-1.47.11-.82.07-1.65.06-2.49v.1c0-.06,0-.13,0-.19l-.13-.99c-.05-.29-.14-.58-.28-.84l-.04-.14c.06.08.11.12.08-.06-.05-.78-.5-1.52-.65-2.4-.05-.23-.2-.51-.36-.8-.01-.1-.05-.13-.09-.16l-.1-.19c-.07-.16-.16-.32-.26-.47.08.14.17.3.26.47.03.06.06.12.09.18-.05-.03-.1-.06-.14-.15.47,1.13.89,2.34,1.17,3.58-.05-.08-.1-.15-.13-.2.06.12.12.23.17.35.12.4.16.81.26,1.21-.04-.12-.09-.23-.15-.32.09.58.18,1.16.19,1.75l.06.88v.89c-.06.55-.11,1.1-.23,1.64-.1.54-.18,1.08-.34,1.6.26-.54.36-1.16.49-1.77-.11,1.67-.55,3.33-1.26,4.84,0-.33.06-.74-.06-.98-.08-.02-.27.47-.23.16.06-.57.2-1.01.28-1.39.05-.39.06-.71-.13-.97-.11-.1-.81.94-.82.54.02-.32.13-.87.2-1.46.04-.17.07-.35.09-.53.01-.02,0-.06-.03-.12.09-.64.1-1.27.15-1.61.02-.13.03-.26.05-.38.03-.07.07-.12.11-.17-.03-.08-.05-.16-.06-.24.01-.33,0-.66,0-.99.03-.18.07-.37.09-.56-.03,0-.06.04-.1,0-.05-.41-.1-.82-.15-1.22.02-.17.03-.33.07-.48-.18-.19-.3-.54-.39-.94-.12-.39-.24-.81-.37-1.15h0c-.11-.34-.27-.68-.41-1.02,0-.07,0-.13.01-.2-.08-.07-.12-.15-.16-.19-.1-.28-.17-.53-.23-.79-.04-.03-.16-.07-.2-.15-.08-.18-.18-.35-.28-.5-.1-.19-.2-.39-.31-.59-.36-.67-.73-1.32-1.13-1.96.01-.04.04-.07.07-.1-.11-.06-.18-.22-.27-.28.02,0,.05,0,.06-.01-.27-.22-.23-.34-.4-.6-.05-.05-.12-.08-.17-.12l-.06-.08c-.09-.38-.36-.61-.63-.89-.23-.32-.48-.63-.72-.93-.2-.24-.21-.41-.31-.61Z"/>
        <path class="cls-1" d="M21.77,12.12c-.07-.34-.14-.69-.22-1.04.12.36.29.66.22,1.04Z"/>
        <path class="cls-1" d="M21.57,21.46c-.12.11-.22.24-.31.38.16-.4.25-.83.35-1.25l.15-.64.09-.66h0c-.02.73-.47,1.66-.3,2.17Z"/>
        <path class="cls-1" d="M21.95,13.06s-.03-.03-.04-.04h0s.03.02.04.04Z"/>
        <path class="cls-1" d="M22.54,23.64l-.04.08c.07-.23.16-.45.21-.68-.02.19-.09.39-.17.59Z"/>
        <path class="cls-1" d="M21.35,25.89c-.25.41-.46.84-.73,1.24-.38.49-.79.94-1.24,1.31.73-.78,1.37-1.64,1.98-2.55Z"/>
        <path class="cls-1" d="M20.92,23.02c-.1.14-.21.3-.32.45.08-.17.15-.33.23-.49.01.04.06.03.09.04Z"/>
        <path class="cls-1" d="M23.08,21.74s-.02.09-.03.14c.01-.12,0-.25,0-.38,0,.06.02.15.03.24Z"/>
        <path class="cls-1" d="M19.92,24.67c.07-.11.14-.23.21-.34-.02.08-.03.16-.04.24-.06.02-.11.05-.17.1Z"/>
        <path class="cls-1" d="M18.83,26.41c-.11.14-.21.29-.33.41.13-.17.23-.35.35-.53,0,.06,0,.1-.02.12Z"/>
      </g>
    </g>
  </g>
</svg>