<?xml version="1.0" encoding="UTF-8"?>
<svg id="Calque_2" data-name="Calque 2" xmlns="http://www.w3.org/2000/svg" viewBox="0 0 33.08 28.94">
  <defs>
    <style>
      .cls-1 {
        fill: #fff;
        stroke-width: 0px;
      }
    </style>
  </defs>
  <g id="Calque_1-2" data-name="Calque 1">
    <g id="Livre">
      <g>
        <path class="cls-1" d="M28.79,26.83c-.33.18-.68.33-1.04.45-.17.05-.37.13-.6.16l-.45.08c-.61.1-1.21.21-1.8.31-1.19.2-2.36.4-3.46.58l2.65-.46c-1.33.23-2.45.38-3.82.53.39-.15,1.28-.23,1.48-.38,1.62-.26,3.25-.49,4.88-.7l.64-.08c.3-.07.51-.11.75-.2.47-.15.92-.38,1.34-.63.84-.53,1.55-1.25,2.06-2.08-.28.74-.74,1.24-1.2,1.59-.47.35-.95.57-1.43.83Z"/>
        <path class="cls-1" d="M16.65,28.94c.33-.05.64-.11.96-.16-.33.07-.66.13-.96.16Z"/>
        <path class="cls-1" d="M30.84,5.17c-.14-.35-.3-.7-.49-1.01.21.3.37.65.49,1.01Z"/>
        <path class="cls-1" d="M31.35,22.69c.05-.21.06-.43.1-.64.14-.83.1-1.59.13-2.35.02-.77.04-1.54.06-2.32-.02.85,0,1.72.01,2.6,0,.45.01.85-.02,1.33-.02.48-.12.94-.28,1.38Z"/>
        <path class="cls-1" d="M30.42,24.18c-.85,1.37-2.44,2.29-3.94,2.29,1.49-.04,3.04-.92,3.94-2.29Z"/>
        <path class="cls-1" d="M21.25,3.99s-.01.04-.05.07c-.04.02-.08.03-.11.05l-.92.15-.23.04s-.05,0-.09.02c-.1.02-.2.06-.3.09.09-.05.16-.13.27-.17.05-.01.08-.02.1-.02.07,0,.13-.01.19-.02.12-.01.23-.02.34-.03.22-.03.44-.07.81-.18Z"/>
        <path class="cls-1" d="M30.97,5.58l.02.04.08.38s0,.03,0,.05c-.04-.16-.07-.31-.11-.46Z"/>
        <path class="cls-1" d="M22.02,3.84s.04.08.1.1l-1.04.18.11-.05c.22-.08.59-.11.83-.22Z"/>
        <path class="cls-1" d="M28.2,4.18c.12.09.27.13.33.17.24.33.41.7.55,1.14.05.05.11.19.19.32-.01.09,0,.18-.02.29-.2-.99-.84-1.91-1.77-2.41.25.13.5.27.72.49Z"/>
        <path class="cls-1" d="M16.97,27.7c-.06-2.01.17-4.33-.07-6.29-.14,2.3-.2,5.47-.57,5.8-.38.34-.03-3.14-.05-4.94q-.04.24-.08.48c.04-.24.08-.48.04-.69-.08.47-.15,1.4-.28,1.66l-.09-.42c-.28,1.21-.34,3.48-.63,4.69.46-2.95.59-6.48.59-10.17,0-1.85-.02-3.73-.06-5.6-.02-.94-.03-1.87-.05-2.79,0-.46-.01-.92-.02-1.38,0-.46-.03-.89.02-1.45.16-2.16,1.72-4.18,3.87-4.74,1.66-.49,3.25-1,4.8-1.51l-.11.03c.37-.12.74-.26,1.13-.31.43-.09,1.21-.09,2.03.07.82.18,1.66.58,2.27,1.01,1.13.71,2.03,1.76,2.57,2.98.29.6.46,1.25.58,1.91.04.31.08.69.09.95.02.25.03.49.05.74.17,4.23-.04,8.32,0,12.84,0,.38-.1,1.16-.24,1.32-.06.09-.11.05-.14-.19-.03-.24-.06-.7-.09-1.22-.13-1.84-.18-3.7-.18-5.56.12.22.05,1.1.13,1.52.07-1.37.1-2.51.09-3.85l.03,2.69c-.02-2.24,0-4.73-.08-7.18,0-.47.09-.84.14-1.37.03-.6,0-1.3-.4-2.04.15.5.24,1.01.27,1.52,0,.25.02.53.01.75l-.02.61-.09,2.44c-.05,1.64-.09,3.28-.08,4.93v-.02c0,1.47,0,2.79,0,4.21-.02-.44-.04-.89-.02-1.28-.05,1.03-.08,2.05-.1,3.07,0,1.17-.31,2.44-.94,3.48.4-.77.64-1.62.72-2.48.07-.92-.01-1.59-.01-2.35-.03-1.5-.04-3.01-.04-4.53,0-1.52,0-3.04,0-4.55,0-.75,0-1.5-.01-2.24-.02-.74.02-1.46-.12-2.33.04,1-.01,1.88.02,2.82.02.92.02,1.82-.09,2.53,0-1.33.01-2.66.02-4.01.1-1.41-.35-3.06-1.34-4.27.16.17.3.35.45.52-.95-1.75-3.14-2.85-5.14-2.7l-.54.04.54-.04c1.86-.08,3.62.82,4.69,2.18-.54-.58-1.19-1.14-2.11-1.57.46.3,1.11.73,1.63,1.3.7.72,1.21,1.62,1.46,2.58-.39-1.49-1.49-2.7-2.69-3.3,1.72,1.07,2.77,3.16,2.62,5.12.02-1.06-.26-2.17-.82-3.08-.86-1.59-2.65-2.71-4.55-2.69h.22c-.14,0-.29-.02-.43,0-.39.02-.77.09-1.16.19h.02c-.32.06-.64.13-.96.2-.61.14-1.2.32-1.78.5l-.3.07c.18-.08.27-.13-.1-.07-.4.06-.8.14-1.21.23-.2.05-.41.09-.62.14-.22.04-.47.13-.67.22-.87.38-1.63,1.03-2.21,1.86-.3.43-.58,1.12-.64,1.89-.06.2-.04.32-.02.41,0,.17,0,.32.01.48,0,.37,0,.75.03,1.12-.01-.36-.02-.74-.03-1.12v-.43c.03.11.06.21.06.42-.05-1.34.5-2.79,1.57-3.72.53-.47,1.15-.82,1.86-.99.66-.14,1.31-.29,1.97-.43-.16.06-.35.14-.46.18.26-.08.51-.17.76-.25.84-.2,1.69-.4,2.54-.6-.25.08-.48.16-.68.25l.91-.19h-.01c1.08-.3,2.27-.27,3.32.17,1.06.41,1.96,1.2,2.55,2.17.63,1.06.77,2.34.7,3.48-.02,1.16-.05,2.32-.07,3.48.11-1.25.16-2.55.19-3.88.05,3.53.08,7.07-.04,10.59-.13-.64-.23-1.51-.4-1.91-.08.02-.11,1.16-.16.5-.24-2.41-.03-4.13-.5-5.11-.13-.19-.58,2.51-.68,1.64-.04-.73-.08-2.03-.11-3.44,0-.41.01-.83.02-1.26,0-.05-.02-.15-.05-.26,0-.36,0-.8-.02-1.08,0-.26-.05-.5-.09-.72-.11-.44-.24-.8-.39-1.04-.08-.19-.21-.35-.32-.52-.05-.09-.09-.19-.11-.27-.11-.08-.23-.13-.34-.21-.41-.37-.89-.63-1.41-.76-.28-.1-.57-.17-.88-.19,0,.03.06.06,0,.1-.26,0-.51.06-.77.11l-.1.03c-.59.12-1.17.24-1.75.36-.39.05-.75.07-1.08.06-.48.24-1.32.45-2.25.65-.06.01-.24.07-.38.13-.14.06-.28.14-.41.23-.26.17-.49.4-.65.63h0c-.34.46-.56,1.02-.6,1.61-.03.11-.07.16-.1.3.04.21.05.44.07.54-.04.69-.09,1.27-.15,1.85.02.11.11.3.11.53,0,.45,0,.89,0,1.31-.01.5-.02,1-.03,1.51-.05,1.72-.11,3.41-.19,5.08-.03.05-.08.07-.12.08.05.26.01.62.04.86-.01-.04-.03-.07-.05-.07.07.77-.03.91-.07,1.6,0,.16.04.3.06.45v.23c-.2.78-.14,1.55-.14,2.42l-.15,2.6c-.04.69-.16.95-.24,1.42Z"/>
        <path class="cls-1" d="M19.4,4.47c-.51.22-.96.6-1.29,1.09.31-.54.72-1.01,1.29-1.09Z"/>
        <path class="cls-1" d="M29.47,13.42c-.08.32-.14.68-.17,1.07,0-2.06.02-4.11.03-6.21h0c.04,1.67-.13,4.09.14,5.14Z"/>
        <path class="cls-1" d="M21.19,4.06l-.11.05h0s.07-.04.11-.05Z"/>
        <path class="cls-1" d="M31.1,17.37v.2c-.02-.51-.04-1.02-.05-1.52.03.4.04.85.05,1.32Z"/>
        <path class="cls-1" d="M30.73,22.75c-.3.97-.88,1.86-1.67,2.51-.52.4-1.12.68-1.74.83-.6.13-1.27.15-1.88.21.56-.09,1.17-.16,1.7-.25.54-.13,1.06-.35,1.53-.66.94-.61,1.68-1.56,2.06-2.64Z"/>
        <path class="cls-1" d="M29.37,17.39c-.04.41-.08.86-.12,1.29,0-.43.01-.86.02-1.29.03.08.07.01.1,0Z"/>
        <path class="cls-1" d="M31,13.13v.31c-.02-.26-.05-.53-.08-.79.02.11.05.31.08.48Z"/>
        <path class="cls-1" d="M29.11,21.66c.04-.21.07-.4.08-.63,0,.14.03.25.06.39-.05.06-.1.15-.13.24Z"/>
        <path class="cls-1" d="M27.36,24.14c-.21.12-.55.21-.68.24.18-.05.55-.2.79-.36-.04.06-.08.12-.12.12Z"/>
      </g>
      <g>
        <path class="cls-1" d="M5.25,24.84c.22.1.44.19.67.25.13.03.21.06.29.07l.46.07c.61.09,1.21.18,1.81.27,1.19.19,2.36.37,3.47.54l-2.66-.4c1.33.2,2.45.41,3.79.7-.42.02-1.29-.19-1.52-.11-1.62-.26-3.24-.56-4.85-.87-1.41-.19-2.44-1.04-3.01-2.16.71.67.92,1.29,1.56,1.64Z"/>
        <path class="cls-1" d="M16.65,27.05c-.33-.05-.64-.1-.96-.15.34.04.67.09.96.15Z"/>
        <path class="cls-1" d="M2.2,5.19c.1-.36.24-.71.43-1.03-.17.33-.32.67-.43,1.03Z"/>
        <path class="cls-1" d="M2.58,22.43c-.08-.16-.12-.34-.17-.52-.09-.67-.03-1.44-.02-2.21.02-.77.04-1.54.06-2.32-.02.85,0,1.72.01,2.6.01.91-.04,1.7.12,2.45Z"/>
        <path class="cls-1" d="M2.98,23.92c.81,1.23,2.12,2.13,3.56,2.38-1.43-.22-2.76-1.11-3.56-2.38Z"/>
        <path class="cls-1" d="M12.32,1.37s.03-.03.08-.04c.05,0,.09,0,.12,0l.9.24.23.06c.13.03.25.07.36.11.19.07.38.16.57.25-.19-.07-.38-.11-.58-.17-.34-.11-.62-.21-.86-.29-.21-.07-.43-.12-.81-.17Z"/>
        <path class="cls-1" d="M2.09,5.59v.04s-.05.38-.05.38c0,.01,0,.03-.01.04.02-.15.03-.31.06-.46Z"/>
        <path class="cls-1" d="M11.55,1.19s0-.09-.05-.13l1.02.27h-.12c-.23-.02-.58-.14-.85-.14Z"/>
        <path class="cls-1" d="M2.55,1.64c-.23.2-.35.45-.42.57-.56.51-1.04,1.13-1.42,1.96-.04.14-.14.42-.17.7-.08.15-.17.31-.22.49C.74,3.41,2.07,1.59,4,.66c-.5.27-1,.58-1.45.98Z"/>
        <path class="cls-1" d="M16.97,27.7c-.06-2.01.17-4.33-.07-6.29-.14,2.3-.2,5.47-.57,5.8-.38.34-.03-3.14-.05-4.94q-.04.24-.08.48c.04-.24.08-.48.04-.69-.08.47-.15,1.4-.28,1.66l-.09-.42c-.28,1.21-.34,3.48-.63,4.69.46-2.95.59-6.48.59-10.17,0-1.85-.02-3.73-.06-5.6-.02-.94-.03-1.87-.05-2.79,0-.46-.01-.92-.02-1.38-.01-.46,0-.93-.04-1.27-.21-1.52-1.46-2.68-2.73-2.77-1.71-.24-3.38-.44-4.99-.62l-.11-.03c-.21,0-.4-.05-.6-.02-.22-.02-.58,0-.98.07-.4.08-.81.26-1.14.46-.55.4-.97.97-1.18,1.61-.12.31-.16.65-.19.98,0,.18.01.36.02.54.02.25.03.49.05.74.17,4.23-.04,8.32,0,12.84,0,.52-.08.81-.16.93-.05.05-.1.05-.17-.08-.06-.12-.11-.34-.14-.93-.13-1.84-.18-3.7-.18-5.56.12.22.05,1.1.13,1.52.07-1.37.1-2.51.09-3.85l.03,2.69c-.02-2.24,0-4.73-.08-7.18,0-.43.08-.91.15-1.3.08-.33.12-.67.14-1.13-.1.26-.18.54-.22.83l-.05.46-.02.61-.09,2.44c-.05,1.64-.09,3.28-.08,4.93v-.02c0,1.47,0,2.79,0,4.21-.02-.44-.04-.89-.02-1.28-.05,1.03-.08,2.05-.1,3.07-.03.87.15,1.64.56,2.36-.33-.46-.57-1.02-.67-1.62-.1-.54-.09-1.36-.11-2.09-.03-1.5-.04-3.01-.04-4.53,0-1.52,0-3.04,0-4.55,0-.75,0-1.5-.01-2.24,0-.75-.05-1.51.03-2.07-.2.62-.13,1.65-.12,2.56.02.92.02,1.82-.09,2.53,0-1.33.01-2.66.02-4.01-.05-1.27.34-2.38,1.1-3.29-.1.14-.18.29-.26.44.87-1.11,2.26-1.99,3.67-1.85l.37.05-.37-.05c-1.27-.13-2.57.44-3.41,1.42.34-.48.84-.91,1.54-1.2-.4.09-.94.37-1.39.78-.56.56-.98,1.28-1.2,2.04.3-1.2,1.08-2.23,2.01-2.89-1.55.8-2.53,2.6-2.48,4.42-.04-1.01.18-1.98.67-2.84.86-1.42,2.49-2.32,4.13-2.26h-.19c.12.01.25,0,.37.01.34.02.67.1,1,.18h.02s0,0,0,0c.32.07.64.14.96.22.61.13,1.22.21,1.83.28l.3.06c-.2,0-.3.01.07.11.39.11.79.21,1.2.3.2.04.41.09.62.13.2.03.36.09.56.16.74.28,1.42.85,1.78,1.62.19.4.45.93.56,1.57,0,.18.02.26.05.35.01.13.02.29.03.44,0,.37,0,.75.03,1.12-.01-.36-.02-.74-.03-1.12,0-.14,0-.28-.01-.41.04.08.08.18.08.39.07-1.24-.39-2.49-1.32-3.34-.45-.42-1.03-.75-1.63-.89-.66-.14-1.31-.28-1.97-.43.18,0,.38.02.49.02-.27-.03-.53-.06-.79-.09-.85-.17-1.7-.34-2.56-.51.26.03.5.06.72.06l-.91-.2h0s0,0,0,0c-1-.28-2.11-.25-3.07.18-.97.4-1.78,1.15-2.3,2.05-.62.95-.81,2.08-.79,3.24-.02,1.16-.05,2.32-.07,3.48.11-1.25.16-2.55.19-3.88.05,3.53.08,7.07-.04,10.59-.13-.64-.23-1.51-.4-1.91-.08.02-.11,1.16-.16.5-.24-2.41-.03-4.13-.5-5.11-.13-.19-.58,2.51-.68,1.64-.04-.73-.08-2.03-.11-3.44,0-.41.01-.83.02-1.26,0-.05-.02-.15-.05-.26,0-.4-.02-.71,0-1.16,0-.47.07-.92.16-1.34.2-.83.5-1.52.79-1.96.19-.34.45-.64.69-.94.15-.13.3-.24.42-.31.14-.2.31-.37.48-.55.81-.64,1.76-1.09,2.77-1.3.57-.08,1.13-.08,1.68-.01,0-.03-.1-.08.01-.1.49.03.97.13,1.43.26l-.1-.03c.58.13,1.16.26,1.74.4.37.12.71.25,1.01.4.54-.02,1.39.14,2.31.34,1.38.34,2.43,1.21,3.11,2.1h0c.67.89,1.07,1.99,1.14,3.12-.02.18-.04.39-.08.5.04.21.05.44.07.54-.04.69-.09,1.27-.15,1.85.02.11.11.3.11.53,0,.45,0,.89,0,1.31-.01.5-.02,1-.03,1.51-.05,1.72-.11,3.41-.19,5.08-.03.05-.08.07-.12.08.05.26.01.62.04.86-.01-.04-.03-.07-.05-.07.07.77-.03.91-.07,1.6,0,.16.04.3.06.45v.23c-.2.78-.14,1.55-.14,2.42l-.15,2.6c-.04.69-.16.95-.24,1.42Z"/>
        <path class="cls-1" d="M14.83,2.14c.93.54,1.66,1.34,2.12,2.26-.55-.97-1.31-1.61-2.12-2.26Z"/>
        <path class="cls-1" d="M.28,13.42c-.08.32-.14.68-.17,1.07,0-2.06.02-4.11.03-6.21h0c.04,1.67-.13,4.09.14,5.14Z"/>
        <path class="cls-1" d="M12.39,1.33h.12s0,0,0,0c-.04,0-.08,0-.12,0Z"/>
        <path class="cls-1" d="M1.91,17.37v.2c-.02-.51-.04-1.02-.05-1.52.03.4.04.85.05,1.32Z"/>
        <path class="cls-1" d="M2.09,22.81c.34.99.96,1.89,1.79,2.53.51.44,1.11.76,1.73.98.65.2,1.26.29,1.87.46-.58-.11-1.12-.19-1.72-.32-.58-.16-1.13-.43-1.62-.78-.98-.7-1.7-1.73-2.04-2.87Z"/>
        <path class="cls-1" d="M.18,17.39c-.04.41-.08.86-.12,1.29,0-.43.01-.86.02-1.29.03.08.07.01.1,0Z"/>
        <path class="cls-1" d="M1.82,13.13v.31c-.02-.26-.05-.53-.08-.79.02.11.05.31.08.48Z"/>
        <path class="cls-1" d="M.07,22.29c-.06-.42-.08-.86-.07-1.26.02.23.05.49.11.73-.03.14-.04.32-.04.53Z"/>
        <path class="cls-1" d="M3.86,27.55c.27.14.54.26.81.36.29.12.49.17.87.28-.79-.18-1.39-.42-2.02-.77.15.06.27.1.34.13Z"/>
      </g>
    </g>
  </g>
</svg>