<?xml version="1.0" encoding="UTF-8"?>
<svg id="Calque_2" data-name="Calque 2" xmlns="http://www.w3.org/2000/svg" viewBox="0 0 27.52 28.36">
  <defs>
    <style>
      .cls-1 {
        fill: #fff;
        stroke-width: 0px;
      }
    </style>
  </defs>
  <g id="Calque_1-2" data-name="Calque 1">
    <g id="Loupe">
      <g>
        <path class="cls-1" d="M15.1,2.17c1.8.97,3.17,2.66,3.94,4.35-.32-.68-.69-1.33-1.16-1.91.67.89,1.12,1.75,1.4,2.85-.19-.29-.39-1-.59-1.1-1.14-2.41-3.23-4.41-5.79-5.27,1.11.07,1.58.7,2.21,1.07Z"/>
        <path class="cls-1" d="M19.61,10.42c-.02-.27-.03-.53-.04-.79.03.27.05.54.04.79Z"/>
        <path class="cls-1" d="M1.89,8.39c-.06.27-.09.55-.12.81.01-.27.05-.54.12-.81Z"/>
        <path class="cls-1" d="M11.67,1.57c-.17,0-.32-.01-.46-.02-1.15-.16-2.35-.11-3.53.18,1.26-.33,2.71-.52,3.99-.16Z"/>
        <path class="cls-1" d="M12.82,2.1c1.11.34,2.14.98,2.88,1.77-.76-.77-1.77-1.39-2.88-1.77Z"/>
        <path class="cls-1" d="M4.93,15.29s.04-.02.07,0c.02.02.05.03.07.04.25.29.5.58.79.82-.08-.05-.18-.07-.26-.12-.29-.32-.3-.43-.67-.73Z"/>
        <path class="cls-1" d="M1.96,8.09v-.03c.01-.09.03-.19.06-.27,0,0,.01-.02.02-.03-.03.11-.05.22-.08.34Z"/>
        <path class="cls-1" d="M4.62,14.92s.06-.07.06-.11c.11.18.26.34.38.51l-.07-.03c-.12-.09-.24-.28-.38-.36Z"/>
        <path class="cls-1" d="M3.36,10.39c0-.13-.08-.25-.09-.32.06-.35.18-.67.28-1.06,0-.06.03-.19.01-.32.05-.06.1-.13.15-.2-.26.83-.37,1.74-.3,2.67-.02-.25-.04-.5-.04-.77Z"/>
        <path class="cls-1" d="M18.18,10.63c.05,1.42-.65,2.89-1.19,4.13.5-.63.93-1.5,1.2-2.26.27-.76.42-1.38.61-1.5.19-.12.19.49-.01,1.26-.19.78-.63,1.68-.95,2.27q.12-.14.23-.28c-.12.14-.23.28-.27.44.25-.27.61-.88.79-1.03l-.04.34c.32-.38.63-1.02.86-1.69.23-.68.36-1.39.5-1.89-.43,2.46-1.62,5.16-3.88,7.03-1.12.93-2.47,1.63-3.91,1.98-1.44.35-2.97.32-4.36-.02-3.15-.7-5.77-2.82-7.14-5.57-.27-.51-.58-1.89-.57-2.88-.17-1.74.14-3.53.8-5.18C2.4,2.28,6.09.04,10.12,0c.82.03,1.83.44-.07.47-1.57.15-3.1.59-4.48,1.32.11-.18.81-.47,1.12-.64-1.12.36-2,.83-2.89,1.57.6-.48,1.23-.93,1.93-1.27-1.74.85-3.37,2.38-4.32,4.26-.32.68-.99,1.18-.99,2.34C1.18,5.36,3.12,3.08,5.56,1.79c0,0,0,.01,0,.01,1.08-.6,2.18-.91,3.35-1.07-.37.07-.71.14-1.05.21,1.7-.32,3.42-.21,5.03.26-2.32-.5-4.88-.24-7.07.9C3.64,3.23,1.93,5.26,1.29,7.51c.56-1.17,1.27-2.81,2.26-3.46-1.47,1.5-2.41,3.53-2.62,5.7,0-.16-.01-.32,0-.48-.31,1.34-.06,2.83.36,4.12l.11.35-.11-.35c-.36-1.2-.47-2.45-.35-3.64,0,.55.01,1.13.07,1.83.03-.38.03-.92.08-1.46.03-.7.13-1.41.33-2.07-.27,1.04-.31,2.12-.13,3.07-.03-1.43.21-2.91.82-4.2-.28.73-.51,1.48-.58,2.25-.22,1.28-.17,2.63.22,3.92-.02-.05-.03-.1-.05-.14.02.1.06.19.1.29.16.5.37.98.61,1.46.25.41.53.78.87,1.1l.14.18c-.11-.1-.19-.13-.03.11.72,1.02,1.88,1.72,3.09,2.43.32.19.8.36,1.33.47.13.06.21.07.29.06.11.02.23.05.34.06.28.04.57.08.85.09-.27-.03-.55-.06-.85-.09-.11-.01-.21-.05-.31-.07.08-.01.16-.03.31,0-1.91-.41-3.72-1.51-5.02-3.06.11.08.23.17.3.22-.15-.13-.31-.25-.45-.4-.4-.51-.77-1.06-1.06-1.65.11.17.21.32.32.44-.86-1.64-1.25-3.54-1.01-5.4.14-.87.43-1.7.83-2.47.39-.77.89-1.48,1.49-2.09-.7.6-1.31,1.4-1.73,2.31,1.01-2.46,3.26-4.45,5.88-4.97-.44.23-1,.56-1.19.83.04.05.81-.18.39.02-1.46.82-2.47,1.54-2.59,2.33,0,.08.39-.11.75-.23.34-.13.66-.16.47.03-.31.31-.88.86-1.32,1.57-.15.19-.27.41-.41.62-.02.02-.02.09-.02.16-.39.81-.6,1.64-.68,2.11-.04.17-.08.34-.09.52-.03.09-.07.17-.11.23.03.11.04.22.06.34-.01.47.02.94.1,1.4.03.26.03.53.09.78.03-.01.05-.07.1-.03.17.56.42,1.09.73,1.58.08.23.19.42.24.63.3.18.67.55,1.1.93.44.37.94.75,1.41.95h0c.23.1.46.22.7.3.24.1.49.18.74.24.08.05.15.1.22.15.19,0,.25-.01.34-.01.41.12.76.17,1.12.25.07-.02.19-.11.33-.12.28,0,.54-.03.8-.08.3-.04.61-.09.91-.17,1.03-.25,2-.71,2.84-1.36.05,0,.08.03.12.06.09-.15.29-.28.37-.41,0,.03,0,.06,0,.07.29-.4.42-.41.72-.74.06-.08.08-.18.12-.27l.09-.12c.44-.32.63-.81.84-1.34.25-.51.45-1.06.58-1.62.09-.45.23-.62.32-.94Z"/>
        <path class="cls-1" d="M5.97,16.24c.38.33.8.61,1.24.87-.49-.23-.96-.42-1.24-.87Z"/>
        <path class="cls-1" d="M6.17,4.82c.19-.06.41-.1.62-.19-1.04.58-1.9,1.46-2.5,2.51h0c.43-.9,1.53-1.78,1.89-2.31Z"/>
        <path class="cls-1" d="M5,15.29l.07.03h0s-.05-.02-.07-.03Z"/>
        <path class="cls-1" d="M7.81,2.25l.14-.03c-.36.09-.69.26-1.03.39.27-.12.56-.27.89-.36Z"/>
        <path class="cls-1" d="M11.73,2.17c.73.14,1.46.33,2.13.67.85.45,1.6,1.06,2.15,1.76-1.14-1.18-2.62-2.06-4.28-2.43Z"/>
        <path class="cls-1" d="M8.31,3.91c.25-.02.5-.06.75-.04-.25.01-.48.09-.73.14.04-.04-.01-.07-.03-.1Z"/>
        <path class="cls-1" d="M5.11,3.7l.18-.14c-.13.13-.27.27-.41.41.05-.06.15-.17.23-.27Z"/>
        <path class="cls-1" d="M10.93,3.91c-.18-.04-.36-.04-.53-.07.11-.01.21-.03.32-.06.06.05.13.08.21.12Z"/>
        <path class="cls-1" d="M13.54,4.79c.21.12.41.26.58.42-.23-.17-.48-.31-.73-.45.07,0,.13.01.15.04Z"/>
      </g>
      <g>
        <path class="cls-1" d="M14.45,16.12c-.53-.44-1.01-.95-1.46-1.38.18.17.37.34.55.52-.27-.26-.48-.51-.7-.83.14.02.27.25.39.21.65.65,1.19,1.41,1.73,2.14-.44-.06-.33-.48-.51-.66Z"/>
        <path class="cls-1" d="M12.22,13.61c.07.06.13.13.19.19-.08-.06-.15-.12-.19-.19Z"/>
        <path class="cls-1" d="M19.5,19.67c.09.06.17.13.24.2-.09-.05-.17-.13-.24-.2Z"/>
        <path class="cls-1" d="M15.75,16.53c.05.02.1.05.15.08.28.32.55.65.83.99-.31-.36-.75-.64-.98-1.07Z"/>
        <path class="cls-1" d="M15.61,16.03c-.31-.3-.58-.64-.79-1.02.22.36.49.69.79,1.02Z"/>
        <path class="cls-1" d="M22.74,21s.03-.02.05-.02c.01,0,.03,0,.04,0,.1.14.2.29.3.44-.04-.02-.1-.02-.13-.05-.11-.16-.06-.26-.27-.37Z"/>
        <path class="cls-1" d="M19.41,19.59s-.01,0-.02,0c-.03-.02-.06-.04-.09-.06,0,0,0,0,0-.01.04.02.07.05.11.08Z"/>
        <path class="cls-1" d="M22.59,20.83s.06-.06.07-.1c.06.08.11.16.17.24-.01,0-.03,0-.04,0-.07-.03-.11-.13-.2-.14Z"/>
        <path class="cls-1" d="M21.26,19.01s-.15-.02-.18-.03c-.07-.16-.15-.31-.26-.47-.04,0-.08-.05-.16-.06,0-.05,0-.1-.01-.14.29.31.58.63.87.96-.09-.08-.18-.16-.26-.26Z"/>
        <path class="cls-1" d="M27.52,27.09c-.44-.35-.73-.98-1.28-1.2.35.56.93,1.22.73,1.56-.2.33-.64-.6-1.01-.95q.02.08.04.15c-.02-.08-.04-.15-.11-.16.04.15.16.39.13.53l-.15-.02c.04.44.44.93.47,1.37-.51-1.81-2.4-3.18-3.86-4.55-.88-.71-1.85-1.22-2.8-1.65-.16-.1-.46-.43-.66-.68-.44-.35-.88-.71-1.37-1-.95-.72-1.61-1.68-2.53-2.55-.18-.17-.16-.68.35-.31.45.28.85.61,1.22.98-.13.04-.25-.19-.39-.21.22.32.42.57.7.83-.18-.17-.37-.34-.55-.52.46.43.93.93,1.46,1.38.18.17.07.59.51.66-.54-.73-1.08-1.48-1.73-2.14,0,0,0,0,0,0-.3-.28-.55-.55-.83-.83.1.08.2.15.26.24-.33-.48-.71-.9-1.1-1.32,1.41.86,2.47,2.32,3.72,3.37-.18-.46-.81-.7-.92-1.15.52.53,1.03,1.08,1.53,1.66-.05-.03-.1-.06-.15-.08.24.43.67.71.98,1.07.03.03.05.07.08.1-.03-.03-.05-.07-.08-.1-.28-.34-.55-.67-.83-.99.17.11.31.25.47.44-.04-.15-.15-.31-.26-.47-.17-.18-.35-.37-.51-.55.28.27.58.5.9.68-.31-.43-.68-.82-1.02-1.22.21.2.43.39.64.58.31.37.63.74.96,1.11-.02-.01-.03-.02-.05-.03.03.03.05.05.08.08.13.14.26.29.39.43.13.12.28.21.44.29.02.02.04.04.06.06-.06-.01-.11,0-.05.08.24.4.71.61.97,1.09.07.12.21.24.37.36.02.06.05.07.09.06.03.03.07.05.1.08.08.07.15.15.24.2-.07-.07-.16-.14-.24-.2-.03-.03-.06-.05-.09-.08.04,0,.09,0,.13.03-.49-.53-.98-1.09-1.53-1.62.05.01.12.04.15.04-.07-.03-.14-.07-.21-.1-.18-.17-.36-.33-.54-.49.07.04.14.06.21.07-.47-.51-.98-.98-1.5-1.45-.42-.5-.84-1-1.26-1.49.17.32.39.62.62.91-.73-.67-1.44-1.35-2.05-2.13.22.03.46.14.66.1.06-.06-.15-.31.02-.21.64.31.83.8,1.36.67.13-.05-.08-.91.16-.8.17.12.46.35.76.6.07.09.15.18.23.27,0,.02.04.02.09.02.31.29.6.58.74.76.05.07.1.13.15.2.01.05.01.1,0,.15.06.01.11.03.16.06.14.17.28.34.42.51.06.11.11.23.17.34.02-.02.03-.06.07-.07.18.2.36.4.55.6.05.1.08.22.09.34.39.02.75.62,1.11.92h0c.16.16.33.34.49.51,0,.05.01.09.01.14.07.01.12.05.16.06.11.16.18.32.26.47.04,0,.14-.02.18.03.08.1.17.18.26.26.09.11.18.21.27.32.3.37.59.75.86,1.14-.01.03-.04.07-.07.1.09.01.13.12.2.14-.02,0-.04,0-.05.02.2.1.16.2.27.37.03.03.09.03.13.05.01.02.02.04.04.05.02.29.21.4.38.57.14.21.27.41.4.62.11.16.07.3.11.45Z"/>
        <path class="cls-1" d="M23.17,21.47c.13.19.26.38.38.57-.17-.18-.36-.29-.38-.57Z"/>
        <path class="cls-1" d="M19.05,16.87c0-.12-.04-.23-.09-.34.39.42.79.83,1.2,1.25h0c-.36-.3-.71-.89-1.11-.92Z"/>
        <path class="cls-1" d="M22.79,20.98s.03,0,.04,0c0,0,0,0,0,0-.02,0-.03,0-.04,0Z"/>
        <path class="cls-1" d="M17.12,17.23s-.02-.03-.04-.04c.11.09.22.18.33.27-.1-.06-.2-.14-.3-.23Z"/>
        <path class="cls-1" d="M16.12,16.07c-.21-.19-.43-.39-.64-.58-.24-.29-.46-.58-.62-.91.43.49.84.99,1.26,1.49Z"/>
        <path class="cls-1" d="M18.34,16c-.06-.11-.11-.23-.17-.34.08.09.16.18.24.27-.04,0-.05.05-.07.07Z"/>
        <path class="cls-1" d="M18.02,18s-.04-.04-.06-.06c.07.03.14.07.21.1-.03,0-.1-.03-.15-.04Z"/>
        <path class="cls-1" d="M17.59,14.95c.05.07.11.14.17.21-.05-.03-.1-.05-.16-.06.01-.05,0-.1,0-.15Z"/>
        <path class="cls-1" d="M16.62,13.97c-.08-.09-.16-.18-.23-.27.11.09.21.19.32.28-.04,0-.08,0-.09-.02Z"/>
      </g>
    </g>
  </g>
</svg>