<?xml version="1.0" encoding="UTF-8"?>
<svg id="Calque_2" data-name="Calque 2" xmlns="http://www.w3.org/2000/svg" viewBox="0 0 35.54 24.01">
  <defs>
    <style>
      .cls-1 {
        fill: #fff;
        stroke-width: 0px;
      }
    </style>
  </defs>
  <g id="Calque_1-2" data-name="Calque 1">
    <g id="Mail">
      <g>
        <path class="cls-1" d="M15.2,3.09c-3.35.07-6.74.05-9.81.08l3.68-.03c-.92,0-1.77,0-2.62-.01-.42,0-.85-.02-1.29-.03-.41,0-.67,0-1.02.08.18-.09.5-.17.81-.18.39-.01.78-.02.92-.08,4.49,0,8.99.14,13.36.27-1.74.27-2.81-.1-4.04-.1Z"/>
        <path class="cls-1" d="M2.03,5.89c0-.34.06-.67.17-.98-.1.33-.14.67-.17.98Z"/>
        <path class="cls-1" d="M33.73,14.78c.01.52.02,1.04.03,1.53-.03-.5-.03-1.02-.03-1.53Z"/>
        <path class="cls-1" d="M21.09,2.46c.28-.02.55-.03.82-.05,2.06.03,4.15.07,6.28.11-2.31-.03-4.78.08-7.1-.06Z"/>
        <path class="cls-1" d="M18.86,2.21c-2.1.01-4.24-.03-6.24-.15,2,.09,4.1.13,6.24.15Z"/>
        <path class="cls-1" d="M24.09,23.87s-.03.04-.09.05c-.06,0-.12.02-.17.03l-2.54-.09c.21-.01.41-.05.62-.06.94.03,1.13.14,2.18.07Z"/>
        <path class="cls-1" d="M33.72,14.21v-.05c-.02-.18-.02-.35-.03-.52,0-.02,0-.04,0-.06,0,.22.01.43.02.64Z"/>
        <path class="cls-1" d="M25.17,23.89s.03.09.11.12l-1.44-.05.16-.03c.32-.03.82.01,1.17-.04Z"/>
        <path class="cls-1" d="M35.45,18.53c0-.31-.09-.58-.11-.72.06-.79.11-1.59.15-2.52-.02-.14-.02-.45-.07-.74.03-.17.06-.36.09-.55,0,1.03-.02,2.07-.02,3.12,0,.54-.01,1.09-.02,1.63-.02.76-.21,1.53-.55,2.23.35-.74.54-1.64.53-2.45Z"/>
        <path class="cls-1" d="M.6,6.29c.06,2.74-.17,5.91.07,8.58.14-3.14.2-7.46.57-7.92.38-.46.03,4.29.05,6.75q.04-.32.08-.65c-.04.32-.08.65-.04.94.08-.65.15-1.91.28-2.27l.09.58c.28-1.65.34-4.75.63-6.41-.23,2.02-.37,4.23-.47,6.57-.05,1.17-.08,2.37-.1,3.59,0,.61-.02,1.23-.02,1.85,0,.66-.02,1.17.13,1.67.3,1.01,1.14,1.84,2.15,2.14.5.16,1.02.13,1.7.13l1.92-.02c2.56-.03,5.1-.06,7.55-.09,2.74-.06,5.38-.18,7.94-.33,1.26-.08,2.51-.16,3.76-.24l1.83-.13.91-.07c.17,0,.27-.03.35-.04.09,0,.17-.04.26-.07.25-.06.67-.21,1.05-.53.38-.31.66-.79.77-1.22.01-.1.03-.2.03-.3v-.38s-.03-1.03-.03-1.03c-.02-.68-.04-1.37-.06-2.05-.04-1.37-.1-2.73-.17-4.08-.04-1.44-.06-2.88-.07-4.31v-1.07c-.01-.18-.02-.36-.08-.53-.09-.34-.28-.66-.54-.9-.26-.25-.59-.42-.95-.5-.2-.06-1.15-.04-1.84-.06-1.48,0-2.98,0-4.53,0-1.23,0-2.92-.36.11-.47,1.25-.06,2.52-.11,3.78-.14.64-.01,1.27-.02,1.9-.03.18,0,.29,0,.39,0,.11,0,.21.03.32.04.21.04.41.1.61.2-.11,0-.35-.07-.61-.12-.26-.04-.53-.04-.87,0h.35s.22.04.22.04c.14.02.28.04.41.09.26.08.5.19.72.35.42.31.78.73.96,1.27-.24-.72-.85-1.29-1.56-1.51.9.26,1.65,1.16,1.67,2.19.02,1.63.04,3.29.06,4.96,0,1.23-.36,2.3-.1,4.04.06-2.19.12-4.42.18-6.64l.04-1.68c.01-.64.02-.94-.08-1.31-.18-.73-.72-1.36-1.4-1.67h.02c-.31-.14-.63-.22-.95-.24-.13-.01-.4,0-.64,0h-.71c-.94,0-1.88,0-2.85,0,.6-.02,1.21-.04,1.74-.02-2.81-.1-5.59-.13-8.36-.15,1.96-.1,3.97-.16,6.01-.19,1.02-.01,2.05-.02,3.08-.03h1.55c.4,0,.8.07,1.17.23.74.31,1.35.94,1.64,1.68.15.38.21.76.21,1.19v1.55c0,2.06.01,4.09.05,6.07.19-2.23-.08-5.19.16-7.14,0,3.64-.03,7.29-.08,11.02-.02-.27-.03-.54-.05-.82-.03.58-.05,1.17-.06,1.76,0,.55-.07.95-.25,1.4-.36.85-1.12,1.54-2,1.75-.15.04-.31.06-.47.08.16-.02.32-.03.47-.08.8-.19,1.52-.73,1.93-1.45.21-.36.34-.76.39-1.17l.02-.31v-.39s.02-.77.02-.77l.03.72c0,.25,0,.5,0,.7-.03.42-.15.87-.41,1.28.16-.21.33-.5.42-.85.1-.35.12-.72.14-1.22,0-1.23.02-2.46.02-3.68,0,.94.02,1.88.05,2.79.02.45.03.9.05,1.35.02.4-.02.78-.12,1.16.22-.54.22-1.11.23-1.78l.03-1.94c.02-1.3.03-2.6.05-3.88l.04,4.23-.03,1.78c0,.61-.02,1.14-.22,1.67-.37,1.04-1.24,1.89-2.29,2.23l.23-.09c-.16.06-.31.12-.47.16-.43.11-.83.12-1.32.11h-1.42c-.85,0-1.69.05-2.52.11h-.42c.27-.03.4-.07-.12-.09-2.2-.11-4.58.08-7.1-.07-.66-.04-1.55-.02-2.52.01-.26-.03-.4-.01-.52.02l-.63.02c-.51,0-1.03,0-1.53.03.49-.01,1.01-.02,1.53-.03h.57c-.13.02-.27.06-.55.06,3.53.03,7.19.07,10.87.05-.23.03-.52.06-.66.08.36-.03.73-.06,1.08-.08,1.19-.01,2.37-.03,3.57-.04-.35.02-.68.05-.97.1.84-.02,1.72.06,2.5-.07.79-.16,1.53-.58,2.06-1.2.54-.61.86-1.39.9-2.2.02-.82,0-1.7-.01-2.54.05-3.2.1-6.37.15-9.52-.11,1.7-.16,3.48-.19,5.29l-.03-3.62v-1.81c-.01-.62.02-1.19-.13-1.71-.27-1.08-1.08-1.99-2.1-2.42-.52-.22-1.05-.3-1.65-.3l-1.8-.04c.88-.12,2.04-.27,2.62-.36-.04-.13-1.61-.16-.7-.2.86-.08,1.74.12,2.41.52.69.38,1.19.93,1.54,1.48.73,1.09.72,2.31.96,2.91.04.11.28-.64.25-1.7-.06-.97-.42-1.8,0-1.08.14.32.29.71.37,1.17.1.45.11,1.04.12,1.38.02.81.03,1.74.05,2.7,0,.56-.01,1.13-.02,1.72,0,.07.02.2.05.36.02,2.08.02,4.06,0,5.16-.01.41-.02.81-.03,1.21-.03.21-.06.39-.1.53.03.28.07.45.07.82-.07,1.51-.81,2.95-1.93,3.9-.64.51-1.4.85-2.17,1.02.02.03.16.03.02.1-.44.12-.9.17-1.36.18h-1s-1.98-.02-1.98-.02c-.53-.04-1.03-.09-1.46-.17-1.43.26-4.72.1-7.02.14h0c-1.15,0-2.31,0-3.49,0-.19-.03-.38-.06-.55-.09-.29.04-.6.05-.74.07-.94-.04-1.73-.09-2.52-.15-.14.02-.42.11-.72.11h-1.79c-.68-.01-1.37-.02-2.07-.03l-.88-.02h-.44c-.14-.01-.29-.01-.5-.03-.77-.05-1.53-.27-2.19-.65-1.33-.75-2.27-2.09-2.52-3.55.02-.1.06-.13.09-.16-.07-.22-.1-.49-.1-.75,0-.25,0-.42-.02-.59.01.06.03.1.05.09-.07-1.05.03-1.24.07-2.18,0-.21-.04-.41-.06-.62v-.31c.2-1.06.14-2.12.14-3.31l.15-3.55c.04-.94.16-1.3.24-1.94Z"/>
        <path class="cls-1" d="M20.97,23.85l-3.31-.13c1.18,0,2.24-.06,3.31.13Z"/>
        <path class="cls-1" d="M34.37,2.71c-.28-.55-.74-1.12-1.37-1.58.85.58,1.54,1.37,1.98,2.3.22.46.38.96.46,1.46.1.49.09,1.08.09,1.36,0,1.41,0,2.82-.01,4.25h0c-.02-1.14.01-2.54.02-3.83,0-.16,0-.32,0-.48,0-.17,0-.28-.01-.53-.02-.44-.09-.86-.21-1.24-.22-.76-.6-1.35-.94-1.73Z"/>
        <path class="cls-1" d="M23.99,23.93l-.16.03h-.01s.1-.02.17-.03Z"/>
        <path class="cls-1" d="M28.21,1.98h-.27c.69-.02,1.38-.05,2.07-.04-.58.01-1.18.03-1.8.04Z"/>
        <path class="cls-1" d="M20.78,1.87l-4.23.04c-1.81-.03-3.59-.08-5.29-.19,3.15.05,6.32.1,9.52.15Z"/>
        <path class="cls-1" d="M28.18.24c-.57-.04-1.17-.08-1.76-.12.59,0,1.18.01,1.77.02-.11.03-.02.07,0,.1Z"/>
        <path class="cls-1" d="M33.34,3.94c-.08-.12-.14-.25-.23-.36.23.29.44.6.59.95-.06-.13-.22-.41-.35-.59Z"/>
        <path class="cls-1" d="M21.91.04c.43,0,.87.02,1.3.03-.26.02-.51.04-.76.07-.14-.04-.32-.08-.53-.1Z"/>
        <path class="cls-1" d="M15.18.05c-.59,0-1.17-.01-1.72-.02.69,0,1.39-.02,2.08-.03-.16.03-.28.06-.36.05Z"/>
      </g>
      <g>
        <path class="cls-1" d="M5.74,7.56c-1.14-.83-2.25-1.74-3.27-2.53l1.23.95c-.61-.47-1.1-.91-1.67-1.46.24.08.59.45.76.44,1.48,1.18,2.86,2.48,4.22,3.74-.74-.25-.86-.82-1.27-1.14Z"/>
        <path class="cls-1" d="M.47,3.11c.15.12.3.23.44.35-.16-.11-.31-.23-.44-.35Z"/>
        <path class="cls-1" d="M16.22,14.47c.2.09.41.15.61.21-.21-.04-.42-.11-.61-.21Z"/>
        <path class="cls-1" d="M8.07,8.62c.1.05.2.11.3.18.65.57,1.31,1.15,1.99,1.74-.74-.63-1.62-1.2-2.29-1.92Z"/>
        <path class="cls-1" d="M7.49,7.84c-.7-.55-1.37-1.15-1.95-1.77.6.6,1.26,1.19,1.95,1.77Z"/>
        <path class="cls-1" d="M21.24,11.58s-.02-.04,0-.07c.02-.02.03-.04.04-.07.29-.2.59-.41.88-.61-.06.07-.1.15-.16.21-.33.23-.46.2-.75.54Z"/>
        <path class="cls-1" d="M16.01,14.36h-.03s-.2-.1-.2-.1c0,0-.01-.01-.02-.02.09.05.17.09.24.12Z"/>
        <path class="cls-1" d="M20.88,11.86s-.07-.06-.11-.06l.5-.35-.03.06c-.08.11-.27.21-.35.35Z"/>
        <path class="cls-1" d="M17.85,13.16c-.07,0-.15.07-.19.09-.19-.09-.36-.18-.55-.3-.04,0-.1-.03-.19-.02-.03-.05-.05-.1-.07-.15.4.26.9.39,1.42.36-.14.03-.28.03-.43.02Z"/>
        <path class="cls-1" d="M33.95,2.11c-.85.79-2.02,1.47-2.73,2.37,1.11-.74,2.54-1.86,2.93-1.7.39.16-1.37,1.18-2.15,1.86q.13-.06.26-.11c-.13.06-.26.11-.33.23.26-.11.72-.4.91-.4l-.13.22c.72-.23,1.76-1.02,2.47-1.25-3.19,1.48-6.58,4.8-9.7,7.51-.85.79-1.63,1.59-2.36,2.39-.34.39-.7.79-1.06,1.2-.17.2-.34.4-.51.6-.16.2-.47.49-.74.7-.42.35-1.69.81-2.62.77-.82.07-1.65-.06-2.44-.34-.39-.15-.77-.33-1.12-.55-.26-.16-.53-.33-.81-.51-2-1.39-3.71-3.03-5.76-4.62-.41-.32-.73-1.05.33-.33.9.56,1.77,1.2,2.6,1.87-.17.01-.52-.36-.76-.44.57.55,1.06.98,1.67,1.46l-1.23-.95c1.02.79,2.12,1.7,3.27,2.53.2.16.34.38.51.6.2.24.58.55,1.09.65-.28-.15-.55-.34-.79-.54-.27-.22-.37-.33-.56-.51-.35-.32-.7-.64-1.04-.95-.7-.63-1.42-1.25-2.15-1.84,0,0,0,0,.01,0-.66-.53-1.25-1-1.89-1.51.21.15.42.29.58.45-.86-.82-1.75-1.57-2.65-2.32,1.41.88,2.79,1.95,4.15,3.04.68.55,1.36,1.1,2.04,1.64.34.27.68.53,1.01.8.36.27.62.49,1.08.8-.22-.22-.41-.4-.61-.56-.2-.17-.42-.33-.63-.49-.42-.32-.83-.64-1.08-.99.59.48,1.18.97,1.78,1.46.27.23.66.55,1.06.76.41.22.85.39,1.31.48-.13-.01-.26-.03-.42-.04,1.12.46,2.49.18,3.53-.37.1-.04.19-.1.28-.15-.09.05-.18.11-.28.15-.98.49-2.09.62-3.11.41.48.04.98.06,1.57-.01-.33-.02-.79-.03-1.24-.11-.59-.07-1.17-.26-1.68-.55.81.43,1.74.54,2.52.38-1.19.04-2.41-.43-3.22-1.22.46.37,1.04.73,1.65.88,1,.35,2.16.3,3.15-.19l-.11.06.22-.12c.38-.2.73-.48,1.03-.73.27-.24.51-.5.74-.77l.14-.12c-.06.1-.08.16.1.04.78-.51,1.43-1.3,2.34-1.86.24-.15.51-.41.81-.69.1-.05.14-.1.16-.15l.19-.18c.16-.14.33-.28.47-.44-.16.14-.32.29-.47.44l-.18.16c.02-.06.04-.13.13-.2-1.16.93-2.37,1.89-3.55,2.89.06-.09.12-.18.16-.24-.1.12-.2.24-.3.36-.37.33-.74.66-1.13,1,.1-.11.19-.22.25-.34-1.05,1.01-2.69,1.52-4.16,1.08-.68-.21-1.27-.68-1.75-1.12-.51-.44-1.02-.88-1.52-1.31.49.53,1.04,1.04,1.62,1.55-1.61-1.24-3.21-2.49-4.72-3.85.37.13.82.37,1.11.38.04-.07-.45-.51-.12-.31,1.23.68,1.87,1.47,2.61,1.45.16-.03-.76-1.36-.31-1.12.35.23.96.67,1.61,1.15.19.16.36.31.55.47.02.03.08.04.15.06.17.13.35.27.51.39.15.11.2.15.31.21.18.11.36.19.48.24.09.04.19.07.28.1.05.04.09.07.12.12.08-.02.15-.04.2-.06.27.03.55.01.81-.06.16,0,.32-.03.47-.07-.02-.02-.06-.05-.05-.09.17-.08.28-.16.46-.3l.65-.52c.2-.11.39-.2.58-.26.29-.59,1.46-1.35,2.18-2h0c.38-.31.75-.62,1.14-.94.08-.03.16-.06.24-.08.07-.11.16-.2.2-.25.33-.23.62-.4.91-.57.03-.06.06-.2.16-.28.2-.16.4-.32.58-.48.23-.17.46-.35.69-.53.79-.6,1.57-1.17,2.36-1.73.05,0,.08.03.11.06.08-.14.27-.24.35-.35-.01.03-.01.05,0,.07.29-.34.42-.31.75-.54.07-.06.1-.14.16-.21l.11-.07c.47-.14.77-.48,1.15-.79l1.24-.84c.33-.23.52-.23.78-.34Z"/>
        <path class="cls-1" d="M22.26,10.76c.38-.26.77-.53,1.15-.79-.39.32-.69.65-1.15.79Z"/>
        <path class="cls-1" d="M13.5,10.28c-.09-.18-.22-.35-.37-.52.92.75,1.83,1.5,2.76,2.26h0c-.78-.57-1.75-1.57-2.39-1.74Z"/>
        <path class="cls-1" d="M21.24,11.51l.03-.06h0s-.02.04-.04.06Z"/>
        <path class="cls-1" d="M10.7,10.13l-.09-.07c.24.17.48.34.71.51-.2-.12-.41-.27-.62-.44Z"/>
        <path class="cls-1" d="M8.33,8.08l-1.42-1.08c-.58-.5-1.13-1.01-1.62-1.55.99.86,2.01,1.74,3.03,2.63Z"/>
        <path class="cls-1" d="M11.78,8.77c-.15-.17-.33-.37-.5-.56.19.16.38.32.57.48-.05,0-.05.05-.06.08Z"/>
        <path class="cls-1" d="M12.67,11.58l-.14-.11c.13.07.27.15.41.22-.06-.03-.17-.07-.27-.11Z"/>
        <path class="cls-1" d="M9.85,6.95c.14.12.27.24.41.36-.09-.05-.19-.1-.3-.14-.02-.07-.06-.15-.11-.22Z"/>
        <path class="cls-1" d="M7.64,5.18c-.19-.16-.37-.31-.55-.47.23.18.47.35.7.53-.07-.02-.13-.03-.15-.06Z"/>
      </g>
    </g>
  </g>
</svg>