<?xml version="1.0" encoding="UTF-8"?>
<svg id="Calque_2" data-name="Calque 2" xmlns="http://www.w3.org/2000/svg" viewBox="0 0 26.17 31.54">
  <defs>
    <style>
      .cls-1 {
        opacity: .95;
      }

      .cls-2 {
        fill: #fff;
        stroke-width: 0px;
      }
    </style>
  </defs>
  <g id="Calque_1-2" data-name="Calque 1">
    <g id="Map">
      <g class="cls-1">
        <g>
          <path class="cls-2" d="M22.08,21.36c-1.68,2.11-3.45,4.19-5.02,6.09l1.88-2.28c-.94,1.14-1.77,2.08-2.79,3.19.23-.4.91-1.11.97-1.36,1.16-1.38,2.35-2.75,3.55-4.09l1.79-2c.61-.65,1.29-1.52,1.72-2.39-.22.77-.61,1.32-1.01,1.75-.43.46-.76.69-1.09,1.09Z"/>
          <path class="cls-2" d="M13.47,31.34c.23-.28.46-.55.68-.82-.23.29-.46.58-.68.82Z"/>
          <path class="cls-2" d="M15.65,1.88c-.42-.05-.83-.09-1.23-.14.4.03.81.08,1.23.14Z"/>
          <path class="cls-2" d="M24.09,16.74c.05-.24.09-.45.14-.67.23-.83.37-1.68.45-2.54.08-.85.13-1.73.06-2.63.08.99.06,1.97-.02,2.96-.09.99-.27,1.98-.63,2.89Z"/>
          <path class="cls-2" d="M23.15,18.37c-.39.77-.95,1.49-1.51,2.1-.56.63-1.13,1.24-1.69,1.82.55-.59,1.11-1.2,1.67-1.82.56-.61,1.13-1.31,1.54-2.09Z"/>
          <path class="cls-2" d="M4.84,5.97s.01.04,0,.08c-.03.04-.05.07-.06.1-.23.19-.42.42-.61.65-.21.22-.38.46-.55.71.07-.13.11-.27.19-.4.44-.5.57-.57,1.04-1.14Z"/>
          <path class="cls-2" d="M16.1,1.97h.04c.14.03.28.05.41.08.02,0,.03.01.05.02-.18-.03-.34-.07-.51-.1Z"/>
          <path class="cls-2" d="M5.4,5.46s.07.05.14.04c-.28.19-.52.42-.75.65l.05-.1c.13-.19.4-.4.56-.59Z"/>
          <path class="cls-2" d="M12.65,3.35c.22-.01.42-.07.53-.1.58.07,1.15.16,1.8.31.13,0,.27,0,.53.01.11.06.23.12.36.18-1.39-.33-2.95-.43-4.51-.34.42-.02.84-.04,1.29-.06Z"/>
          <path class="cls-2" d="M12.89,30.17c-1.48-1.64-2.96-3.73-4.53-5.22,1.53,2.01,3.75,4.7,3.7,5.23-.05.53-2.27-2.61-3.56-4.1q.14.22.28.45c-.14-.22-.28-.45-.46-.6.28.45.88,1.27.97,1.57l-.37-.3c.65,1.2,2.22,3.14,2.87,4.33-1.76-2.77-4.17-5.8-6.8-8.9-.66-.77-1.33-1.54-2-2.33-.7-.77-1.38-1.72-1.83-2.71C.22,15.59-.15,13.42.05,11.28c.21-2.38,1.1-4.57,2.44-6.42C3.85,3.03,5.73,1.63,7.74.77c.38-.14,1.06-.34,1.81-.49.75-.11,1.58-.23,2.27-.22,2.4-.17,4.88.02,7.31.91,2.54,1.01,4.76,3.07,5.89,5.62.58,1.26.94,2.62,1.09,4.01.14,1.45.06,2.72-.1,4.1-.06.55-.29,1.19-.43,1.34-.15.15-.15-.18-.02-1.51.07-1.12.09-2.13,0-3.31-.11-1.14-.35-2.26-.74-3.34.22.21.47,1.28.63,1.77-.27-1.68-.79-3.06-1.76-4.47.65.94,1.15,1.97,1.52,3.04-.44-1.34-1.15-2.69-2.15-3.87-1-1.18-2.3-2.14-3.69-2.77-.99-.49-1.85-1.15-3.44-1.21,1.91.41,3.84,1.21,5.42,2.54,1.6,1.3,2.8,3.06,3.48,4.97l-.02-.02c.65,1.67.79,3.4.71,5.04.02-.5-.01-1.03-.01-1.52,0,1.28-.12,2.4-.32,3.61-.21,1.19-.55,2.38-1.11,3.5.68-1.63.97-3.38,1.06-5.1.12-1.68-.03-3.59-.65-5.27-.61-1.7-1.61-3.31-3-4.48-1.37-1.19-3.03-1.96-4.69-2.34.91.31,1.95.71,2.92,1.22.94.55,1.82,1.2,2.29,1.92-2.18-2.29-5.37-3.41-8.48-3.52.22,0,.45-.01.69-.02-1.94-.31-4.06-.03-5.97.52-.18.03-.34.11-.51.16.17-.05.33-.13.51-.16,1.77-.52,3.56-.59,5.28-.5-.79-.01-1.64.04-2.65.1.55.02,1.34.02,2.12.05.51.03,1.02.03,1.53.09.51.08,1.02.13,1.51.24-1.56-.27-3.11-.32-4.51-.11,2.1-.06,4.29.14,6.27.91-1.09-.42-2.25-.58-3.39-.71-1.91-.21-3.9-.14-5.82.38l.22-.06-.44.12c-.74.24-1.48.51-2.17.9-.32.15-.6.37-.88.58-.28.2-.55.43-.78.68l-.26.23c.14-.17.2-.27-.14,0-1.46,1.14-2.44,2.95-3.22,4.88-.21.51-.39,1.24-.45,2.05-.05.21-.06.33-.03.44v.53c-.02.43,0,.85.06,1.26-.03-.41-.07-.83-.07-1.26v-.48c.04.11.07.23.06.46.12-2.93,1.51-5.85,3.77-7.86-.12.13-.29.33-.34.43.17-.24.4-.43.61-.65.74-.65,1.59-1.14,2.46-1.59-.25.15-.48.31-.67.45,1.22-.67,2.56-1.08,3.93-1.29,1.37-.25,2.77-.24,4.15-.17,1.3.17,2.57.47,3.76.98,1.18.53,2.27,1.25,3.18,2.16-.91-1.05-2.16-1.89-3.55-2.43.95.31,1.83.8,2.65,1.36.8.6,1.53,1.3,2.12,2.12,1.18,1.63,1.81,3.61,1.89,5.58-.19-.7-.44-1.64-.74-2.01-.04.04.14,1.24-.04.56-.76-2.44-1.82-4.02-2.84-4.4-.11-.02.23.52.42,1.03.21.5.28.95.04.62-.4-.54-1.19-1.47-2.29-2.15-.3-.22-.63-.43-1-.6-.04-.03-.13-.04-.24-.06-1.3-.58-2.71-.78-3.49-.9-.29-.05-.59-.05-.88-.08-.15-.03-.28-.07-.39-.12-.19.02-.37.04-.56.07-.39,0-.79.02-1.17.02-.38.05-.76.1-1.14.14-.42.03-.83.12-1.25.18.02.03.09.05.03.1-.89.28-1.75.63-2.51,1.14-.33.17-.65.32-.92.47-.15.21-.39.44-.62.75-.26.28-.52.61-.8.97-.53.72-1.03,1.58-1.28,2.35h.01c-.27.76-.49,1.55-.57,2.36-.03.11-.07.24-.11.37.03.2.03.41.06.51-.02.68-.02,1.25.02,1.82.04.1.16.27.21.49.09.43.21.83.36,1.21.16.45.35.89.58,1.32.38.73.86,1.32,1.48,2.09l1.72,2.18c.01.07-.01.11-.03.14.23.18.45.52.64.69-.04-.03-.08-.04-.09-.02.6.59.62.78,1.09,1.38.11.13.25.22.37.34l.15.2c.41.77,1.01,1.38,1.63,2.11l1.74,2.27c.46.6.56.9.83,1.35Z"/>
          <path class="cls-2" d="M3.49,7.69c-.43.65-.81,1.35-1.08,2.1.25-.81.53-1.54,1.08-2.1Z"/>
          <path class="cls-2" d="M21.51,7.61c.05.31.17.61.26.96-.71-1.73-1.97-3.16-3.69-4h0c1.48.58,2.77,2.32,3.42,3.05Z"/>
          <path class="cls-2" d="M4.83,6.06l-.05.1h0s.03-.06.06-.1Z"/>
          <path class="cls-2" d="M24.2,10.93l.02.22c-.06-.55-.17-1.1-.3-1.64.12.43.24.91.28,1.42Z"/>
          <path class="cls-2" d="M23.46,16.8c-.34,1.07-.87,2.09-1.58,2.97-.96,1.1-1.92,2.16-2.89,3.14.83-.96,1.67-1.92,2.51-2.88.87-.93,1.53-2.02,1.95-3.23Z"/>
          <path class="cls-2" d="M22.48,11.12c.01.41-.04.76-.08,1.2.01-.44.02-.8-.02-1.2.04.07.07,0,.1,0Z"/>
          <path class="cls-2" d="M22.68,6.59l.18.28c-.17-.23-.35-.46-.53-.69.08.09.22.26.35.4Z"/>
          <path class="cls-2" d="M21.93,15.49c.08-.28.15-.57.21-.87,0,.16-.02.33-.03.54-.06.09-.12.2-.18.33Z"/>
          <path class="cls-2" d="M19.74,19.42c-.31.36-.61.71-.91,1.05.35-.43.71-.87,1.06-1.3-.06.12-.1.21-.15.25Z"/>
        </g>
      </g>
      <g>
        <path class="cls-2" d="M9.88,17.89c-1-.5-1.75-1.43-2.18-2.36.18.37.39.73.65,1.04-.37-.48-.6-.97-.73-1.57.14.15.22.54.38.57.61,1.28,1.68,2.41,3.07,2.94-.65.07-.86-.43-1.19-.63Z"/>
        <path class="cls-2" d="M7.5,13.4c0,.15.02.28.03.42-.02-.15-.04-.29-.03-.42Z"/>
        <path class="cls-2" d="M16.59,14.39c.02-.13.03-.27.04-.4,0,.13,0,.27-.04.4Z"/>
        <path class="cls-2" d="M11.8,17.93c.08,0,.16-.01.24-.01.58.1,1.2.09,1.81-.04-.65.16-1.4.31-2.05.06Z"/>
        <path class="cls-2" d="M11.24,17.55c-.55-.16-1.06-.51-1.39-.94.34.41.83.74,1.39.94Z"/>
        <path class="cls-2" d="M14.6,11.51s-.03.02-.05.03c-.01,0-.02,0-.04,0-.08-.12-.16-.25-.27-.36.04.01.09,0,.12.02.1.14.06.23.23.32Z"/>
        <path class="cls-2" d="M16.56,14.54v.02s0,.09-.01.14h-.01c.01-.06.02-.11.03-.15Z"/>
        <path class="cls-2" d="M14.71,11.66s-.06.06-.08.09c-.03-.07-.08-.14-.12-.21h.04c.06.02.09.11.17.12Z"/>
        <path class="cls-2" d="M14.99,13.41s.08.09.1.12c-.06.13-.14.24-.19.37.02.03,0,.07.04.12-.04.02-.08.04-.11.06.1-.29.15-.61.15-.94.01.09.02.18.01.27Z"/>
        <path class="cls-2" d="M8.93,13.31c-.05-.66.37-1.27.51-1.9-.57.53-.78,1.59-1.14,1.7-.2.05-.19-.25-.08-.64.12-.39.38-.82.52-1.12q-.07.06-.15.12c.08-.06.14-.13.15-.21-.15.12-.38.41-.52.47l-.02-.19c-.48.34-.75,1.31-1.01,1.86.44-1.35,1.14-2.69,2.31-3.67,1.15-.98,2.84-1.47,4.34-1.09,1.67.31,3.21,1.3,4.15,2.82.17.29.34,1.08.32,1.64.12.99-.02,2.01-.35,3-.85,2.07-3.05,3.31-5.37,3.35-.49,0-1.03-.4.04-.47.87-.14,1.71-.4,2.48-.81-.04.15-.44.28-.6.41.63-.17,1.14-.43,1.64-.84-.33.28-.69.53-1.08.73.97-.49,1.9-1.34,2.4-2.41.17-.37.7-.61.6-1.3-.5,1.5-1.62,2.71-2.96,3.42h0c-.59.32-1.2.5-1.85.58.2-.05.4-.09.58-.13-.95.13-1.88.06-2.76-.21,1.29.18,2.63.02,3.8-.58,1.16-.59,2.09-1.67,2.4-2.89-.37.58-.64,1.51-1.25,1.78.77-.79,1.27-1.84,1.41-2.98,0,.07.02.16.03.26.23-.71.04-1.5-.16-2.19l-.06-.19c.02.07.04.13.06.19.17.65.21,1.31.14,1.93-.02-.41-.03-.6-.05-.96-.05.21-.07.49-.11.76-.02.36-.07.73-.18,1.07.13-.54.13-1.1-.01-1.58-.03.73-.15,1.47-.48,2.11.13-.37.24-.74.27-1.13.13-.63.12-1.32-.06-1.97.01.02.02.05.03.07-.01-.05-.03-.1-.05-.14-.07-.25-.18-.5-.3-.74-.13-.21-.29-.38-.48-.52l-.07-.09c.07.04.13.04.05-.08-.33-.55-.97-.83-1.54-1.26-.15-.12-.4-.19-.68-.23-.06-.05-.11-.04-.15-.02-.06,0-.12-.02-.18-.02-.14-.02-.29-.04-.43-.03.14.01.28.02.43.03.05,0,.1.02.16.03-.04.02-.09.05-.17.03.96.22,1.84.79,2.5,1.55-.07-.03-.14-.06-.18-.08.09.05.18.11.25.17.2.25.39.52.55.81-.06-.08-.13-.15-.2-.2.42.82.63,1.75.52,2.68-.17.86-.61,1.64-1.21,2.22.38-.26.71-.64.94-1.09-.48,1.24-1.62,2.26-2.95,2.47.2-.18.46-.39.51-.6-.04-.06-.4.03-.22-.09.62-.49,1.14-.73,1.01-1.27-.06-.08-.88,0-.76-.22.1-.14.29-.36.44-.63.06-.06.11-.14.16-.22.01,0,0-.04-.02-.07.13-.3.2-.59.25-.76.02-.06.04-.12.05-.19.03-.03.06-.06.11-.08-.03-.04-.05-.08-.07-.13.02-.18.02-.35,0-.52.01-.1.04-.21.04-.31-.03.01-.06.04-.09.03-.06-.21-.14-.41-.26-.6-.01-.1-.02-.19,0-.31-.35-.03-.63-.53-1.02-.66h0c-.17-.08-.35-.16-.54-.21-.03-.03-.05-.07-.07-.11-.06.03-.11.03-.14.05-.12-.05-.27-.12-.43-.19-.03.02-.07.11-.13.12-.11,0-.21,0-.31.03-.12,0-.24.03-.36.04-.41.07-.81.22-1.18.44-.03-.02-.06-.05-.09-.07-.01.09-.12.11-.14.19,0-.02,0-.04-.03-.05-.08.2-.19.15-.33.29-.02.04-.01.09-.03.13-.02.01-.03.03-.04.04-.27.08-.33.31-.42.53-.13.21-.25.43-.33.68-.07.19-.18.26-.28.41Z"/>
        <path class="cls-2" d="M14.2,11.13c-.13-.15-.28-.29-.45-.41.19.09.41.14.45.41Z"/>
        <path class="cls-2" d="M14.02,15.43c-.1-.02-.2-.04-.28-.03.37-.19.67-.5.88-.86h0c-.14.34-.58.56-.61.89Z"/>
        <path class="cls-2" d="M14.55,11.54h-.04s0,0,0,0c.01,0,.03,0,.04,0Z"/>
        <path class="cls-2" d="M13.71,17.36l-.07.02c.17-.06.33-.14.49-.21-.12.08-.26.15-.42.2Z"/>
        <path class="cls-2" d="M11.82,17.35c-.35-.06-.7-.14-1.03-.3-.4-.23-.75-.55-.96-.92.52.57,1.21,1.01,1.99,1.22Z"/>
        <path class="cls-2" d="M13.22,15.7c-.09-.01-.19-.03-.28-.06.09,0,.17-.02.25-.03,0,.03.02.07.03.1Z"/>
        <path class="cls-2" d="M14.99,16.62l-.08.07c.05-.07.11-.15.17-.23-.02.04-.05.1-.08.16Z"/>
        <path class="cls-2" d="M12.31,15.57c.06.02.12.02.18.04-.04.01-.07.04-.11.07-.02-.04-.04-.08-.06-.11Z"/>
        <path class="cls-2" d="M11.44,15.28c-.07-.04-.13-.09-.18-.15.08.05.17.09.25.14-.03.01-.06.03-.07.02Z"/>
      </g>
    </g>
  </g>
</svg>