<?xml version="1.0" encoding="UTF-8"?>
<svg id="Calque_2" data-name="Calque 2" xmlns="http://www.w3.org/2000/svg" viewBox="0 0 29.27 22.68">
  <defs>
    <style>
      .cls-1 {
        fill: #fff;
        stroke-width: 0px;
      }
    </style>
  </defs>
  <g id="Calque_1-2" data-name="Calque 1">
    <g id="Menu">
      <g>
        <path class="cls-1" d="M24.46.86c.98-.07,1.98-.05,2.88-.08-.36,0-.72.02-1.08.03.54-.01.99.02,1.54.09-.17.09-.52.02-.61.13-1.32,0-2.64-.14-3.92-.27.51-.27.82.1,1.18.1Z"/>
        <path class="cls-1" d="M29.27,1.03c-.13,0-.26,0-.39,0,.14-.01.27-.02.39,0Z"/>
        <path class="cls-1" d="M15.76,1.96c-.15.02-.3.03-.45.03.15-.03.3-.03.45-.03Z"/>
        <path class="cls-1" d="M22.74,1.5c-.08.02-.16.04-.24.05-.61-.03-1.22-.07-1.84-.11.68.03,1.4-.08,2.08.06Z"/>
        <path class="cls-1" d="M23.39,1.74c.62-.01,1.24.03,1.83.15-.59-.09-1.2-.13-1.83-.15Z"/>
        <path class="cls-1" d="M11.14,3.33s0,.04-.03.05c-.02,0-.03.02-.05.03-.25-.03-.5-.06-.75-.09.06-.01.12-.05.18-.06.27.03.33.14.64.07Z"/>
        <path class="cls-1" d="M15.93,1.95s.01,0,.02-.01c.05,0,.1-.01.15-.02,0,0,.01,0,.02,0-.06.01-.12.02-.19.02Z"/>
        <path class="cls-1" d="M11.46,3.34s.01.09.03.12c-.14-.02-.28-.03-.42-.05.02,0,.03-.02.05-.03.09-.03.24.01.34-.04Z"/>
        <path class="cls-1" d="M14.66,3.68c.09,0,.17-.09.21-.11.23.06.47.11.74.15.04-.02.13-.02.22-.07.05.03.1.06.16.09-.6-.01-1.22-.03-1.86-.06.17,0,.34,0,.53,0Z"/>
        <path class="cls-1" d="M.12,2.46c.8-.06,1.73.17,2.52-.07-.92-.14-2.19-.2-2.32-.57-.14-.38,1.26-.03,1.98-.05q-.1-.04-.19-.08c.09.04.19.08.27.04-.19-.08-.56-.15-.67-.28l.17-.09c-.49-.28-1.39-.34-1.88-.63,2.37.91,5.66.53,8.53.45,1.61-.13,3.1-.46,4.5-.84.26-.05.9-.02,1.35,0,.8-.06,1.61-.13,2.4-.28,1.69-.17,3.33.04,5.14,0,.36,0,.86.36-.03.47-.74.13-1.48.18-2.23.18.09-.12.44-.05.61-.13-.55-.07-1-.1-1.54-.09.36,0,.72-.02,1.08-.03-.9.02-1.89,0-2.88.08-.36,0-.68-.36-1.18-.1,1.28.13,2.6.27,3.92.27,0,0,0,0,0,0,.59-.02,1.12,0,1.68,0-.18.02-.36.04-.51.02.82.1,1.64.13,2.45.15-2.3.4-4.86.13-7.18.28.65.19,1.52-.08,2.09.16-1.07,0-2.14-.03-3.23-.08.08-.01.16-.03.24-.05-.68-.14-1.4-.02-2.08-.06-.06,0-.12,0-.18-.01.06,0,.12,0,.18.01.62.04,1.24.08,1.84.11-.28.04-.57.05-.92.02.19.08.46.11.74.15.36,0,.72.01,1.08.02-.55.01-1.1.07-1.6.16.75.08,1.52.09,2.27.13-.41.01-.83.03-1.24.04-.69-.04-1.39-.07-2.1-.1.03,0,.05,0,.08,0-.05,0-.11,0-.16,0-.28,0-.55-.02-.83-.02-.25,0-.5.05-.74.11-.04,0-.08,0-.12,0,.08-.04.12-.07-.03-.09-.64-.11-1.34.08-2.08-.07-.19-.04-.46-.02-.74.01-.08-.03-.12-.01-.15.02-.06,0-.12.01-.18.02-.15,0-.3,0-.45.03.15,0,.3-.02.45-.03.06,0,.11,0,.17,0-.04.03-.08.07-.16.07,1.03.03,2.11.07,3.19.05-.06.03-.16.06-.19.08.11-.03.21-.06.32-.08.35,0,.7-.02,1.05-.04-.1.02-.2.05-.29.1.99.02,1.99-.01,2.99-.05.94.05,1.87.11,2.79.15-.5-.11-1.02-.16-1.55-.19,1.41-.05,2.83-.08,4.24.04-.25.13-.6.23-.76.4,0,.08.46.11.2.16-.96.24-1.65.03-2.05.5-.07.13,1.01.58.66.68-.29.04-.81.08-1.38.11-.16-.01-.33-.02-.51-.02-.02,0-.06.02-.1.05-.61.02-1.19.02-1.51,0-.12-.01-.24-.02-.36-.03-.06-.03-.11-.06-.16-.1-.07.03-.15.06-.22.07-.32-.02-.63-.04-.94-.06-.17-.04-.35-.09-.52-.12,0,.03.03.07,0,.1-.39-.01-.78-.02-1.16-.03-.16-.04-.3-.09-.43-.17-.42.26-1.39.1-2.06.14h0c-.34,0-.68,0-1.02,0-.06-.03-.11-.06-.16-.09-.09.04-.17.05-.22.07-.27-.04-.51-.09-.74-.15-.04.02-.12.11-.21.11-.18,0-.35,0-.53,0-.2,0-.4-.02-.61-.03-.69-.05-1.36-.11-2.03-.19-.02-.03-.03-.08-.03-.12-.1.05-.25.01-.34.04.02-.01.03-.03.03-.05-.31.07-.36-.03-.64-.07-.06,0-.12.04-.18.06-.03,0-.06,0-.09-.01-.31-.19-.62-.13-.97-.13-.35-.05-.69-.1-1.04-.15-.27-.04-.38-.16-.57-.24Z"/>
        <path class="cls-1" d="M10.23,3.3c-.32-.04-.65-.09-.97-.13.35,0,.66-.06.97.13Z"/>
        <path class="cls-1" d="M19.07,3.6c.13.08.27.14.43.17-.83-.02-1.65-.02-2.49-.03h0c.67-.05,1.64.12,2.06-.15Z"/>
        <path class="cls-1" d="M11.11,3.38s-.03.02-.05.03c0,0,0,0,0,0,.01-.01.03-.02.05-.03Z"/>
        <path class="cls-1" d="M20.65,1.98s.05,0,.08,0c-.2.02-.4.04-.61.05.16-.03.34-.04.53-.05Z"/>
        <path class="cls-1" d="M22.83,2.08c.41-.02.83-.03,1.24-.04.53.03,1.05.08,1.55.19-.93-.04-1.86-.09-2.79-.15Z"/>
        <path class="cls-1" d="M20.66,3.71c.17.03.34.08.52.12-.17,0-.35-.02-.52-.02.03-.03,0-.07,0-.1Z"/>
        <path class="cls-1" d="M18.95,2.07s.08,0,.12,0c-.11.03-.21.05-.32.08.04-.02.13-.05.19-.08Z"/>
        <path class="cls-1" d="M22.5,3.92c-.13-.01-.25-.02-.38-.03.08-.02.15-.04.22-.07.04.04.09.08.16.1Z"/>
        <path class="cls-1" d="M24.47,3.9c.17,0,.34,0,.51.02-.2.01-.41.02-.61.03.05-.03.08-.06.1-.05Z"/>
      </g>
      <g>
        <path class="cls-1" d="M24.46,10.26c.98-.07,1.98-.05,2.88-.08-.36,0-.72.02-1.08.03.54-.01.99.02,1.54.09-.17.09-.52.02-.61.13-1.32,0-2.64-.14-3.92-.27.51-.27.82.1,1.18.1Z"/>
        <path class="cls-1" d="M29.27,10.43c-.13,0-.26,0-.39,0,.14-.01.27-.02.39,0Z"/>
        <path class="cls-1" d="M15.76,11.36c-.15.02-.3.03-.45.03.15-.03.3-.03.45-.03Z"/>
        <path class="cls-1" d="M22.74,10.9c-.08.02-.16.04-.24.05-.61-.03-1.22-.07-1.84-.11.68.03,1.4-.08,2.08.06Z"/>
        <path class="cls-1" d="M23.39,11.15c.62-.01,1.24.03,1.83.15-.59-.09-1.2-.13-1.83-.15Z"/>
        <path class="cls-1" d="M11.14,12.73s0,.04-.03.05c-.02,0-.03.02-.05.03-.25-.03-.5-.06-.75-.09.06-.01.12-.05.18-.06.27.03.33.14.64.07Z"/>
        <path class="cls-1" d="M15.93,11.35s.01,0,.02-.01c.05,0,.1-.01.15-.02,0,0,.01,0,.02,0-.06.01-.12.02-.19.02Z"/>
        <path class="cls-1" d="M11.46,12.75s.01.09.03.12c-.14-.02-.28-.03-.42-.05.02,0,.03-.02.05-.03.09-.03.24.01.34-.04Z"/>
        <path class="cls-1" d="M14.66,13.08c.09,0,.17-.09.21-.11.23.06.47.11.74.15.04-.02.13-.02.22-.07.05.03.1.06.16.09-.6-.01-1.22-.03-1.86-.06.17,0,.34,0,.53,0Z"/>
        <path class="cls-1" d="M.12,11.86c.8-.06,1.73.17,2.52-.07-.92-.14-2.19-.2-2.32-.57-.14-.38,1.26-.03,1.98-.05q-.1-.04-.19-.08c.09.04.19.08.27.04-.19-.08-.56-.15-.67-.28l.17-.09c-.49-.28-1.39-.34-1.88-.63,2.37.91,5.66.53,8.53.45,1.61-.13,3.1-.46,4.5-.84.26-.05.9-.02,1.35,0,.8-.06,1.61-.13,2.4-.28,1.69-.17,3.33.04,5.14,0,.36,0,.86.36-.03.47-.74.13-1.48.18-2.23.18.09-.12.44-.05.61-.13-.55-.07-1-.1-1.54-.09.36,0,.72-.02,1.08-.03-.9.02-1.89,0-2.88.08-.36,0-.68-.36-1.18-.1,1.28.13,2.6.27,3.92.27,0,0,0,0,0,0,.59-.02,1.12,0,1.68,0-.18.02-.36.04-.51.02.82.1,1.64.13,2.45.15-2.3.4-4.86.13-7.18.28.65.19,1.52-.08,2.09.16-1.07,0-2.14-.03-3.23-.08.08-.01.16-.03.24-.05-.68-.14-1.4-.02-2.08-.06-.06,0-.12,0-.18-.01.06,0,.12,0,.18.01.62.04,1.24.08,1.84.11-.28.04-.57.05-.92.02.19.08.46.11.74.15.36,0,.72.01,1.08.02-.55.01-1.1.07-1.6.16.75.08,1.52.09,2.27.13-.41.01-.83.03-1.24.04-.69-.04-1.39-.07-2.1-.1.03,0,.05,0,.08,0-.05,0-.11,0-.16,0-.28,0-.55-.02-.83-.02-.25,0-.5.05-.74.11-.04,0-.08,0-.12,0,.08-.04.12-.07-.03-.09-.64-.11-1.34.08-2.08-.07-.19-.04-.46-.02-.74.01-.08-.03-.12-.01-.15.02-.06,0-.12.01-.18.02-.15,0-.3,0-.45.03.15,0,.3-.02.45-.03.06,0,.11,0,.17,0-.04.03-.08.07-.16.07,1.03.03,2.11.07,3.19.05-.06.03-.16.06-.19.08.11-.03.21-.06.32-.08.35,0,.7-.02,1.05-.04-.1.02-.2.05-.29.1.99.02,1.99-.01,2.99-.05.94.05,1.87.11,2.79.15-.5-.11-1.02-.16-1.55-.19,1.41-.05,2.83-.07,4.24.04-.25.13-.6.23-.76.4,0,.08.46.11.2.16-.96.24-1.65.03-2.05.5-.07.13,1.01.58.66.68-.29.04-.81.08-1.38.11-.16-.01-.33-.02-.51-.02-.02,0-.06.02-.1.05-.61.02-1.19.02-1.51,0-.12-.01-.24-.02-.36-.03-.06-.03-.11-.06-.16-.1-.07.03-.15.06-.22.07-.32-.02-.63-.04-.94-.06-.17-.04-.35-.09-.52-.12,0,.03.03.07,0,.1-.39-.01-.78-.02-1.16-.03-.16-.04-.3-.09-.43-.17-.42.26-1.39.1-2.06.14h0c-.34,0-.68,0-1.02,0-.06-.03-.11-.06-.16-.09-.09.04-.17.05-.22.07-.27-.04-.51-.09-.74-.15-.04.02-.12.11-.21.11-.18,0-.35,0-.53,0-.2,0-.4-.02-.61-.03-.69-.05-1.36-.11-2.03-.19-.02-.03-.03-.08-.03-.12-.1.05-.25.01-.34.04.02-.01.03-.03.03-.05-.31.07-.36-.03-.64-.07-.06,0-.12.04-.18.06-.03,0-.06,0-.09-.01-.31-.19-.62-.13-.97-.13-.35-.05-.69-.1-1.04-.15-.27-.04-.38-.16-.57-.24Z"/>
        <path class="cls-1" d="M10.23,12.71c-.32-.04-.65-.09-.97-.13.35,0,.66-.06.97.13Z"/>
        <path class="cls-1" d="M19.07,13.01c.13.08.27.14.43.17-.83-.02-1.65-.02-2.49-.03h0c.67-.05,1.64.12,2.06-.15Z"/>
        <path class="cls-1" d="M11.11,12.79s-.03.02-.05.03c0,0,0,0,0,0,.01-.01.03-.02.05-.03Z"/>
        <path class="cls-1" d="M20.65,11.38s.05,0,.08,0c-.2.02-.4.04-.61.05.16-.03.34-.04.53-.05Z"/>
        <path class="cls-1" d="M22.83,11.48c.41-.02.83-.03,1.24-.04.53.03,1.05.08,1.55.19-.93-.04-1.86-.09-2.79-.15Z"/>
        <path class="cls-1" d="M20.66,13.11c.17.03.34.08.52.12-.17,0-.35-.02-.52-.02.03-.03,0-.07,0-.1Z"/>
        <path class="cls-1" d="M18.95,11.48s.08,0,.12,0c-.11.03-.21.05-.32.08.04-.02.13-.05.19-.08Z"/>
        <path class="cls-1" d="M22.5,13.32c-.13-.01-.25-.02-.38-.03.08-.02.15-.04.22-.07.04.04.09.08.16.1Z"/>
        <path class="cls-1" d="M24.47,13.31c.17,0,.34,0,.51.02-.2.01-.41.02-.61.03.05-.03.08-.06.1-.05Z"/>
      </g>
      <g>
        <path class="cls-1" d="M24.46,19.59c.98-.07,1.98-.05,2.88-.08-.36,0-.72.02-1.08.03.54-.01.99.02,1.54.09-.17.09-.52.02-.61.13-1.32,0-2.64-.14-3.92-.27.51-.27.82.1,1.18.1Z"/>
        <path class="cls-1" d="M29.27,19.76c-.13,0-.26,0-.39,0,.14-.01.27-.02.39,0Z"/>
        <path class="cls-1" d="M15.76,20.69c-.15.02-.3.03-.45.03.15-.03.3-.03.45-.03Z"/>
        <path class="cls-1" d="M22.74,20.23c-.08.02-.16.04-.24.05-.61-.03-1.22-.07-1.84-.11.68.03,1.4-.08,2.08.06Z"/>
        <path class="cls-1" d="M23.39,20.47c.62-.01,1.24.03,1.83.15-.59-.09-1.2-.13-1.83-.15Z"/>
        <path class="cls-1" d="M11.14,22.06s0,.04-.03.05c-.02,0-.03.02-.05.03-.25-.03-.5-.06-.75-.09.06-.01.12-.05.18-.06.27.03.33.14.64.07Z"/>
        <path class="cls-1" d="M15.93,20.68s.01,0,.02-.01c.05,0,.1-.01.15-.02,0,0,.01,0,.02,0-.06.01-.12.02-.19.02Z"/>
        <path class="cls-1" d="M11.46,22.07s.01.09.03.12c-.14-.02-.28-.03-.42-.05.02,0,.03-.02.05-.03.09-.03.24.01.34-.04Z"/>
        <path class="cls-1" d="M14.66,22.41c.09,0,.17-.09.21-.11.23.06.47.11.74.15.04-.02.13-.02.22-.07.05.03.1.06.16.09-.6-.01-1.22-.03-1.86-.06.17,0,.34,0,.53,0Z"/>
        <path class="cls-1" d="M.12,21.19c.8-.06,1.73.17,2.52-.07-.92-.14-2.19-.2-2.32-.57-.14-.38,1.26-.03,1.98-.05q-.1-.04-.19-.08c.09.04.19.08.27.04-.19-.08-.56-.15-.67-.28l.17-.09c-.49-.28-1.39-.34-1.88-.63,2.37.91,5.66.53,8.53.45,1.61-.13,3.1-.46,4.5-.84.26-.05.9-.02,1.35,0,.8-.06,1.61-.13,2.4-.28,1.69-.17,3.33.04,5.14,0,.36,0,.86.36-.03.47-.74.13-1.48.18-2.23.18.09-.12.44-.05.61-.13-.55-.07-1-.1-1.54-.09.36,0,.72-.02,1.08-.03-.9.02-1.89,0-2.88.08-.36,0-.68-.36-1.18-.1,1.28.13,2.6.27,3.92.27,0,0,0,0,0,0,.59-.02,1.12,0,1.68,0-.18.02-.36.04-.51.02.82.1,1.64.13,2.45.15-2.3.4-4.86.13-7.18.28.65.19,1.52-.08,2.09.16-1.07,0-2.14-.03-3.23-.08.08-.01.16-.03.24-.05-.68-.14-1.4-.02-2.08-.06-.06,0-.12,0-.18-.01.06,0,.12,0,.18.01.62.04,1.24.08,1.84.11-.28.04-.57.05-.92.02.19.08.46.11.74.15.36,0,.72.01,1.08.02-.55.01-1.1.07-1.6.16.75.08,1.52.09,2.27.13-.41.01-.83.03-1.24.04-.69-.04-1.39-.07-2.1-.1.03,0,.05,0,.08,0-.05,0-.11,0-.16,0-.28,0-.55-.02-.83-.02-.25,0-.5.05-.74.11-.04,0-.08,0-.12,0,.08-.04.12-.07-.03-.09-.64-.11-1.34.08-2.08-.07-.19-.04-.46-.02-.74.01-.08-.03-.12-.01-.15.02-.06,0-.12.01-.18.02-.15,0-.3,0-.45.03.15,0,.3-.02.45-.03.06,0,.11,0,.17,0-.04.03-.08.07-.16.07,1.03.03,2.11.07,3.19.05-.06.03-.16.06-.19.08.11-.03.21-.06.32-.08.35,0,.7-.02,1.05-.04-.1.02-.2.05-.29.1.99.02,1.99-.01,2.99-.05.94.05,1.87.11,2.79.15-.5-.11-1.02-.16-1.55-.19,1.41-.05,2.83-.07,4.24.04-.25.13-.6.23-.76.4,0,.08.46.11.2.16-.96.24-1.65.03-2.05.5-.07.13,1.01.58.66.68-.29.04-.81.08-1.38.11-.16-.01-.33-.02-.51-.02-.02,0-.06.02-.1.05-.61.02-1.19.02-1.51,0-.12-.01-.24-.02-.36-.03-.06-.03-.11-.06-.16-.1-.07.03-.15.06-.22.07-.32-.02-.63-.04-.94-.06-.17-.04-.35-.09-.52-.12,0,.03.03.07,0,.1-.39-.01-.78-.02-1.16-.03-.16-.04-.3-.09-.43-.17-.42.26-1.39.1-2.06.14h0c-.34,0-.68,0-1.02,0-.06-.03-.11-.06-.16-.09-.09.04-.17.05-.22.07-.27-.04-.51-.09-.74-.15-.04.02-.12.11-.21.11-.18,0-.35,0-.53,0-.2,0-.4-.02-.61-.03-.69-.05-1.36-.11-2.03-.19-.02-.03-.03-.08-.03-.12-.1.05-.25.01-.34.04.02-.01.03-.03.03-.05-.31.07-.36-.03-.64-.07-.06,0-.12.04-.18.06-.03,0-.06,0-.09-.01-.31-.19-.62-.13-.97-.13-.35-.05-.69-.1-1.04-.15-.27-.04-.38-.16-.57-.24Z"/>
        <path class="cls-1" d="M10.23,22.04c-.32-.04-.65-.09-.97-.13.35,0,.66-.06.97.13Z"/>
        <path class="cls-1" d="M19.07,22.33c.13.08.27.14.43.17-.83-.02-1.65-.02-2.49-.03h0c.67-.05,1.64.12,2.06-.15Z"/>
        <path class="cls-1" d="M11.11,22.11s-.03.02-.05.03c0,0,0,0,0,0,.01-.01.03-.02.05-.03Z"/>
        <path class="cls-1" d="M20.65,20.71s.05,0,.08,0c-.2.02-.4.04-.61.05.16-.03.34-.04.53-.05Z"/>
        <path class="cls-1" d="M22.83,20.81c.41-.02.83-.03,1.24-.04.53.03,1.05.08,1.55.19-.93-.04-1.86-.09-2.79-.15Z"/>
        <path class="cls-1" d="M20.66,22.44c.17.03.34.08.52.12-.17,0-.35-.02-.52-.02.03-.03,0-.07,0-.1Z"/>
        <path class="cls-1" d="M18.95,20.8s.08,0,.12,0c-.11.03-.21.05-.32.08.04-.02.13-.05.19-.08Z"/>
        <path class="cls-1" d="M22.5,22.65c-.13-.01-.25-.02-.38-.03.08-.02.15-.04.22-.07.04.04.09.08.16.1Z"/>
        <path class="cls-1" d="M24.47,22.63c.17,0,.34,0,.51.02-.2.01-.41.02-.61.03.05-.03.08-.06.1-.05Z"/>
      </g>
    </g>
  </g>
</svg>