<?xml version="1.0" encoding="UTF-8"?>
<svg id="Calque_2" data-name="Calque 2" xmlns="http://www.w3.org/2000/svg" viewBox="0 0 31.26 25.42">
  <defs>
    <style>
      .cls-1 {
        fill: #fff;
        stroke-width: 0px;
      }
    </style>
  </defs>
  <g id="Calque_1-2" data-name="Calque 1">
    <g id="Panier">
      <g>
        <path class="cls-1" d="M18.79,22.33c1.45-.07,2.92-.05,4.25-.08l-1.59.03c.8-.01,1.47.02,2.28.09-.24.09-.77.02-.9.13-1.95,0-3.9-.14-5.79-.27.75-.27,1.22.1,1.75.1Z"/>
        <path class="cls-1" d="M25.89,22.5c-.2,0-.39,0-.57,0,.2-.01.4-.02.57,0Z"/>
        <path class="cls-1" d="M6.65,21.41c-.12-.18-.25-.37-.34-.57.14.23.23.39.34.57Z"/>
        <path class="cls-1" d="M16.24,22.97c-.12.02-.23.04-.35.05-.89-.03-1.79-.07-2.72-.11,1,.03,2.07-.08,3.08.06Z"/>
        <path class="cls-1" d="M17.21,23.22c.91-.01,1.84.03,2.7.15-.87-.09-1.78-.13-2.7-.15Z"/>
        <path class="cls-1" d="M4.16,14.89s-.04,0-.06-.03c0-.03-.02-.05-.04-.07,0-.37-.01-.73-.02-1.11.02.09.07.17.08.26,0,.41-.09.5.03.95Z"/>
        <path class="cls-1" d="M6.8,21.6h.02c.05.07.1.13.15.18,0,0,0,.01.01.02-.07-.06-.13-.13-.18-.2Z"/>
        <path class="cls-1" d="M4.19,15.35s-.08.02-.11.06v-.62s.02.06.02.06c.04.13.02.35.09.5Z"/>
        <path class="cls-1" d="M4.37,20.24c.04.18.17.32.21.39.07.47.18.94.44,1.45.07.06.15.23.29.34.03.1.07.21.12.32-.37-.5-.66-1.07-.86-1.68-.11-.3-.17-.62-.23-.93l-.06-.47-.02-.35c.04.3.08.6.12.93Z"/>
        <path class="cls-1" d="M.48,1.68c.54-.12,1.13-.07,1.63.1.51.17.89.49,1.28.84-.28-.54-.87-1-1.47-1.19-.59-.21-1.13-.25-1.25-.42-.13-.18.37-.27,1.04-.17.69.1,1.44.57,1.83.99q-.09-.13-.17-.27c.09.14.18.26.3.33-.08-.13-.22-.32-.36-.49-.16-.15-.3-.31-.36-.41l.3.09c-.28-.39-.9-.69-1.54-.86C1.08.08.46.07,0,0c.32.02.62.04.9.06.31.05.63.09.95.18.64.17,1.3.49,1.82.97.53.48.88,1.1,1.11,1.72.23.63.35,1.26.39,1.95v.03s0,.03,0,.03c.21,1.95.51,4,.74,5.9.36,2.35.92,4.51,1.5,6.53.09.38.16,1.33.19,1.98.14.74.6,1.38,1.22,1.67.3.18.63.31.96.38.16.04.33.06.51.07.3,0,.6.01.9.02,1.25.03,2.53.07,3.86.04.53,0,1.26.36-.05.47-1.09.13-2.19.18-3.29.18.13-.12.65-.05.9-.13-.81-.07-1.49-.1-2.28-.09l1.59-.03c-.33,0-.67,0-1.02.01h-.53c-.14,0-.24,0-.36-.01-.47-.05-.93-.2-1.35-.45-.31-.22-.25-.66-.73-.89.27.55.75,1.04,1.36,1.32.3.14.63.23.98.25.44.02.96.03,1.44.03,0,0,0,0,0,0,.87,0,1.65,0,2.49,0-.26.02-.53.04-.75.02,1.22.1,2.42.13,3.63.15-1.7.2-3.49.23-5.29.23h-1.35c-.39,0-.73-.05-1.08-.15-.68-.21-1.3-.59-1.76-1.12.17.37.55.68.95.88.4.21.81.34,1.13.52-1.32-.22-2.46-1.27-2.79-2.57.04.08.09.16.14.26-.1-.43-.14-.75-.2-1.28-.06-.52-.13-1.03-.17-1.53l-.02-.27c0,.09.01.18.02.27.07.9.06,1.91.22,2.55-.14-.32-.19-.64-.22-1.19-.03.14-.04.32-.04.5,0,.16,0,.34.03.51.1.45.29.88.54,1.26-.42-.58-.68-1.23-.83-1.92,0,1.04.46,2.06,1.2,2.79-.43-.38-.78-.85-1.03-1.37-.18-.46-.26-.92-.29-1.43l-.11-1.56.02.12-.03-.24-.1-1.23c-.04-.37-.13-.72-.22-1.08l-.02-.18c.05.11.09.16.09-.06.01-.96-.28-1.97-.24-3.07.01-.29-.05-.67-.12-1.08.02-.12,0-.17-.04-.22l-.05-.27c-.03-.22-.05-.44-.1-.66.03.21.06.44.1.66l.03.25c-.04-.05-.08-.11-.09-.23.13,1.52.24,3.11.42,4.69-.04-.1-.08-.21-.11-.28.04.16.09.31.13.46.06.5.13,1.01.2,1.53-.04-.15-.08-.29-.14-.41.07.73.15,1.46.22,2.2.09.74.14,1.46.46,2.09.47,1.23,1.57,2.22,2.87,2.53-.68-.26-1.32-.65-1.84-1.16.74.65,1.7,1.01,2.66,1.03,1.03.01,2.08.02,3.12.08-.38.13-.89.23-1.13.4.01.08.69.11.3.16-1.44.22-2.39.08-3.18.41-.08.05.33.29.74.44.43.16.62.28.39.34-.48.05-1.62.03-2.66-.45-.29-.15-.59-.32-.87-.53-.03-.03-.11-.05-.2-.08-1.02-.72-1.67-1.77-1.89-2.38-.1-.22-.16-.46-.23-.69-.02-.13,0-.24.02-.33-.07-.14-.13-.28-.17-.42l-.05-.46-.02-.35c-.02-.23-.03-.46-.04-.69.02-.26.03-.53.05-.77-.03,0-.07.05-.1,0-.05-.58-.09-1.15-.14-1.71.02-.23.05-.45.11-.65-.33-.59-.3-2.03-.44-3.01h0c-.05-.49-.09-1-.14-1.5.02-.09.04-.17.07-.25-.06-.12-.07-.25-.1-.31,0-.41.02-.75.04-1.1-.03-.06-.13-.17-.14-.3-.02-.27-.05-.52-.08-.77-.02-.29-.04-.59-.06-.89-.03-.73-.06-1.47-.1-2.23v-.08s0-.08,0-.08c0-.15,0-.36-.01-.54.03-.03.07-.04.11-.06-.07-.11-.08-.29-.13-.39.02.02.04.02.06.02-.17-.33-.1-.41-.2-.72-.04-.06-.11-.09-.15-.14l-.04-.09c-.04-.38-.32-.59-.62-.76-.3-.18-.65-.36-1.09-.39-.33-.07-.49-.12-.75-.18Z"/>
        <path class="cls-1" d="M4.04,13.54c0-.48,0-.96-.01-1.44.05.51.16.96.01,1.44Z"/>
        <path class="cls-1" d="M10.82,25.08c.19.08.4.14.63.17h-.91c-.13,0-.33-.01-.56-.03-.21,0-.43-.04-.64-.07-.85-.14-1.67-.46-2.39-.95h0c.58.36,1.36.74,2.13.9.38.08.76.11,1.09.1.33-.01.47-.06.64-.12Z"/>
        <path class="cls-1" d="M4.1,14.85l-.04-.06h0s.03.04.04.06Z"/>
        <path class="cls-1" d="M13.15,23.45h.12c-.31.02-.6.04-.9.05.24-.03.51-.04.78-.05Z"/>
        <path class="cls-1" d="M16.37,23.55l1.83-.04c.79.03,1.56.08,2.29.19-1.35-.05-2.74-.1-4.13-.15Z"/>
        <path class="cls-1" d="M13.17,25.18c.23.04.51.08.76.12-.26,0-.51-.01-.77-.02.05-.03,0-.07,0-.1Z"/>
        <path class="cls-1" d="M10.64,23.54h.18c-.15.02-.31.05-.47.08.07-.02.18-.05.29-.08Z"/>
        <path class="cls-1" d="M15.88,25.39c-.19,0-.38-.02-.56-.03.11-.02.22-.04.33-.07.06.04.14.08.23.1Z"/>
        <path class="cls-1" d="M18.8,25.38c.25,0,.5.01.75.02-.3,0-.6.02-.9.03.07-.03.12-.06.15-.05Z"/>
      </g>
      <g>
        <path class="cls-1" d="M15.36,19.38c-1.92.07-3.87.05-5.63.08l2.11-.03c-1.05.01-1.94-.02-3.02-.09.32-.09,1.02-.02,1.19-.13,2.58,0,5.16.14,7.67.27-1,.27-1.61-.1-2.32-.1Z"/>
        <path class="cls-1" d="M5.97,19.21c.26,0,.51,0,.76,0-.27.01-.53.02-.76,0Z"/>
        <path class="cls-1" d="M29.29,12.17c.02-.3.05-.6.07-.88,0,.29-.04.58-.07.88Z"/>
        <path class="cls-1" d="M18.74,18.74c.17-.02.32-.03.47-.05,1.2.02,2.34.09,3.65.08-1.42.02-2.77.1-4.12-.03Z"/>
        <path class="cls-1" d="M17.46,18.49c-1.21.01-2.43-.03-3.58-.15,1.15.09,2.35.13,3.58.15Z"/>
        <path class="cls-1" d="M26.37,6.21s-.01.04-.04.05c-.02,0-.05.01-.06.02-.48-.03-.96-.06-1.44-.1.12-.01.23-.05.36-.06.27.02.43.05.6.07.09.01.17.02.28.02.12,0,.22,0,.31-.02Z"/>
        <path class="cls-1" d="M29.26,12.5v.03s0,.3,0,.3c0,.01,0,.02-.01.04,0-.13.01-.25.02-.37Z"/>
        <path class="cls-1" d="M26.77,6.27s0,.09,0,.13c-.15-.05-.32-.09-.5-.11.02,0,.04-.02.06-.03.13-.03.3.04.43,0Z"/>
        <path class="cls-1" d="M27.82,9.88c-.02.17.05.33.06.42-.11.44-.22.88-.31,1.4.01.08,0,.26.02.42-.05.09-.09.19-.13.3.07-.58.15-1.16.22-1.75.04-.29.08-.59.12-.89.03-.28.1-.66.09-.82v.17s-.02.24-.02.24c-.02.17-.04.33-.07.51Z"/>
        <path class="cls-1" d="M4.88,5.34c1.57-.06,3.39.17,4.93-.07-1.8-.14-4.28-.2-4.55-.57-.27-.38,2.46-.03,3.87-.05q-.19-.04-.37-.08c.19.04.37.08.54.04-.37-.08-1.09-.15-1.3-.28l.33-.09c-.95-.28-2.73-.34-3.68-.63,4.63.91,11.07.53,16.7.45,1.57-.06,3.09-.18,4.56-.33.32-.04.85-.08,1.32-.02.49.06.99.18,1.47.42.96.46,1.7,1.32,2.12,2.17.36.67.58,2.29.4,3.34-.06.79-.11,1.58-.17,2.39l-.03.6-.02.3c-.01.1,0,.36-.06.52-.07.26-.14.52-.21.78-.08.23-.16.46-.24.7-.82,1.94-2.39,3.51-4.31,4.39-.96.44-2,.72-3.07.82-.27.03-.54.03-.81.04h-.66c-.43,0-.87,0-1.31,0-.7,0-1.67-.36.07-.47.37-.03.73-.05,1.08-.08.39-.02.77-.05,1.15-.07.86-.07,1.7-.25,2.51-.55-.14.19-.96.36-1.32.5,1.27-.19,2.32-.58,3.36-1.31-.69.49-1.46.88-2.27,1.15,2.02-.65,4.02-2.21,5.01-4.33.2-.37.43-.71.64-1.11.05-.11.09-.2.14-.33.06-.15.12-.32.13-.52.03-.32.02-.47-.01-.76-.45,3.2-2.85,5.63-5.68,6.69h.01c-.63.22-1.26.38-1.9.45-.32.05-.63.05-.95.06-.28,0-.55,0-.83,0,.36-.02.66-.03,1.04-.03-1.7-.08-3.23-.12-4.84-.14,1.12-.1,2.28-.16,3.45-.19.59-.02,1.16-.01,1.85-.07.66-.07,1.32-.22,1.95-.44,1.26-.45,2.41-1.2,3.3-2.19.45-.48.82-1.04,1.13-1.61.15-.29.28-.58.4-.89.11-.31.21-.57.28-1-.15.47-.28.76-.44,1.14-.15.36-.33.73-.54,1.08-.4.69-.91,1.31-1.45,1.63.84-.78,1.51-1.73,1.96-2.8.13-.27.19-.51.31-.84.08-.39.09-.6.13-.88.07-.53.14-1.06.22-1.6,0,.15,0,.3,0,.47.14-.67.25-1.31.28-2.07.01-.8-.09-1.56-.32-2.32l-.15-.41.15.41c.21.7.27,1.39.26,2.07l-.03.52-.06.45-.13.89c0-.27.03-.55.06-.85.04-.29.08-.61.08-1.02-.07.45-.18.96-.27,1.5-.09.7-.18,1.41-.27,2.11.11-1.08.18-2.15.2-3.13-.12.73-.23,1.47-.33,2.21l-.15,1.11c-.03.17-.04.41-.12.6-.07.18-.12.37-.2.54.08-.2.13-.4.2-.6.08-.22.06-.45.09-.64l.12-1.21.29-2.03c.05-.72,0-1.44-.19-2.16l.05.16-.1-.32c-.18-.55-.48-1.09-.92-1.52-.4-.38-.93-.6-1.43-.67-.08-.02-.17-.05-.25-.06.17,0,.26-.03-.06-.1-.7-.16-1.34-.09-2.02-.09-.68.01-1.38.02-2.11-.05-.38-.04-.89-.02-1.44.01-.15-.03-.23-.01-.3.02l-.36.02c-.29,0-.59,0-.88.03.28-.01.57-.02.88-.03h.33c-.07.02-.15.06-.32.06,1.01.01,2.04.03,3.09.04h1.57c.52.02,1.06-.02,1.62.09-.14.01-.33,0-.41.02.22,0,.44,0,.66.04.71.17,1.37.62,1.81,1.22-.15-.16-.3-.31-.46-.39.74.74,1.05,1.78,1.14,2.77.09,1.02-.11,1.98-.18,2.96l-.2,1.36c-.01.23-.09.49-.18.7-.07.22-.17.43-.27.64-.39.84-.95,1.6-1.62,2.23.79-.61,1.43-1.48,1.86-2.48-.96,2.72-3.73,4.74-6.62,4.72.51-.14,1.17-.37,1.42-.62-.04-.07-.88.07-.41-.08,1.69-.59,2.82-1.29,3.01-2.11,0-.09-.41.1-.78.2-.38.1-.68.13-.48-.06.36-.27.97-.82,1.44-1.54.15-.2.3-.41.42-.64.02-.03.03-.09.03-.16.09-.21.18-.42.25-.63.02-.08.05-.15.07-.23,0-.07.02-.14.02-.21.06-.5.11-.93.16-1.24.04-.23.07-.46.11-.68.04-.12.08-.21.14-.29-.02-.15-.02-.29-.02-.44.12-.67.13-1.01.09-1.51.01-.26,0-.5-.03-.73-.03.01-.05.06-.1.03-.15-.48-.38-.8-.69-.99-.11-.11-.22-.22-.35-.33-.13.03-.3.04-.51.05-.14,0-.29,0-.43.01-.18,0-.36,0-.54,0-.74,0-1.54-.03-2.2-.02h0c-.66,0-1.33,0-2,0-.11-.03-.22-.06-.32-.09-.17.04-.34.05-.43.07-.54-.04-.99-.09-1.45-.15-.08.02-.24.11-.42.11-.35,0-.69,0-1.03,0-.39-.01-.78-.02-1.19-.03-1.35-.05-2.67-.11-3.98-.19-.04-.03-.05-.08-.06-.12-.2.05-.49.01-.67.04.03-.01.06-.03.05-.05-.6.07-.71-.03-1.25-.07-.12,0-.24.04-.36.06h-.18c-.61-.2-1.22-.14-1.9-.14l-2.04-.15c-.54-.04-.74-.16-1.12-.24Z"/>
        <path class="cls-1" d="M24.65,6.18c-.63-.04-1.26-.09-1.9-.13.68,0,1.29-.06,1.9.13Z"/>
        <path class="cls-1" d="M24.96,15.9c-.2.03-.43.07-.65.13,1.13-.45,2.09-1.31,2.68-2.39h0c-.22.45-.61.93-1.02,1.31-.41.38-.81.69-1.03.96Z"/>
        <path class="cls-1" d="M26.33,6.27s-.04.02-.06.03h0s.04-.02.06-.03Z"/>
        <path class="cls-1" d="M22.82,18.23h-.16c.39-.04.78-.11,1.16-.22-.3.11-.65.17-1.01.22Z"/>
        <path class="cls-1" d="M18.56,18.16l-2.43.04c-1.04-.03-2.06-.08-3.04-.19,1.8.05,3.63.1,5.47.15Z"/>
        <path class="cls-1" d="M22.66,16.51c-.27-.03-.58-.07-.87-.1.37.01.61,0,.86,0-.05.03,0,.07,0,.1Z"/>
        <path class="cls-1" d="M25.91,17.12l-.21.12c.16-.13.33-.25.48-.39-.05.06-.18.19-.27.27Z"/>
        <path class="cls-1" d="M19.21,16.32c.25,0,.5.02.74.03-.15.02-.29.04-.44.07-.08-.04-.18-.08-.3-.1Z"/>
        <path class="cls-1" d="M15.35,16.33c-.34,0-.66-.01-.99-.02.39,0,.8-.02,1.19-.03-.09.03-.16.06-.21.05Z"/>
      </g>
    </g>
  </g>
</svg>