<?xml version="1.0" encoding="UTF-8"?>
<svg id="Calque_2" data-name="Calque 2" xmlns="http://www.w3.org/2000/svg" viewBox="0 0 31.42 32.14">
  <defs>
    <style>
      .cls-1 {
        fill: #fff;
        stroke-width: 0px;
      }
    </style>
  </defs>
  <g id="Calque_1-2" data-name="Calque 1">
    <g id="Paramètre">
      <g>
        <path class="cls-1" d="M26.21,4.48c1.05-.07,2.11-.05,3.07-.08-.38,0-.77.02-1.15.03.58-.01,1.06.02,1.65.09-.18.09-.56.02-.65.13-1.41,0-2.82-.14-4.19-.27.54-.27.88.1,1.27.1Z"/>
        <path class="cls-1" d="M31.35,4.65c-.14,0-.28,0-.42,0,.14-.01.29-.02.42,0Z"/>
        <path class="cls-1" d="M16.91,5.58c-.16.02-.32.03-.48.03.16-.03.32-.03.48-.03Z"/>
        <path class="cls-1" d="M24.37,5.12c-.08.02-.17.04-.26.05-.65-.03-1.3-.07-1.97-.11.72.03,1.5-.08,2.22.06Z"/>
        <path class="cls-1" d="M25.07,5.36c.66-.01,1.33.03,1.95.15-.63-.09-1.28-.13-1.95-.15Z"/>
        <path class="cls-1" d="M11.98,6.95s0,.04-.03.05c-.02,0-.04.02-.05.03-.27-.03-.53-.06-.8-.09.07-.01.13-.05.19-.06.29.03.36.14.68.07Z"/>
        <path class="cls-1" d="M17.09,5.57s.01,0,.02-.01c.06,0,.11-.01.16-.02,0,0,.01,0,.02,0-.07.01-.13.02-.2.02Z"/>
        <path class="cls-1" d="M12.32,6.96s.01.09.03.12c-.15-.02-.3-.03-.45-.05.02,0,.04-.02.05-.03.1-.03.26.01.37-.04Z"/>
        <path class="cls-1" d="M15.73,7.3c.1,0,.18-.09.23-.11.25.06.5.11.79.15.05-.02.14-.02.23-.07.05.03.11.06.17.09-.65-.01-1.3-.03-1.98-.06.18,0,.37,0,.56,0Z"/>
        <path class="cls-1" d="M.2,6.08c.86-.06,1.85.17,2.69-.07-.98-.14-2.34-.2-2.48-.57-.15-.38,1.34-.03,2.11-.05q-.1-.04-.2-.08c.1.04.2.08.29.04-.2-.08-.6-.15-.71-.28l.18-.09c-.52-.28-1.49-.34-2.01-.63,2.53.91,6.04.53,9.12.45,1.72-.13,3.31-.46,4.81-.84.28-.05.96-.02,1.45,0,.86-.06,1.72-.13,2.57-.28,1.81-.17,3.56.04,5.49,0,.38,0,.91.36-.04.47-.79.13-1.58.18-2.38.18.09-.12.47-.05.65-.13-.59-.07-1.07-.1-1.65-.09.38,0,.77-.02,1.15-.03-.96.02-2.02,0-3.07.08-.38,0-.72-.36-1.27-.1,1.37.13,2.78.27,4.19.27,0,0,0,0,0,0,.63-.02,1.2,0,1.8,0-.19.02-.38.04-.55.02.88.1,1.75.13,2.62.15-2.45.4-5.19.13-7.68.28.7.19,1.63-.08,2.24.16-1.14,0-2.28-.03-3.45-.08.09-.01.17-.03.26-.05-.73-.14-1.5-.02-2.22-.06-.06,0-.13,0-.19-.01.06,0,.13,0,.19.01.67.04,1.32.08,1.97.11-.3.04-.61.05-.99.02.2.08.5.11.79.15.39,0,.77.01,1.15.02-.59.01-1.17.07-1.71.16.8.08,1.63.09,2.43.13-.44.01-.88.03-1.33.04-.74-.04-1.49-.07-2.24-.1.03,0,.06,0,.09,0-.06,0-.11,0-.17,0-.3,0-.59-.02-.89-.02-.27,0-.53.05-.79.11-.04,0-.09,0-.13,0,.08-.04.12-.07-.04-.09-.69-.11-1.44.08-2.23-.07-.21-.04-.49-.02-.79.01-.08-.03-.12-.01-.16.02-.06,0-.13.01-.2.02-.16,0-.32,0-.48.03.16,0,.32-.02.48-.03.06,0,.12,0,.18,0-.04.03-.08.07-.17.07,1.11.03,2.25.07,3.41.05-.07.03-.17.06-.21.08.11-.03.23-.06.34-.08.37,0,.74-.02,1.12-.04-.11.02-.21.05-.3.1,1.06.02,2.13-.01,3.2-.05,1,.05,1.99.11,2.98.15-.53-.11-1.09-.16-1.66-.19,1.51-.05,3.02-.08,4.53.04-.27.13-.65.23-.82.4.01.08.5.11.21.16-1.03.24-1.77.03-2.19.5-.08.13,1.08.58.7.68-.31.04-.87.08-1.47.11-.17-.01-.35-.02-.54-.02-.02,0-.06.02-.11.05-.65.02-1.27.02-1.62,0-.13-.01-.25-.02-.38-.03-.07-.03-.12-.06-.17-.1-.08.03-.16.06-.24.07-.34-.02-.67-.04-1.01-.06-.18-.04-.37-.09-.55-.12,0,.03.03.07,0,.1-.42-.01-.83-.02-1.24-.03-.17-.04-.32-.09-.46-.17-.45.26-1.48.1-2.2.14h0c-.36,0-.73,0-1.09,0-.06-.03-.12-.06-.17-.09-.09.04-.19.05-.23.07-.29-.04-.54-.09-.79-.15-.05.02-.13.11-.23.11-.19,0-.38,0-.56,0-.21,0-.43-.02-.65-.03-.73-.05-1.46-.11-2.17-.19-.02-.03-.03-.08-.03-.12-.11.05-.27.01-.37.04.02-.01.03-.03.03-.05-.33.07-.39-.03-.68-.07-.07,0-.13.04-.19.06-.03,0-.06,0-.1-.01-.33-.19-.67-.13-1.04-.13-.37-.05-.74-.1-1.11-.15-.29-.04-.41-.16-.61-.24Z"/>
        <path class="cls-1" d="M11,6.92c-.35-.04-.69-.09-1.04-.13.37,0,.7-.06,1.04.13Z"/>
        <path class="cls-1" d="M20.45,7.22c.14.08.29.14.46.17-.88-.02-1.76-.02-2.66-.03h0c.72-.05,1.75.12,2.2-.15Z"/>
        <path class="cls-1" d="M11.95,7s-.03.02-.05.03c0,0,0,0,0,0,.01-.01.03-.02.05-.03Z"/>
        <path class="cls-1" d="M22.14,5.59s.06,0,.09,0c-.22.02-.43.04-.65.05.17-.03.37-.04.56-.05Z"/>
        <path class="cls-1" d="M24.47,5.7c.44-.02.88-.03,1.33-.04.57.03,1.13.08,1.66.19-.99-.04-1.98-.09-2.99-.15Z"/>
        <path class="cls-1" d="M22.15,7.33c.18.03.37.08.55.12-.19,0-.37-.02-.55-.02.03-.03,0-.07,0-.1Z"/>
        <path class="cls-1" d="M20.32,5.69s.09,0,.13,0c-.11.03-.23.05-.34.08.04-.02.14-.05.21-.08Z"/>
        <path class="cls-1" d="M24.11,7.53c-.14-.01-.27-.02-.41-.03.08-.02.16-.04.24-.07.04.04.1.08.17.1Z"/>
        <path class="cls-1" d="M26.22,7.52c.19,0,.37,0,.54.02-.21.01-.43.02-.65.03.05-.03.09-.06.11-.05Z"/>
      </g>
      <g>
        <path class="cls-1" d="M26.21,15.67c1.05-.07,2.11-.05,3.07-.08-.38,0-.77.02-1.15.03.58-.01,1.06.02,1.65.09-.18.09-.56.02-.65.13-1.41,0-2.82-.14-4.19-.27.54-.27.88.1,1.27.1Z"/>
        <path class="cls-1" d="M31.35,15.83c-.14,0-.28,0-.42,0,.14-.01.29-.02.42,0Z"/>
        <path class="cls-1" d="M16.91,16.76c-.16.02-.32.03-.48.03.16-.03.32-.03.48-.03Z"/>
        <path class="cls-1" d="M24.37,16.3c-.08.02-.17.04-.26.05-.65-.03-1.3-.07-1.97-.11.72.03,1.5-.08,2.22.06Z"/>
        <path class="cls-1" d="M25.07,16.55c.66-.01,1.33.03,1.95.15-.63-.09-1.28-.13-1.95-.15Z"/>
        <path class="cls-1" d="M11.98,18.13s0,.04-.03.05c-.02,0-.04.02-.05.03-.27-.03-.53-.06-.8-.09.07-.01.13-.05.19-.06.29.03.36.14.68.07Z"/>
        <path class="cls-1" d="M17.09,16.76s.01,0,.02-.01c.06,0,.11-.01.16-.02,0,0,.01,0,.02,0-.07.01-.13.02-.2.02Z"/>
        <path class="cls-1" d="M12.32,18.15s.01.09.03.12c-.15-.02-.3-.03-.45-.05.02,0,.04-.02.05-.03.1-.03.26.01.37-.04Z"/>
        <path class="cls-1" d="M15.73,18.49c.1,0,.18-.09.23-.11.25.06.5.11.79.15.05-.02.14-.02.23-.07.05.03.11.06.17.09-.65-.01-1.3-.03-1.98-.06.18,0,.37,0,.56,0Z"/>
        <path class="cls-1" d="M.2,17.26c.86-.06,1.85.17,2.69-.07-.98-.14-2.34-.2-2.48-.57-.15-.38,1.34-.03,2.11-.05q-.1-.04-.2-.08c.1.04.2.08.29.04-.2-.08-.6-.15-.71-.28l.18-.09c-.52-.28-1.49-.34-2.01-.63,2.53.91,6.04.53,9.12.45,1.72-.13,3.31-.46,4.81-.84.28-.05.96-.02,1.45,0,.86-.06,1.72-.13,2.57-.28,1.81-.17,3.56.04,5.49,0,.38,0,.91.36-.04.47-.79.13-1.58.18-2.38.18.09-.12.47-.05.65-.13-.59-.07-1.07-.1-1.65-.09.38,0,.77-.02,1.15-.03-.96.02-2.02,0-3.07.08-.38,0-.72-.36-1.27-.1,1.37.13,2.78.27,4.19.27,0,0,0,0,0,0,.63-.02,1.2,0,1.8,0-.19.02-.38.04-.55.02.88.1,1.75.13,2.62.15-2.45.4-5.19.13-7.68.28.7.19,1.63-.08,2.24.16-1.14,0-2.28-.03-3.45-.08.09-.01.17-.03.26-.05-.73-.14-1.5-.02-2.22-.06-.06,0-.13,0-.19-.01.06,0,.13,0,.19.01.67.04,1.32.08,1.97.11-.3.04-.61.05-.99.02.2.08.5.11.79.15.39,0,.77.01,1.15.02-.59.01-1.17.07-1.71.16.8.08,1.63.09,2.43.13-.44.01-.88.03-1.33.04-.74-.04-1.49-.07-2.24-.1.03,0,.06,0,.09,0-.06,0-.11,0-.17,0-.3,0-.59-.02-.89-.02-.27,0-.53.05-.79.11-.04,0-.09,0-.13,0,.08-.04.12-.07-.04-.09-.69-.11-1.44.08-2.23-.07-.21-.04-.49-.02-.79.01-.08-.03-.12-.01-.16.02-.06,0-.13.01-.2.02-.16,0-.32,0-.48.03.16,0,.32-.02.48-.03.06,0,.12,0,.18,0-.04.03-.08.07-.17.07,1.11.03,2.25.07,3.41.05-.07.03-.17.06-.21.08.11-.03.23-.06.34-.08.37,0,.74-.02,1.12-.04-.11.02-.21.05-.3.1,1.06.02,2.13-.01,3.2-.05,1,.05,1.99.11,2.98.15-.53-.11-1.09-.16-1.66-.19,1.51-.05,3.02-.08,4.53.04-.27.13-.65.23-.82.4.01.08.5.11.21.16-1.03.24-1.77.03-2.19.5-.08.13,1.08.58.7.68-.31.04-.87.08-1.47.11-.17-.01-.35-.02-.54-.02-.02,0-.06.02-.11.05-.65.02-1.27.02-1.62,0-.13-.01-.25-.02-.38-.03-.07-.03-.12-.06-.17-.1-.08.03-.16.06-.24.07-.34-.02-.67-.04-1.01-.06-.18-.04-.37-.09-.55-.12,0,.03.03.07,0,.1-.42-.01-.83-.02-1.24-.03-.17-.04-.32-.09-.46-.17-.45.26-1.48.1-2.2.14h0c-.36,0-.73,0-1.09,0-.06-.03-.12-.06-.17-.09-.09.04-.19.05-.23.07-.29-.04-.54-.09-.79-.15-.05.02-.13.11-.23.11-.19,0-.38,0-.56,0-.21,0-.43-.02-.65-.03-.73-.05-1.46-.11-2.17-.19-.02-.03-.03-.08-.03-.12-.11.05-.27.01-.37.04.02-.01.03-.03.03-.05-.33.07-.39-.03-.68-.07-.07,0-.13.04-.19.06-.03,0-.06,0-.1-.01-.33-.19-.67-.13-1.04-.13-.37-.05-.74-.1-1.11-.15-.29-.04-.41-.16-.61-.24Z"/>
        <path class="cls-1" d="M11,18.11c-.35-.04-.69-.09-1.04-.13.37,0,.7-.06,1.04.13Z"/>
        <path class="cls-1" d="M20.45,18.41c.14.08.29.14.46.17-.88-.02-1.76-.02-2.66-.03h0c.72-.05,1.75.12,2.2-.15Z"/>
        <path class="cls-1" d="M11.95,18.19s-.03.02-.05.03c0,0,0,0,0,0,.01-.01.03-.02.05-.03Z"/>
        <path class="cls-1" d="M22.14,16.78s.06,0,.09,0c-.22.02-.43.04-.65.05.17-.03.37-.04.56-.05Z"/>
        <path class="cls-1" d="M24.47,16.88c.44-.02.88-.03,1.33-.04.57.03,1.13.08,1.66.19-.99-.04-1.98-.09-2.99-.15Z"/>
        <path class="cls-1" d="M22.15,18.52c.18.03.37.08.55.12-.19,0-.37-.02-.55-.02.03-.03,0-.07,0-.1Z"/>
        <path class="cls-1" d="M20.32,16.88s.09,0,.13,0c-.11.03-.23.05-.34.08.04-.02.14-.05.21-.08Z"/>
        <path class="cls-1" d="M24.11,18.72c-.14-.01-.27-.02-.41-.03.08-.02.16-.04.24-.07.04.04.1.08.17.1Z"/>
        <path class="cls-1" d="M26.22,18.71c.19,0,.37,0,.54.02-.21.01-.43.02-.65.03.05-.03.09-.06.11-.05Z"/>
      </g>
      <g>
        <path class="cls-1" d="M5.21,28.82c-1.05.07-2.11.05-3.07.08.38,0,.77-.02,1.15-.03-.58.01-1.06-.02-1.65-.09.18-.09.56-.02.65-.13,1.41,0,2.82.14,4.19.27-.54.27-.88-.1-1.27-.1Z"/>
        <path class="cls-1" d="M.07,28.65c.14,0,.28,0,.42,0-.14.01-.29.02-.42,0Z"/>
        <path class="cls-1" d="M14.51,27.72c.16-.02.32-.03.48-.03-.16.03-.32.03-.48.03Z"/>
        <path class="cls-1" d="M7.05,28.18c.08-.02.17-.04.26-.05.65.03,1.3.07,1.97.11-.72-.03-1.5.08-2.22-.06Z"/>
        <path class="cls-1" d="M6.35,27.94c-.66.01-1.33-.03-1.95-.15.63.09,1.28.13,1.95.15Z"/>
        <path class="cls-1" d="M19.44,26.35s0-.04.03-.05c.02,0,.04-.02.05-.03.27.03.53.06.8.09-.07.01-.13.05-.19.06-.29-.03-.36-.14-.68-.07Z"/>
        <path class="cls-1" d="M14.33,27.73s-.01,0-.02.01c-.06,0-.11.01-.16.02,0,0-.01,0-.02,0,.07-.01.13-.02.2-.02Z"/>
        <path class="cls-1" d="M19.1,26.34s-.01-.09-.03-.12c.15.02.3.03.45.05-.02,0-.04.02-.05.03-.1.03-.26-.01-.37.04Z"/>
        <path class="cls-1" d="M15.69,26c-.1,0-.18.09-.23.11-.25-.06-.5-.11-.79-.15-.05.02-.14.02-.23.07-.05-.03-.11-.06-.17-.09.65.01,1.3.03,1.98.06-.18,0-.37,0-.56,0Z"/>
        <path class="cls-1" d="M31.22,27.22c-.86.06-1.85-.17-2.69.07.98.14,2.34.2,2.48.57.15.38-1.34.03-2.11.05q.1.04.2.08c-.1-.04-.2-.08-.29-.04.2.08.6.15.71.28l-.18.09c.52.28,1.49.34,2.01.63-2.53-.91-6.04-.53-9.12-.45-1.72.13-3.31.46-4.81.84-.28.05-.96.02-1.45,0-.86.06-1.72.13-2.57.28-1.81.17-3.56-.04-5.49,0-.38,0-.91-.36.04-.47.79-.13,1.58-.18,2.38-.18-.09.12-.47.05-.65.13.59.07,1.07.1,1.65.09-.38,0-.77.02-1.15.03.96-.02,2.02,0,3.07-.08.39,0,.72.36,1.27.1-1.37-.13-2.78-.27-4.19-.27,0,0,0,0,0,0-.63.02-1.2,0-1.8,0,.19-.02.38-.04.55-.02-.88-.1-1.75-.13-2.62-.15,2.45-.4,5.19-.13,7.68-.28-.7-.19-1.63.08-2.24-.16,1.14,0,2.28.03,3.45.08-.09.01-.17.03-.26.05.73.14,1.5.02,2.22.06.06,0,.13,0,.19.01-.06,0-.13,0-.19-.01-.67-.04-1.32-.08-1.97-.11.3-.04.61-.05.99-.02-.2-.08-.5-.11-.79-.15-.39,0-.77-.01-1.15-.02.59-.01,1.17-.07,1.71-.16-.8-.08-1.63-.09-2.43-.13.44-.01.88-.03,1.33-.04.74.04,1.49.07,2.24.1-.03,0-.06,0-.09,0,.06,0,.11,0,.17,0,.3,0,.59.02.89.02.27,0,.53-.05.79-.11.04,0,.09,0,.13,0-.08.04-.12.07.04.09.69.11,1.44-.08,2.23.07.21.04.49.02.79-.01.08.03.12.01.16-.02.06,0,.13-.01.2-.02.16,0,.32,0,.48-.03-.16,0-.32.02-.48.03-.06,0-.12,0-.18,0,.04-.03.08-.07.17-.07-1.11-.03-2.25-.07-3.41-.05.07-.03.17-.06.21-.08-.11.03-.23.06-.34.08-.37,0-.74.02-1.12.04.11-.02.21-.05.3-.1-1.06-.02-2.13.01-3.2.05-1-.05-2-.11-2.98-.15.53.11,1.09.16,1.66.19-1.51.05-3.02.07-4.53-.04.27-.13.65-.23.82-.4-.01-.08-.5-.11-.21-.16,1.03-.24,1.77-.03,2.19-.5.08-.13-1.08-.58-.7-.68.31-.04.87-.08,1.47-.11.17.01.35.02.54.02.02,0,.06-.02.11-.05.65-.02,1.27-.02,1.62,0,.13.01.25.02.38.03.07.03.12.06.17.1.08-.03.16-.06.24-.07.34.02.67.04,1.01.06.18.04.37.09.55.12,0-.03-.03-.07,0-.1.42.01.83.02,1.24.03.17.04.32.09.46.17.45-.26,1.48-.1,2.2-.14h0c.36,0,.73,0,1.09,0,.06.03.12.06.17.09.09-.04.19-.05.23-.07.29.04.54.09.79.15.05-.02.13-.11.23-.11.19,0,.38,0,.56,0,.21,0,.43.02.65.03.73.05,1.46.11,2.17.19.02.03.03.08.03.12.11-.05.27-.01.37-.04-.02.01-.03.03-.03.05.33-.07.39.03.68.07.07,0,.13-.04.19-.06.03,0,.06,0,.1.01.33.19.67.13,1.04.13.37.05.74.1,1.11.15.29.04.41.16.61.24Z"/>
        <path class="cls-1" d="M20.42,26.37c.35.04.69.09,1.04.13-.37,0-.7.06-1.04-.13Z"/>
        <path class="cls-1" d="M10.97,26.08c-.14-.08-.29-.14-.46-.17.88.02,1.76.02,2.66.03h0c-.72.05-1.75-.12-2.2.15Z"/>
        <path class="cls-1" d="M19.47,26.3s.03-.02.05-.03c0,0,0,0,0,0-.01.01-.03.02-.05.03Z"/>
        <path class="cls-1" d="M9.28,27.7s-.06,0-.09,0c.22-.02.43-.04.65-.05-.17.03-.37.04-.56.05Z"/>
        <path class="cls-1" d="M6.95,27.6c-.44.02-.88.03-1.33.04-.57-.03-1.13-.08-1.66-.19.99.04,1.98.09,2.99.15Z"/>
        <path class="cls-1" d="M9.27,25.97c-.18-.03-.37-.08-.55-.12.19,0,.37.02.55.02-.03.03,0,.07,0,.1Z"/>
        <path class="cls-1" d="M11.1,27.61s-.09,0-.13,0c.11-.03.23-.05.34-.08-.04.02-.14.05-.21.08Z"/>
        <path class="cls-1" d="M7.31,25.76c.14.01.27.02.41.03-.08.02-.16.04-.24.07-.04-.04-.1-.08-.17-.1Z"/>
        <path class="cls-1" d="M5.2,25.77c-.19,0-.37,0-.54-.02.21-.01.43-.02.65-.03-.05.03-.09.06-.11.05Z"/>
      </g>
      <g>
        <path class="cls-1" d="M11.79,1.49c.92.46,1.6,1.31,2,2.16-.17-.34-.36-.67-.59-.95.34.44.55.89.66,1.45-.13-.13-.2-.49-.35-.52-.56-1.17-1.52-2.21-2.8-2.71.61-.09.78.41,1.09.58Z"/>
        <path class="cls-1" d="M13.96,5.6c0-.13-.02-.26-.02-.38.02.13.04.27.02.38Z"/>
        <path class="cls-1" d="M5.73,4.72c-.01.14-.03.25-.04.35-.01-.12,0-.24.04-.35Z"/>
        <path class="cls-1" d="M10.03,1.5c-.07.01-.15.02-.22.02-.53-.09-1.08-.09-1.64.03.59-.14,1.27-.29,1.86-.05Z"/>
        <path class="cls-1" d="M10.52,1.87c.5.15.95.46,1.24.86-.3-.38-.74-.68-1.24-.86Z"/>
        <path class="cls-1" d="M7.62,7.19s.03-.02.05-.03c.01,0,.02,0,.04,0,.06.1.13.22.22.31-.03,0-.08,0-.11-.01-.08-.13-.04-.21-.19-.27Z"/>
        <path class="cls-1" d="M5.76,4.59v-.02s0-.08,0-.12h.01c0,.05-.02.1-.02.14Z"/>
        <path class="cls-1" d="M7.52,7.07s.06-.06.08-.09c.03.06.07.12.1.18h-.04c-.05-.01-.07-.09-.15-.1Z"/>
        <path class="cls-1" d="M7.34,5.59s-.08-.08-.1-.1c.06-.1.14-.19.19-.3-.02-.02,0-.06-.04-.1.04-.01.07-.03.1-.04-.08.23-.13.49-.13.77-.01-.07-.02-.15-.01-.23Z"/>
        <path class="cls-1" d="M12.53,5.69c.05.59-.35,1.11-.44,1.67.51-.46.71-1.4,1.07-1.5.19-.05.19.23.08.58-.11.35-.35.74-.48,1q.07-.05.14-.11c-.07.06-.14.11-.14.19.15-.1.36-.36.5-.41l.03.18c.46-.3.71-1.18.97-1.69-.45,1.24-1.09,2.44-2.15,3.33-1.05.89-2.58,1.34-3.94,1-1.52-.27-2.95-1.15-3.85-2.54-.16-.26-.31-.99-.3-1.51-.12-.91,0-1.86.31-2.78C5.1,1.17,7.16.03,9.3,0c.45,0,.95.4-.04.47-.81.14-1.57.39-2.27.76.03-.14.4-.26.54-.39-.59.15-1.05.39-1.51.77.31-.26.63-.49.99-.67-.89.45-1.75,1.24-2.21,2.23-.16.34-.68.55-.56,1.2.47-1.38,1.51-2.48,2.74-3.14h0c.54-.3,1.1-.45,1.7-.54-.18.04-.37.09-.53.12.87-.11,1.72-.05,2.53.2-1.18-.15-2.4,0-3.47.55-1.06.54-1.91,1.53-2.18,2.64.36-.52.58-1.38,1.15-1.62-.7.71-1.16,1.67-1.29,2.7,0-.07-.02-.14-.03-.23-.22.64-.04,1.37.15,2l.05.17c-.02-.06-.03-.12-.05-.17-.16-.59-.19-1.19-.12-1.76.03.27.03.54.05.88.06-.19.07-.44.12-.69.02-.33.07-.66.17-.97-.12.49-.11,1,.02,1.43.03-.66.14-1.32.44-1.9-.12.33-.21.67-.24,1.02-.12.57-.12,1.18.05,1.77l-.03-.06s.03.09.05.13c.07.23.16.45.27.67.12.18.27.34.45.46l.06.08c-.07-.03-.12-.03-.05.08.29.51.88.75,1.39,1.14.14.11.37.17.61.21.06.04.1.04.13.02.05,0,.11.02.16.02.13.02.26.04.39.02-.12-.01-.26-.02-.39-.02-.05,0-.09-.02-.14-.03.04-.02.08-.05.15-.04-.86-.2-1.66-.71-2.25-1.4.06.03.13.05.17.07-.08-.05-.16-.09-.23-.15-.18-.23-.36-.47-.5-.73.06.07.12.13.19.17-.37-.73-.56-1.57-.47-2.41.16-.77.56-1.47,1.1-1.99-.35.22-.65.57-.86.97.43-1.12,1.46-2.05,2.66-2.22-.18.17-.41.37-.45.57.04.06.36-.01.2.1-.53.46-1.01.65-.85,1.16.07.08.81.06.72.26-.08.12-.23.31-.35.53-.05.05-.09.12-.14.18-.01,0,0,.03.02.06-.1.25-.16.49-.2.62-.02.05-.04.1-.05.15-.03.03-.06.05-.11.07.03.04.05.07.07.1-.02.15-.02.29,0,.43-.01.08-.05.18-.05.27.03-.01.06-.04.09-.03.04.18.11.35.21.5,0,.09,0,.17-.02.27.33,0,.54.43.87.54h0c.14.07.29.13.45.17.02.03.04.07.06.11.05-.03.09-.03.12-.05.1.05.23.12.36.18.02-.02.06-.11.11-.12.09,0,.18,0,.26-.03.1,0,.2-.02.3-.03.34-.05.69-.17,1.01-.35.03.02.06.05.09.08,0-.08.1-.1.11-.16,0,.02.01.03.03.05.06-.18.17-.13.29-.24.02-.03,0-.08.02-.12.01-.01.03-.02.04-.04.26-.05.3-.26.38-.45.12-.18.23-.37.31-.58.07-.17.18-.23.27-.36Z"/>
        <path class="cls-1" d="M7.95,7.51c.11.13.23.25.37.37-.16-.08-.35-.11-.37-.37Z"/>
        <path class="cls-1" d="M8.13,3.93c.09.03.18.05.25.05-.3.15-.55.4-.72.7h0c.11-.28.49-.44.48-.74Z"/>
        <path class="cls-1" d="M7.67,7.17h.04s0,0,0,0c-.01,0-.03,0-.04,0Z"/>
        <path class="cls-1" d="M8.31,2.06h.06c-.15.04-.29.12-.44.18.11-.07.23-.14.38-.18Z"/>
        <path class="cls-1" d="M10,2.08c.31.05.63.13.92.26.36.21.66.5.84.83-.46-.51-1.06-.91-1.77-1.1Z"/>
        <path class="cls-1" d="M8.79,3.73c.08.02.15.04.23.07-.07,0-.14.01-.2.02,0-.03-.02-.07-.03-.1Z"/>
        <path class="cls-1" d="M7.17,2.73l.08-.06c-.05.07-.09.14-.14.21.02-.04.04-.1.07-.15Z"/>
        <path class="cls-1" d="M9.53,3.87s-.09-.02-.14-.04c.03-.02.06-.04.09-.07.01.04.03.08.05.11Z"/>
        <path class="cls-1" d="M10.23,4.1c.06.03.11.08.14.12-.06-.04-.13-.07-.2-.1.03-.02.05-.03.06-.02Z"/>
      </g>
      <g>
        <path class="cls-1" d="M24.46,12.67c.92.46,1.6,1.31,2,2.16-.17-.34-.36-.67-.59-.95.34.44.55.89.66,1.45-.13-.13-.2-.49-.35-.52-.56-1.17-1.52-2.21-2.8-2.71.61-.09.78.41,1.09.58Z"/>
        <path class="cls-1" d="M26.63,16.79c0-.13-.02-.26-.02-.38.02.13.04.27.02.38Z"/>
        <path class="cls-1" d="M18.4,15.91c-.01.14-.03.25-.04.35-.01-.12,0-.24.04-.35Z"/>
        <path class="cls-1" d="M22.69,12.69c-.07.01-.15.02-.22.02-.53-.09-1.08-.09-1.64.03.59-.14,1.27-.29,1.86-.05Z"/>
        <path class="cls-1" d="M23.19,13.06c.5.15.95.46,1.24.86-.3-.38-.74-.68-1.24-.86Z"/>
        <path class="cls-1" d="M20.28,18.38s.03-.02.05-.03c.01,0,.02,0,.04,0,.06.1.13.22.22.31-.03,0-.08,0-.11-.01-.08-.13-.04-.21-.19-.27Z"/>
        <path class="cls-1" d="M18.42,15.78v-.02s0-.08,0-.12h.01c0,.05-.02.1-.02.14Z"/>
        <path class="cls-1" d="M20.19,18.25s.06-.06.08-.09c.03.06.07.12.1.18h-.04c-.05-.01-.07-.09-.15-.1Z"/>
        <path class="cls-1" d="M20.01,16.78s-.08-.08-.1-.1c.06-.1.14-.19.19-.3-.02-.02,0-.06-.04-.1.04-.01.07-.03.1-.04-.08.23-.13.49-.13.77-.01-.07-.02-.15-.01-.23Z"/>
        <path class="cls-1" d="M25.19,16.87c.05.59-.35,1.11-.44,1.67.51-.46.71-1.4,1.07-1.5.19-.05.19.23.08.58-.11.35-.35.74-.48,1q.07-.05.14-.11c-.07.06-.14.11-.14.19.15-.1.36-.36.5-.41l.03.18c.46-.3.71-1.18.97-1.69-.45,1.24-1.09,2.44-2.15,3.33-1.05.89-2.58,1.34-3.94,1-1.52-.27-2.96-1.15-3.85-2.54-.16-.26-.31-.99-.3-1.51-.12-.91,0-1.86.31-2.78.78-1.93,2.84-3.07,4.98-3.1.45,0,.95.4-.04.47-.81.14-1.57.39-2.27.76.03-.14.4-.26.54-.39-.59.15-1.05.39-1.51.77.31-.26.63-.49.99-.67-.89.45-1.75,1.24-2.21,2.23-.16.34-.68.55-.56,1.2.47-1.38,1.51-2.48,2.74-3.14h0c.54-.3,1.1-.45,1.7-.54-.18.04-.37.09-.53.12.87-.11,1.72-.05,2.53.2-1.18-.15-2.4,0-3.47.55-1.06.54-1.91,1.53-2.18,2.64.36-.52.58-1.38,1.15-1.62-.7.71-1.16,1.67-1.29,2.7,0-.07-.02-.14-.03-.23-.22.64-.04,1.37.15,2l.05.17c-.02-.06-.03-.12-.05-.17-.16-.59-.19-1.19-.12-1.76.03.27.03.54.05.88.06-.19.07-.44.12-.69.02-.33.07-.66.17-.97-.12.49-.11,1,.02,1.43.03-.66.14-1.32.44-1.9-.12.33-.21.67-.24,1.02-.12.57-.12,1.18.05,1.77l-.03-.06s.03.09.05.13c.07.23.16.45.27.67.12.18.27.34.45.46l.06.08c-.07-.03-.12-.03-.05.08.29.51.88.75,1.39,1.14.14.11.37.17.61.21.06.04.1.04.13.02.05,0,.11.02.16.02.13.02.26.04.39.02-.12-.01-.26-.02-.39-.02-.05,0-.09-.02-.14-.03.04-.02.08-.05.15-.04-.86-.2-1.66-.71-2.25-1.4.06.03.13.05.17.07-.08-.05-.16-.09-.23-.15-.18-.23-.36-.47-.5-.73.06.07.12.13.19.17-.37-.73-.56-1.57-.47-2.41.16-.77.56-1.47,1.1-1.99-.35.22-.65.57-.86.97.43-1.12,1.46-2.05,2.66-2.22-.18.17-.41.37-.45.57.04.06.36-.01.2.1-.53.46-1.01.65-.85,1.16.07.08.81.06.72.26-.08.12-.23.31-.35.53-.05.05-.09.12-.14.18-.01,0,0,.03.02.06-.1.25-.16.49-.2.62-.02.05-.04.1-.05.15-.03.03-.06.05-.11.07.03.04.05.07.07.1-.02.15-.02.29,0,.43-.01.08-.05.18-.05.27.03-.01.06-.04.09-.03.04.18.11.35.21.5,0,.09,0,.17-.02.27.33,0,.54.43.87.54h0c.14.07.29.13.45.17.02.03.04.07.06.11.05-.03.1-.03.12-.05.1.05.23.12.36.18.02-.02.06-.11.11-.12.09,0,.18,0,.26-.03.1,0,.2-.02.3-.03.34-.05.69-.17,1.01-.35.03.02.06.05.09.08,0-.08.1-.1.11-.16,0,.02.01.03.03.05.06-.18.17-.13.29-.24.02-.03,0-.08.02-.12.01-.01.03-.02.04-.04.26-.05.3-.26.38-.45.12-.18.23-.37.31-.58.07-.17.18-.23.27-.36Z"/>
        <path class="cls-1" d="M20.61,18.7c.11.13.23.25.37.37-.16-.08-.35-.11-.37-.37Z"/>
        <path class="cls-1" d="M20.8,15.12c.09.03.18.05.25.05-.3.15-.55.4-.72.7h0c.11-.28.49-.44.48-.74Z"/>
        <path class="cls-1" d="M20.33,18.35h.04s0,0,0,0c-.01,0-.03,0-.04,0Z"/>
        <path class="cls-1" d="M20.98,13.25h.06c-.15.04-.29.12-.44.18.11-.07.23-.14.38-.18Z"/>
        <path class="cls-1" d="M22.66,13.27c.31.05.63.13.92.26.36.21.66.5.84.83-.46-.51-1.06-.91-1.77-1.1Z"/>
        <path class="cls-1" d="M21.46,14.91c.08.02.15.04.23.07-.07,0-.14.01-.2.02,0-.03-.02-.07-.03-.1Z"/>
        <path class="cls-1" d="M19.84,13.92l.08-.06c-.05.07-.09.14-.14.21.02-.04.04-.1.07-.15Z"/>
        <path class="cls-1" d="M22.2,15.06s-.09-.02-.14-.04c.03-.02.06-.04.09-.07.01.04.03.08.05.11Z"/>
        <path class="cls-1" d="M22.89,15.29c.06.03.11.08.15.12-.06-.04-.13-.07-.2-.1.03-.02.05-.03.06-.02Z"/>
      </g>
      <g>
        <path class="cls-1" d="M11.79,23.58c.92.46,1.6,1.31,2,2.16-.17-.34-.36-.67-.59-.95.34.44.55.89.66,1.45-.13-.13-.2-.49-.35-.52-.56-1.17-1.52-2.21-2.8-2.71.61-.09.78.41,1.09.58Z"/>
        <path class="cls-1" d="M13.96,27.69c0-.13-.02-.26-.02-.38.02.13.04.27.02.38Z"/>
        <path class="cls-1" d="M5.73,26.81c-.01.14-.03.25-.04.35-.01-.12,0-.24.04-.35Z"/>
        <path class="cls-1" d="M10.03,23.59c-.07.01-.15.02-.22.02-.53-.09-1.08-.09-1.64.03.59-.14,1.27-.29,1.86-.05Z"/>
        <path class="cls-1" d="M10.52,23.96c.5.15.95.46,1.24.86-.3-.38-.74-.68-1.24-.86Z"/>
        <path class="cls-1" d="M7.62,29.28s.03-.02.05-.03c.01,0,.02,0,.04,0,.06.1.13.22.22.31-.03,0-.08,0-.11-.01-.08-.13-.04-.21-.19-.27Z"/>
        <path class="cls-1" d="M5.76,26.68v-.02s0-.08,0-.12h.01c0,.05-.02.1-.02.14Z"/>
        <path class="cls-1" d="M7.52,29.16s.06-.06.08-.09c.03.06.07.12.1.18h-.04c-.05-.01-.07-.09-.15-.1Z"/>
        <path class="cls-1" d="M7.34,27.68s-.08-.08-.1-.1c.06-.1.14-.19.19-.3-.02-.02,0-.06-.04-.1.04-.01.07-.03.1-.04-.08.23-.13.49-.13.77-.01-.07-.02-.15-.01-.23Z"/>
        <path class="cls-1" d="M12.53,27.78c.05.59-.35,1.11-.44,1.67.51-.46.71-1.4,1.07-1.5.19-.05.19.23.08.58-.11.35-.35.74-.48,1q.07-.05.14-.11c-.07.06-.14.11-.14.19.15-.1.36-.36.5-.41l.03.18c.46-.3.71-1.18.97-1.69-.45,1.24-1.09,2.44-2.15,3.33-1.05.89-2.58,1.34-3.94,1-1.52-.27-2.95-1.15-3.85-2.54-.16-.26-.31-.99-.3-1.51-.12-.91,0-1.86.31-2.78.78-1.93,2.84-3.07,4.98-3.1.45,0,.95.4-.04.47-.81.14-1.57.39-2.27.76.03-.14.4-.26.54-.39-.59.15-1.05.39-1.51.77.31-.26.63-.49.99-.67-.89.45-1.75,1.24-2.21,2.23-.16.34-.68.55-.56,1.2.47-1.38,1.51-2.48,2.74-3.14h0c.54-.3,1.1-.45,1.7-.54-.18.04-.37.09-.53.12.87-.11,1.72-.05,2.53.2-1.18-.15-2.4,0-3.47.55-1.06.54-1.91,1.53-2.18,2.64.36-.52.58-1.38,1.15-1.62-.7.71-1.16,1.67-1.29,2.7,0-.07-.02-.14-.03-.23-.22.64-.04,1.37.15,2l.05.17c-.02-.06-.03-.12-.05-.17-.16-.59-.19-1.19-.12-1.76.03.27.03.54.05.88.06-.19.07-.44.12-.69.02-.33.07-.66.17-.97-.12.49-.11,1,.02,1.43.03-.66.14-1.32.44-1.9-.12.33-.21.67-.24,1.02-.12.57-.12,1.18.05,1.77l-.03-.06s.03.09.05.13c.07.23.16.45.27.67.12.18.27.34.45.46l.06.08c-.07-.03-.12-.03-.05.08.29.51.88.75,1.39,1.14.14.11.37.17.61.21.06.04.1.04.13.02.05,0,.11.02.16.02.13.02.26.03.39.02-.12-.01-.26-.02-.39-.02-.05,0-.09-.02-.14-.03.04-.02.08-.05.15-.04-.86-.2-1.66-.71-2.25-1.4.06.03.13.05.17.07-.08-.05-.16-.09-.23-.15-.18-.23-.36-.47-.5-.73.06.07.12.13.19.17-.37-.73-.56-1.57-.47-2.41.16-.77.56-1.47,1.1-1.99-.35.22-.65.57-.86.97.43-1.12,1.46-2.05,2.66-2.22-.18.17-.41.37-.45.57.04.06.36-.01.2.1-.53.46-1.01.65-.85,1.16.07.08.81.06.72.26-.08.12-.23.31-.35.53-.05.05-.09.12-.14.18-.01,0,0,.03.02.06-.1.25-.16.49-.2.62-.02.05-.04.1-.05.15-.03.03-.06.05-.11.07.03.04.05.07.07.1-.02.15-.02.29,0,.43-.01.08-.05.18-.05.27.03-.01.06-.04.09-.03.04.18.11.35.21.5,0,.09,0,.17-.02.27.33,0,.54.43.87.54h0c.14.07.29.13.45.17.02.03.04.07.06.11.05-.03.09-.03.12-.05.1.05.23.12.36.18.02-.02.06-.11.11-.12.09,0,.18,0,.26-.03.1,0,.2-.02.3-.03.34-.05.69-.17,1.01-.35.03.02.06.05.09.08,0-.08.1-.1.11-.16,0,.02.01.03.03.05.06-.18.17-.13.29-.24.02-.03,0-.08.02-.12.01-.01.03-.02.04-.04.26-.05.3-.26.38-.45.12-.18.23-.37.31-.58.07-.17.18-.23.27-.36Z"/>
        <path class="cls-1" d="M7.95,29.6c.11.13.23.25.37.37-.16-.08-.35-.11-.37-.37Z"/>
        <path class="cls-1" d="M8.13,26.02c.09.03.18.05.25.05-.3.15-.55.4-.72.7h0c.11-.28.49-.44.48-.74Z"/>
        <path class="cls-1" d="M7.67,29.26h.04s0,0,0,0c-.01,0-.03,0-.04,0Z"/>
        <path class="cls-1" d="M8.31,24.15h.06c-.15.04-.29.12-.44.18.11-.07.23-.14.38-.18Z"/>
        <path class="cls-1" d="M10,24.17c.31.05.63.13.92.26.36.21.66.5.84.83-.46-.51-1.06-.91-1.77-1.1Z"/>
        <path class="cls-1" d="M8.79,25.82c.08.02.15.04.23.07-.07,0-.14.01-.2.02,0-.03-.02-.07-.03-.1Z"/>
        <path class="cls-1" d="M7.17,24.82l.08-.06c-.05.07-.09.14-.14.21.02-.04.04-.1.07-.15Z"/>
        <path class="cls-1" d="M9.53,25.96s-.09-.02-.14-.04c.03-.02.06-.04.09-.07.01.04.03.08.05.11Z"/>
        <path class="cls-1" d="M10.23,26.19c.06.03.11.08.14.12-.06-.04-.13-.07-.2-.1.03-.02.05-.03.06-.02Z"/>
      </g>
    </g>
  </g>
</svg>