<?xml version="1.0" encoding="UTF-8"?>
<svg id="Calque_2" data-name="Calque 2" xmlns="http://www.w3.org/2000/svg" viewBox="0 0 31.76 32.54">
  <defs>
    <style>
      .cls-1 {
        fill: #fff;
        stroke-width: 0px;
      }
    </style>
  </defs>
  <g id="Calque_1-2" data-name="Calque 1">
    <g id="Partager">
      <g>
        <path class="cls-1" d="M23.24,3.56c-.65.45-1.17,1.08-1.44,1.74.11-.26.24-.52.41-.75-.24.35-.45.65-.65,1.06-.04-.16.13-.4.06-.51.47-1.02,1.52-1.69,2.51-1.83-.28.37-.64.12-.9.29Z"/>
        <path class="cls-1" d="M21.24,6.77c0-.11,0-.22.01-.33,0,.12.01.23-.01.33Z"/>
        <path class="cls-1" d="M29.87,5.62c.06.15.1.3.12.45-.05-.15-.07-.3-.12-.45Z"/>
        <path class="cls-1" d="M24.42,2.45c.07-.03.14-.06.22-.08.58-.04,1.17.04,1.71.24-.61-.2-1.29-.13-1.93-.16Z"/>
        <path class="cls-1" d="M23.75,2.36c-.58.2-1.15.46-1.68.76.52-.32,1.08-.59,1.68-.76Z"/>
        <path class="cls-1" d="M29.71,11.01s.02.04.02.06c-.01.02-.02.05-.02.07-.26.22-.52.43-.81.59.06-.06.09-.14.16-.19.29-.21.44-.18.66-.53Z"/>
        <path class="cls-1" d="M29.82,5.45h-.02c-.02-.06-.04-.11-.06-.16,0,0,0-.01,0-.02.04.06.06.12.08.18Z"/>
        <path class="cls-1" d="M30,10.71s.07.04.12.04c-.13.14-.28.27-.41.4,0-.02.02-.05.02-.07.06-.11.23-.23.28-.37Z"/>
        <path class="cls-1" d="M31.74,6.74c0-.13-.1-.24-.12-.29.05-.32.05-.66.02-1.05-.04-.05-.07-.18-.14-.28.02-.08.03-.16.03-.25.24.83.31,1.72.18,2.61.01-.24.02-.47.04-.74Z"/>
        <path class="cls-1" d="M19.81,6.91c.04.46.08.95.2,1.44.14.48.34.95.69,1.26-.5-.94-.64-2.37-.24-2.52.18-.08.2.23.25.64.05.41.17.93.34,1.25q0-.1-.01-.21c0,.1,0,.21.09.26-.02-.21-.11-.56-.02-.7l.14.11c.07-.51-.01-1.28.29-1.67-.49.93-.12,2.37.92,3.24,1.03.89,2.56,1.08,3.76.69,1.36-.48,2.05-1.82,1.99-2.84.03-.18.15-.6.19-.92-.03-.57-.22-1.11-.58-1.49-.61-.84-1.44-1.65-2.64-1.63-.21.02-.62-.33.03-.46.55-.12,1.14-.02,1.65.24-.12.08-.32-.11-.48-.06.35.21.62.4.94.63-.21-.15-.43-.3-.67-.39.6.26,1.13.78,1.54,1.38.13.25-.12.56.21.83-.08-.91-.62-1.91-1.54-2.39h0c-.41-.21-.8-.34-1.24-.39.14,0,.28,0,.39.06-.6-.27-1.29-.25-1.93-.1.83-.47,2-.43,2.92.06.94.48,1.62,1.36,1.99,2.29,0-.63-.64-1.15-.82-1.65.68.69,1.06,1.64,1.08,2.61-.02-.07-.03-.14-.07-.2-.06.59,0,1.22-.23,1.78l-.07.14s.04-.1.07-.14c.21-.49.31-1.03.3-1.57.06.24.06.51,0,.82.1-.16.16-.41.18-.66,0-.33-.04-.67-.12-.99.14.49.25.99.3,1.48.13-.71.02-1.49-.23-2.18.16.37.31.76.37,1.17.06.69-.03,1.39-.26,2.04,0-.02.01-.05.01-.08,0,.05-.03.1-.04.15-.09.25-.21.5-.34.73-.12.21-.2.44-.31.67l-.07.1c.02-.09.01-.14-.09-.03-.47.4-.91.98-1.64,1.15-.18.04-.41.15-.66.25-.08,0-.11.02-.14.05-.06.02-.11.05-.17.06-.14.03-.29.05-.43.1.14-.02.29-.06.43-.1.05,0,.11-.03.16-.05-.03.04-.06.09-.14.11,1-.17,2-.7,2.68-1.55-.03.07-.05.15-.07.2.05-.1.1-.19.14-.3.21-.28.39-.58.5-.9-.03.1-.04.2-.04.3.49-.87.66-1.93.47-2.91-.08-.93-.44-1.85-1.07-2.58.26.45.52.91.69,1.41-.61-1.26-1.74-2.21-3.07-2.65.28-.08.65-.03.88-.12.03-.09-.44-.29-.14-.23,1.13.19,1.59.93,2.24.92.08-.01-.03-.34-.15-.63-.11-.3-.25-.55-.02-.44.34.22.91.67,1.38,1.3.12.21.23.41.35.61,0,.03.05.06.11.11.41.75.62,1.56.64,2.01.01.17.03.33.02.5-.02.09-.05.16-.09.22.04.1.07.2.08.31-.03.44-.1.86-.2,1.28-.1.22-.19.44-.3.65.03,0,.08-.02.09.03-.18.5-.42.98-.71,1.41-.14.16-.31.28-.48.37-.12.63-1.22,1.44-2.03,1.83h0c-.41.21-.85.38-1.3.48-.08,0-.16-.02-.23-.04-.1.07-.22.09-.27.12-.37.03-.69-.02-.99-.06-.05.03-.16.1-.28.1-.24-.02-.47-.03-.7-.07-.27-.04-.52-.12-.78-.2-.87-.29-1.64-.81-2.24-1.44,0-.04.03-.08.05-.12-.13-.05-.25-.2-.35-.27.03,0,.05,0,.06-.01-.31-.24-.29-.36-.47-.66-.05-.06-.13-.09-.18-.15-.02-.03-.04-.07-.05-.1-.05-.43-.28-.73-.43-1.13-.11-.42-.18-.84-.18-1.26-.02-.33.12-.47.18-.69Z"/>
        <path class="cls-1" d="M28.79,11.8c-.37.22-.77.39-1.17.52.42-.19.73-.43,1.17-.52Z"/>
        <path class="cls-1" d="M28.93,1.48c-.09-.18-.24-.32-.41-.47,1.02.61,1.86,1.47,2.44,2.52h0c-.46-.82-1.36-1.94-2.02-2.04Z"/>
        <path class="cls-1" d="M29.73,11.08s-.01.04-.02.07h0s.01-.04.02-.07Z"/>
        <path class="cls-1" d="M26.51,2.09l-.08-.02c.21.02.41.1.62.16-.17-.02-.35-.09-.54-.13Z"/>
        <path class="cls-1" d="M24.23,1.89c-.43.11-.85.25-1.23.46-.52.22-1,.51-1.47.81.75-.69,1.7-1.14,2.7-1.27Z"/>
        <path class="cls-1" d="M26.97.42c-.22-.09-.45-.21-.7-.28.25.04.49.12.72.18-.05.02-.03.07-.03.1Z"/>
        <path class="cls-1" d="M28.14,2.8l-.11-.08c.1.04.21.09.32.14-.05-.02-.14-.04-.22-.06Z"/>
        <path class="cls-1" d="M24.37.01c.19-.02.37,0,.55-.01-.11.02-.21.05-.32.09-.06-.04-.14-.07-.23-.08Z"/>
        <path class="cls-1" d="M21.66.95c-.22.12-.43.26-.62.4.22-.19.47-.36.73-.52-.04.06-.08.11-.11.12Z"/>
      </g>
      <g>
        <path class="cls-1" d="M3.6,13.32c-.65.45-1.17,1.08-1.44,1.74.11-.26.24-.52.41-.75-.24.35-.45.65-.65,1.06-.04-.16.13-.4.06-.51.47-1.02,1.52-1.69,2.51-1.83-.28.37-.64.12-.9.29Z"/>
        <path class="cls-1" d="M1.6,16.54c0-.11,0-.22.01-.33,0,.12.01.23-.01.33Z"/>
        <path class="cls-1" d="M10.24,15.38c.06.15.1.3.12.45-.05-.15-.07-.3-.12-.45Z"/>
        <path class="cls-1" d="M4.79,12.21c.07-.03.14-.06.22-.08.58-.04,1.17.04,1.71.24-.61-.2-1.29-.13-1.93-.16Z"/>
        <path class="cls-1" d="M4.12,12.12c-.58.2-1.15.46-1.68.76.52-.32,1.08-.59,1.68-.76Z"/>
        <path class="cls-1" d="M10.08,20.78s.02.04.02.06c-.01.02-.02.05-.02.07-.26.22-.52.43-.81.59.06-.06.09-.14.16-.19.29-.21.44-.18.66-.53Z"/>
        <path class="cls-1" d="M10.19,15.21h-.02c-.02-.06-.04-.11-.06-.16,0,0,0-.01,0-.02.04.06.06.12.08.18Z"/>
        <path class="cls-1" d="M10.37,20.47s.07.04.12.04c-.13.14-.28.27-.41.4,0-.02.02-.05.02-.07.06-.11.23-.23.28-.37Z"/>
        <path class="cls-1" d="M12.1,16.51c0-.13-.1-.24-.12-.29.05-.32.05-.66.02-1.05-.04-.05-.07-.18-.14-.28.02-.08.03-.16.03-.25.24.83.31,1.72.18,2.61.01-.24.02-.47.04-.74Z"/>
        <path class="cls-1" d="M.18,16.68c.04.46.08.95.2,1.44.14.48.34.95.69,1.26-.5-.94-.64-2.37-.24-2.52.18-.08.2.23.25.64.05.41.17.93.34,1.25q0-.1-.01-.21c0,.1,0,.21.09.26-.02-.21-.11-.56-.02-.7l.14.11c.07-.51-.01-1.28.29-1.67-.49.93-.12,2.37.92,3.24,1.03.89,2.56,1.08,3.76.69,1.36-.48,2.05-1.82,1.99-2.84.03-.18.15-.6.19-.92-.03-.57-.22-1.11-.58-1.49-.61-.84-1.44-1.65-2.64-1.63-.21.02-.62-.33.03-.46.55-.12,1.14-.02,1.65.24-.12.08-.32-.11-.48-.06.35.21.62.4.94.63-.21-.15-.43-.3-.67-.39.6.26,1.13.78,1.54,1.38.13.25-.12.56.21.83-.08-.91-.62-1.91-1.54-2.39h0c-.41-.21-.8-.34-1.24-.39.14,0,.28,0,.39.06-.6-.27-1.29-.25-1.93-.1.83-.47,2-.43,2.92.06.94.48,1.62,1.36,1.99,2.29,0-.63-.64-1.15-.82-1.65.68.69,1.06,1.64,1.08,2.61-.02-.07-.03-.14-.07-.2-.06.59,0,1.22-.23,1.78l-.07.14s.04-.1.07-.14c.21-.49.31-1.03.3-1.57.06.24.06.51,0,.82.1-.16.16-.41.18-.66,0-.33-.04-.67-.12-.99.14.49.25.99.3,1.48.13-.71.02-1.49-.23-2.18.16.37.31.76.37,1.17.06.69-.03,1.39-.26,2.04,0-.02.01-.05.01-.08,0,.05-.03.1-.04.15-.09.25-.21.5-.34.73-.12.21-.2.44-.31.67l-.07.1c.02-.09.01-.14-.09-.03-.47.4-.91.98-1.64,1.15-.18.04-.41.15-.66.25-.08,0-.11.02-.14.05-.06.02-.11.05-.17.06-.14.03-.29.05-.43.1.14-.02.29-.06.43-.1.05,0,.11-.03.16-.05-.03.04-.06.09-.14.11,1-.17,2-.7,2.68-1.55-.03.07-.05.15-.07.2.05-.1.1-.19.14-.3.21-.28.39-.58.5-.9-.03.1-.04.2-.04.3.49-.87.66-1.93.47-2.91-.08-.93-.44-1.85-1.07-2.58.26.45.52.91.69,1.41-.61-1.26-1.74-2.21-3.07-2.65.28-.08.65-.03.88-.12.03-.09-.44-.29-.14-.23,1.13.19,1.59.93,2.24.92.08-.01-.03-.34-.15-.63-.11-.3-.25-.55-.02-.44.34.22.91.67,1.38,1.3.12.21.23.41.35.61,0,.03.05.06.11.11.41.75.62,1.56.64,2.01.01.17.03.33.02.5-.02.09-.05.16-.09.22.04.1.07.2.08.31-.03.44-.1.86-.2,1.28-.1.22-.19.44-.3.65.03,0,.08-.02.09.03-.18.5-.42.98-.71,1.41-.14.16-.31.28-.48.37-.12.63-1.22,1.44-2.03,1.83h0c-.41.21-.85.38-1.3.48-.08,0-.16-.02-.23-.04-.1.07-.22.09-.27.12-.37.03-.69-.02-.99-.06-.05.03-.16.1-.28.1-.24-.02-.47-.03-.7-.07-.27-.04-.52-.12-.78-.2-.87-.29-1.64-.81-2.24-1.44,0-.04.03-.08.05-.12-.13-.05-.25-.2-.35-.27.03,0,.05,0,.06-.01-.31-.24-.29-.36-.47-.66-.05-.06-.13-.09-.18-.15-.02-.03-.04-.07-.05-.1-.05-.43-.28-.73-.43-1.13-.11-.42-.18-.84-.18-1.26-.02-.33.12-.47.18-.69Z"/>
        <path class="cls-1" d="M9.16,21.56c-.37.22-.77.39-1.17.52.42-.19.73-.43,1.17-.52Z"/>
        <path class="cls-1" d="M9.3,11.25c-.09-.18-.24-.32-.41-.47,1.02.61,1.86,1.47,2.44,2.52h0c-.46-.82-1.36-1.94-2.02-2.04Z"/>
        <path class="cls-1" d="M10.1,20.84s-.01.04-.02.07h0s.01-.04.02-.07Z"/>
        <path class="cls-1" d="M6.87,11.86l-.08-.02c.21.02.41.1.62.16-.17-.02-.35-.09-.54-.13Z"/>
        <path class="cls-1" d="M4.6,11.65c-.43.11-.85.25-1.23.46-.52.22-1,.51-1.47.81.75-.69,1.7-1.14,2.7-1.27Z"/>
        <path class="cls-1" d="M7.34,10.19c-.23-.09-.45-.21-.7-.28.25.04.49.12.72.18-.05.02-.03.07-.03.1Z"/>
        <path class="cls-1" d="M8.51,12.57l-.11-.08c.1.04.21.09.32.14-.05-.02-.14-.04-.22-.06Z"/>
        <path class="cls-1" d="M4.73,9.77c.19-.02.37,0,.55-.01-.11.02-.21.05-.32.09-.06-.04-.14-.07-.23-.08Z"/>
        <path class="cls-1" d="M2.03,10.72c-.22.12-.43.26-.62.4.22-.19.47-.36.73-.52-.04.06-.08.11-.11.12Z"/>
      </g>
      <g>
        <path class="cls-1" d="M23.24,23.09c-.65.45-1.17,1.08-1.44,1.74.11-.26.24-.52.41-.75-.24.35-.45.65-.65,1.06-.04-.16.13-.4.06-.51.47-1.02,1.52-1.69,2.51-1.83-.28.37-.64.12-.9.29Z"/>
        <path class="cls-1" d="M21.24,26.3c0-.11,0-.22.01-.33,0,.12.01.23-.01.33Z"/>
        <path class="cls-1" d="M29.87,25.14c.06.15.1.3.12.45-.05-.15-.07-.3-.12-.45Z"/>
        <path class="cls-1" d="M24.42,21.98c.07-.03.14-.06.22-.08.58-.04,1.17.04,1.71.24-.61-.2-1.29-.13-1.93-.16Z"/>
        <path class="cls-1" d="M23.75,21.88c-.58.2-1.15.46-1.68.76.52-.32,1.08-.59,1.68-.76Z"/>
        <path class="cls-1" d="M29.71,30.54s.02.04.02.06c-.01.02-.02.05-.02.07-.26.22-.52.43-.81.59.06-.06.09-.14.16-.19.29-.21.44-.18.66-.53Z"/>
        <path class="cls-1" d="M29.82,24.98h-.02c-.02-.06-.04-.11-.06-.16,0,0,0-.01,0-.02.04.06.06.12.08.18Z"/>
        <path class="cls-1" d="M30,30.23s.07.04.12.04c-.13.14-.28.27-.41.4,0-.02.02-.05.02-.07.06-.11.23-.23.28-.37Z"/>
        <path class="cls-1" d="M31.74,26.27c0-.13-.1-.24-.12-.29.05-.32.05-.66.02-1.05-.04-.05-.07-.18-.14-.28.02-.08.03-.16.03-.25.24.83.31,1.72.18,2.61.01-.24.02-.47.04-.74Z"/>
        <path class="cls-1" d="M19.81,26.44c.04.46.08.95.2,1.44.14.48.34.95.69,1.26-.5-.94-.64-2.37-.24-2.52.18-.08.2.23.25.64.05.41.17.93.34,1.25q0-.1-.01-.21c0,.1,0,.21.09.26-.02-.21-.11-.56-.02-.7l.14.11c.07-.51-.01-1.28.29-1.67-.49.93-.12,2.37.92,3.24,1.03.89,2.56,1.08,3.76.69,1.36-.48,2.05-1.82,1.99-2.84.03-.18.15-.6.19-.92-.03-.57-.22-1.11-.58-1.49-.61-.84-1.44-1.65-2.64-1.63-.21.02-.62-.33.03-.46.55-.12,1.14-.02,1.65.24-.12.08-.32-.11-.48-.06.35.21.62.4.94.63-.21-.15-.43-.3-.67-.39.6.26,1.13.78,1.54,1.38.13.25-.12.56.21.83-.08-.91-.62-1.91-1.54-2.39h0c-.41-.21-.8-.34-1.24-.39.14,0,.28,0,.39.06-.6-.27-1.29-.25-1.93-.1.83-.47,2-.43,2.92.06.94.48,1.62,1.36,1.99,2.29,0-.63-.64-1.15-.82-1.65.68.69,1.06,1.64,1.08,2.61-.02-.07-.03-.14-.07-.2-.06.59,0,1.22-.23,1.78l-.07.14s.04-.1.07-.14c.21-.49.31-1.03.3-1.57.06.24.06.51,0,.82.1-.16.16-.41.18-.66,0-.33-.04-.67-.12-.99.14.49.25.99.3,1.48.13-.71.02-1.49-.23-2.18.16.37.31.76.37,1.17.06.69-.03,1.39-.26,2.04,0-.02.01-.05.01-.08,0,.05-.03.1-.04.15-.09.25-.21.5-.34.73-.12.21-.2.44-.31.67l-.07.1c.02-.09.01-.14-.09-.03-.47.4-.91.98-1.64,1.15-.18.04-.41.15-.66.25-.08,0-.11.02-.14.05-.06.02-.11.05-.17.06-.14.03-.29.05-.43.1.14-.02.29-.06.43-.1.05,0,.11-.03.16-.05-.03.04-.06.09-.14.11,1-.17,2-.7,2.68-1.55-.03.07-.05.15-.07.2.05-.1.1-.19.14-.3.21-.28.39-.58.5-.9-.03.1-.04.2-.04.3.49-.87.66-1.93.47-2.91-.08-.93-.44-1.85-1.07-2.58.26.45.52.91.69,1.41-.61-1.26-1.74-2.21-3.07-2.65.28-.08.65-.03.88-.12.03-.09-.44-.29-.14-.23,1.13.19,1.59.93,2.24.92.08-.01-.03-.34-.15-.63-.11-.3-.25-.55-.02-.44.34.22.91.67,1.38,1.3.12.21.23.41.35.61,0,.03.05.06.11.11.41.75.62,1.56.64,2.01.01.17.03.33.02.5-.02.09-.05.16-.09.22.04.1.07.2.08.31-.03.44-.1.86-.2,1.28-.1.22-.19.44-.3.65.03,0,.08-.02.09.03-.18.5-.42.98-.71,1.41-.14.16-.31.28-.48.37-.12.63-1.22,1.44-2.03,1.83h0c-.41.21-.85.38-1.3.48-.08,0-.16-.02-.23-.04-.1.07-.22.09-.27.12-.37.03-.69-.02-.99-.06-.05.03-.16.1-.28.1-.24-.02-.47-.03-.7-.07-.27-.04-.52-.12-.78-.2-.87-.29-1.64-.81-2.24-1.44,0-.04.03-.08.05-.12-.13-.05-.25-.2-.35-.27.03,0,.05,0,.06-.01-.31-.24-.29-.36-.47-.66-.05-.06-.13-.09-.18-.15-.02-.03-.04-.07-.05-.1-.05-.43-.28-.73-.43-1.13-.11-.42-.18-.84-.18-1.26-.02-.33.12-.47.18-.69Z"/>
        <path class="cls-1" d="M28.79,31.33c-.37.22-.77.39-1.17.52.42-.19.73-.43,1.17-.52Z"/>
        <path class="cls-1" d="M28.93,21.01c-.09-.18-.24-.32-.41-.47,1.02.61,1.86,1.47,2.44,2.52h0c-.46-.82-1.36-1.94-2.02-2.04Z"/>
        <path class="cls-1" d="M29.73,30.61s-.01.04-.02.07h0s.01-.04.02-.07Z"/>
        <path class="cls-1" d="M26.51,21.62l-.08-.02c.21.02.41.1.62.16-.17-.02-.35-.09-.54-.13Z"/>
        <path class="cls-1" d="M24.23,21.42c-.43.11-.85.25-1.23.46-.52.22-1,.51-1.47.81.75-.69,1.7-1.14,2.7-1.27Z"/>
        <path class="cls-1" d="M26.97,19.95c-.22-.09-.45-.21-.7-.28.25.04.49.12.72.18-.05.02-.03.07-.03.1Z"/>
        <path class="cls-1" d="M28.14,22.33l-.11-.08c.1.04.21.09.32.14-.05-.02-.14-.04-.22-.06Z"/>
        <path class="cls-1" d="M24.37,19.54c.19-.02.37,0,.55-.01-.11.02-.21.05-.32.09-.06-.04-.14-.07-.23-.08Z"/>
        <path class="cls-1" d="M21.66,20.48c-.22.12-.43.26-.62.4.22-.19.47-.36.73-.52-.04.06-.08.11-.11.12Z"/>
      </g>
      <g>
        <path class="cls-1" d="M18.28,8.36c.33-.25.71-.43,1.03-.62-.13.08-.26.16-.39.23.19-.12.38-.18.61-.22-.02.11-.18.12-.16.24-.49.26-1.04.39-1.57.52.06-.34.35-.07.48-.14Z"/>
        <path class="cls-1" d="M20.13,7.59s-.09.06-.14.08c.04-.04.09-.07.14-.08Z"/>
        <path class="cls-1" d="M15.57,11.02s-.1.08-.15.12c.04-.05.1-.08.15-.12Z"/>
        <path class="cls-1" d="M17.93,9.26s-.04.06-.07.09c-.24.09-.48.18-.73.26.27-.1.48-.34.8-.35Z"/>
        <path class="cls-1" d="M18.29,9.36c.22-.13.48-.21.75-.22-.26.03-.51.12-.75.22Z"/>
        <path class="cls-1" d="M14.49,13.13s.02.04.02.05c0,0,0,.02,0,.03-.11.02-.21.04-.32.06.02-.02.02-.07.04-.09.12-.02.19.06.27-.06Z"/>
        <path class="cls-1" d="M15.62,10.98s0,0,0-.01c.02-.02.03-.03.05-.04,0,0,0,0,.01,0-.02.02-.04.04-.06.06Z"/>
        <path class="cls-1" d="M14.62,13.08s.04.07.07.1c-.06.01-.12.03-.18.04,0-.01,0-.02,0-.03.02-.04.09-.03.11-.1Z"/>
        <path class="cls-1" d="M15.96,12.76s.02-.11.03-.14c.11,0,.22.01.34-.01,0-.03.04-.05.05-.1.03.02.07.04.1.05-.23.11-.47.21-.71.31.06-.04.12-.07.19-.1Z"/>
        <path class="cls-1" d="M10.01,14.49c.27-.21.72-.19.9-.55-.41.05-.9.25-1.13-.06-.22-.31.45-.27.71-.43q-.05-.02-.11-.03c.05.02.11.03.12-.02-.11-.03-.28-.03-.38-.12l.02-.11c-.31-.16-.68-.03-.99-.19,1.3.35,2.34-.63,3.37-1.25.54-.42.93-1.01,1.28-1.61.08-.09.32-.19.5-.26.27-.21.54-.42.76-.71.55-.48,1.25-.61,1.9-1,.13-.08.48.15.2.42-.21.25-.47.44-.74.59-.02-.12.14-.13.16-.24-.24.04-.42.11-.61.22.13-.08.26-.16.39-.23-.32.2-.7.37-1.03.62-.13.08-.42-.19-.48.14.53-.13,1.09-.26,1.57-.52,0,0,0,0,0,0,.21-.13.41-.22.62-.33-.06.05-.11.1-.18.11.35-.07.66-.21.98-.34-.66.8-1.74,1.05-2.53,1.63.33.05.53-.37.85-.27-.39.21-.8.39-1.23.55.02-.03.05-.06.07-.09-.31,0-.53.25-.8.35-.02,0-.05.02-.07.02.02,0,.05-.02.07-.02.25-.08.49-.17.73-.26-.08.09-.19.15-.33.2.11.03.23.01.34-.01.14-.06.27-.13.41-.19-.2.12-.38.27-.52.45.31-.07.6-.22.9-.32-.15.09-.29.19-.44.28-.27.1-.55.2-.82.32,0,0,.02-.01.03-.02-.02.01-.04.02-.06.04-.11.05-.21.09-.32.14-.09.05-.16.14-.22.24-.01,0-.03.02-.04.03.01-.05,0-.09-.06-.08-.29.03-.46.33-.8.34-.09,0-.18.07-.27.15-.04,0-.05.01-.05.04-.02.02-.04.04-.06.05-.05.03-.11.06-.15.12.05-.03.1-.07.15-.12.02-.01.04-.03.06-.04,0,.04,0,.08-.03.09.39-.18.81-.35,1.2-.57,0,.04-.03.08-.03.11.03-.05.05-.09.08-.13.13-.07.25-.15.37-.24-.03.04-.05.08-.06.14.38-.18.73-.39,1.09-.62.37-.13.74-.26,1.1-.41-.24,0-.45.06-.66.13.5-.32,1.01-.61,1.58-.79-.03.17-.12.32-.1.5.04.07.22.01.15.11-.25.4-.6.34-.53.84.03.13.64.32.56.47-.09.09-.26.23-.46.37-.07.02-.13.05-.2.08-.01,0-.01.03-.02.06-.22.14-.43.25-.56.29-.05.01-.1.03-.15.04-.04-.01-.07-.03-.11-.06-.01.04-.03.08-.05.11-.13.04-.25.09-.37.13-.08,0-.17-.01-.25,0,.02.03.04.06.05.09-.15.06-.3.13-.44.2-.08,0-.16-.03-.24-.07-.03.32-.47.36-.7.52h0c-.13.07-.25.13-.39.19-.03-.01-.07-.03-.1-.05-.01.06-.04.08-.05.1-.12.02-.23.02-.34.01,0,.03,0,.12-.03.14-.07.03-.13.06-.19.1-.08.03-.16.06-.24.09-.28.09-.56.17-.84.23-.02-.03-.05-.06-.07-.1-.01.07-.09.06-.11.1,0-.02,0-.03-.02-.05-.08.12-.15.04-.27.06-.02.01-.02.06-.04.09-.01,0-.03,0-.04,0-.2-.11-.29,0-.42.07-.15.02-.3.05-.45.07-.12.02-.21-.07-.32-.1Z"/>
        <path class="cls-1" d="M14.14,13.28c-.14.02-.28.05-.42.07.13-.06.22-.18.42-.07Z"/>
        <path class="cls-1" d="M17.55,11.84c.08.05.16.07.24.07-.31.15-.62.3-.93.46h0c.23-.17.66-.21.7-.53Z"/>
        <path class="cls-1" d="M14.51,13.18s0,.02,0,.03c0,0,0,0,0,0,0-.01,0-.03,0-.03Z"/>
        <path class="cls-1" d="M17.38,10.09s.02,0,.03-.01c-.07.06-.13.11-.2.16.04-.06.11-.11.17-.15Z"/>
        <path class="cls-1" d="M18.24,9.76c.15-.09.29-.19.44-.28.21-.07.43-.13.66-.13-.36.15-.73.27-1.1.41Z"/>
        <path class="cls-1" d="M18.19,11.63c.08,0,.16,0,.25,0-.07.03-.14.05-.2.08,0-.03-.03-.06-.05-.09Z"/>
        <path class="cls-1" d="M16.8,10.51s.03-.02.04-.03c-.03.04-.05.09-.08.14,0-.03.02-.07.03-.11Z"/>
        <path class="cls-1" d="M18.97,11.45c-.05.02-.1.03-.15.05.02-.03.04-.07.05-.11.04.03.07.05.11.06Z"/>
        <path class="cls-1" d="M19.69,11.06c.07-.03.13-.06.2-.08-.07.05-.14.1-.21.14,0-.04,0-.07.02-.06Z"/>
      </g>
      <g>
        <path class="cls-1" d="M19.36,22.55c.4.12.76.32,1.11.47-.14-.06-.28-.12-.41-.18.21.09.36.2.54.37-.1.05-.2-.08-.29,0-.49-.24-.92-.62-1.34-.97.31-.14.26.25.4.31Z"/>
        <path class="cls-1" d="M21.07,23.6c-.05-.02-.1-.04-.15-.07.06.01.11.03.15.07Z"/>
        <path class="cls-1" d="M15.63,21.91c-.06-.01-.13-.03-.18-.05.07,0,.12.03.18.05Z"/>
        <path class="cls-1" d="M18.43,22.8s-.08,0-.11,0c-.21-.14-.42-.29-.64-.44.24.15.56.19.75.44Z"/>
        <path class="cls-1" d="M18.56,23.14c.23.11.45.26.61.48-.18-.19-.39-.34-.61-.48Z"/>
        <path class="cls-1" d="M13.29,22.27s-.02.03-.03.04c0,0-.02,0-.03.02-.08-.07-.16-.15-.24-.22.03,0,.07-.03.09-.02.09.08.06.19.21.18Z"/>
        <path class="cls-1" d="M15.69,21.93s0,0,.01,0c.02,0,.04,0,.06.01,0,0,0,0,0,0-.03,0-.05,0-.08-.02Z"/>
        <path class="cls-1" d="M13.4,22.34s-.03.08-.04.11c-.05-.04-.09-.08-.13-.12.01,0,.02-.01.03-.02.05,0,.08.06.15.03Z"/>
        <path class="cls-1" d="M14.44,23.24s.1-.05.13-.06c.06.09.12.19.21.27.03-.01.06,0,.11-.02,0,.04.01.08.02.11-.22-.12-.44-.25-.66-.4.07.03.13.06.2.1Z"/>
        <path class="cls-1" d="M9.58,19.44c.33.09.57.47.97.41-.28-.3-.73-.58-.61-.95.12-.36.48.21.76.32q-.02-.05-.04-.11c.02.05.04.11.09.08-.04-.11-.14-.24-.12-.37l.1-.05c-.05-.34-.37-.57-.42-.91.47,1.26,1.87,1.53,2.98,2,.66.19,1.36.17,2.05.09.12,0,.35.15.5.26.33.09.66.19,1.02.2.71.16,1.22.66,1.92.95.14.06.16.48-.22.41-.33-.02-.63-.12-.91-.26.08-.09.19.04.29,0-.17-.17-.33-.28-.54-.36.14.06.28.12.41.18-.35-.15-.71-.35-1.11-.47-.14-.06-.09-.45-.4-.31.42.35.85.73,1.34.97,0,0,0,0,0,0,.23.1.42.21.63.31-.07-.02-.15-.03-.2-.08.26.25.55.42.85.59-1.03-.07-1.87-.79-2.8-1.09.16.3.6.21.71.53-.4-.2-.78-.42-1.17-.68.04,0,.07,0,.11,0-.19-.25-.51-.28-.75-.44-.02-.02-.04-.03-.06-.04.02.02.04.03.06.04.21.15.43.3.64.44-.12-.01-.23-.07-.35-.15.04.11.12.19.21.27.13.07.26.15.39.22-.21-.09-.44-.15-.67-.16.24.21.53.36.79.54-.16-.06-.32-.13-.48-.19-.24-.16-.48-.33-.74-.48.01,0,.02,0,.03,0-.02,0-.04-.02-.06-.03-.1-.06-.2-.12-.3-.17-.1-.04-.21-.04-.33-.04-.02,0-.03-.01-.05-.02.05-.02.08-.04.03-.09-.19-.22-.54-.18-.74-.45-.05-.07-.16-.1-.28-.13-.02-.04-.04-.03-.06-.01-.03,0-.05-.01-.08-.02-.06-.02-.11-.05-.18-.05.06.02.12.04.18.05.02,0,.04.02.07.02-.03.02-.06.05-.09.03.37.22.75.45,1.16.64-.04.01-.09.02-.11.04.05,0,.1-.01.16-.01.13.06.27.11.41.16-.05,0-.1,0-.15.03.36.2.75.36,1.14.52.33.22.65.45.97.65-.14-.19-.31-.33-.49-.46.55.22,1.09.46,1.56.82-.15.07-.33.09-.46.22-.03.08.12.19,0,.18-.47.03-.63-.29-.99.07-.09.1.11.71-.06.73-.13-.02-.34-.08-.56-.16-.05-.04-.12-.08-.18-.11,0-.01-.03,0-.06.02-.24-.1-.45-.2-.56-.29-.04-.03-.08-.06-.12-.09-.01-.03-.02-.07-.01-.12-.04.02-.08.02-.12.02-.11-.08-.22-.15-.33-.23-.05-.07-.09-.14-.14-.21-.01.03-.02.07-.05.09-.14-.09-.28-.17-.42-.24-.04-.06-.07-.14-.08-.24-.27.16-.56-.17-.83-.26h0c-.12-.06-.25-.12-.37-.19,0-.03-.02-.07-.02-.11-.05.02-.09,0-.11.02-.09-.08-.15-.18-.21-.27-.03.01-.09.07-.13.06-.06-.04-.13-.07-.2-.1-.07-.05-.14-.09-.21-.14-.24-.17-.46-.35-.67-.55,0-.03.02-.07.04-.11-.06.03-.1-.04-.15-.03.01,0,.02-.02.03-.04-.15,0-.12-.1-.21-.18-.02-.01-.06.02-.09.02,0,0-.02-.02-.03-.03-.03-.23-.18-.23-.3-.3-.11-.11-.21-.22-.32-.33-.09-.08-.07-.21-.11-.32Z"/>
        <path class="cls-1" d="M12.96,22.08c-.1-.1-.2-.2-.3-.3.13.07.27.07.3.3Z"/>
        <path class="cls-1" d="M16.12,24c.01.1.04.17.08.24-.3-.17-.61-.32-.91-.49h0c.27.08.55.41.83.25Z"/>
        <path class="cls-1" d="M13.26,22.32s-.02.01-.03.02c0,0,0,0,0,0,.01,0,.02-.01.03-.02Z"/>
        <path class="cls-1" d="M17.44,22.84s.02.01.03.02c-.08-.02-.17-.04-.25-.07.08,0,.15.02.22.05Z"/>
        <path class="cls-1" d="M18.2,23.34c.16.06.32.13.48.19.18.13.36.27.49.46-.33-.21-.65-.43-.97-.65Z"/>
        <path class="cls-1" d="M16.67,24.39c.05.06.09.14.14.21-.06-.04-.12-.08-.18-.12.03-.02.03-.06.05-.09Z"/>
        <path class="cls-1" d="M16.76,22.61s.03.01.05.02c-.05,0-.1,0-.16.01.02-.01.07-.02.11-.04Z"/>
        <path class="cls-1" d="M17.26,24.92s-.09-.07-.13-.1c.04,0,.07,0,.12-.02,0,.05,0,.09.01.12Z"/>
        <path class="cls-1" d="M18,25.28c.06.04.12.07.18.11-.08-.03-.16-.06-.24-.09.03-.02.06-.04.06-.02Z"/>
      </g>
    </g>
  </g>
</svg>