<?xml version="1.0" encoding="UTF-8"?>
<svg id="Calque_2" data-name="Calque 2" xmlns="http://www.w3.org/2000/svg" viewBox="0 0 25.29 31.24">
  <defs>
    <style>
      .cls-1 {
        fill: #fff;
        stroke-width: 0px;
      }
    </style>
  </defs>
  <g id="Calque_1-2" data-name="Calque 1">
    <g id="PLay">
      <g>
        <path class="cls-1" d="M.86,8.07c-.01-.7-.04-1.33-.03-2.08,0-.83.2-1.65.52-2.41.68-1.51,1.94-2.68,3.35-3.27-1.12.48-2.1,1.28-2.79,2.3C2.96,1.11,4.42.23,6.24,0c-.27.06-.68.19-1.07.31-.37.15-.7.31-.8.42C2.44,1.68,1.05,3.74.96,5.92c-.07,1.81-.13,3.64-.2,5.43-.27-1.41.1-2.28.1-3.28Z"/>
        <path class="cls-1" d="M10.79,1.25c-.37-.22-.7-.48-1.1-.63.42.15.77.42,1.1.63Z"/>
        <path class="cls-1" d="M6.9,29.51c.21,0,.42-.01.63-.02.21-.03.41-.07.61-.1-.2.04-.4.08-.61.11h-.63Z"/>
        <path class="cls-1" d="M1.5,12.85c.02.23.03.45.05.66-.03,1.67-.07,3.37-.11,5.1.03-1.88-.08-3.88.06-5.76Z"/>
        <path class="cls-1" d="M1.74,11.04c0-1.71.02-3.44.17-5.07-.12,1.63-.14,3.33-.17,5.07Z"/>
        <path class="cls-1" d="M16.81,21.85s0-.05.03-.09c.04-.04.07-.07.09-.1l1.71-1.17c-.13.11-.23.24-.37.35-.63.43-.82.44-1.46,1.01Z"/>
        <path class="cls-1" d="M6.44,29.46h-.05c-.14,0-.29-.02-.42-.06-.02,0-.03-.01-.05-.02.17.04.34.06.52.08Z"/>
        <path class="cls-1" d="M16.1,22.37s-.07-.05-.14-.04l.96-.66-.08.1c-.19.18-.54.39-.74.6Z"/>
        <path class="cls-1" d="M8.94,27.29c-.13.11-.24.23-.3.29-.42.15-.86.18-1.36.17-.1.01-.2.03-.4.06-.09-.05-.19-.09-.29-.13.54.11,1.11.08,1.64-.1.55-.18.95-.45,1.75-1.04-.37.29-.8.62-1.05.75Z"/>
        <path class="cls-1" d="M10.21,2.59c1.83,1.27,3.77,2.98,5.66,4.07-1.97-1.62-4.77-3.75-4.85-4.27-.08-.53,2.83,2.04,4.45,3.2q-.19-.19-.38-.38c.19.19.38.38.59.48-.38-.38-1.16-1.04-1.32-1.31l.43.21c-.92-1.02-2.91-2.56-3.82-3.59,2.37,2.3,5.45,4.73,8.74,7.16.83.6,1.66,1.21,2.5,1.82l.63.46c.22.19.47.36.67.57.43.41.78.89,1.07,1.41.57,1.04.79,2.26.68,3.42-.13,1.16-.59,2.3-1.34,3.18-.39.49-.94.94-1.33,1.26l-1.26,1.04c-.8.68-1.61,1.37-2.42,2.06-1.57,1.36-3.07,2.71-4.5,4.02-.56.48-1.98,1.51-3,2.24-.1.08-.23.18-.39.29l-.45.31c-.3.2-.65.34-.98.5-.34.13-.7.24-1.06.34-.37.06-.73.15-1.11.16-1.49.09-2.99-.29-4.27-1.07-1.34-.87-2.38-2.23-2.85-3.79-.09-.39-.2-.79-.24-1.18l-.04-.6-.02-.29v-.22c0-.58.01-1.17.02-1.75.03-2.35.07-4.73.04-7.24,0-1,.36-2.37.47.09.13,2.04.18,4.1.18,6.16-.12-.24-.05-1.22-.13-1.68-.07,1.52-.1,2.78-.09,4.27l-.03-2.99c0,.62,0,1.26.01,1.91,0,.33,0,.65,0,.98v.51s.05.64.05.64c.14,1.71,1.09,3.42,2.48,4.46.25.2.48.4.74.57.25.19.52.37.82.52.59.33,1.35.54,2.27.48-2.31-.18-4.45-1.6-5.47-3.68-.52-1.01-.71-2.25-.69-3.26,0-.92.02-1.82.02-2.73v.02c0-1.63,0-3.1,0-4.67.02.49.04.98.02,1.41.1-2.28.13-4.54.15-6.79.2,3.18.23,6.54.23,9.91v2.53c0,.22-.01.41,0,.64l.05.73c.08.48.18.97.38,1.42.72,1.84,2.38,3.21,4.21,3.59-.99-.34-2.08-.9-2.91-1.75-.84-.83-1.34-1.95-1.39-2.85.32,1.65,1.44,3.11,2.91,3.92.74.4,1.56.66,2.42.74.86.06,1.73-.07,2.55-.37-.23.12-.48.18-.72.28.54-.1,1.07-.3,1.56-.57.23-.14.49-.3.7-.45l.58-.44c.77-.59,1.54-1.19,2.3-1.74l.41-.29-.41.29c-.7.5-1.4,1-2.09,1.5-.36.25-.67.49-1.05.75l-.61.38-.66.29c.2-.1.4-.2.6-.3.2-.12.38-.25.59-.38.4-.26.71-.52,1.13-.81-.47.24-1.07.7-1.86,1.09-.99.51-2.14.71-3.23.57.84.08,1.71-.02,2.47-.32.75-.3,1.44-.79,1.93-1.24-.83.61-1.9,1.2-3.01,1.31-1.11.14-2.26-.07-3.23-.59,1.09.53,2.34.69,3.51.45.99-.15,1.93-.7,2.69-1.28.78-.57,1.57-1.14,2.36-1.72l-.17.14.35-.27c.62-.45,1.24-.91,1.86-1.37.55-.42,1.07-.87,1.57-1.32l.27-.21c-.15.16-.21.25.13.02,1.49-.98,2.93-2.3,4.66-3.41.23-.15.48-.33.76-.54.28-.24.59-.5.85-.84.18-.15.23-.26.27-.36.09-.15.21-.29.29-.46.22-.38.41-.8.51-1.22-.12.41-.29.83-.51,1.22-.07.15-.18.28-.27.42.04-.11.09-.22.21-.43-.39.65-.96,1.2-1.56,1.64-.59.43-1.18.87-1.77,1.3-1.18.88-2.37,1.77-3.57,2.67.14-.14.3-.3.38-.39-.22.2-.44.4-.66.59-.76.59-1.52,1.18-2.29,1.77.22-.19.41-.37.57-.55-1.1.83-2.2,1.65-3.31,2.48-.56.41-1.08.85-1.67,1.25-.58.44-1.27.69-1.97.87-2.72.52-5.5-1.34-6.12-3.9.25,1.39,1.24,2.72,2.61,3.45-.92-.46-1.72-1.18-2.26-2.07-.55-.89-.78-1.95-.78-2.97,0-1.96.02-3.91.08-5.87.13.7.23,1.67.4,2.11.08-.03.11-1.29.16-.55.12,1.33.12,2.48.16,3.43.04.97.09,1.67.46,2.05.04.04.07-.1.08-.3.03-.2.1-.47.14-.7.14-.6.28-1.11.33-.62.01.19.01.47.04.69.04.19.02.42.1.64.08.46.32.92.63,1.35.16.26.38.5.64.71.03.03.1.05.19.08.97.69,2.14.73,2.72.63.22-.03.44-.09.65-.15.12-.03.22-.04.32-.03.12-.08.23-.2.34-.29l.2-.12.26-.18.53-.38c.35-.25.7-.51,1.05-.76.41-.25.83-.52,1.22-.76-.03-.02-.11,0-.06-.08.87-.64,1.73-1.27,2.59-1.91.37-.23.72-.42,1.05-.57.77-.91,3.01-2.38,4.47-3.53h0c.38-.29.75-.57,1.13-.85l.41-.34c.11-.13.24-.24.35-.38.09-.08.17-.15.27-.21.08-.21.12-.31.16-.42.27-.48.43-.94.53-1.42-.02-.09-.08-.26-.11-.44,0-.37-.09-.72-.2-1.05-.14-.38-.29-.77-.55-1.1-.2-.29-.46-.54-.73-.77l-1.1-.87-2.19-1.74c-.03-.06-.01-.11,0-.15-.26-.13-.56-.4-.79-.53.05.02.08.02.09,0-.73-.45-.79-.62-1.39-1.1-.14-.1-.29-.16-.44-.25l-.2-.16c-.58-.66-1.31-1.12-2.09-1.7l-2.23-1.82c-.59-.48-.75-.75-1.13-1.13Z"/>
        <path class="cls-1" d="M18.85,20.35l2.23-1.51c-.77.57-1.42,1.14-2.23,1.51Z"/>
        <path class="cls-1" d="M3.6,23.02c.08-.35.14-.75.17-1.19v1.71c0,.27-.02.6,0,.82.03.19,0,.39.06.57.14.74.5,1.41,1.08,1.92h0c-.5-.37-.88-1.04-1.03-1.7-.09-.35-.1-.62-.14-1.02-.02-.44-.06-.83-.13-1.12Z"/>
        <path class="cls-1" d="M16.84,21.76l.08-.1h0s-.05.06-.09.1Z"/>
        <path class="cls-1" d="M1.97,18.64v-.22c.02.56.04,1.12.05,1.68-.03-.45-.04-.95-.05-1.46Z"/>
        <path class="cls-1" d="M2.08,12.6l-.04-3.44c.02-.73.04-1.45.07-2.18.04-.72.05-1.42.29-2.04-.17.59-.18,1.2-.2,1.85l-.04,1.93c-.03,1.29-.05,2.58-.08,3.88Z"/>
        <path class="cls-1" d="M3.71,18.61c.04-.46.08-.95.12-1.43,0,.48-.01.96-.02,1.43-.03-.09-.07-.01-.1,0Z"/>
        <path class="cls-1" d="M2.07,23.34v-.34c.02.29.05.58.08.88-.02-.12-.05-.35-.08-.54Z"/>
        <path class="cls-1" d="M3.91,13.52c0,.35-.02.7-.03,1.05-.02-.21-.04-.41-.07-.62.04-.11.08-.26.1-.43Z"/>
        <path class="cls-1" d="M3.9,8.05c0-.48.01-.94.02-1.4,0,.56.02,1.13.03,1.69-.03-.13-.06-.23-.05-.29Z"/>
      </g>
    </g>
  </g>
</svg>