<?xml version="1.0" encoding="UTF-8"?>
<svg id="Calque_2" data-name="Calque 2" xmlns="http://www.w3.org/2000/svg" viewBox="0 0 34.14 30.77">
  <defs>
    <style>
      .cls-1 {
        fill: #fff;
        stroke-width: 0px;
      }
    </style>
  </defs>
  <g id="Calque_1-2" data-name="Calque 1">
    <g id="Dès">
      <g>
        <g>
          <path class="cls-1" d="M10.1.1c.24-.04.5-.05.72-.06h.61s1.22-.02,1.22-.02c.81,0,1.62,0,2.42-.01,1.6,0,3.17,0,4.66-.01l-3.57.02c1.79,0,3.29.01,5.11.06-.55.06-1.73.01-2.01.09-2.18,0-4.36-.02-6.53-.06l-1.62-.03c-.25,0-.56-.02-.9.02-.32.04-.64.1-.95.21-.61.21-1.18.55-1.65,1.01-.47.42-.83,1.08-1.05,1.5.14-.36.34-.81.62-1.16.27-.35.58-.62.9-.83.64-.42,1.31-.62,2.02-.73Z"/>
          <path class="cls-1" d="M26.17,1.83c-.32-.41-.7-.75-1.12-1.01.45.27.84.63,1.12,1.01Z"/>
          <path class="cls-1" d="M7.08,24.92c.3.41.59.81.87,1.2-.3-.39-.58-.8-.87-1.2Z"/>
          <path class="cls-1" d="M6.17,4.63c-.12.25-.23.48-.34.72-.94,1.76-1.9,3.55-2.88,5.38,1.06-1.98,2.1-4.14,3.22-6.1Z"/>
          <path class="cls-1" d="M7.32,2.79c.46-.96,1.36-1.71,2.38-1.98.51-.15,1.05-.14,1.54-.11.49.02.98.03,1.48.05l-1.47-.04c-.49-.02-1.02-.03-1.53.11-1.02.26-1.92,1-2.4,1.97Z"/>
          <path class="cls-1" d="M20.15,28.29s.03-.03.09-.04c.06,0,.11-.02.16-.03l2.47-.09c-.2.02-.39.06-.6.07-.91.03-1.1-.03-2.12.08Z"/>
          <path class="cls-1" d="M6.76,24.47l-.04-.04-.3-.41s-.02-.03-.03-.05c.13.17.25.33.37.5Z"/>
          <path class="cls-1" d="M19.1,28.34s-.04-.05-.11-.07l1.39-.05-.15.03c-.31.04-.79.04-1.13.1Z"/>
          <path class="cls-1" d="M10.12,27.24c-.17-.24-.37-.42-.46-.53-.43-.67-.86-1.33-1.33-2.06-.09-.11-.27-.35-.45-.56-.09-.17-.18-.32-.26-.47.57.82,1.15,1.65,1.74,2.49.29.42.59.84.88,1.27.23.34.46.57.78.77-.17-.1-.32-.22-.47-.36-.15-.16-.23-.26-.42-.54Z"/>
          <path class="cls-1" d="M25.65,2.73c1.66,2.09,3.42,4.62,5.12,6.58-1.78-2.47-4.32-5.82-4.39-6.33-.08-.51,2.56,3.29,4.02,5.17q-.17-.27-.34-.53c.17.27.34.53.54.74-.34-.53-1.05-1.53-1.2-1.86l.39.41c-.83-1.39-2.64-3.8-3.47-5.19,1.07,1.64,2.31,3.41,3.65,5.24.69.93,1.38,1.86,2.08,2.81.36.48.72.95,1.08,1.43.41.54.69,1.18.8,1.86.11.68.05,1.39-.19,2.04-.26.65-.52,1.15-.78,1.73-.51,1.13-1.03,2.26-1.55,3.4-1.03,2.26-2.05,4.51-3.03,6.68-.55,1.39-1.93,2.46-3.43,2.62-1.27.12-2.53.24-3.8.37-2.4.26-4.79.52-7.16.78-.23.02-.52.04-.86.07-.17.01-.36.02-.55.04-.25.01-.51.01-.78-.02-1.08-.1-2.18-.67-2.85-1.38-.31-.3-.58-.68-.75-.92l-.59-.81-1.18-1.61c-.78-1.04-1.57-2.09-2.38-3.18-.83-1.15-1.64-2.27-2.45-3.39l-.6-.85c-.09-.12-.22-.31-.35-.52-.12-.21-.23-.42-.32-.64-.36-.88-.46-1.86-.28-2.8.09-.47.25-.93.47-1.35l.5-.94c.33-.63.66-1.26,1-1.89.67-1.28,1.34-2.57,2.03-3.9.54-1.06,1.52-2.4.22.24-1.05,2.2-2.16,4.4-3.3,6.59.06-.29.65-1.31.85-1.83-.22.4-.43.78-.63,1.15-.2.38-.41.7-.62,1.23-.37.98-.41,2.1-.02,3.17-.26-.71-.34-1.49-.23-2.25.08-.74.49-1.53.73-1.98l-.26.5c-.11.21-.21.44-.28.67-.15.46-.24.95-.24,1.45-.02.98.33,2.03.91,2.8.93,1.3,1.88,2.63,2.84,3.96.69.97,1.09,1.97,2.21,3.24-1.19-1.76-2.41-3.55-3.62-5.34l-.92-1.34-.46-.67c-.19-.28-.35-.58-.48-.89-.52-1.24-.41-2.74.23-3.88v.02c.89-1.73,1.7-3.29,2.57-4.95-.26.52-.52,1.06-.77,1.51,1.32-2.39,2.58-4.77,3.84-7.16-1.64,3.44-3.48,7.01-5.34,10.59-.56.94-.76,2.25-.41,3.36.15.55.49,1.12.78,1.5l.87,1.23c1.16,1.62,2.3,3.22,3.43,4.8-1.14-1.85-2.95-4.09-3.91-5.73,2.02,2.89,4.04,5.8,6.13,8.78-.16-.21-.32-.41-.49-.63.33.49.64.95.95,1.42.15.22.33.5.57.75.23.25.49.47.77.65.56.37,1.22.6,1.88.67.7.06,1.24-.03,1.8-.05l.6-.03-.6.03c-.53.01-.98.07-1.61.04-.59-.05-1.17-.21-1.68-.49-.52-.27-.97-.66-1.32-1.12-.33-.45-.58-.84-.88-1.26.28.39.56.77.86,1.17.35.45.81.87,1.39,1.18-.3-.19-.66-.44-.98-.79-.16-.17-.31-.37-.45-.57l-.38-.56c-.68-.98-1.37-1.96-2.05-2.93.53.74,1.06,1.47,1.59,2.2.26.35.52.7.78,1.05.25.35.57.72.93.97-.53-.43-.87-1.01-1.22-1.51l-1.07-1.55c-.72-1.04-1.43-2.07-2.15-3.1l2.39,3.34.98,1.42c.32.46.65.99,1.14,1.37.48.38,1.05.65,1.65.77.62.13,1.23.04,1.8.02l-.27.02.53-.04c.91-.05,1.83-.1,2.76-.15.83-.05,1.64-.14,2.44-.22l.41-.03c-.26.04-.38.07.12.05,1.07-.03,2.18-.11,3.33-.19.58-.04,1.16-.07,1.75-.11.59-.01,1.27-.12,1.86-.41.63-.28,1.38-.94,1.77-1.87.12-.22.17-.35.2-.46l.24-.56c.21-.45.42-.91.6-1.36-.2.44-.4.89-.6,1.36l-.23.51c.03-.12.07-.26.18-.51-.19.39-.37.78-.56,1.17-.21.4-.5.77-.83,1.07-.68.61-1.6.97-2.51.98-1.76.1-3.54.21-5.32.32.22-.03.5-.07.64-.09-.35.04-.7.08-1.05.12-1.15.08-2.3.16-3.45.24.34-.04.66-.07.94-.12l-2.47.15c-.81.02-1.66.2-2.5-.03-.83-.21-1.59-.71-2.1-1.4l-1.45-2.02c-1.77-2.56-3.51-5.1-5.25-7.62.89,1.39,1.86,2.82,2.86,4.28l-2.04-2.86-1.02-1.43c-.32-.48-.72-.93-.97-1.51-.51-1.13-.38-2.52.25-3.55.55-1.03,1.1-2.06,1.65-3.09-.31.79-.79,1.84-.93,2.37.07,0,.78-1.33.4-.54-.35.75-.66,1.4-.94,1.99-.23.59-.28,1.18-.2,1.69.14,1.05.78,1.64,1.28,2.11.05.04-.02-.13-.15-.38-.07-.13-.15-.28-.23-.44-.06-.13-.12-.27-.16-.41-.16-.56-.11-1.01,0-.6.05.17.13.36.25.57.06.11.12.18.22.33.11.15.22.3.34.46.46.64.99,1.37,1.54,2.12.31.45.63.9.95,1.38.04.06.12.15.23.26,1.18,1.64,2.29,3.22,2.89,4.1.22.33.44.65.66.98.1.18.19.33.24.46.17.21.33.4.47.58.42.64,1.11,1.06,1.85,1.15.34.08.98.03,1.54.03-.01-.02-.11-.04,0-.07,1.29-.07,2.57-.14,3.84-.21.52,0,1,0,1.42.03.69-.13,1.83-.22,3.08-.29.62-.03,1.28-.07,1.91-.11.31-.02.62-.04.92-.05.22-.02.44-.06.63-.13h0c.39-.13.76-.35,1.05-.64.15-.15.28-.31.39-.49.06-.09.11-.18.15-.28l.18-.38c.09-.15.18-.3.28-.46.09-.27.22-.54.26-.67.4-.77.76-1.47,1.12-2.18.05-.13.1-.4.23-.67.25-.54.49-1.06.73-1.58.28-.6.57-1.2.86-1.81.49-1.02.99-2.04,1.48-3.05l.36-.75c.1-.19.16-.4.21-.61.1-.42.09-.87,0-1.3,0-.06.03-.08.05-.1-.11-.26-.26-.62-.42-.81.04.03.06.05.07.04-.58-.71-.7-.95-1.22-1.67-.13-.16-.27-.3-.4-.45l-.18-.24c-.53-.9-1.19-1.68-1.89-2.6l-2.02-2.79c-.54-.74-.68-1.06-1.03-1.59Z"/>
          <path class="cls-1" d="M23.17,28.12l1.59-.06c.41-.02.82-.13,1.19-.32-.39.22-.81.35-1.23.37-.52.03-1.04.04-1.56,0Z"/>
          <path class="cls-1" d="M2.4,15.67c.04-.3.12-.62.26-.94-.16.43-.19.91-.09,1.36.05.22.13.44.24.65.06.11.1.18.2.32l.29.42c.79,1.12,1.58,2.24,2.38,3.38h0c-.64-.91-1.42-2.02-2.14-3.04-.18-.26-.36-.5-.53-.75-.15-.21-.23-.34-.32-.51-.15-.33-.24-.64-.29-.88Z"/>
          <path class="cls-1" d="M20.24,28.25l.15-.03h0s-.1.02-.16.03Z"/>
          <path class="cls-1" d="M3.26,10.92l.12-.23c-.3.6-.6,1.2-.9,1.8.23-.49.5-1.02.78-1.57Z"/>
          <path class="cls-1" d="M6.65,4.55c.66-1.18,1.08-2.61,2.34-3.26.38-.21.8-.34,1.23-.4.42-.05.86-.02,1.29-.01.84.03,1.67.06,2.53.08l-2.3-.02c-.77,0-1.54-.08-2.24.2-.7.25-1.32.74-1.74,1.37-.39.65-.74,1.36-1.11,2.03Z"/>
          <path class="cls-1" d="M4.3,11.42c.28-.48.57-.98.86-1.48-.27.51-.54,1.01-.81,1.51.03-.1-.03-.04-.06-.04Z"/>
          <path class="cls-1" d="M1.41,16.09c-.02-.13-.04-.27-.04-.4.03.34.11.68.24,1-.05-.11-.15-.39-.2-.6Z"/>
          <path class="cls-1" d="M7.23,6.09c-.2.37-.4.74-.6,1.11.09-.21.19-.43.3-.68.09-.11.19-.25.3-.43Z"/>
          <path class="cls-1" d="M10.41,2.1c.09,0,.19-.02.28-.02h.39c.28,0,.55,0,.82,0-.33,0-.67,0-1.01,0-.33,0-.47.02-.7.07.09-.05.17-.07.21-.07Z"/>
        </g>
        <g>
          <path class="cls-1" d="M28.9,12.56c1.07-.06,2.15-.07,3.13-.1l-1.17.04c.59-.02,1.08,0,1.68.03-.18.06-.57.02-.66.1-1.43.02-2.87-.05-4.27-.11.55-.19.9.06,1.29.04Z"/>
          <path class="cls-1" d="M34.13,12.6c-.15,0-.29,0-.42.01.15-.01.29-.02.42-.01Z"/>
          <path class="cls-1" d="M19.43,13.45c-.18.01-.34.02-.49.03.16-.02.32-.02.49-.03Z"/>
          <path class="cls-1" d="M27.03,13.02c-.1.01-.18.03-.26.04-.65-.01-1.32-.03-2.01-.04.74,0,1.53-.08,2.27,0Z"/>
          <path class="cls-1" d="M27.74,13.17c.67-.02,1.35,0,1.99.07-.64-.05-1.31-.07-1.99-.07Z"/>
          <path class="cls-1" d="M15.19,10.98s-.03,0-.05,0c-.02-.01-.03-.02-.05-.03-.15-.23-.29-.45-.44-.68.05.05.11.08.15.13.16.25.15.34.39.58Z"/>
          <path class="cls-1" d="M19.61,13.44h.02s.17-.02.17-.02c0,0,.01,0,.02,0-.08,0-.14.01-.2.02Z"/>
          <path class="cls-1" d="M15.4,11.26s-.04.04-.04.08l-.25-.38.05.03c.08.07.15.21.25.28Z"/>
          <path class="cls-1" d="M17.68,14.62c.18,0,.37-.07.45-.08.41.03.81.06,1.15.08.05-.02.14-.02.24-.05.06.02.11.04.18.06-.65,0-1.32,0-2.03,0-.2-.27-.42-.56-.64-.86.21.28.42.54.65.84Z"/>
          <path class="cls-1" d="M8.36,1.1c.57.67,1.06,1.57,1.7,2.15-.53-.85-1.34-1.97-1.23-2.24.11-.27.85,1.08,1.34,1.69q-.04-.1-.08-.2c.04.1.08.2.16.25-.08-.2-.29-.55-.29-.69l.16.11c-.17-.53-.74-1.35-.91-1.88,1.08,2.42,3.46,5.11,5.41,7.57,1.13,1.34,2.3,2.5,3.42,3.55.1.1.25.3.41.51.08.11.16.22.25.34.04.05.03.05.04.08l.04.02.09-.03s.15-.01.22-.02l.29-.02c.39-.03.77-.07,1.16-.12,1.84-.14,3.63-.03,5.6-.09.39-.01.94.22-.03.31-.8.1-1.61.14-2.42.16.09-.08.48-.04.66-.1-.6-.04-1.09-.05-1.68-.03l1.18-.04c-.98.03-2.06.04-3.13.1-.39.01-.74-.23-1.29-.04,1.4.06,2.84.14,4.27.11h0c.65,0,1.22-.02,1.84-.03-.19.01-.39.03-.56.02.9.06,1.79.06,2.67.06-2.5.31-5.29.17-7.82.31.71.12,1.66-.08,2.28.07-.58,0-1.16,0-1.75.01-.54,0-1.08,0-1.65-.01.06,0,.11-.02.16-.04-.12-.02-.22-.03-.33-.04-.05-.06-.09-.12-.14-.19l-.19-.24c-.17-.22-.35-.44-.5-.65l-.11-.16c.04.06.08.11.11.16.28.39.54.78.8,1.15.07,0,.14,0,.2,0-.07.01-.14.02-.22.03-.08-.09-.16-.21-.25-.34.03.11.11.26.21.42h.09s1.02,0,1.02,0c-.21,0-.43.02-.66.03-.15.02-.32.03-.49.05-.07-.07-.15-.15-.22-.22.07.1.13.2.19.29.49.02,1.27.02,1.93.03l-1.35.05c-.2,0-.41,0-.61-.01l-.87-1.21.06.07-.11-.14-.54-.73c-.17-.21-.36-.41-.55-.59l-.08-.11c.07.05.12.07.03-.07-.37-.6-.93-1.13-1.34-1.83-.11-.18-.29-.4-.49-.63-.04-.08-.07-.11-.11-.13l-.13-.15c-.1-.13-.2-.26-.31-.37.09.11.2.24.31.37.04.05.08.09.12.14-.04-.02-.09-.04-.14-.11.67.91,1.36,1.85,2.08,2.78-.06-.05-.13-.1-.17-.14.09.08.17.16.25.24.23.29.47.58.71.89-.08-.08-.16-.15-.24-.21l.77,1.01c.25.31.5.63.75.95l.63-.02c1.03.02,2.05.03,3.04.05-.54-.06-1.11-.09-1.69-.1,1.54-.06,3.08-.1,4.62-.05-.28.09-.66.16-.83.28.01.06.51.07.22.11-1.05.17-1.8.05-2.23.37-.08.09,1.1.37.72.44-.32.03-.89.07-1.5.1-.19,0-.37,0-.55,0-.02,0-.06.01-.11.03-.66.02-1.3.04-1.65.02-.22,0-.44,0-.65-.01-.12-.02-.21-.04-.28-.06-.13.02-.23.03-.32.04-.03-.03-.06-.06-.08-.09-.3-.42-.6-.82-.88-1.21-.09-.17-.19-.35-.28-.5-.01.02-.02.06-.05.04-.25-.34-.5-.68-.75-1.02-.08-.15-.15-.3-.19-.44-.42-.26-.97-1.16-1.44-1.72h0c-.22-.29-.44-.59-.67-.89-.02-.06-.04-.12-.06-.18-.08-.06-.14-.13-.18-.16-.16-.25-.29-.48-.41-.7-.04-.03-.14-.06-.2-.14-.11-.16-.23-.31-.35-.45-.12-.18-.25-.35-.38-.54-.43-.61-.84-1.23-1.25-1.84,0-.03.02-.05.04-.08-.1-.07-.17-.21-.25-.28.02,0,.04.01.05,0-.24-.24-.22-.33-.39-.58-.04-.05-.1-.09-.15-.13l-.05-.08c-.11-.35-.34-.59-.57-.89l-.61-.96c-.16-.25-.17-.39-.25-.59Z"/>
          <path class="cls-1" d="M14.6,10.19c-.19-.29-.38-.59-.57-.89.23.3.47.55.57.89Z"/>
          <path class="cls-1" d="M23.05,14.49c.14.05.3.09.47.11-.9,0-1.79.02-2.71.03h0c.73-.04,1.79.05,2.24-.13Z"/>
          <path class="cls-1" d="M15.15,10.98l-.05-.03h0s.03.01.05.03Z"/>
          <path class="cls-1" d="M24.76,13.37h.09c-.23.02-.45.03-.66.04.18-.03.37-.04.57-.04Z"/>
          <path class="cls-1" d="M27.13,13.4l1.35-.05c.58.01,1.15.04,1.69.1-.99-.02-2.02-.03-3.04-.05Z"/>
          <path class="cls-1" d="M24.79,14.53c.17.02.38.05.56.07-.19,0-.38,0-.56,0,.04-.02,0-.05,0-.07Z"/>
          <path class="cls-1" d="M22.91,13.47h.14c-.11.02-.23.04-.35.06.05-.01.13-.04.21-.06Z"/>
          <path class="cls-1" d="M26.79,14.64c-.14,0-.28,0-.41-.01.08-.01.16-.03.24-.05.05.03.1.05.17.07Z"/>
          <path class="cls-1" d="M28.94,14.59c.18,0,.36,0,.55,0-.22,0-.45.02-.66.03.05-.02.09-.04.11-.03Z"/>
        </g>
        <g>
          <path class="cls-1" d="M16.29,15.83c.22-.57.49-1.12.71-1.62-.09.2-.18.41-.27.61.13-.3.27-.55.46-.83,0,.12-.13.3-.08.38-.34.73-.78,1.43-1.19,2.1-.03-.36.28-.43.37-.63Z"/>
          <path class="cls-1" d="M17.65,13.21c-.03.07-.07.15-.1.22.03-.08.06-.16.1-.22Z"/>
          <path class="cls-1" d="M14.65,20.99c-.03.09-.06.18-.1.26.02-.09.06-.17.1-.26Z"/>
          <path class="cls-1" d="M16.22,16.98c0,.05-.02.1-.03.15-.18.33-.36.66-.55.99.2-.37.32-.8.58-1.14Z"/>
          <path class="cls-1" d="M16.54,16.68c.16-.35.35-.68.57-.97-.21.3-.4.63-.57.97Z"/>
          <path class="cls-1" d="M14.26,23.95s.02.02.03.03c0,.01,0,.02,0,.04-.08.13-.17.26-.25.39,0-.04,0-.08.01-.12.09-.14.17-.15.21-.34Z"/>
          <path class="cls-1" d="M14.69,20.9s0,0,0-.01c.01-.03.02-.06.03-.09,0,0,0,0,0,0,0,.04-.02.07-.04.11Z"/>
          <path class="cls-1" d="M14.36,23.78s.05.02.08.02c-.05.07-.09.15-.14.22,0-.01,0-.02,0-.03,0-.06.07-.13.07-.2Z"/>
          <path class="cls-1" d="M15.4,22.1c.02-.05,0-.12-.01-.15.1-.11.19-.23.28-.37,0-.03.02-.08.02-.14.03-.02.07-.04.1-.06-.17.33-.34.67-.53,1.02.04-.1.09-.19.14-.29Z"/>
          <path class="cls-1" d="M10.84,29.84c.17-.47.56-.92.62-1.42-.33.47-.69,1.16-.96,1.13-.26-.03.31-.71.49-1.12t-.1.08s.1-.08.09-.14c-.1.08-.24.27-.34.29v-.12c-.31.19-.58.68-.88.87,1.17-1.06,1.81-3,2.52-4.62.35-.93.54-1.86.68-2.74.04-.16.22-.51.36-.75.17-.47.35-.93.47-1.42.34-.99.9-1.84,1.35-2.86.09-.2.44-.37.27.15-.12.45-.28.87-.48,1.29-.05-.08.09-.26.08-.38-.19.29-.32.53-.46.83.09-.2.18-.41.27-.61-.22.51-.49,1.06-.71,1.62-.09.2-.4.27-.37.63.41-.68.85-1.37,1.19-2.1,0,0,0,0,0,0,.15-.33.29-.62.44-.94-.04.1-.07.21-.12.29.28-.43.51-.88.73-1.32-.36,1.39-1.2,2.74-1.73,4.08.29-.31.35-.87.65-1.12-.28.59-.58,1.18-.9,1.78.01-.05.02-.1.03-.15-.26.34-.38.77-.58,1.14-.02.03-.04.07-.06.1.02-.03.04-.06.06-.1.19-.34.37-.67.55-.99-.05.17-.12.33-.23.52.1-.08.19-.23.28-.37.1-.2.2-.4.3-.59-.14.31-.25.63-.32.93.25-.39.45-.82.68-1.23-.1.23-.2.47-.3.7-.21.37-.41.75-.61,1.14,0-.02.01-.03.02-.05-.01.03-.03.06-.04.09-.08.15-.16.3-.23.46-.06.14-.1.29-.13.44-.01.02-.02.05-.03.07,0-.05-.01-.09-.07,0-.24.33-.31.77-.59,1.14-.07.1-.13.25-.19.41-.04.03-.04.06-.03.09-.01.04-.02.07-.04.11-.04.08-.08.17-.1.26.04-.08.07-.17.1-.26.01-.03.03-.06.04-.1,0,.03.02.06,0,.11.29-.57.6-1.15.87-1.76,0,.04,0,.1,0,.13.01-.07.02-.13.03-.2.09-.2.17-.39.25-.59-.01.06-.02.13-.02.19.27-.55.52-1.11.76-1.68.28-.51.56-1.01.82-1.51-.2.25-.37.52-.52.81.34-.8.7-1.6,1.14-2.35.01.18-.02.4.04.54.05.02.19-.23.15-.06-.11.6-.42.93-.24,1.28.06.08.62-.39.58-.17-.05.17-.16.48-.29.8-.05.09-.1.18-.15.28-.01,0,0,.04,0,.07-.15.35-.3.67-.4.84-.04.06-.08.13-.11.19-.03.03-.07.05-.1.06,0,.05,0,.1-.01.15-.1.17-.19.34-.28.51-.07.08-.14.17-.21.25.02,0,.05,0,.06.03-.11.21-.22.42-.32.64-.06.08-.14.14-.22.19.05.31-.3.8-.46,1.18h0c-.09.19-.18.38-.28.57-.03.02-.06.05-.1.06,0,.06-.02.11-.02.14-.09.14-.19.26-.29.37,0,.03.03.1.01.15-.05.1-.1.2-.14.29-.06.11-.12.22-.18.33-.21.37-.43.73-.65,1.08-.03,0-.05,0-.08-.02,0,.07-.06.14-.07.2,0-.01-.01-.03-.03-.03-.04.19-.12.19-.21.34-.02.04,0,.08-.01.12-.01.02-.02.03-.03.05-.2.12-.24.31-.34.5-.12.18-.24.36-.36.54-.09.14-.2.17-.29.25Z"/>
          <path class="cls-1" d="M14.01,24.45c-.11.17-.22.34-.34.5.09-.19.14-.38.34-.5Z"/>
          <path class="cls-1" d="M16.52,19.62c.08-.05.15-.11.22-.19-.23.46-.44.91-.67,1.38h0c.15-.39.51-.88.46-1.19Z"/>
          <path class="cls-1" d="M14.29,23.98s0,.02,0,.03c0,0,0,0,0,0,0-.01,0-.02,0-.04Z"/>
          <path class="cls-1" d="M15.95,18.28s.02-.03.02-.04c-.04.12-.09.24-.13.35.02-.1.06-.2.11-.31Z"/>
          <path class="cls-1" d="M16.59,17.09c.1-.23.2-.47.3-.7.16-.29.33-.56.52-.81-.27.5-.55,1.01-.82,1.51Z"/>
          <path class="cls-1" d="M17,18.76c.07-.08.14-.17.21-.25-.05.09-.1.19-.15.28,0-.03-.04-.02-.06-.03Z"/>
          <path class="cls-1" d="M15.56,19.25s.02-.05.03-.07c-.01.07-.02.13-.03.2,0-.03,0-.09,0-.13Z"/>
          <path class="cls-1" d="M17.61,17.8c-.04.07-.08.14-.12.2,0-.05.01-.09.01-.15.04-.01.07-.03.1-.06Z"/>
          <path class="cls-1" d="M18.12,16.7c.05-.1.1-.19.15-.28-.05.11-.1.23-.14.35,0-.03-.01-.06,0-.07Z"/>
        </g>
      </g>
      <g>
        <path class="cls-1" d="M9.83,6.9c.31.28.5.71.62,1.12-.05-.17-.11-.32-.18-.47.1.22.15.45.15.72-.07-.06-.06-.23-.14-.24-.15-.56-.36-1.14-.81-1.52.27-.05.26.28.36.38Z"/>
        <path class="cls-1" d="M10.4,8.96c0-.07,0-.12,0-.18.01.06.02.12,0,.18Z"/>
        <path class="cls-1" d="M7.79,8.61c0,.05.01.1,0,.15-.01-.05,0-.1,0-.15Z"/>
        <path class="cls-1" d="M9.11,6.89s-.07,0-.09,0c-.2-.09-.43-.07-.62,0,.2-.09.51-.2.71,0Z"/>
        <path class="cls-1" d="M9.25,7.15c.16.12.28.32.31.55-.04-.21-.15-.41-.31-.55Z"/>
        <path class="cls-1" d="M8.29,9.3s.01-.02.01-.03c0,0,0,0,0-.01v.12s0,.02-.01.02c0-.05.02-.11-.01-.1Z"/>
        <path class="cls-1" d="M7.79,8.55h0s0-.07,0-.07h0s0,.04,0,.07Z"/>
        <path class="cls-1" d="M8.29,9.26s.02-.04.03-.06v.06s0,0,0,.01c-.01,0,0-.03-.02,0Z"/>
        <path class="cls-1" d="M8.35,8.96s-.03,0-.04-.01c.02-.01.04-.02.05-.02,0,0,0,0-.02-.02h.03s-.01.05-.02.08c0,0,0-.02,0-.02Z"/>
        <path class="cls-1" d="M9.45,8.99c.04.21-.13.35-.04.61.15-.16.22-.5.46-.53.26-.02,0,.45-.05.67t.06-.04s-.06.04-.04.08c.06-.04.14-.14.22-.15l.04.09c.22-.11.32-.51.5-.75-.32.59-.5,1.07-.79,1.57-.15.24-.33.47-.58.63-.25.15-.57.17-.81.08-.27-.07-.49-.17-.74-.3-.25-.14-.53-.34-.79-.74-.09-.15-.2-.65-.18-1.03-.07-.65.01-1.35.18-1.94.22-.61.57-.92.92-1.12.35-.18.72-.27,1.2-.23.2.03.36.3-.07.31-.36.06-.65.19-.89.36.01-.11.15-.13.2-.22-.21.04-.38.12-.56.3.12-.12.24-.21.37-.3-.32.2-.67.51-.9,1.08-.04.11-.13.15-.21.24-.07.1-.14.24-.1.47.31-.9.77-1.27,1.18-1.57h0c.2-.13.39-.21.63-.24-.07.02-.15.05-.21.05.32-.03.7.04.99.23-.47-.16-1.03-.06-1.35.23-.34.27-.66.69-.77,1.33.17-.23.22-.75.44-.77-.22.34-.41.79-.48,1.39,0-.04-.02-.08-.03-.14-.13.37-.02.82.05,1.16l.02.1s-.01-.07-.02-.1c-.06-.33-.07-.69-.03-1.02.02.16.03.3.02.5.05-.12.06-.26.09-.39,0-.18.03-.35.07-.51-.04.26-.02.54.06.74.04-.33.08-.64.17-.89-.03.16-.04.32-.05.48-.05.25-.06.55-.02.83v-.03s0,.06,0,.06c.01.11.04.22.07.32.04.08.09.14.14.17l.02.04s-.04.01-.03.08c.07.28.23.35.39.62.04.07.12.11.2.13.02.03.03.03.05.01.02,0,.04,0,.06.01.05.02.09.03.14.02-.03,0-.08-.01-.14-.02l-.05-.02s.02-.03.05-.03c-.32-.16-.51-.49-.66-.81.02,0,.04,0,.05,0l-.07-.04c-.05-.1-.09-.21-.14-.32.02.03.05.04.07.04-.08-.34-.14-.69-.13-1.08.07-.34.17-.61.3-.86-.1.07-.19.2-.25.38.1-.53.35-.99.75-1.15-.07.13-.15.28-.16.45,0,.06.1,0,.05.09-.14.35-.23.38-.16.72.03.06.18.22.18.32,0,.05,0,.1,0,.14,0,0-.01.01-.01.02,0,0,0,0,.01.02,0,.04,0,.06-.01.08v.02s-.03,0-.05,0c.01,0,.02.01.02.02,0,.02-.01.04-.02.07-.01.02-.03.04-.03.07,0,0,.02-.02.03-.02,0,.03,0,.07,0,.1,0,.03-.02.06-.04.12.08-.09.07.06.12.09h0s.04.04.06.06c0,.03,0,.05.01.09,0-.04.01-.03.02-.05.02.04.05.09.09.15,0-.02,0-.1,0-.1.02,0,.03,0,.05-.01h.06c.07,0,.14-.02.22-.05.02.02.04.04.07.07-.02-.05,0-.04,0-.07,0,.01.02.02.03.03-.02-.08.04-.03.07-.06,0-.01-.02-.04-.03-.05h.01c.13.02.1-.06.12-.12.04-.05.08-.1.12-.16.03-.05.11-.06.16-.11Z"/>
        <path class="cls-1" d="M8.33,9.4c0,.06.02.12.04.18-.03-.03-.06-.03-.04-.18Z"/>
        <path class="cls-1" d="M8.38,8.72s.03.08.04.11c-.02,0-.03.03-.03.06h0c0-.05.04.03,0-.16Z"/>
        <path class="cls-1" d="M8.31,9.27s0-.01,0-.01h0s0,.01,0,.01Z"/>
        <path class="cls-1" d="M8.4,7.27h.02c-.05.04-.1.1-.14.15.03-.06.07-.11.12-.15Z"/>
        <path class="cls-1" d="M9.01,7.29c.11.04.21.11.3.2.09.15.13.32.12.51-.07-.25-.19-.53-.42-.71Z"/>
        <path class="cls-1" d="M8.44,8.75s.01.06.01.1c0,0,0-.01,0-.01,0-.03,0-.06,0-.09Z"/>
        <path class="cls-1" d="M8.09,7.73l.02-.03s-.02.09-.03.13c0-.03,0-.06,0-.1Z"/>
        <path class="cls-1" d="M8.46,8.92v-.03s.01-.04.02-.07c0,.04-.02.07-.02.1Z"/>
        <path class="cls-1" d="M8.47,8.92s0,0,0,.02v.02s.01-.04,0-.03Z"/>
      </g>
      <g>
        <path class="cls-1" d="M14.45,12.99c.31.28.5.71.62,1.12-.05-.17-.11-.32-.18-.47.1.22.15.45.15.72-.07-.06-.06-.23-.14-.24-.15-.56-.36-1.14-.81-1.52.27-.05.26.28.36.38Z"/>
        <path class="cls-1" d="M15.01,15.05c0-.07,0-.12,0-.18.01.06.02.12,0,.18Z"/>
        <path class="cls-1" d="M12.4,14.7c0,.05.01.1,0,.15-.01-.05,0-.1,0-.15Z"/>
        <path class="cls-1" d="M13.72,12.98s-.07,0-.09,0c-.2-.09-.43-.07-.62,0,.2-.09.51-.2.71,0Z"/>
        <path class="cls-1" d="M13.86,13.24c.16.12.28.32.31.55-.04-.21-.15-.41-.31-.55Z"/>
        <path class="cls-1" d="M12.91,15.39s.01-.02.01-.03c0,0,0,0,0-.01v.12s0,.02-.01.02c0-.05.02-.11-.01-.1Z"/>
        <path class="cls-1" d="M12.4,14.64h0s0-.07,0-.07h0s0,.04,0,.07Z"/>
        <path class="cls-1" d="M12.9,15.35s.02-.04.03-.06v.06s0,0,0,.01c-.01,0,0-.03-.02,0Z"/>
        <path class="cls-1" d="M12.96,15.05s-.03,0-.04-.01c.02-.01.04-.02.05-.02,0,0,0,0-.02-.02h.03s-.01.05-.02.08c0,0,0-.02,0-.02Z"/>
        <path class="cls-1" d="M14.06,15.08c.04.21-.13.35-.04.61.15-.16.22-.5.46-.53.26-.02,0,.45-.05.67l.06-.04s-.06.04-.04.08c.06-.04.14-.14.22-.15l.04.09c.22-.11.32-.51.5-.75-.32.59-.5,1.07-.79,1.57-.15.24-.33.47-.58.63-.25.15-.57.17-.81.08-.27-.07-.49-.17-.74-.3-.25-.14-.53-.34-.79-.74-.09-.15-.2-.65-.18-1.03-.07-.65.01-1.35.18-1.94.22-.61.57-.92.92-1.12.35-.18.72-.27,1.2-.23.2.03.36.3-.07.31-.36.06-.65.19-.89.36.01-.11.15-.13.2-.22-.21.04-.38.12-.56.3.12-.12.24-.21.37-.3-.32.2-.67.51-.9,1.08-.04.11-.13.15-.21.24-.07.1-.14.24-.1.47.31-.9.77-1.27,1.18-1.57h0c.2-.13.39-.21.63-.24-.07.02-.15.05-.21.05.32-.03.7.04.99.23-.47-.16-1.03-.06-1.35.23-.34.27-.66.69-.77,1.33.17-.23.22-.75.44-.77-.22.34-.41.79-.48,1.39,0-.04-.02-.08-.03-.14-.13.37-.02.82.05,1.16l.02.1s-.01-.07-.02-.1c-.06-.33-.07-.69-.03-1.02.02.16.03.3.02.5.05-.12.06-.26.09-.39,0-.18.03-.35.07-.51-.04.26-.02.54.06.74.04-.33.08-.64.17-.89-.03.16-.04.32-.05.48-.05.25-.06.55-.02.83v-.03s0,.06,0,.06c.01.11.04.22.07.32.04.08.09.14.14.17l.02.04s-.04.01-.03.08c.07.28.23.35.39.62.04.07.12.11.2.13.02.03.03.03.05.01.02,0,.04,0,.06.01.05.02.09.03.14.02-.03,0-.08-.01-.14-.02l-.05-.02s.02-.03.05-.03c-.32-.16-.51-.49-.66-.81.02,0,.04,0,.05,0l-.07-.04c-.05-.1-.09-.21-.14-.32.02.03.05.04.07.04-.08-.34-.14-.69-.13-1.08.07-.34.17-.61.3-.86-.1.07-.19.2-.25.38.1-.53.35-.99.75-1.15-.07.13-.15.28-.16.45,0,.06.1,0,.05.09-.14.35-.23.38-.16.72.03.06.18.22.18.32,0,.05,0,.1,0,.14,0,0-.01.01-.01.02,0,0,0,0,.01.02,0,.04,0,.06-.01.08v.02s-.03,0-.05,0c.01,0,.02.01.02.02,0,.02-.01.04-.02.07-.01.02-.03.04-.03.07,0,0,.02-.02.03-.02,0,.03,0,.07,0,.1,0,.03-.02.06-.04.12.08-.09.07.06.12.09h0s.04.04.06.06c0,.03,0,.05.01.09,0-.04.01-.03.02-.05.02.04.05.09.09.15,0-.02,0-.1,0-.1.02,0,.03,0,.05-.01h.06c.07,0,.14-.02.22-.05.02.02.04.04.07.07-.02-.05,0-.04,0-.07,0,.01.02.02.03.03-.02-.08.04-.03.07-.06,0-.01-.02-.04-.03-.05h.01c.13.02.1-.06.12-.12.04-.05.08-.1.12-.16.03-.05.11-.06.16-.11Z"/>
        <path class="cls-1" d="M12.94,15.49c0,.06.02.12.04.18-.03-.03-.06-.03-.04-.18Z"/>
        <path class="cls-1" d="M12.99,14.81s.03.08.04.11c-.02,0-.03.03-.03.06h0c0-.05.04.03,0-.16Z"/>
        <path class="cls-1" d="M12.92,15.36s0-.01,0-.01h0s0,.01,0,.01Z"/>
        <path class="cls-1" d="M13.02,13.36h.02c-.05.04-.1.1-.14.15.03-.06.07-.11.12-.15Z"/>
        <path class="cls-1" d="M13.62,13.38c.11.04.21.11.3.2.09.15.13.32.12.51-.07-.25-.19-.53-.42-.71Z"/>
        <path class="cls-1" d="M13.05,14.84s.01.06.01.1c0,0,0-.01,0-.01,0-.03,0-.06,0-.09Z"/>
        <path class="cls-1" d="M12.7,13.82l.02-.03s-.02.09-.03.13c0-.03,0-.06,0-.1Z"/>
        <path class="cls-1" d="M13.07,15.01v-.03s.01-.04.02-.07c0,.04-.02.07-.02.1Z"/>
        <path class="cls-1" d="M13.09,15.01s0,0,0,.02v.02s.01-.04,0-.03Z"/>
      </g>
      <g>
        <path class="cls-1" d="M6.54,13.24c.31.28.5.71.62,1.12-.05-.17-.11-.32-.18-.47.1.22.15.45.15.72-.07-.06-.06-.23-.14-.24-.15-.56-.36-1.14-.81-1.52.27-.05.26.28.36.38Z"/>
        <path class="cls-1" d="M7.11,15.3c0-.07,0-.12,0-.18.01.06.02.12,0,.18Z"/>
        <path class="cls-1" d="M4.49,14.95c0,.05.01.1,0,.15-.01-.05,0-.1,0-.15Z"/>
        <path class="cls-1" d="M5.81,13.23s-.07,0-.09,0c-.2-.09-.43-.07-.62,0,.2-.09.51-.2.71,0Z"/>
        <path class="cls-1" d="M5.95,13.49c.17.12.28.32.31.55-.04-.21-.15-.41-.31-.55Z"/>
        <path class="cls-1" d="M5,15.64s.01-.02.01-.03c0,0,0,0,0-.01v.12s0,.02-.01.02c0-.05.02-.11-.01-.1Z"/>
        <path class="cls-1" d="M4.5,14.89h0s0-.07,0-.07h0s0,.04,0,.07Z"/>
        <path class="cls-1" d="M4.99,15.6s.02-.04.03-.06v.06s0,0,0,.01c-.01,0,0-.03-.02,0Z"/>
        <path class="cls-1" d="M5.06,15.3s-.03,0-.04-.01c.02-.01.04-.02.05-.02,0,0,0,0-.02-.02h.03s-.01.05-.02.08c0,0,0-.02,0-.02Z"/>
        <path class="cls-1" d="M6.15,15.33c.04.21-.13.35-.04.61.15-.16.22-.5.46-.53.26-.02,0,.45-.05.67l.06-.04s-.06.04-.04.08c.06-.04.14-.14.22-.15l.04.09c.22-.11.32-.51.5-.75-.32.59-.5,1.07-.79,1.57-.15.24-.33.47-.58.63-.25.15-.57.17-.81.08-.27-.07-.49-.17-.74-.3-.25-.14-.53-.34-.79-.74-.09-.15-.2-.65-.18-1.03-.07-.65.01-1.35.18-1.94.22-.61.57-.92.92-1.12.35-.18.72-.27,1.2-.23.2.03.36.3-.07.31-.36.06-.65.19-.89.36.01-.11.15-.13.2-.22-.21.04-.38.12-.56.3.12-.12.24-.21.37-.3-.32.2-.67.51-.9,1.08-.04.11-.13.15-.21.24-.07.1-.14.24-.1.47.31-.9.77-1.27,1.18-1.57h0c.2-.13.39-.21.63-.24-.07.02-.15.05-.21.05.32-.03.7.04.99.23-.47-.16-1.03-.06-1.35.23-.34.27-.66.69-.77,1.33.17-.23.22-.75.44-.77-.22.34-.41.79-.48,1.39,0-.04-.02-.08-.03-.14-.13.37-.02.82.05,1.16l.02.1s-.01-.07-.02-.1c-.06-.33-.07-.69-.03-1.02.02.16.03.3.02.5.05-.12.06-.26.09-.39,0-.18.03-.35.07-.51-.04.26-.02.54.06.74.04-.33.08-.64.17-.89-.03.16-.04.32-.05.48-.05.25-.06.55-.02.83v-.03s0,.06,0,.06c.01.11.04.22.07.32.04.08.09.14.14.17l.02.04s-.04.01-.03.08c.07.28.23.35.39.62.04.07.12.11.2.13.02.03.03.03.05.01.02,0,.04,0,.06.01.05.02.09.03.14.02-.03,0-.08-.01-.14-.02l-.05-.02s.02-.03.05-.03c-.32-.16-.51-.49-.66-.81.02,0,.04,0,.05,0l-.07-.04c-.05-.1-.09-.21-.14-.32.02.03.05.04.07.04-.08-.34-.14-.69-.13-1.08.07-.34.17-.61.3-.86-.1.07-.19.2-.25.38.1-.53.35-.99.75-1.15-.07.13-.15.28-.16.45,0,.06.1,0,.05.09-.14.35-.23.38-.16.72.03.06.18.22.18.32,0,.05,0,.1,0,.14,0,0-.01.01-.01.02,0,0,0,0,.01.02,0,.04,0,.06-.01.08v.02s-.03,0-.05,0c.01,0,.02.01.02.02,0,.02-.01.04-.02.07-.01.02-.03.04-.03.07,0,0,.02-.02.03-.02,0,.03,0,.07,0,.1,0,.03-.02.06-.04.12.08-.09.07.06.12.09h0s.04.04.06.06c0,.03,0,.05.01.09,0-.04.01-.03.02-.05.02.04.05.09.09.15,0-.02,0-.1,0-.1.02,0,.03,0,.05-.01h.06c.07,0,.14-.02.22-.05.02.02.04.04.07.07-.02-.05,0-.04,0-.07,0,.01.02.02.03.03-.02-.08.04-.03.07-.06,0-.01-.02-.04-.03-.05h.01c.13.02.1-.06.12-.12.04-.05.08-.1.12-.16.03-.05.11-.06.16-.11Z"/>
        <path class="cls-1" d="M5.03,15.74c0,.06.02.12.04.18-.03-.03-.06-.03-.04-.18Z"/>
        <path class="cls-1" d="M5.09,15.06s.03.08.04.11c-.02,0-.03.03-.03.06h0c0-.05.04.03,0-.16Z"/>
        <path class="cls-1" d="M5.01,15.61s0-.01,0-.01h0s0,.01,0,.01Z"/>
        <path class="cls-1" d="M5.11,13.61h.02c-.05.04-.1.1-.14.15.03-.06.07-.11.12-.15Z"/>
        <path class="cls-1" d="M5.71,13.63c.11.04.21.11.3.2.09.15.13.32.12.51-.07-.25-.19-.53-.42-.71Z"/>
        <path class="cls-1" d="M5.15,15.09s.01.06.01.1c0,0,0-.01,0-.01,0-.03,0-.06,0-.09Z"/>
        <path class="cls-1" d="M4.8,14.07l.02-.03s-.02.09-.03.13c0-.03,0-.06,0-.1Z"/>
        <path class="cls-1" d="M5.16,15.26v-.03s.01-.04.02-.07c0,.04-.02.07-.02.1Z"/>
        <path class="cls-1" d="M5.18,15.26s0,0,0,.02v.02s.01-.04,0-.03Z"/>
      </g>
      <g>
        <path class="cls-1" d="M19.99,5.26c.39-.15.86-.12,1.28-.03-.17-.03-.34-.05-.5-.06.25.01.47.07.71.19-.08.03-.24-.05-.28.02-.56-.12-1.18-.2-1.72.03.08-.26.37-.1.5-.15Z"/>
        <path class="cls-1" d="M22.08,5.7c-.06-.03-.11-.05-.16-.07.06.02.12.04.16.07Z"/>
        <path class="cls-1" d="M20.57,7.86s.1.04.13.06c-.05-.01-.09-.04-.13-.06Z"/>
        <path class="cls-1" d="M19.64,5.9s-.03.06-.04.08c-.17.14-.26.35-.28.55,0-.22.06-.54.32-.63Z"/>
        <path class="cls-1" d="M19.94,5.9c.18-.09.42-.1.63-.02-.21-.06-.43-.06-.63.02Z"/>
        <path class="cls-1" d="M21.42,7.72s-.01-.02-.02-.02c0,0,0,0,0-.01l.11.05s.01.03,0,.03c-.05-.02-.09-.07-.09-.03Z"/>
        <path class="cls-1" d="M20.52,7.83h-.01s-.05-.02-.05-.02h0s.04.01.06.02Z"/>
        <path class="cls-1" d="M21.38,7.71s-.03-.04-.04-.05l.05.03s0,0,0,.01c0,.01-.03,0-.02.01Z"/>
        <path class="cls-1" d="M21.14,7.52s-.02.02-.03.03c0-.02,0-.04,0-.06,0,0-.01,0-.03,0l.02-.02s.03.03.05.05c0,0-.02,0-.02-.01Z"/>
        <path class="cls-1" d="M21.67,6.56c.21.06.25.28.53.31-.07-.21-.34-.42-.26-.65.1-.24.4.21.57.35t0-.07s0,.07.05.08c0-.07-.06-.19-.03-.27h.1c0-.24-.31-.51-.44-.78.38.55.73.93,1.03,1.42.15.24.27.51.29.8.02.29-.11.59-.3.76-.19.21-.38.36-.61.52-.24.15-.55.31-1.02.37-.18,0-.67-.12-1-.31-.61-.23-1.2-.63-1.64-1.05-.44-.47-.56-.93-.57-1.32,0-.39.09-.77.34-1.17.11-.16.43-.18.24.2-.11.34-.12.66-.09.96-.09-.06-.04-.19-.1-.28-.06.21-.07.39,0,.63-.06-.16-.08-.31-.09-.47.03.38.14.83.54,1.29.08.08.08.18.12.29.06.11.15.23.37.3-.66-.68-.78-1.26-.85-1.77h0c-.03-.23,0-.44.07-.67-.02.08-.03.16-.05.21.12-.3.35-.61.66-.78-.36.35-.52.89-.41,1.31.09.43.31.9.83,1.29-.13-.26-.56-.54-.48-.74.21.35.51.73,1.02,1.06-.04-.01-.08-.02-.14-.04.27.28.72.39,1.05.48l.1.03s-.07-.02-.1-.03c-.32-.1-.65-.25-.92-.44.15.06.28.12.45.21-.08-.1-.2-.17-.31-.26-.16-.09-.3-.19-.42-.29.21.15.47.27.69.29-.28-.18-.53-.36-.71-.56.12.1.26.18.4.26.2.16.46.3.73.4h-.03s.06.01.06.01c.11.04.21.06.32.09.09,0,.16-.01.22-.05h.04s0,.05.05.06c.28.07.42-.05.73-.06.08,0,.15-.05.21-.12.04,0,.04-.02.03-.04.01-.01.02-.03.04-.04.04-.03.07-.07.08-.12-.02.02-.05.07-.08.12l-.04.04s-.02-.04,0-.05c-.29.21-.67.23-1.02.21,0-.02.02-.03.03-.05l-.07.04c-.12,0-.23-.01-.35-.03.03,0,.06-.02.07-.05-.34-.08-.67-.19-1.02-.37-.28-.22-.46-.43-.63-.66.02.12.09.26.22.39-.43-.34-.72-.77-.68-1.19.08.13.18.26.33.35.06.02.05-.08.1,0,.25.28.23.38.57.47.07,0,.28-.06.37-.01.04.02.09.05.13.07,0,0,0,.01.01.02,0,0,.01,0,.03,0,.03.02.06.03.06.05v.02s0,.02,0,.03c.01,0,.02-.01.03-.01.01.02.03.03.05.04.01.02.03.04.04.06,0-.01,0-.03,0-.04.03.02.06.03.09.04.02.02.05.05.09.08-.05-.11.09-.03.13-.06h0s.06-.01.09-.03c.02,0,.05.02.08.03-.03-.02-.02-.03-.04-.04.04,0,.11,0,.18,0-.02-.01-.09-.04-.09-.05.02-.01.01-.03.01-.05l.03-.06c.03-.06.05-.14.06-.22.03,0,.06-.02.09-.03-.05,0-.03-.03-.06-.03.01,0,.03,0,.04-.01-.08-.02-.01-.05-.02-.09,0,0-.04,0-.06,0h0c.09-.12,0-.13-.04-.17-.02-.06-.05-.12-.09-.18-.03-.05,0-.13-.02-.19Z"/>
        <path class="cls-1" d="M21.52,7.74c.05.02.12.04.18.04-.04,0-.05.04-.18-.04Z"/>
        <path class="cls-1" d="M20.95,7.38c.05,0,.09.01.11.02,0,.02.02.04.03.06h0s.05-.02-.14-.07Z"/>
        <path class="cls-1" d="M21.4,7.7s0-.01,0-.01h0s0,.01,0,.01Z"/>
        <path class="cls-1" d="M19.66,6.7v-.02c.02.07.05.13.08.2-.04-.06-.06-.11-.08-.17Z"/>
        <path class="cls-1" d="M19.96,6.17c.09-.08.2-.14.31-.17.17,0,.35.03.51.12-.25-.05-.56-.07-.82.05Z"/>
        <path class="cls-1" d="M20.99,7.34s.06.02.09.04c0,0-.02,0-.02,0-.02-.01-.05-.03-.08-.04Z"/>
        <path class="cls-1" d="M19.93,7.19l-.02-.03s.07.06.11.09c-.02-.01-.05-.03-.09-.05Z"/>
        <path class="cls-1" d="M21.16,7.41l-.02-.02s-.03-.03-.05-.05c.03.03.06.05.07.06Z"/>
        <path class="cls-1" d="M21.16,7.39s0,0,.01.02v.02s-.02-.04-.01-.04Z"/>
      </g>
      <g>
        <path class="cls-1" d="M10.81,18.73c.31.28.5.71.62,1.12-.05-.17-.11-.32-.18-.47.1.22.15.45.15.72-.07-.06-.06-.23-.14-.24-.15-.56-.36-1.14-.81-1.52.27-.05.26.28.36.38Z"/>
        <path class="cls-1" d="M11.38,20.79c0-.07,0-.12,0-.18.01.06.02.12,0,.18Z"/>
        <path class="cls-1" d="M8.77,20.43c0,.05.01.1,0,.15-.01-.05,0-.1,0-.15Z"/>
        <path class="cls-1" d="M10.09,18.71s-.07,0-.09,0c-.2-.09-.43-.07-.62,0,.2-.09.51-.2.71,0Z"/>
        <path class="cls-1" d="M10.22,18.98c.17.12.28.32.31.55-.04-.21-.15-.41-.31-.55Z"/>
        <path class="cls-1" d="M9.27,21.12s.01-.02.01-.03c0,0,0,0,0-.01v.12s0,.02-.01.02c0-.05.02-.11-.01-.1Z"/>
        <path class="cls-1" d="M8.77,20.38h0s0-.07,0-.07h0s0,.04,0,.07Z"/>
        <path class="cls-1" d="M9.27,21.09s.02-.04.03-.06v.06s0,0,0,.01c-.01,0,0-.03-.02,0Z"/>
        <path class="cls-1" d="M9.33,20.78s-.03,0-.04-.01c.02-.01.04-.02.05-.02,0,0,0,0-.02-.02h.03s-.01.05-.02.08c0,0,0-.02,0-.02Z"/>
        <path class="cls-1" d="M10.43,20.81c.04.21-.13.35-.04.61.15-.16.22-.5.46-.53.26-.02,0,.45-.05.67t.06-.04s-.06.04-.04.08c.06-.04.14-.14.22-.15l.04.09c.22-.11.32-.51.5-.75-.32.59-.5,1.07-.79,1.57-.15.24-.33.47-.58.63-.25.15-.57.17-.81.08-.27-.07-.49-.17-.74-.3-.25-.14-.53-.34-.79-.74-.09-.15-.2-.65-.18-1.03-.07-.65.01-1.35.18-1.94.22-.61.57-.92.92-1.12.35-.18.72-.27,1.2-.23.2.03.36.3-.07.31-.36.06-.65.19-.89.36.01-.11.15-.13.2-.22-.21.04-.38.12-.56.3.12-.12.24-.21.37-.3-.32.2-.67.51-.9,1.08-.04.11-.13.15-.21.24-.07.1-.14.24-.1.47.31-.9.77-1.27,1.18-1.57h0c.2-.13.39-.21.63-.24-.07.02-.15.05-.21.05.32-.03.7.04.99.23-.47-.16-1.03-.06-1.35.23-.34.27-.66.69-.77,1.33.17-.23.22-.75.44-.77-.22.34-.41.79-.48,1.39,0-.04-.02-.08-.03-.14-.13.37-.02.82.05,1.16l.02.1s-.01-.07-.02-.1c-.06-.33-.07-.69-.03-1.02.02.16.03.3.02.5.05-.12.06-.26.09-.39,0-.18.03-.35.07-.51-.04.26-.02.54.06.74.04-.33.08-.64.17-.89-.03.16-.04.32-.05.48-.05.25-.06.55-.02.83v-.03s0,.06,0,.06c.01.11.04.22.07.32.04.08.09.14.14.17l.02.04s-.04.01-.03.08c.07.28.23.35.39.62.04.07.12.11.2.13.02.03.03.03.05.01.02,0,.04,0,.06.01.05.02.09.03.14.02-.03,0-.08-.01-.14-.02l-.05-.02s.02-.03.05-.03c-.32-.16-.51-.49-.66-.81.02,0,.04,0,.05,0l-.07-.04c-.05-.1-.09-.21-.14-.32.02.03.05.04.07.04-.08-.34-.14-.69-.13-1.08.07-.34.17-.61.3-.86-.1.07-.19.2-.25.38.1-.53.35-.99.75-1.15-.07.13-.15.28-.16.45,0,.06.1,0,.05.09-.14.35-.23.38-.16.72.03.06.18.22.18.32,0,.05,0,.1,0,.14,0,0-.01.01-.01.02,0,0,0,0,.01.02,0,.04,0,.06-.01.08v.02s-.03,0-.05,0c.01,0,.02.01.02.02,0,.02-.01.04-.02.07-.01.02-.03.04-.03.07,0,0,.02-.02.03-.02,0,.03,0,.07,0,.1,0,.03-.02.06-.04.12.08-.09.07.06.12.09h0s.04.04.06.06c0,.03,0,.05.01.09,0-.04.01-.03.02-.05.02.04.05.09.09.15,0-.02,0-.1,0-.1.02,0,.03,0,.05-.01h.06c.07,0,.14-.02.22-.05.02.02.04.04.07.07-.02-.05,0-.04,0-.07,0,.01.02.02.03.03-.02-.08.04-.03.07-.06,0-.01-.02-.04-.03-.05h.01c.13.02.1-.06.12-.12.04-.05.08-.1.12-.16.03-.05.11-.06.16-.11Z"/>
        <path class="cls-1" d="M9.31,21.22c0,.06.02.12.04.18-.03-.03-.06-.03-.04-.18Z"/>
        <path class="cls-1" d="M9.36,20.55s.03.08.04.11c-.02,0-.03.03-.03.06h0c0-.05.04.03,0-.16Z"/>
        <path class="cls-1" d="M9.29,21.1s0-.01,0-.01h0s0,.01,0,.01Z"/>
        <path class="cls-1" d="M9.38,19.09h.02c-.05.04-.1.1-.14.15.03-.06.07-.11.12-.15Z"/>
        <path class="cls-1" d="M9.99,19.11c.11.04.21.11.3.2.09.15.13.32.12.51-.07-.25-.19-.53-.42-.71Z"/>
        <path class="cls-1" d="M9.42,20.57s.01.06.01.1c0,0,0-.01,0-.01,0-.03,0-.06,0-.09Z"/>
        <path class="cls-1" d="M9.07,19.56l.02-.03s-.02.09-.03.13c0-.03,0-.06,0-.1Z"/>
        <path class="cls-1" d="M9.44,20.75v-.03s.01-.04.02-.07c0,.04-.02.07-.02.1Z"/>
        <path class="cls-1" d="M9.45,20.75s0,0,0,.02v.02s.01-.04,0-.03Z"/>
      </g>
      <g>
        <path class="cls-1" d="M18.97,25.69c-.11.45-.37.77-.59,1.04.09-.11.18-.22.26-.34-.12.18-.25.31-.44.42,0-.08.13-.15.09-.23.31-.38.72-.72.85-1.48.17.33-.13.45-.18.6Z"/>
        <path class="cls-1" d="M17.73,27.09s.07-.06.11-.09c-.03.04-.07.07-.11.09Z"/>
        <path class="cls-1" d="M16.44,24.79s-.07.07-.11.09c.03-.04.07-.06.11-.09Z"/>
        <path class="cls-1" d="M18.63,24.85s-.05-.07-.06-.1c-.07-.28-.32-.52-.57-.61.27.07.67.35.64.71Z"/>
        <path class="cls-1" d="M18.49,25.12c0,.23-.11.43-.27.55.14-.14.24-.33.27-.55Z"/>
        <path class="cls-1" d="M16.19,26.25s.02.02.03.02c0,0,0,.01.01.02l-.11.08s-.02-.03-.02-.04c.04-.03.11,0,.09-.08Z"/>
        <path class="cls-1" d="M16.48,24.76h0s.04-.04.04-.04h0s-.03.03-.04.04Z"/>
        <path class="cls-1" d="M16.23,26.2s.05.03.07.04l-.07.05v-.02s.02-.03,0-.07Z"/>
        <path class="cls-1" d="M16.84,25.9s0-.07,0-.09c.06,0,.12,0,.18,0,0-.02.01-.03.01-.06.02.01.04.03.06.04-.1.05-.22.11-.33.18.02-.02.05-.05.08-.07Z"/>
        <path class="cls-1" d="M17.13,26.34c-.16.17-.45.16-.59.38.28,0,.61-.17.79,0,.18.19-.33.25-.53.35l.08.02s-.08-.02-.09.02c.08.02.21.02.28.07l-.03.08c.24.09.55-.05.81,0-.55.02-1,.18-1.55.29-.27.05-.58.09-.95-.04-.38-.11-.71-.58-.7-.96-.06-.81.15-1.39.37-2,.05-.1.26-.27.42-.37.23-.24.49-.45.77-.69.32-.21.7-.33,1.18-.36.24,0,.51,0,.84.1.32.09.72.3,1.01.68.12.15.16.37.11.45-.05.08-.13,0-.38-.28-.49-.46-1.02-.49-1.38-.49.04-.08.23-.02.34-.06-.32-.1-.56-.09-.81-.04.16-.04.35-.06.54-.06-.5,0-.93.12-1.28.33-.13.07-.37-.09-.46.17.5-.19,1.01-.31,1.67-.33h0c.29,0,.62.05.98.28-.11-.06-.23-.11-.32-.15.24.13.49.33.64.6.16.26.2.56.19.79-.05-.33-.23-.74-.55-.97-.32-.23-.65-.28-.91-.28-.54,0-.98.16-1.33.41.26,0,.49-.29.75-.19-.38.11-.73.26-1.07.45.02-.02.04-.05.05-.08-.26.06-.42.29-.6.45l-.05.04s.04-.03.05-.04c.18-.14.36-.26.55-.37-.06.08-.14.14-.25.21.09,0,.17-.04.27-.08.1-.07.21-.13.32-.19-.16.1-.3.24-.38.39.23-.11.44-.25.68-.33-.12.07-.23.15-.33.23-.2.1-.39.23-.57.38l.02-.02-.04.04c-.07.06-.13.13-.2.19-.05.07-.08.15-.09.24l-.02.03s-.02-.06-.06-.03c-.18.15-.19.41-.34.65-.04.07-.04.17-.02.29-.02.03,0,.05.01.06,0,.02.01.05.02.07.01.06.03.12.07.18-.03-.06-.05-.11-.07-.18,0-.02-.01-.05-.01-.07.02.01.05.03.06.06-.04-.42.16-.74.35-1.04,0,.03,0,.06,0,.08,0-.04,0-.08.01-.12.05-.08.11-.16.19-.29-.01.04-.02.07-.01.11.22-.23.44-.46.7-.66.27-.13.56-.23.85-.29-.17-.03-.35,0-.51.06.39-.22.9-.41,1.4-.18-.12.05-.24.1-.29.21,0,.05.11.09.04.11-.23.13-.43.04-.45.37.03.08.27.34.22.41-.03.03-.11.08-.2.13-.03,0-.06.01-.09.02,0,0,0,.02,0,.04-.1.06-.2.12-.27.14-.03,0-.05.02-.07.03-.02,0-.04-.02-.07-.04,0,.03,0,.05,0,.07-.06.03-.12.06-.18.1-.05,0-.09,0-.14.02.01.01.04.03.05.05-.07.05-.12.11-.17.16-.04,0-.09,0-.14,0,.09.17-.07.25-.06.32h0s0,.02,0,.02c0,0-.15,0-.19,0-.02,0-.04,0-.06,0-.02,0-.05,0-.06,0-.07.02-.09.03-.09.03h0s.03-.04.04-.06c.03-.04.06-.11.08-.19.01-.07.1.06.23.05,0,.02.01.05.02.08.01-.04.05-.02.06-.04,0,.01,0,.02,0,.04.05-.06.08,0,.15,0,.01,0,.02-.04.03-.05h.02c.11.09.17.02.25-.02.09-.01.19-.03.28-.05.07-.02.14.03.22.04Z"/>
        <path class="cls-1" d="M16.1,26.38l-.12.09s-.01-.09.12-.09Z"/>
        <path class="cls-1" d="M17.53,25.52c.02.05.04.08.04.11-.05-.01-.18.02-.32.07h0c.11-.08.26,0,.27-.18Z"/>
        <path class="cls-1" d="M16.22,26.27v.02s.01,0,.01,0c0,0-.01-.01-.01-.02Z"/>
        <path class="cls-1" d="M17.88,24.47h.02c-.06,0-.13,0-.19,0,.05-.02.11-.01.16,0Z"/>
        <path class="cls-1" d="M18.25,24.95c.03.11.03.24,0,.36-.06.15-.16.28-.3.36.16-.21.29-.46.29-.72Z"/>
        <path class="cls-1" d="M17.65,25.27c.02-.07.05-.13.07-.16-.02.04-.05.1-.07.17,0-.01,0,0,0,0Z"/>
        <path class="cls-1" d="M17.37,24.51h.04s-.06.04-.08.06c.01-.02.03-.04.05-.06Z"/>
        <path class="cls-1" d="M17.73,25.04l.04-.02s0,0-.01,0c-.01,0-.02,0-.02,0Z"/>
        <path class="cls-1" d="M17.05,25.01s-.01.02-.03.02c0-.01,0-.03,0-.04.02,0,.04.01.03.01Z"/>
      </g>
      <g>
        <path class="cls-1" d="M25.24,21.64c-.11.45-.37.77-.59,1.04.09-.11.18-.22.26-.34-.12.18-.25.31-.44.42,0-.08.13-.15.09-.23.31-.38.72-.72.85-1.48.17.33-.13.45-.18.6Z"/>
        <path class="cls-1" d="M24,23.04s.08-.06.11-.09c-.03.04-.07.07-.11.09Z"/>
        <path class="cls-1" d="M22.72,20.74s-.07.07-.11.09c.03-.04.07-.06.11-.09Z"/>
        <path class="cls-1" d="M24.9,20.79s-.05-.07-.06-.1c-.07-.28-.32-.52-.57-.61.27.07.67.35.64.71Z"/>
        <path class="cls-1" d="M24.76,21.07c0,.23-.11.43-.27.55.14-.14.24-.33.27-.55Z"/>
        <path class="cls-1" d="M22.46,22.2s.02.02.03.02c0,0,0,.01.01.02l-.11.08s-.02-.03-.02-.04c.04-.03.11,0,.09-.08Z"/>
        <path class="cls-1" d="M22.76,20.7h0s.04-.04.04-.04h0s-.03.03-.04.04Z"/>
        <path class="cls-1" d="M22.5,22.15s.05.03.07.04l-.07.05v-.02s.02-.03,0-.07Z"/>
        <path class="cls-1" d="M23.12,21.85s0-.07,0-.09c.06,0,.12,0,.18,0,0-.02.01-.03.01-.06.02.01.04.03.06.04-.1.05-.22.11-.33.18.02-.02.05-.05.08-.07Z"/>
        <path class="cls-1" d="M23.4,22.29c-.16.17-.45.16-.59.38.28,0,.61-.17.79,0,.18.19-.33.25-.53.35l.08.02s-.08-.02-.09.02c.08.02.21.02.28.07l-.03.08c.24.09.55-.05.81,0-.55.02-1,.18-1.55.29-.27.05-.58.09-.95-.04-.38-.11-.71-.58-.7-.96-.06-.81.15-1.39.37-2,.05-.1.26-.27.42-.37.23-.24.49-.45.77-.69.32-.21.7-.33,1.18-.36.24,0,.51,0,.84.1.32.09.72.3,1.01.68.12.15.16.37.11.45-.05.08-.13,0-.38-.28-.49-.46-1.02-.49-1.38-.49.04-.08.23-.02.34-.06-.32-.1-.56-.09-.81-.04.16-.04.35-.06.54-.06-.5,0-.93.12-1.28.33-.13.07-.37-.09-.46.17.5-.19,1.01-.31,1.67-.33h0c.29,0,.62.05.98.28-.11-.06-.23-.11-.32-.15.24.13.49.33.64.6.16.26.2.56.19.79-.05-.33-.23-.74-.55-.97-.32-.23-.65-.28-.91-.28-.54,0-.98.16-1.33.41.26,0,.49-.29.75-.19-.38.11-.73.26-1.07.45.02-.02.04-.05.05-.08-.26.06-.42.29-.6.45l-.05.04s.04-.03.05-.04c.18-.14.36-.26.55-.37-.06.08-.14.14-.25.21.09,0,.17-.04.27-.08.1-.07.21-.13.32-.19-.16.1-.3.24-.38.39.23-.11.44-.25.68-.33-.12.07-.23.15-.33.23-.2.1-.39.23-.57.38l.02-.02-.04.04c-.07.06-.13.13-.2.19-.05.07-.08.15-.09.24l-.02.03s-.02-.06-.06-.03c-.18.15-.19.41-.34.65-.04.07-.04.17-.02.29-.02.03,0,.05.01.06,0,.02.01.05.02.07.01.06.03.12.07.18-.03-.06-.05-.11-.07-.18,0-.02-.01-.05-.01-.07.02.01.05.03.05.06-.04-.42.16-.74.35-1.04,0,.03,0,.06,0,.08,0-.04,0-.08.01-.12.05-.08.11-.16.19-.29-.01.04-.02.07-.01.11.22-.23.44-.46.7-.66.27-.13.56-.23.85-.29-.17-.03-.35,0-.51.06.39-.22.9-.41,1.4-.18-.12.05-.24.1-.29.21,0,.05.11.09.04.11-.23.13-.43.04-.45.37.03.08.27.34.22.41-.03.03-.11.08-.2.13-.03,0-.06.01-.09.02,0,0,0,.02,0,.04-.1.06-.2.12-.27.14-.03,0-.05.02-.07.03-.02,0-.04-.02-.07-.04,0,.03,0,.05,0,.07-.06.03-.12.06-.18.1-.05,0-.09,0-.14.02.01.01.04.03.05.05-.07.05-.12.11-.17.16-.04,0-.09,0-.14,0,.09.17-.07.25-.06.32h0s0,.02,0,.02c0,0-.15,0-.19,0-.02,0-.04,0-.06,0-.02,0-.05,0-.06,0-.07.02-.09.03-.09.03h0s.03-.04.04-.06c.03-.04.06-.11.08-.19.01-.07.1.06.23.05,0,.02.01.05.02.08.01-.04.05-.02.06-.04,0,.01,0,.02,0,.04.05-.06.08,0,.15,0,.01,0,.02-.04.03-.05h.02c.11.09.17.02.25-.02.09-.01.19-.03.28-.05.07-.02.14.03.22.04Z"/>
        <path class="cls-1" d="M22.38,22.32l-.12.09s-.01-.09.12-.09Z"/>
        <path class="cls-1" d="M23.81,21.47c.02.05.04.08.04.11-.05-.01-.18.02-.32.07h0c.11-.08.26,0,.27-.18Z"/>
        <path class="cls-1" d="M22.49,22.22v.02s.01,0,.01,0c0,0,0-.01-.01-.02Z"/>
        <path class="cls-1" d="M24.16,20.42h.02c-.06,0-.13,0-.19,0,.05-.02.11-.01.16,0Z"/>
        <path class="cls-1" d="M24.53,20.9c.03.11.03.24,0,.36-.06.15-.16.28-.3.36.16-.21.29-.46.29-.72Z"/>
        <path class="cls-1" d="M23.92,21.22c.02-.07.05-.13.07-.16-.02.04-.05.1-.07.17,0-.01,0,0,0,0Z"/>
        <path class="cls-1" d="M23.65,20.46h.04s-.06.04-.08.06c.01-.02.03-.04.05-.06Z"/>
        <path class="cls-1" d="M24,20.99l.04-.02s0,0-.01,0c-.01,0-.02,0-.02,0Z"/>
        <path class="cls-1" d="M23.33,20.96s-.01.02-.03.02c0-.01,0-.03,0-.04.02,0,.04.01.03.01Z"/>
      </g>
      <g>
        <path class="cls-1" d="M30.27,17.75c-.11.45-.37.77-.59,1.04.09-.11.18-.22.26-.34-.12.18-.25.31-.44.42,0-.08.13-.15.09-.23.31-.38.72-.72.85-1.48.17.33-.13.45-.18.6Z"/>
        <path class="cls-1" d="M29.03,19.15s.08-.06.11-.09c-.03.04-.07.07-.11.09Z"/>
        <path class="cls-1" d="M27.75,16.85s-.07.07-.11.09c.03-.04.07-.07.11-.09Z"/>
        <path class="cls-1" d="M29.93,16.91s-.05-.07-.06-.1c-.07-.28-.32-.52-.57-.61.27.07.67.35.64.71Z"/>
        <path class="cls-1" d="M29.79,17.19c0,.23-.11.43-.27.55.14-.14.24-.33.27-.55Z"/>
        <path class="cls-1" d="M27.49,18.31s.02.02.03.02c0,0,0,.01.01.02l-.11.08s-.02-.03-.02-.04c.04-.03.11,0,.09-.08Z"/>
        <path class="cls-1" d="M27.79,16.82h0s.04-.04.04-.04h0s-.03.03-.04.04Z"/>
        <path class="cls-1" d="M27.53,18.27s.05.03.07.04l-.07.05v-.02s.02-.03,0-.07Z"/>
        <path class="cls-1" d="M28.15,17.96s0-.07,0-.09c.06,0,.12,0,.18,0,0-.02.01-.03.01-.06.02.01.04.03.06.04-.1.05-.22.11-.33.18.02-.02.05-.05.08-.07Z"/>
        <path class="cls-1" d="M28.43,18.41c-.16.17-.45.16-.59.38.28,0,.61-.17.79,0,.18.19-.33.25-.53.35t.08.02s-.08-.02-.09.02c.08.02.21.02.28.07l-.03.08c.24.09.55-.05.81,0-.55.02-1,.18-1.55.29-.27.05-.58.09-.95-.04-.38-.11-.71-.58-.7-.96-.06-.81.15-1.39.37-2,.05-.1.26-.27.42-.37.23-.24.49-.45.77-.69.32-.21.7-.33,1.18-.36.24,0,.51,0,.84.1.32.09.72.3,1.01.68.12.15.16.37.11.45-.05.08-.13,0-.38-.28-.49-.46-1.02-.49-1.38-.49.04-.08.23-.02.34-.06-.32-.1-.56-.09-.81-.04.16-.04.35-.06.54-.06-.5,0-.93.12-1.28.33-.13.07-.37-.09-.46.17.5-.19,1.01-.31,1.67-.33h0c.29,0,.62.05.98.28-.11-.06-.23-.11-.32-.15.24.13.49.33.64.6.16.26.2.56.19.79-.05-.33-.23-.74-.55-.97-.32-.23-.65-.28-.91-.28-.54,0-.98.16-1.33.41.26,0,.49-.29.75-.19-.38.11-.73.26-1.07.45.02-.02.04-.05.05-.08-.26.06-.42.29-.6.45l-.05.04s.04-.03.05-.04c.18-.14.36-.26.55-.37-.06.08-.14.14-.25.21.09,0,.17-.04.27-.08.1-.07.21-.13.32-.19-.16.1-.3.24-.38.39.23-.11.44-.25.68-.33-.12.07-.23.15-.33.23-.2.1-.39.23-.57.38l.02-.02-.04.04c-.07.06-.13.13-.2.19-.05.07-.08.15-.09.24l-.02.03s-.02-.06-.06-.03c-.18.15-.19.41-.34.65-.04.07-.05.17-.02.29-.02.03,0,.05.01.06,0,.02.01.05.02.07.01.06.03.12.07.18-.03-.06-.05-.11-.07-.18,0-.02-.01-.05-.01-.07.02.01.05.03.05.06-.04-.42.16-.74.35-1.04,0,.03,0,.06,0,.08,0-.04,0-.08.01-.12.05-.08.11-.16.19-.29-.01.03-.02.07-.01.11.22-.23.44-.46.7-.66.27-.13.56-.23.85-.29-.17-.03-.35,0-.51.06.39-.22.9-.41,1.4-.18-.12.05-.24.1-.29.21,0,.05.11.09.04.11-.23.13-.43.04-.45.37.03.08.27.34.22.41-.03.03-.11.08-.2.13-.03,0-.06.01-.09.02,0,0,0,.02,0,.04-.1.06-.2.12-.27.14-.03,0-.05.02-.07.03-.02,0-.04-.02-.07-.04,0,.03,0,.05,0,.07-.06.03-.12.06-.18.1-.05,0-.09,0-.14.02.01.01.04.03.05.05-.07.05-.12.11-.17.16-.04,0-.09,0-.14,0,.09.17-.07.25-.06.32h0s0,.02,0,.02c0,0-.15,0-.19,0-.02,0-.04,0-.06,0-.02,0-.05,0-.06,0-.07.02-.09.03-.09.03h0s.03-.04.04-.06c.03-.04.06-.11.08-.19.01-.07.1.06.23.05,0,.02.01.05.02.08.01-.04.05-.02.06-.04,0,.01,0,.02,0,.04.05-.06.08,0,.15,0,.01,0,.02-.04.03-.05h.02c.11.09.17.02.25-.02.09-.01.19-.03.28-.05.07-.02.14.03.22.04Z"/>
        <path class="cls-1" d="M27.4,18.44l-.12.09s-.01-.09.12-.09Z"/>
        <path class="cls-1" d="M28.84,17.59c.02.05.04.08.04.11-.05-.01-.18.02-.32.07h0c.11-.08.26,0,.27-.18Z"/>
        <path class="cls-1" d="M27.52,18.33v.02s.01,0,.01,0c0,0,0-.01-.01-.02Z"/>
        <path class="cls-1" d="M29.19,16.54h.02c-.06,0-.13,0-.19,0,.05-.02.11-.01.16,0Z"/>
        <path class="cls-1" d="M29.56,17.02c.03.11.03.24,0,.36-.06.15-.16.28-.3.36.16-.21.29-.46.29-.72Z"/>
        <path class="cls-1" d="M28.95,17.33c.02-.07.05-.13.07-.16-.02.04-.05.1-.07.17,0-.01,0,0,0,0Z"/>
        <path class="cls-1" d="M28.68,16.58h.04s-.06.04-.08.06c.01-.02.03-.04.05-.06Z"/>
        <path class="cls-1" d="M29.03,17.11l.04-.02s0,0-.01,0c-.01,0-.02,0-.02,0Z"/>
        <path class="cls-1" d="M28.36,17.08s-.01.02-.03.02c0-.01,0-.03,0-.04.02,0,.04.01.03.01Z"/>
      </g>
    </g>
  </g>
</svg>