<?xml version="1.0" encoding="UTF-8"?>
<svg id="Calque_2" data-name="Calque 2" xmlns="http://www.w3.org/2000/svg" viewBox="0 0 27.84 30.63">
  <defs>
    <style>
      .cls-1 {
        fill: #fff;
        stroke-width: 0px;
      }
    </style>
  </defs>
  <g id="Calque_1-2" data-name="Calque 1">
    <g id="Roue">
      <g>
        <path class="cls-1" d="M6.69,5.45l.58.14c.15.03.26.05.4.06.26.02.52-.01.76-.08.49-.14.93-.46,1.21-.88.14-.21.23-.42.31-.69l.15-.55c.04-.16.11-.39.21-.64.33-.94,1.02-1.79,1.88-2.29-.67.4-1.26,1-1.61,1.7-.2.33-.3.73-.42,1.05l-.22.82c.06-.2.11-.4.16-.6l.09-.31.14-.38c.08-.26.21-.5.35-.73.13-.24.3-.45.48-.66.73-.82,1.79-1.34,2.94-1.4-.34.06-.88.18-1.34.4-.46.21-.85.49-.94.66-.55.42-.95,1.01-1.22,1.62-.12.31-.24.64-.3.87-.07.23-.15.56-.21.7-.25.7-.87,1.25-1.57,1.43-.35.09-.72.1-1.06.02-.14-.03-.44-.12-.68-.19-.13-.04-.23-.07-.39-.11l-.5-.1c-1.35-.25-2.9.27-3.85,1.28.67-.91,1.63-1.31,2.45-1.4.42-.07.81,0,1.19.03.35.09.78.17,1.02.25Z"/>
        <path class="cls-1" d="M18.66,3.26c-.09-.25-.18-.5-.28-.74-.13-.23-.25-.47-.41-.68.17.22.3.47.43.71.1.25.18.49.26.72Z"/>
        <path class="cls-1" d="M9.39,23.63c.43.21.83.51,1.11.89-.31-.36-.69-.67-1.11-.89Z"/>
        <path class="cls-1" d="M1.61,8.79c-.04.29-.08.58-.07.87-.04.55.11,1.1.31,1.62.23.49.61.97.95,1.31.36.38.65.67.84,1.04.2.37.31.78.32,1.2-.01-.46-.17-.91-.41-1.31-.13-.2-.27-.36-.46-.55-.2-.2-.4-.38-.6-.61-.45-.47-.78-1.06-.96-1.69-.15-.64-.12-1.3.06-1.9Z"/>
        <path class="cls-1" d="M3.02,6.97c.39-.36.89-.59,1.4-.74.52-.1,1.07-.14,1.57,0,.5.1.96.29,1.41.38.45.09.92.08,1.37-.02-.44.11-.91.12-1.37.04-.45-.08-.91-.28-1.4-.37-.5-.13-1.04-.11-1.56,0-.51.14-1.02.36-1.42.73Z"/>
        <path class="cls-1" d="M17.78,23.35s0-.06.05-.12c.06-.06.1-.12.14-.17.86-.75,1.98-1.16,3.1-1.16-.28.02-.53.09-.8.15-.6.11-.96.23-1.31.4-.35.17-.72.38-1.18.91Z"/>
        <path class="cls-1" d="M8.9,23.43h-.05c-.16-.05-.32-.08-.47-.1-.02,0-.03-.01-.06-.02.2.02.39.06.58.12Z"/>
        <path class="cls-1" d="M16.96,24.52s-.1,0-.17.08c.28-.59.68-1.12,1.16-1.54l-.13.17c-.28.31-.71.84-.86,1.29Z"/>
        <path class="cls-1" d="M12.92,26c-.08-.28-.23-.5-.29-.63-.18-.96-.74-2.12-1.8-2.92-.18-.1-.55-.34-.94-.46-.21-.13-.44-.25-.71-.35,1.43.38,2.68,1.42,3.29,2.82.33.78.38,1.24.51,1.65.08.26.18.49.34.66-.2-.18-.28-.41-.4-.77Z"/>
        <path class="cls-1" d="M17.38,4c.15.58.42,1.42.94,1.97.5.6,1.21,1.03,1.98,1.23.39.1.79.13,1.18.1.4-.02.78-.15,1.09-.23.34-.11.62-.16.9-.23.28-.03.56-.06.83-.02-.63-.18-1.34-.04-2.15.16-.85.2-1.76.06-2.43-.29-.68-.36-1.13-.89-1.35-1.34-.22-.45-.25-.8-.19-.92.15-.27.27.73,1.27,1.49.49.37,1.16.64,1.85.63.68,0,1.34-.29,1.96-.36-.32.02-.34,0-.64.05.3-.04.65-.06.92-.13-.7-.03-1.86.3-2.12.14.15-.04.29-.1.43-.16-.64.04-1.53-.15-2.12-.74-.64-.59-.67-1.26-.77-2.18.04.24.07.48.11.72.05.26.05.35.11.53.09.32.28.63.55.89.53.52,1.34.8,2.22.59l.83-.18c.33-.05.67-.12,1.01-.09.69,0,1.39.21,1.98.59,1.19.73,1.97,2.08,1.96,3.51,0,.71-.19,1.44-.59,2.04-.17.31-.44.58-.65.82-.2.21-.44.45-.6.63-.65.71-.84,1.79-.49,2.67.08.22.19.43.34.62.13.19.3.34.53.57.4.36.96.98,1.25,1.63.62,1.36.35,2.99-.5,4.12-.91,1.31-2.68,1.99-4.23,1.65-.37-.06-.63-.13-.94-.19-.25-.04-.44-.06-.66-.04-.42.03-.82.19-1.14.43-.32.24-.56.56-.7.9-.07.2-.09.29-.15.59-.07.31-.08.52-.2.91-.36,1.56-1.73,2.99-3.34,3.4-.6.17-1.7.28-2.83-.13-1.14-.38-2.2-1.35-2.67-2.33-.47-.89-.61-1.71-.75-2.02-.13-.29-.33-.54-.59-.7-.26-.17-.56-.25-.85-.24-.14.01-.29.02-.42.08-.28.09-.57.18-.86.27-.96.27-2.12.29-3.15-.08-1.04-.36-1.92-1.06-2.53-1.92C.39,22.54.02,21.5,0,20.41c-.03-1.09.32-2.21.94-3.08.16-.21.33-.41.5-.6.19-.21.26-.27.4-.41l.34-.34c.05-.05.1-.1.14-.16.17-.23.26-.51.27-.81,0-.3-.09-.59-.27-.83-.05-.08-.07-.08-.18-.21l-.38-.38-.19-.2-.27-.31c-.18-.21-.36-.42-.49-.68-.25-.38-.42-.87-.51-1.28-.07-.42-.07-.77-.04-.91.05-.15.08-.1.2.24.11.33.24,1,.83,1.85.11.19.26.32.4.48.14.15.29.32.38.4l.33.3.27.26c.26.24.42.57.51.91.08.35.06.73-.06,1.08-.06.17-.14.34-.25.49-.05.08-.11.15-.17.22-.05.06-.19.2-.29.3.03-.07.1-.17.2-.29.05-.09.13-.16.19-.26.13-.19.23-.42.23-.58-.09.24-.22.44-.38.61-.27.26-.52.51-.78.76-.79.77-1.37,1.93-1.39,3.21.02-.84.26-1.71.72-2.41.2-.34.53-.69.74-.93.19-.19.44-.44.57-.59-.05.07-.23.24-.34.36-.14.15-.23.22-.41.44-.35.38-.66.84-.89,1.34-.46,1.02-.52,2.23-.19,3.29.32,1.07,1,2.02,1.95,2.67.95.65,2.19.9,3.29.73.32-.05.64-.11,1.02-.17.14-.02.28-.04.43-.06.12,0,.17,0,.26,0,.32.02.62.06,1.07.14-.24-.14-.51-.24-.79-.26-.14,0-.29-.01-.43.02-.05,0-.19.03-.32.06l-.38.09c-.21.06-.64.12-.98.17-.37.02-.75.03-1.12-.04-.75-.09-1.46-.43-2.06-.86-1.19-.89-1.91-2.29-1.93-3.77-.03-.74.18-1.49.51-2.14.32-.65.91-1.23,1.22-1.55v.02s.24-.25.24-.25l.15-.17c.09-.11.16-.23.23-.35.13-.25.2-.52.22-.79.04-.55-.14-1.1-.52-1.52.25.25.43.57.48.88-.03-.2-.1-.4-.2-.58-.04-.1-.11-.18-.16-.27-.07-.08-.12-.15-.25-.29-.39-.41-1.07-1.1-1.41-1.92-.73-1.68-.25-3.65.96-4.87-.82.91-1.25,2.13-1.15,3.37.05.61.23,1.23.55,1.76.28.54.78,1,1.08,1.3,1.3,1.03,1.34,2.78.15,3.87-.18.18-.33.33-.52.54-.19.24-.41.45-.55.73-.35.51-.51,1.14-.6,1.75-.1,1.25.35,2.49,1.21,3.36.82.91,2.12,1.35,3.32,1.25.28-.04.61-.1.85-.16l.68-.19c.38-.11.7-.14,1.06-.1-.19-.04-.4-.08-.61-.06-.21,0-.42.06-.73.13-.51.14-1.32.33-2.03.26-1.5-.13-2.73-1.22-3.08-2.25.46.92,1.29,1.64,2.28,1.98.49.18,1.02.22,1.54.2.26-.03.51-.08.76-.12l.63-.16c1.41-.48,2.91.33,3.32,1.65-.07-.19-.18-.35-.29-.51.09.19.17.37.22.58.07.26.13.51.2.77.06.25.2.64.33.94.17.31.34.63.59.89.94,1.13,2.46,1.57,3.79,1.4.24-.03.48-.09.72-.15-.24.06-.48.11-.72.15-.62.07-1.25,0-1.84-.17-.58-.21-1.14-.5-1.58-.94-.44-.43-.79-.96-.99-1.52l-.15-.42-.09-.36c-.06-.22-.12-.51-.18-.66.06.14.13.39.2.6.06.22.13.45.24.74.18.55.54,1.11,1.04,1.59-.25-.28-.53-.65-.73-1.09-.22-.44-.34-.96-.43-1.36-.08-.3-.14-.54-.23-.75-.09-.22-.22-.42-.36-.61-.3-.37-.69-.67-1.13-.85.69.27,1.26.8,1.56,1.46.14.3.26.75.39,1.14.08.21.17.43.26.64.11.2.24.39.36.58-.37-.57-.54-1.25-.67-1.82-.13-.58-.35-1.06-.72-1.48-.74-.83-1.94-1.19-3.03-.9,1.18-.36,2.54.08,3.29,1.07.65.8.53,2.03,1.25,3.09.7,1.01,1.96,1.61,3.2,1.51-.09,0-.19.02-.28.02l.57-.04c.96-.13,1.89-.66,2.47-1.48.11-.19.22-.39.32-.58.07-.2.13-.41.2-.62.09-.38.16-.79.25-1.13.05-.11.09-.23.15-.34-.06.23-.09.33.13-.04.49-.78,1.35-1.39,2.35-1.49.51-.07.98.05,1.56.22.26.08.59.14.9.2.32.02.65.06.98,0,.7-.06,1.62-.52,2.23-1.33.18-.2.25-.34.3-.46.1-.19.19-.39.27-.59.17-.5.27-1.04.21-1.56.04.52-.05,1.05-.21,1.56l-.25.54c.03-.14.06-.28.18-.54-.34.83-.99,1.55-1.81,1.95-.82.43-1.82.41-2.67.17-.42-.11-.82-.24-1.21-.27-.4-.03-.8.01-1.18.13-.76.24-1.43.79-1.79,1.51.06-.18.19-.43.25-.53-.18.27-.31.57-.4.87-.17.49-.26,1.05-.49,1.62-.24.54-.58,1.08-1.07,1.44.28-.24.48-.51.62-.77-1.01,1.38-3.05,1.81-4.54.98-.75-.4-1.34-1.09-1.62-1.89-.29-.79-.37-1.57-.87-2.15-.41-.56-1.02-.99-1.7-1.17-.7-.2-1.39-.1-2.12.11-.72.19-1.55.26-2.28-.02-.73-.25-1.35-.77-1.76-1.41.4.71,1.09,1.32,1.95,1.58.86.27,1.82.05,2.61-.16-1.01.34-2.45.59-3.51-.12-1.09-.61-1.79-1.8-1.86-3.04-.04-.63.13-1.25.41-1.8.28-.57.76-.98,1.14-1.37.8-.71,1.18-1.78,1.02-2.83.14.36.19.83.16,1.27-.04.44-.15.85-.22,1.12.05.01.27-.32.39-.58.11-.26.19-.41.06.03-.12.41-.32.78-.56,1.1-.26.33-.48.54-.71.8-.41.46-.67.9-.78,1.36-.2.92.13,1.69.57,1.98.1.05-.08-.57.03-1.03.1-.47.35-.71.32-.42,0,.25.03.61.24.98.2.37.55.74.98.87.23.13.5.14.8.11.04,0,.1-.04.17-.08.04,0,.18-.04.3-.07l.35-.09c.19-.05.55-.15.9-.19.69-.09,1.38-.03,1.98.14,1.22.34,2.07,1.1,2.54,1.71.35.46.61.97.78,1.5.08.32.08.46.07.6.05.12.09.23.14.33.04.12.09.24.12.28.16.56.5.96,1.02,1.16.27.13.6.23.93.22-.01-.03-.07-.07-.01-.1.72-.1,1.28-.53,1.5-1.24.04-.05.08-.16.12-.28.04-.11.09-.22.13-.33.05-.1.09-.21.14-.32.06-.14.13-.27.19-.4.11-.46.38-1.05.87-1.6.49-.54,1.19-1.04,2.03-1.29.83-.27,1.77-.27,2.62-.05.29.08.58.15.86.23.18.02.35.08.5.05h0c.31.01.6-.07.86-.22.27-.14.52-.36.69-.64.09-.07.15-.16.23-.23.05-.16.06-.34.08-.42.14-.5.12-.94-.05-1.37-.06-.06-.2-.15-.33-.28-.07-.11-.32-.36-.51-.55-.16-.17-.48-.47-.69-.78-.52-.74-.82-1.65-.84-2.56-.02-.77.17-1.54.51-2.22.32-.69.96-1.27,1.29-1.58.23-.21.32-.33.45-.46.11-.14.21-.28.28-.43.17-.3.2-.65.19-.99.03-.05.07-.07.11-.08-.07-.22-.14-.54-.27-.71.03.03.06.05.07.03-.18-.3-.3-.46-.42-.62-.11-.16-.23-.32-.49-.49-.12-.07-.26-.1-.39-.12l-.18-.08c-.31-.15-.69-.24-1.08-.14-.17,0-.47.11-.71.17-.23.06-.58.16-.93.19-1.41.11-2.79-.57-3.59-1.66-.61-.88-.55-1.42-.63-1.98Z"/>
        <path class="cls-1" d="M21.48,21.91c.34.03.77.13,1.01.21l.73.22c.33.08.66.15.98.09-.34.1-.69.04-1.03-.02-.25-.07-.49-.14-.73-.23-.25-.09-.63-.2-.96-.27Z"/>
        <path class="cls-1" d="M3.7,19.74c.13-.17.32-.31.51-.48-.47.49-.57,1.07-.3,1.69.28.61.85.99,1.47.94h0c-.51.06-1.08-.21-1.39-.76-.31-.54-.29-1.05-.29-1.39Z"/>
        <path class="cls-1" d="M17.83,23.22l.13-.17h.01s-.09.1-.14.17Z"/>
        <path class="cls-1" d="M4.51,14.83c0-.09,0-.17-.02-.25.11.64.01,1.32-.26,1.91.2-.49.33-1.07.28-1.66Z"/>
        <path class="cls-1" d="M2.26,8.66c.4-1.23,1.57-2.2,2.9-2.24.86-.03,1.61.39,2.48.49.86.09,1.74-.15,2.44-.64-.63.49-1.42.76-2.21.74-.81,0-1.52-.37-2.21-.45-1.42-.23-2.91.7-3.39,2.1Z"/>
        <path class="cls-1" d="M6.24,14.69c0-.83-.24-1.68-.66-2.43.45.74.72,1.58.76,2.44-.04-.16-.07-.02-.1,0Z"/>
        <path class="cls-1" d="M2.16,19.54c.02-.13.08-.24.12-.37-.1.31-.14.65-.12.97-.04-.12,0-.4,0-.6Z"/>
        <path class="cls-1" d="M3.91,9.71c0,.08-.02.17,0,.24,0,.08.02.16.05.23-.06-.08-.1-.17-.15-.27.02-.06.07-.13.09-.21Z"/>
        <path class="cls-1" d="M5.94,8.4l.4.11.21.06.31.07c.42.09.84.11,1.25.11-.51.02-1.03-.02-1.53-.14l-.94-.23c.08-.02.25,0,.3.02Z"/>
      </g>
      <g>
        <path class="cls-1" d="M11.78,19.59c-1.02-.52-1.78-1.46-2.22-2.4.18.38.39.74.66,1.06-.38-.49-.62-.98-.74-1.6.14.15.22.55.38.58.62,1.31,1.72,2.46,3.14,3-.66.07-.87-.44-1.21-.64Z"/>
        <path class="cls-1" d="M9.35,15.01c0,.15.02.29.03.43-.02-.15-.04-.3-.03-.43Z"/>
        <path class="cls-1" d="M18.64,16.03c.02-.14.03-.27.05-.41,0,.14,0,.27-.05.41Z"/>
        <path class="cls-1" d="M13.73,19.65c.08,0,.16-.01.25-.01.6.1,1.23.09,1.85-.05-.66.16-1.43.31-2.1.06Z"/>
        <path class="cls-1" d="M13.16,19.26c-.57-.17-1.09-.52-1.42-.96.35.42.86.76,1.42.96Z"/>
        <path class="cls-1" d="M16.62,13.06s-.03.02-.05.02c-.01,0-.03,0-.04,0-.09-.12-.17-.26-.28-.37.04.01.09,0,.13.02.1.15.07.23.24.33Z"/>
        <path class="cls-1" d="M18.61,16.18v.02s0,.09-.02.14h-.01c.01-.06.02-.11.03-.16Z"/>
        <path class="cls-1" d="M16.74,13.21s-.06.06-.08.09c-.04-.08-.09-.14-.13-.22h.04c.06.02.09.11.17.13Z"/>
        <path class="cls-1" d="M17.05,15.03s.08.1.1.12c-.06.13-.14.25-.2.38.02.03,0,.07.04.13-.04.02-.08.04-.11.06.1-.3.15-.63.15-.98.01.09.02.19.01.29Z"/>
        <path class="cls-1" d="M10.78,14.92c-.05-.68.38-1.31.53-1.95-.58.55-.8,1.64-1.16,1.75-.2.06-.19-.26-.07-.66.12-.4.38-.84.53-1.15q-.08.06-.15.13c.08-.06.15-.13.15-.22-.16.12-.39.42-.53.48l-.02-.2c-.49.35-.76,1.34-1.02,1.91.44-1.38,1.15-2.75,2.35-3.75,1.18-1,2.9-1.5,4.43-1.11,1.71.32,3.27,1.34,4.22,2.88.18.29.34,1.09.33,1.67.12,1-.02,2.05-.36,3.05-.86,2.11-3.11,3.37-5.46,3.4-.49,0-1.05-.4.04-.47.89-.14,1.74-.41,2.52-.82-.04.15-.45.28-.61.42.65-.17,1.16-.43,1.67-.86-.34.28-.7.54-1.1.74.99-.5,1.93-1.37,2.45-2.46.18-.38.71-.62.61-1.32-.5,1.53-1.65,2.76-3.01,3.48h0c-.6.33-1.22.5-1.88.59.22-.05.37-.08.59-.13-.97.14-1.91.06-2.81-.21,1.31.19,2.68.03,3.87-.59,1.19-.61,2.13-1.71,2.45-2.95-.38.6-.66,1.54-1.28,1.82.78-.8,1.3-1.88,1.44-3.04,0,.07.02.16.03.26.23-.72.04-1.54-.17-2.24l-.06-.19c.02.07.04.13.06.19.18.66.22,1.33.14,1.97-.02-.41-.03-.61-.05-.98-.05.21-.07.5-.11.78-.02.37-.07.74-.19,1.09.14-.55.13-1.13,0-1.61-.02.74-.15,1.5-.48,2.16.14-.38.25-.76.28-1.16.13-.65.12-1.35-.06-2.01.01.02.02.05.03.07-.01-.05-.03-.1-.05-.15-.08-.26-.18-.51-.31-.76-.13-.21-.3-.39-.49-.53l-.07-.09c.07.04.13.04.05-.08-.34-.57-.99-.85-1.58-1.29-.16-.12-.41-.19-.69-.24-.07-.05-.11-.04-.15-.02-.06,0-.12-.02-.18-.02-.15-.02-.29-.04-.44-.03.13,0,.28.02.44.03.05,0,.11.02.16.03-.04.02-.09.05-.17.03.98.23,1.89.8,2.56,1.59-.07-.03-.14-.06-.18-.08.09.05.18.11.26.18.21.26.4.54.56.83-.06-.08-.13-.15-.21-.2.43.83.64,1.79.53,2.75-.18.88-.62,1.68-1.24,2.28.39-.27.73-.66.96-1.12-.49,1.27-1.66,2.32-3.02,2.53.21-.18.47-.39.53-.6-.04-.06-.41.03-.22-.09.64-.5,1.17-.75,1.05-1.29-.06-.08-.9.02-.77-.21.1-.14.31-.37.46-.65.06-.07.11-.15.17-.23.01,0,0-.04-.02-.08.14-.31.21-.62.26-.79.02-.06.05-.13.05-.19.03-.03.06-.06.11-.08-.03-.04-.05-.09-.07-.13.02-.18.02-.36,0-.54,0-.1.04-.22.04-.33-.03.01-.06.04-.1.03-.06-.22-.15-.43-.27-.63-.01-.1-.03-.2-.01-.31-.35-.04-.65-.55-1.06-.69h0c-.18-.08-.37-.17-.57-.22-.03-.03-.05-.07-.07-.11-.06.03-.11.03-.14.05-.13-.05-.28-.12-.45-.19-.03.02-.08.11-.13.12-.11,0-.22,0-.32.03-.12,0-.24.03-.37.05-.42.07-.83.23-1.22.46-.03-.02-.06-.05-.09-.07-.01.09-.12.12-.14.19,0-.02,0-.04-.03-.05-.09.21-.2.16-.34.3-.03.04-.02.09-.03.13-.02.01-.03.03-.04.05-.28.08-.34.32-.43.55-.13.22-.26.45-.34.7-.07.2-.18.27-.28.42Z"/>
        <path class="cls-1" d="M16.21,12.66c-.14-.16-.3-.29-.47-.42.2.1.42.15.47.42Z"/>
        <path class="cls-1" d="M16.03,17.13c-.1-.02-.2-.03-.29-.02.38-.2.7-.52.92-.9h0c-.15.35-.61.59-.64.92Z"/>
        <path class="cls-1" d="M16.57,13.08h-.04s0,0,0,0c.02,0,.03,0,.04,0Z"/>
        <path class="cls-1" d="M15.69,19.07l-.07.02c.18-.06.34-.15.5-.22-.12.08-.27.16-.43.2Z"/>
        <path class="cls-1" d="M13.75,19.06c-.36-.06-.72-.15-1.06-.31-.41-.24-.77-.56-.99-.94.53.58,1.24,1.04,2.05,1.25Z"/>
        <path class="cls-1" d="M15.2,17.41c-.1-.01-.19-.03-.29-.06.09,0,.17-.02.26-.04,0,.03.02.07.03.1Z"/>
        <path class="cls-1" d="M17,18.31l-.09.07c.06-.07.11-.15.17-.23-.02.04-.05.1-.09.17Z"/>
        <path class="cls-1" d="M14.25,17.28c.06.02.12.03.19.04-.04.01-.08.04-.12.07-.02-.04-.04-.08-.07-.11Z"/>
        <path class="cls-1" d="M13.34,16.98c-.07-.04-.14-.1-.19-.16.08.06.17.1.26.14-.03.01-.06.03-.07.01Z"/>
      </g>
    </g>
  </g>
</svg>