<?xml version="1.0" encoding="UTF-8"?>
<svg id="Calque_2" data-name="Calque 2" xmlns="http://www.w3.org/2000/svg" viewBox="0 0 36.58 26.94">
  <defs>
    <style>
      .cls-1 {
        fill: #fff;
        stroke-width: 0px;
      }
    </style>
  </defs>
  <g id="Calque_1-2" data-name="Calque 1">
    <g id="Son">
      <g>
        <path class="cls-1" d="M17.79,11.92c-.07-2.43-.05-4.88-.08-7.09l.03,2.66c-.01-1.33.02-2.45.09-3.81.09.41.02,1.28.13,1.5,0,3.25-.14,6.5-.27,9.66-.27-1.25.1-2.03.1-2.92Z"/>
        <path class="cls-1" d="M17.84,2.41s.02-.03.05-.02c-.04,0,0,.01-.05.02Z"/>
        <path class="cls-1" d="M12.08,20.3c-.29-.24-.58-.48-.85-.71.29.22.57.47.85.71Z"/>
        <path class="cls-1" d="M18.43,16.18c.02.21.03.4.05.59-.03,1.49-.07,3-.11,4.54.03-1.67-.08-3.46.05-5.13Z"/>
        <path class="cls-1" d="M18.67,14.56c-.01-1.52.03-3.07.15-4.51-.09,1.44-.13,2.96-.15,4.51Z"/>
        <path class="cls-1" d="M.44,18.82s-.05,0-.09-.06c-.03-.04-.06-.09-.11-.15-.18-.44-.2-.95-.17-1.48l.02-.65.02-.46c.01.15.05.29.06.45-.03.45-.05.82-.07,1.14,0,.36.02.72.34,1.22Z"/>
        <path class="cls-1" d="M12.4,20.57l.04.02.29.24s.02.02.03.04c-.13-.1-.24-.2-.36-.29Z"/>
        <path class="cls-1" d="M1.29,19.67s-.01.09.04.16c-.49-.26-.89-.7-1.09-1.22.03.06.07.11.1.14.18.31.55.78.95.91Z"/>
        <path class="cls-1" d="M9.5,20.33s.09-.06.12-.07c.02.03.02.05.04.1l.3.32c.22.22.44.45.67.68.09.05.26.2.45.31.07.11.15.22.24.33-.55-.5-1.11-1.01-1.67-1.52-.24-.19.12-.12-.99-.15.21,0,.42,0,.64,0h.16s.03,0,.05,0Z"/>
        <path class="cls-1" d="M16.66,1.55c-1.41,1.39-3.25,2.78-4.52,4.26,1.76-1.43,4.1-3.52,4.6-3.47.5.05-2.26,2.13-3.55,3.35q.2-.13.4-.26c-.2.13-.4.26-.52.43.4-.26,1.12-.82,1.39-.91l-.25.35c1.07-.6,2.76-2.08,3.83-2.68-1.16.78-2.36,1.69-3.59,2.7-.61.5-1.24,1.03-1.86,1.58-.64.57-1.28,1.15-1.93,1.73-.23.22-.5.4-.81.47-.29.08-.68.05-.92.05-.48,0-.97,0-1.46,0-.97.01-1.95.03-2.93.04l-1.34.03c-.29.01-.63-.03-.83.23-.22.23-.14.56-.15.84,0,.44.01.87.02,1.31.03.99.08,1.97.13,2.92.03.47.06.95.09,1.42l.05.7.05.3c.01.18.13.35.32.39.18.04.36-.05.49-.08.85-.09,1.71-.18,2.57-.27.65-.05,2.22-.02,3.34,0h.57c.23,0,.45.02.67.08.44.12.83.35,1.17.66.4.34.81.67,1.22,1.01.77.63,1.54,1.24,2.32,1.84.41.34.8.67,1.2,1l.5.43h0s-.01,0,0,.01c0,0,.01,0,.02,0,0,0,0,0,.01-.01h0s0-.18,0-.18v-.4c0-1.07,0-2.16,0-3.27,0-.89.36-2.11.47.08.06.91.11,1.82.14,2.73.01.55.03,1.1.04,1.64-.12-.17-.05-.4-.13-.54-.04.19-.06.33-.07.46-.01.14-.17.26-.33.22.1.02.22-.03.26-.12.05-.1.02-.21.02-.31,0,.12.04.28-.08.37-.11.1-.27.05-.36-.05l-.35-.29c-.46-.39-.92-.79-1.38-1.18-.67-.58-1-1.38-2.12-2.02,1.14,1.1,2.3,2.22,3.45,3.32.17.18.35.4.58.58.13.07.29.05.4-.05.12-.09.12-.25.11-.39h0c0-.33,0-.65,0-.96,0-.68,0-1.36,0-2.06.02.43.04.88.02,1.26.1-2.03.13-4.04.15-6.05.1,1.42.16,2.87.19,4.35.01,1.25.03,2.5.04,3.75,0,.2.03.43-.1.6-.12.17-.34.26-.54.23-.22-.02-.36-.2-.51-.33l-.46-.41c-.5-.44-1-.88-1.5-1.32-.55-.48-1.1-.95-1.65-1.42.54.61,1.25,1.22,1.94,1.82.33.29.71.62.97.86.18.18.35.36.51.59-.87-.78-1.74-1.57-2.61-2.36-.99-.91-1.99-1.83-3-2.76.24.2.35.27.52.4-.24-.22-.7-.82-1.29-.98-.29-.09-.62-.08-.91-.08h-.65c-.86,0-1.73.03-2.57.01h-.45s.45,0,.45,0c.77.02,1.53.04,2.29.06.4,0,.8.02,1.2.03.52-.02,1.04.19,1.4.56-.35-.31-.82-.52-1.33-.5-.4,0-.82,0-1.29-.02.23.04.52.07.83.09.32.03.85,0,1.21.22.26.12.47.35.67.52l.49.45.98.89c-.51-.45-1.03-.89-1.54-1.31-.3-.27-.64-.54-1.04-.57-.2-.02-.4,0-.59,0l-.48.03c.41.05,1.07-.07,1.53.26.46.37.76.69,1.11,1,.69.64,1.38,1.27,2.06,1.91l-2.31-2-.47-.44c-.18-.16-.34-.35-.56-.45-.44-.22-.98-.12-1.38-.16-.86-.01-1.73-.03-2.6-.04h.2s-.4,0-.4,0c-.68,0-1.37-.01-2.05-.02-.66,0-1.12.07-1.69.1-.09-.02-.18-.04-.25-.08.18.03.27.03,0-.12-.27-.2-.4-.55-.37-.88,0-.36-.01-.74-.02-1.12-.01-.86-.02-1.74.05-2.66.04-.48.02-1.12-.01-1.82.03-.19.01-.29-.02-.38l-.02-.45c0-.4,0-.67-.03-.99.01.32.02.65.03.99v.41c-.02-.09-.06-.19-.06-.4-.01,1.28-.03,2.58-.04,3.89,0,.65,0,1.31-.01,1.97,0,.29,0,.58,0,.87.03.29.22.56.49.69-.15-.03-.32-.15-.39-.21.17.17.4.28.64.29.39.02.73,0,1.15,0,.43,0,.86-.02,1.29-.03-.26.02-.49.05-.7.1,1.23,0,2.45,0,3.68,0l1.88-.02c.34-.02.69.11.93.34l.72.63c1.68,1.57,3.35,3.12,5.01,4.66-.79-.85-1.75-1.77-2.7-2.66l1.97,1.72c.61.52,1.09,1,1.69,1.45.33.18.75.09,1.01-.17.29-.26.24-.67.25-1.02.02-.78.04-1.57.06-2.37.13.64.23,1.44.4,1.95.08.03.11-1.26.16-.5.07.7.09,1.42.02,1.94-.01.55-.43,1.01-.88,1.17-.46.18-.9.07-1.18-.06-.29-.12-.59-.22-.87-.29-.13,0,.56.74,1.14,1.04.63.33,1.37.2.77.38-.54.07-1.03.03-1.83-.42-.4-.25-.82-.66-1.27-1.04-.33-.29-.68-.58-1.02-.88-.3-.28-.6-.56-.92-.85-.03-.04-.12-.08-.22-.14-1.14-.99-2.21-1.94-2.78-2.49l-.32-.31c-.11-.1-.23-.22-.21-.21,0-.04,0-.09-.01-.14-.05,0-.1.02-.14.04-.04,0-.04-.01-.29-.02h-.58c-.39-.02-.77-.03-1.16-.04-.43-.04-.87-.08-1.27-.12,0,.03.08.07,0,.1-.98-.01-1.96-.02-2.93-.03-.68-.02-1.27-.1-1.65-.35-.39-.07-.91-.37-1.24-.9-.17-.27-.28-.57-.33-.92-.06-.36-.03-.76-.04-1.16,0-1.02.03-1.97.01-2.81H0c0-.83,0-1.67.01-2.52.03-.14.06-.27.09-.4-.04-.21-.05-.43-.07-.54.02-.55.01-1.12.15-1.54.12-.43.38-.81.72-1.09.1-.12.29-.39.61-.52.32-.12.65-.18,1.01-.19.34,0,.67,0,1,0,.49.01.99.02,1.49.03l2.52.08,1.25.05h.28s.13.03.13.03c.09,0,.17,0,.25-.05.03.02.06.05.09.09.02-.04.04-.07.07-.1.03-.03.27-.24.35-.35-.02.04-.03.07-.01.08.51-.57.68-.59,1.21-1.02.11-.11.19-.23.29-.35l.17-.14c.69-.38,1.21-.95,1.85-1.53l1.99-1.63c.52-.43.8-.52,1.2-.78Z"/>
        <path class="cls-1" d="M.12,15.79l.13-2.39c0,.86.06,1.62-.13,2.39Z"/>
        <path class="cls-1" d="M19.09,26.49c.45-.13.9-.47,1.17-.85-.31.54-1.01,1.1-1.77,1.24-.8.14-1.31.03-2.06-.38-.37-.21-.73-.57-1.09-.89l-.99-.89c-.38-.34-.76-.69-1.15-1.03h0c.32.26.66.57,1,.89.59.53,1.2,1.08,1.78,1.61.7.56,1.27.69,1.75.71.53.02,1.05-.17,1.36-.4Z"/>
        <path class="cls-1" d="M.34,18.76s-.07-.09-.1-.14c0,0,0-.01,0-.01.04.06.08.11.11.15Z"/>
        <path class="cls-1" d="M18.91,21.33v-.2c.02.51.04,1.01.05,1.51-.03-.42-.05-.86-.05-1.32Z"/>
        <path class="cls-1" d="M19.01,15.95l-.04-3.06c.03-1.31.08-2.6.19-3.83-.05,2.27-.1,4.57-.15,6.89Z"/>
        <path class="cls-1" d="M20.64,21.3c.04-.4.08-.85.12-1.27,0,.43-.01.85-.02,1.28-.03-.08-.07-.01-.1,0Z"/>
        <path class="cls-1" d="M18.15,25.22c.1-.02.2-.07.29-.12-.22.16-.5.23-.76.21.09,0,.32-.02.47-.09Z"/>
        <path class="cls-1" d="M20.85,16.77c-.01.31-.02.63-.03.94-.02-.19-.04-.37-.07-.55.04-.1.08-.23.1-.38Z"/>
        <path class="cls-1" d="M20.83,11.9c0-.43.01-.84.02-1.25,0,.5.02,1,.03,1.5-.03-.11-.06-.2-.05-.26Z"/>
      </g>
      <g>
        <path class="cls-1" d="M25.27,17.9c-.11.44-.35.84-.53,1.22.09-.14.14-.3.21-.45-.1.23-.23.4-.43.57-.03-.11.11-.21.04-.3.29-.52.68-.99,1-1.5.16.31-.24.32-.29.47Z"/>
        <path class="cls-1" d="M24.06,19.72c.03-.05.06-.1.09-.15-.02.06-.05.11-.09.15Z"/>
        <path class="cls-1" d="M25.02,14.02c-.01-.06-.02-.12-.02-.18.02.06.02.12.02.18Z"/>
        <path class="cls-1" d="M24.95,16.96s-.02-.08-.02-.11c.1-.22.2-.47.32-.73-.1.27-.09.6-.3.84Z"/>
        <path class="cls-1" d="M24.63,17.14c-.09.24-.22.47-.43.64.19-.18.31-.41.43-.64Z"/>
        <path class="cls-1" d="M23.58,12.33s-.04,0-.06,0c0,0-.02-.01-.03-.01.02-.09.03-.18.05-.28.02.02.06.03.07.06-.02.1-.12.14-.03.24Z"/>
        <path class="cls-1" d="M25.02,14.09h.01s.01.07.01.07h0s-.02-.04-.02-.07Z"/>
        <path class="cls-1" d="M23.58,12.44s-.08.01-.12.03l.03-.15h.03s0,.1.05.13Z"/>
        <path class="cls-1" d="M23.31,13.58s.09.06.11.07c-.06.08-.12.16-.16.25.02.02.02.05.07.08-.04.02-.07.03-.09.05.02-.2.05-.41.07-.63,0,.06.01.12,0,.18Z"/>
        <path class="cls-1" d="M22.95,8.31c.24.2.23.61.58.75-.04-.38-.29-.81-.03-1.09.26-.28.36.41.51.66q.01-.05.03-.11c-.01.06-.03.11.03.12.03-.11.01-.28.09-.39l.11.02c.14-.34-.08-.72,0-1.1.03.77.23,1.35.49,1.95.25.6.59,1.19.76,1.8.29.65.7,1.26,1.13,1.89.05.12.04.42.01.63.08.38.11.76.24,1.15.09.83-.23,1.6-.45,2.45-.04.18-.46.28-.44-.15-.01-.37.01-.71.08-1.05.11.06,0,.21.07.3.12-.24.2-.44.22-.69-.01.17-.05.33-.07.5.08-.42.13-.88.12-1.34,0-.16.38-.29.12-.54-.15.59-.36,1.18-.48,1.77h0c-.04.26-.09.5-.17.75,0-.08.01-.17.05-.23-.21.34-.32.69-.47,1.03-.02-1.1.45-2.14.36-3.19-.2.27.03.68-.24.9.06-.42.11-.85.19-1.4.01.04.03.07.05.11.15-.3.01-.62.04-.91v-.08s0,.06,0,.08c-.03.29-.06.56-.08.81-.05-.12-.05-.25-.03-.4-.08.08-.11.2-.14.32,0,.15-.02.31-.04.46,0-.24-.04-.47-.15-.68-.07.45-.1.63-.15.95,0-.17-.01-.35-.02-.52.05-.29.06-.58.08-.88v.03s0-.07,0-.07c0-.12,0-.23-.01-.35-.02-.1-.07-.2-.14-.3v-.05s.07.04.08-.03c.08-.29-.17-.54-.07-.88.02-.09-.03-.19-.08-.3.02-.04,0-.05-.03-.06l-.04-.07c-.02-.06-.04-.12-.08-.17.02.06.05.12.08.17,0,.02.01.04.02.07-.03,0-.07-.02-.08-.05.09.43.12.87.19,1.31-.03-.03-.07-.05-.09-.07.03.04.06.08.09.12.02.14.05.29.09.43-.03-.04-.06-.08-.11-.11.03.41.06.78.09,1.24-.07.39-.14.77-.24,1.14.13-.19.22-.4.26-.62,0,.59-.06,1.19-.3,1.74-.11-.14-.17-.3-.33-.4-.08-.01-.15.16-.18.04-.15-.41.1-.64-.36-.86-.13-.04-.62.28-.7.14-.03-.11-.05-.29-.06-.49.02-.05.03-.11.04-.17.01,0-.02-.02-.05-.04-.01-.21,0-.41.03-.52.01-.04.03-.08.04-.12.03-.02.06-.04.1-.05-.03-.03-.06-.05-.08-.08.02-.12.03-.23.05-.33.04-.06.08-.13.12-.19-.03,0-.07.02-.1,0,0-.14,0-.27,0-.41.03-.06.08-.12.16-.17-.27-.12-.18-.47-.25-.7h0c-.02-.11-.04-.23-.07-.35.02-.03.05-.05.08-.08-.05-.02-.06-.05-.09-.06.01-.1.05-.2.08-.29-.03,0-.12-.01-.13-.04-.01-.06-.03-.12-.06-.18,0-.07-.02-.14-.03-.21-.04-.24-.06-.48-.09-.73.03-.02.07-.04.1-.06-.07,0-.05-.07-.09-.09.02,0,.03,0,.05-.02-.11-.07-.03-.13-.04-.23-.01-.02-.06-.02-.08-.03v-.03c.11-.18,0-.25-.06-.36-.02-.14-.05-.26-.08-.38-.03-.1.05-.2.07-.31Z"/>
        <path class="cls-1" d="M23.55,12c.02-.12.05-.24.07-.37.02.12.1.23-.07.37Z"/>
        <path class="cls-1" d="M23.26,15.08c-.09.03-.15.07-.2.11.08-.26.09-.54.14-.82h.01c0,.23-.19.53.05.71Z"/>
        <path class="cls-1" d="M23.52,12.32h-.03s.02,0,.03,0Z"/>
        <path class="cls-1" d="M24.74,15.99v.03c0-.1,0-.18,0-.25.02.07.02.15,0,.22Z"/>
        <path class="cls-1" d="M24.39,16.81c-.05.16-.09.32-.14.48-.11.19-.23.36-.43.49.21-.3.38-.64.57-.97Z"/>
        <path class="cls-1" d="M23.05,15.59s-.1.09-.16.14c.03-.05.05-.1.06-.16.03.02.07.02.1.02Z"/>
        <path class="cls-1" d="M24.78,15.3v.05s-.04-.09-.07-.14c.02.02.04.06.07.09Z"/>
        <path class="cls-1" d="M22.68,16.11s.04-.07.06-.11c0,.03.03.06.05.09-.05,0-.08,0-.11.02Z"/>
        <path class="cls-1" d="M22.47,16.7c-.02.05-.05.1-.08.14.02-.07.03-.13.05-.19.02.03.04.05.03.05Z"/>
      </g>
      <g>
        <path class="cls-1" d="M29.73,20.89c-.14.35-.28.7-.47,1.02-.2.32-.39.62-.57.93l.43-.72c-.22.35-.41.65-.74.93.02-.15.23-.33.17-.45.56-.82,1.16-1.63,1.63-2.5.12.47-.32.55-.44.79Z"/>
        <path class="cls-1" d="M27.56,23.83c.06-.08.13-.16.19-.23-.06.09-.12.17-.19.23Z"/>
        <path class="cls-1" d="M30.08,14.55c-.01-.11-.02-.21-.03-.31.02.1.02.21.03.31Z"/>
        <path class="cls-1" d="M29.63,19.46c0-.06,0-.12.01-.18.19-.39.31-.82.48-1.24-.17.46-.17,1.01-.49,1.42Z"/>
        <path class="cls-1" d="M29.23,19.81c-.13.42-.4.79-.68,1.11.26-.33.52-.69.68-1.11Z"/>
        <path class="cls-1" d="M28.54,11.54s-.04,0-.06,0c0-.01-.02-.02-.03-.03.02-.16,0-.32,0-.49.02.04.07.07.08.1,0,.18-.09.23,0,.42Z"/>
        <path class="cls-1" d="M30.09,14.66h.01s.01.12.01.12c0,0,0,0,0,.01-.01-.04-.02-.09-.02-.13Z"/>
        <path class="cls-1" d="M28.56,11.75s-.08.02-.12.04l.02-.27s.02.02.03.02c.04.06,0,.15.07.21Z"/>
        <path class="cls-1" d="M28.38,13.8c0,.06.09.11.11.13-.06.15-.12.29-.16.46.02.03.02.08.07.14-.04.03-.07.06-.09.1,0-.38.07-.76.07-1.16.01.11.02.22.01.33Z"/>
        <path class="cls-1" d="M26.56,4.68c.38.39.58.99,1.03,1.33-.17-.62-.7-1.31-.46-1.64.22-.31.62.67.86,1.1q0-.08,0-.16c0,.08,0,.16.07.19,0-.16-.08-.42-.02-.56l.14.06c.04-.46-.35-1.03-.36-1.51.24,1.01.73,1.91,1.19,2.89.5.96.96,1.99,1.28,2.99.22.55.42,1.09.68,1.61.21.53.48,1.04.69,1.56.06.2.06.68.04,1.03.07.61.12,1.23.22,1.85.06,1.33-.37,2.57-.74,3.94-.07.28-.55.52-.44-.17.02-.58.16-1.13.24-1.68.1.09-.01.34.05.48.15-.39.24-.73.3-1.14l-.12.81c.06-.35.11-.69.17-1.06.03-.37.06-.74.06-1.11.02-.27.4-.49.14-.89-.15.97-.41,1.94-.6,2.91h0c-.05.43-.19.82-.29,1.23.02-.13.04-.27.09-.38-.13.29-.25.58-.35.86-.13.3-.24.57-.36.85.27-1.73.88-3.51.82-5.24-.2.46-.02,1.12-.29,1.5.05-.38.09-.76.14-1.16.03-.38.06-.77.1-1.18.01.06.03.12.05.17.17-.5,0-1.02.01-1.52v-.13s0,.09,0,.13c-.03.46-.01.9-.06,1.34-.03-.2-.04-.41-.04-.67-.08.14-.09.34-.13.54-.01.26-.03.51-.04.78,0-.4-.03-.79-.15-1.14-.06.66-.1,1.08-.16,1.61l-.02-.88c.07-.49.06-.98.06-1.49v.06s0-.11,0-.11c0-.2,0-.39-.03-.59-.03-.18-.1-.34-.18-.51v-.09s.07.07.08-.04c.07-.48-.24-.92-.19-1.47.01-.14-.05-.32-.14-.51.01-.06-.01-.08-.05-.1l-.06-.12c-.03-.1-.06-.2-.12-.3.03.1.08.2.12.3.01.04.03.07.04.11-.04-.02-.08-.04-.1-.09.1.35.16.72.22,1.09.06.37.14.74.18,1.12-.04-.05-.07-.09-.1-.12.04.07.07.14.11.21.04.24.08.49.13.73-.03-.07-.07-.14-.12-.19.04.7.13,1.4.14,2.1-.05.66-.17,1.31-.28,1.95.14-.33.23-.7.3-1.07-.04,1-.15,2.01-.51,2.95-.08-.21-.11-.46-.26-.61-.08-.01-.17.29-.19.1-.12-.69.19-1.11-.25-1.44-.11-.06-.68.56-.74.32,0-.25,0-.56,0-.87.02-.1.04-.21.05-.31.01-.01-.01-.04-.04-.07.02-.38,0-.75.05-.95.01-.08.03-.15.04-.22.03-.04.06-.07.11-.1-.03-.05-.05-.09-.07-.14,0-.21.02-.41.02-.6.04-.11.07-.24.11-.34-.03,0-.07.02-.1,0,.01-.25-.02-.49-.04-.74.03-.1.07-.2.14-.29-.28-.23-.23-.86-.36-1.27h0c-.04-.21-.08-.42-.14-.63.01-.04.03-.08.06-.12-.06-.04-.08-.09-.11-.11-.01-.18,0-.34.01-.5-.03-.02-.13-.04-.14-.1-.02-.11-.07-.21-.12-.31-.03-.12-.07-.24-.11-.37-.1-.43-.24-.83-.36-1.25.02-.03.06-.05.1-.07-.08-.04-.08-.14-.13-.18.02,0,.04,0,.05-.01-.15-.14-.09-.22-.15-.39-.02-.03-.08-.04-.11-.07l-.02-.06c.06-.27-.1-.41-.21-.6l-.29-.62c-.08-.16-.03-.3-.04-.45Z"/>
        <path class="cls-1" d="M28.47,10.96c0-.21,0-.42,0-.64.04.22.14.41,0,.64Z"/>
        <path class="cls-1" d="M28.22,16.55c-.09.06-.16.14-.22.23.12-.49.18-1,.24-1.52h0c0,.42-.22.99-.03,1.29Z"/>
        <path class="cls-1" d="M28.49,11.53s-.02-.02-.03-.02h0s.02.01.03.02Z"/>
        <path class="cls-1" d="M29.6,17.91l-.02.05c.01-.14.05-.28.06-.42.02.12-.01.24-.04.37Z"/>
        <path class="cls-1" d="M29.06,19.32c-.09.27-.17.55-.27.82-.19.32-.4.62-.65.87.32-.54.66-1.09.92-1.69Z"/>
        <path class="cls-1" d="M27.92,17.5c-.06.08-.13.18-.2.27.04-.1.07-.2.11-.3.02.03.07.02.1.03Z"/>
        <path class="cls-1" d="M29.75,16.74v.08c-.03-.07-.04-.15-.05-.23.01.04.03.09.05.14Z"/>
        <path class="cls-1" d="M27.41,18.51c.04-.07.07-.14.11-.2,0,.05,0,.1.02.15-.05,0-.09.03-.13.05Z"/>
        <path class="cls-1" d="M26.97,19.59c-.05.09-.1.18-.15.25.05-.11.09-.22.14-.33.02.04.03.07.02.07Z"/>
      </g>
      <g>
        <path class="cls-1" d="M33.89,23c-.21.45-.41.91-.67,1.34-.28.41-.55.81-.81,1.2l.61-.92c-.32.45-.57.85-1,1.22.06-.17.32-.42.28-.57.78-1.07,1.57-2.15,2.16-3.31.06.59-.4.73-.57,1.05Z"/>
        <path class="cls-1" d="M30.93,26.84c.09-.1.18-.2.26-.29-.08.11-.17.22-.26.29Z"/>
        <path class="cls-1" d="M34.74,14.61c-.01-.14-.02-.28-.02-.42.02.14.02.28.02.42Z"/>
        <path class="cls-1" d="M33.98,21.19c0-.08.02-.16.04-.23.24-.53.4-1.1.61-1.67-.23.61-.25,1.34-.65,1.9Z"/>
        <path class="cls-1" d="M33.52,21.68c-.18.56-.53,1.06-.89,1.49.33-.45.68-.94.89-1.49Z"/>
        <path class="cls-1" d="M33.11,10.5s-.04,0-.06-.02c0-.02-.02-.03-.03-.04,0-.22-.01-.44-.02-.66.02.05.08.09.09.15.02.24-.08.31.03.57Z"/>
        <path class="cls-1" d="M34.74,14.77v.02s.03.14.03.14v.02c-.02-.06-.02-.12-.03-.18Z"/>
        <path class="cls-1" d="M33.14,10.78s-.08.02-.11.04v-.38s.02.03.03.04c.04.08.01.21.08.3Z"/>
        <path class="cls-1" d="M33.04,13.6c0,.08.09.15.11.18-.06.2-.12.41-.16.64.02.04.02.12.06.19-.04.04-.07.09-.09.14,0-.52.08-1.06.06-1.61.01.15.03.3.02.46Z"/>
        <path class="cls-1" d="M30.03,1.25c.51.53.86,1.3,1.41,1.8-.28-.82-1.02-1.72-.81-2.08.1-.18.3.06.52.4.1.16.23.36.35.55.1.2.2.39.29.53l-.03-.2c.02.1.03.2.11.24-.03-.2-.16-.54-.11-.7l.16.09c-.03-.56-.58-1.29-.68-1.88.21.63.53,1.21.83,1.82.28.63.67,1.22.96,1.88.16.32.33.64.5.97.14.33.29.67.44,1,.32.66.52,1.36.75,2.02.27.74.51,1.46.81,2.15.23.71.54,1.39.76,2.08.06.26.07.9.07,1.36.07.81.12,1.62.22,2.43.03,1.74-.45,3.38-.97,5.18-.09.37-.62.72-.43-.18.07-.76.27-1.48.38-2.21.1.11-.04.44.02.63.17-.53.29-.97.37-1.51l-.17,1.07c.08-.45.15-.92.24-1.4.04-.48.08-.98.1-1.47.04-.36.41-.66.15-1.18-.06.64-.19,1.28-.32,1.93-.1.65-.26,1.28-.38,1.93h0c-.07.57-.24,1.08-.39,1.63.03-.17.06-.35.12-.5-.16.38-.31.77-.44,1.15-.15.38-.32.75-.48,1.13.5-2.25,1.22-4.66,1.18-6.95-.19.62-.05,1.49-.33,2.01.06-.51.12-1.02.18-1.54.03-.51.07-1.03.1-1.57.01.08.03.16.05.23.18-.66-.02-1.36-.01-2.02v-.18c0,.06,0,.12,0,.18-.02.61.01,1.2-.03,1.79-.03-.27-.05-.55-.05-.89-.07.19-.08.45-.12.72-.02.35-.03.69-.05,1.04-.01-.53-.02-1.06-.15-1.53-.06.82-.1,1.45-.15,2.16l-.02-1.18c.08-.66.04-1.32.04-1.99v.08s0-.15,0-.15c0-.26-.02-.53-.05-.79-.04-.24-.12-.46-.21-.68l-.02-.12c.05.07.09.1.09-.05.05-.63-.3-1.24-.29-1.96,0-.19-.07-.43-.18-.68,0-.08-.02-.11-.06-.14l-.07-.16c-.04-.14-.09-.27-.15-.4.04.13.1.27.15.4.02.05.03.1.05.15-.04-.03-.09-.05-.11-.13.14.47.23.97.31,1.46.1.5.2,1,.26,1.5-.04-.06-.08-.13-.1-.17.04.1.08.19.12.29.05.33.11.65.17.98-.03-.1-.08-.18-.13-.26.07.46.06.94.11,1.41.04.47.08.94.07,1.42-.04.44-.06.89-.12,1.32-.07.44-.13.87-.2,1.3.16-.45.26-.94.34-1.44-.05.67-.08,1.34-.18,2.01-.14.66-.23,1.33-.48,1.96-.06-.26-.07-.61-.22-.79-.08,0-.19.4-.19.15-.08-.92.28-1.5-.17-1.93-.1-.07-.72.8-.76.48.02-.25.01-.71.03-1.2.03-.14.05-.28.07-.44.01-.02-.01-.05-.04-.09.03-.53,0-1.04.05-1.32.01-.11.03-.21.04-.31.03-.05.06-.1.11-.14-.03-.06-.05-.13-.07-.2,0-.29,0-.56,0-.83.03-.15.07-.33.1-.46-.03,0-.07.03-.1,0,0-.34-.04-.68-.07-1.02.02-.14.06-.27.12-.4-.29-.33-.29-1.19-.46-1.76h0c-.06-.29-.11-.58-.2-.87.01-.05.03-.11.05-.16-.06-.06-.09-.13-.12-.16-.03-.24-.04-.45-.04-.67-.03-.03-.13-.07-.16-.14-.03-.16-.1-.29-.16-.43-.05-.16-.11-.33-.16-.51-.16-.59-.37-1.14-.57-1.7.02-.03.06-.06.09-.08-.09-.06-.11-.19-.17-.25.02,0,.04,0,.06,0-.18-.21-.13-.29-.23-.52-.03-.05-.09-.07-.13-.11l-.03-.07c.01-.33-.19-.53-.35-.8-.14-.27-.3-.53-.45-.81-.13-.21-.09-.37-.14-.55Z"/>
        <path class="cls-1" d="M32.99,9.7c-.02-.29-.03-.58-.05-.87.06.3.18.56.05.87Z"/>
        <path class="cls-1" d="M32.81,17.42c-.1.09-.18.21-.24.33.17-.69.24-1.39.32-2.11h0c-.02.58-.25,1.39-.09,1.78Z"/>
        <path class="cls-1" d="M33.06,10.49s-.02-.02-.03-.04h0s.03.02.03.04Z"/>
        <path class="cls-1" d="M34.11,19.15l-.02.07c.03-.19.07-.37.09-.56.01.16-.02.32-.07.49Z"/>
        <path class="cls-1" d="M33.4,21.06c-.13.36-.25.73-.39,1.09-.26.43-.53.83-.84,1.19.22-.36.44-.73.66-1.11.22-.37.38-.78.57-1.17Z"/>
        <path class="cls-1" d="M32.43,18.74c-.07.12-.16.26-.24.39.05-.14.09-.28.14-.41.02.03.07.02.1.03Z"/>
        <path class="cls-1" d="M34.34,17.58l-.02.11c0-.1-.02-.2-.03-.31.01.05.03.12.05.19Z"/>
        <path class="cls-1" d="M31.79,20.16c.05-.1.1-.19.14-.29,0,.07,0,.13,0,.2-.05.02-.1.05-.15.09Z"/>
        <path class="cls-1" d="M31.16,21.66c-.07.12-.14.24-.21.35.07-.15.14-.3.21-.45,0,.05.02.08,0,.1Z"/>
      </g>
    </g>
  </g>
</svg>