<?xml version="1.0" encoding="UTF-8"?>
<svg id="Calque_2" data-name="Calque 2" xmlns="http://www.w3.org/2000/svg" viewBox="0 0 39.52 37.3">
  <defs>
    <style>
      .cls-1 {
        fill: #fff;
        stroke-width: 0px;
      }
    </style>
  </defs>
  <g id="Calque_1-2" data-name="Calque 1">
    <g id="_Étoile" data-name="Étoile">
      <g>
        <path class="cls-1" d="M7.7,11.36c2.8.01,5.6.02,8.29.03.35-1.15.7-2.27,1.03-3.34l-1.02,3.35h-.13s.09,0,.13,0c.25-.77.47-1.48.7-2.2.33-.98.67-1.97,1.03-3.06-.13.72-.66,2.18-.66,2.57l-.92,2.89c-5.32-.14-10.68-.28-15.92-.41.24.18.49.36.73.53-.35-.22-.67-.42-.95-.6,1.34-.06,2.82,0,4.12.07,1.32.07,2.47.16,3.58.17Z"/>
        <path class="cls-1" d="M19.77.09c-.17.55-.34,1.09-.5,1.62.17-.57.33-1.13.5-1.62Z"/>
        <path class="cls-1" d="M16.75,27.29c.53-.4,1.05-.81,1.55-1.2-.5.41-1.03.8-1.55,1.2Z"/>
        <path class="cls-1" d="M5.52,14.07c.39.25.76.5,1.14.75,2.22,1.62,4.47,3.26,6.76,4.93-1.16-.82-2.35-1.66-3.55-2.51-.71-.5-1.41-1.01-2.12-1.51-.78-.57-1.54-1.13-2.23-1.66Z"/>
        <path class="cls-1" d="M3.39,12.25l-.09-.06c1.48.01,3.03.04,4.53.08l2.19.07c.65.03,1.3.06,1.95.1-.65-.03-1.29-.05-1.94-.08-.72-.02-1.43-.04-2.16-.07-1.51-.03-3.03-.07-4.56-.1l.08.06Z"/>
        <path class="cls-1" d="M28.05,27.58s-.07-.07-.1-.11c-.02-.03-.04-.06-.06-.1l-.2-.88c.04.08.11.16.15.26.1.41-.03.35.21.84Z"/>
        <path class="cls-1" d="M16.17,27.74l-.05.05c-.18.14-.35.28-.53.41-.02.01-.04.03-.07.04.22-.17.43-.34.64-.51Z"/>
        <path class="cls-1" d="M28.17,27.97c-.07-.08-.14-.16-.2-.23l-.07-.37.06.09c.09.17.07.26.21.51Z"/>
        <path class="cls-1" d="M20.53,22.34c-.59.44-1.08.91-1.33,1.13-.95.65-1.9,1.29-2.97,2.02-.14.13-.45.37-.72.62-.2.1-.41.22-.62.35,1.88-1.39,3.8-2.79,5.79-4.26.88.66,1.82,1.37,2.77,2.09-.9-.67-1.82-1.35-2.77-2.06l-.15.11Z"/>
        <path class="cls-1" d="M20.38,1.01c1.12,3.35,2.09,7.24,3.36,10.52-1.09-3.96-2.68-9.21-2.5-9.91.18-.68,1.67,5.24,2.63,8.24q-.09-.41-.17-.82c.09.41.17.82.33,1.16-.17-.82-.58-2.38-.6-2.86l.31.68c-.36-2.11-1.49-5.92-1.86-8.03.41,1.87.9,3.85,1.46,5.93.29,1.05.58,2.1.88,3.17.26.92.53,1.84.8,2.78.86,0,1.73,0,2.61,0,1.05,0,2.12-.02,3.19-.03,2.88-.04,5.79-.09,8.7-.13-3.78,2.73-7.56,5.46-11.18,8.07-.16.13-.33.25-.49.37.71,1.88,1.4,3.74,2.09,5.58,1.21,3.29,2.41,6.55,3.6,9.78-2.66-1.84-5.29-3.65-7.89-5.45-.33-.24-.76-.55-1.26-.91-.37-.27-.78-.58-1.22-.9-.78-.59-1.63-1.24-2.34-1.78l-.15-.08-.14.13-.04.04-.23.18-.47.36-1.86,1.45c-1.98,1.54-3.96,3.08-5.98,4.64-1.82,1.38-3.63,2.74-5.42,4.1,1.35-4,2.68-7.97,4.03-11.98.35-1,.69-2.01,1.04-3.03.18-.51.35-1.02.53-1.53l.05-.15h0s0-.01,0-.01v-.02s0-.01,0-.01h0s0-.01,0-.01l-.07-.05c-.42-.3-.85-.61-1.28-.91-.86-.61-1.73-1.22-2.61-1.84-.27-.2-.55-.4-.84-.61-.29-.23-.59-.45-.89-.68-.54-.43-.95-.77-1.07-.92-.12-.15.03-.11.56.2.26.16.62.38,1.09.69.42.28.93.62,1.54,1.03,1.46.97,2.9,1.93,4.33,2.88l-.24.77-.56,1.69c0-.2.15-.66.31-1.16.08-.25.16-.51.24-.75.05-.16.03-.12.04-.18,0-.03,0-.06,0-.09l-.05.12v.03s-.05.1-.05.1l-.07.2c-.1.27-.2.54-.29.8-.19.53-.37,1.05-.56,1.56-.45,1.31-.89,2.61-1.37,4.02l1.76-5.32c-1.46,4.36-3.03,9.08-4.62,13.86,1.28-.97,2.57-1.94,3.86-2.91,1.09-.82,2.08-1.44,3.28-2.26.58-.39,1.28-.89,1.89-1.34.37-.28.76-.6,1.17-.99-1.52,1.09-3.06,2.2-4.6,3.3-1.79,1.29-3.58,2.59-5.38,3.9,1.48-4.3,2.97-8.6,4.44-12.89v.03c.29-.86.56-1.69.83-2.5-.77-.54-1.52-1.08-2.3-1.64.64.43,1.29.87,1.83,1.28-.73-.54-1.45-1.08-2.16-1.61-.8-.58-1.59-1.16-2.37-1.74-2.27-1.63-4.53-3.25-6.79-4.87,2.56,1.75,5.11,3.5,7.69,5.26,1.51,1.05,3.03,2.1,4.56,3.17-1.59,4.73-3.2,9.51-4.78,14.18,2.48-1.86,4.93-3.7,7.34-5.51-1.11.75-2.29,1.6-3.5,2.51-1.22.92-2.47,1.85-3.64,2.73.46-1.36.94-2.71,1.41-3.86-.4,1.19-.81,2.39-1.21,3.59,3.59-2.63,7.2-5.29,10.89-8-.27.22-.54.44-.81.67.52-.36,1.03-.71,1.54-1.06,1.6,1.19,3.23,2.39,4.79,3.55.31.23.61.46.92.7l-.92-.7c-1.62-1.24-3.22-2.47-4.79-3.67-.25.18-.49.35-.72.52.22-.19.46-.38.72-.58.2.15.4.3.62.46.32.24.65.49,1,.76-.24-.22-.58-.5-.88-.75-.24-.2-.49-.4-.74-.62l-.37.25c-1.21.89-2.41,1.77-3.6,2.65.73-.55,1.45-1.11,2.17-1.65.34-.27.68-.53,1.02-.8.26-.21.52-.42.78-.63.35.24.7.47,1.04.7-.35-.27-.69-.54-1.04-.82-2.24,1.63-4.51,3.27-6.74,4.89l4.54-3.43c.73-.53,1.46-1.05,2.2-1.59,1.59,1.21,3.2,2.43,4.82,3.66l-.29-.2.59.43c1.14.86,2.29,1.72,3.44,2.58.81.6,1.57,1.12,2.26,1.58l-.32-.84-.2-.58c.19.44.32.72.11.03-.43-1.46-1.04-3.19-1.62-4.87-.26-.75-.51-1.51-.78-2.28-.25-.75-.48-1.51-.71-2.28-.08-.28-.21-.69-.3-.96-.1-.29-.21-.6-.32-.92.19-.14.38-.29.58-.44.25-.14.32-.21.45-.34.21-.16.43-.32.64-.48.53-.38,1.07-.77,1.58-1.16-.51.38-1.04.77-1.58,1.16l-.59.43c.12-.12.24-.26.54-.47-.58.41-1.17.82-1.78,1.24,1.23,3.7,2.51,7.52,3.79,11.35-.15-.36-.34-.82-.44-1.04.21.54.42,1.08.63,1.62l.26.75c-1.16-.85-2.32-1.69-3.48-2.54.41.28.77.51,1.06.67-2.77-2.05-5.54-4.1-8.33-6.16-.73.55-1.47,1.11-2.2,1.66-2.78,2.02-5.55,4.02-8.29,6.01.28-.8.55-1.59.83-2.38-.32.86-.64,1.71-.97,2.57,1.18-.82,2.51-1.77,3.89-2.77l-4.14,3.11,2.35-7.01c.68-1.95,1.35-3.9,2.03-5.85l-.9-.66c.31.16.69.38,1.08.6-.15.68-.34,1.49-.37,1.94.05-.02.23-.45.39-.85.15-.38.25-.61.06.03-.31,1.11-.57,1.98-.85,2.86-.27.85-.51,1.63-.74,2.34-.32,1.07-.54,1.91-.33,2.05.07-.01.5-.81.79-1.23.3-.45.49-.57.48-.4-.05.27-.14.65-.22.98.02-.02.05-.05.08-.07.08-.04.19-.12.31-.2,0,0,.06-.06.1-.14.09-.07.18-.14.27-.21.23-.17.45-.34.65-.49.92-.68,1.72-1.26,2.29-1.67.43-.3.85-.6,1.27-.9.41-.27.76-.49,1.03-.63.39-.32.76-.62,1.11-.9l.28.19c1.38,1.05,2.74,2.08,4.08,3.1.57.47,1.14.95,1.69,1.41.01-.03.01-.08.06-.08.35.27.69.54,1.04.81l.41.41s.05,0,.09,0c-.35-.62-.5-.98-.64-1.4-.14-.44-.29-.91-.44-1.36-.27-.79-.53-1.56-.76-2.26h0c-.43-1.29-.87-2.59-1.31-3.91.65-.46,1.31-.93,1.97-1.4.29-.18.45-.25.67-.36.28-.25.6-.48.73-.61,1-.67,1.86-1.21,2.72-1.75.03-.03.07-.07.12-.12.03-.04.03-.05.05-.08.03-.05.06-.1.1-.13.21-.14.4-.28.58-.41.25-.17.51-.33.77-.5l.2-.13c-.43-.02-.86-.04-1.29-.06l-.76-.04-1.99-.03c-.09-.03-.12-.08-.14-.12-.45.06-1.09.02-1.5.06.08-.02.13-.03.11-.06-.67.04-1.07.04-1.45.02-.5-.02-1.09-.04-1.95-.05-.1,0-.2,0-.3.01-.1-.26-.21-.55-.3-.8-.06-.19-.11-.38-.17-.58-.11-.47-.2-.86-.28-1.24-.08-.33-.18-.67-.28-1-.21-.67-.43-1.35-.65-2.08l-1.22-4.38c-.33-1.16-.34-1.63-.52-2.45Z"/>
        <path class="cls-1" d="M27.63,26.26c-.41-1.36-.82-2.71-1.23-4.06.48,1.44.97,2.71,1.23,4.06Z"/>
        <path class="cls-1" d="M14.05,26.24c.25-.5.51-1.08.76-1.72l-.76,2.22-.15.42.19-.14v.02c-.09.07-.16.12-.22.16.06-.16.13-.3.15-.4.01-.05.01-.1,0-.15l-.02-.09v-.05s.04-.27.04-.27Z"/>
        <path class="cls-1" d="M27.95,27.46l-.06-.09h0s.05.06.06.09Z"/>
        <path class="cls-1" d="M13.91,19.44l-.28-.2.89.6-.49,1.53c.14-.48.3-1,.47-1.53-.19-.13-.39-.27-.59-.41Z"/>
        <path class="cls-1" d="M6.35,13.95l-2.06-1.43h2.72c1.13.04,2.25.08,3.36.11,1.13.04,2.25.09,3.34.16-3.06-.07-6.14-.14-9.25-.21.62.45,1.25.91,1.88,1.38Z"/>
        <path class="cls-1" d="M15.39,18.37c-.28-.21-.56-.42-.84-.63l-.33-.25-.22-.18-.89-.71c.8.57,1.59,1.15,2.38,1.71-.25-.14-.09.02-.1.05Z"/>
        <path class="cls-1" d="M12.44,26.23l.17-.5c-.11.42-.22.84-.34,1.26.04-.16.11-.49.17-.75Z"/>
        <path class="cls-1" d="M10.29,14.49s0,.02,0,.04c-.02,0-.06,0-.12,0,.04-.02.08-.04.12-.04Z"/>
        <path class="cls-1" d="M10.31,14.43h.03s.01.01.01.01h.52s-.52.02-.52.02h0s0,.02,0,.02c-.03-.03-.05-.06-.04-.05Z"/>
      </g>
    </g>
  </g>
</svg>