<?xml version="1.0" encoding="UTF-8"?>
<svg id="Calque_2" data-name="Calque 2" xmlns="http://www.w3.org/2000/svg" viewBox="0 0 34.24 35.32">
  <defs>
    <style>
      .cls-1 {
        fill: #fff;
        stroke-width: 0px;
      }
    </style>
  </defs>
  <g id="Calque_1-2" data-name="Calque 1">
    <g id="Stylo">
      <g>
        <path class="cls-1" d="M21.15,16.75c.62-.67,1.24-1.33,1.84-1.98.07-.09.07-.22.03-.32-.05-.1-.15-.17-.22-.25-.31-.3-.61-.6-.9-.88l.8.78c.11.12.27.22.35.38-.05-.12-.16-.19-.24-.28l-.37-.39c-.39-.42-.79-.86-1.24-1.34.34.21.88.85,1.11.92l.65.66c.12.15.31.26.34.47.04.21-.13.37-.27.49l-.56.53c-1.11,1.05-2.23,2.11-3.32,3.16.64-1.04,1.43-1.32,2.01-1.93Z"/>
        <path class="cls-1" d="M19.89,10.77s0,.02-.01-.01c0,.03-.02-.03.01.01Z"/>
        <path class="cls-1" d="M7.66,32.2c-.24.27-.48.53-.71.78.22-.27.47-.52.71-.78Z"/>
        <path class="cls-1" d="M18.77,20.11c-.13.16-.24.3-.36.44-1.01.99-2.04,2-3.1,3.03,1.13-1.12,2.24-2.42,3.45-3.47Z"/>
        <path class="cls-1" d="M20.03,19.18c1-1.05,2.06-2.07,3.11-2.98-1.03.92-2.07,1.94-3.11,2.98Z"/>
        <path class="cls-1" d="M.13,29.14s-.04-.02-.05-.1c0-.07-.02-.14-.03-.2,0-.5.11-.99.41-1.39.14-.2.32-.37.5-.54l.37-.35c-.11.13-.12.2-.3.39-.4.36-.61.6-.75.91-.15.3-.19.68-.14,1.27Z"/>
        <path class="cls-1" d="M7.93,31.91l.02-.04.24-.27s.02-.02.04-.03c-.1.12-.2.22-.29.33Z"/>
        <path class="cls-1" d="M.12,29.88s-.09.02-.12.07l.05-1.1c0,.06.02.12.03.19.03.29-.01.58.04.84Z"/>
        <path class="cls-1" d="M5.74,35.29c.4,0,.71-.12.87-.19.48-.1.91-.34,1.28-.71.26-.23.52-.47.78-.71.05-.09.2-.24.31-.41.11-.06.22-.13.33-.21l-.75.76-.38.38c-.22.22-.46.5-.73.67-.55.4-1.24.48-1.93.44-.37,0-.74-.01-1.12-.02.2,0,.4,0,.61,0,.24,0,.48,0,.74,0Z"/>
        <path class="cls-1" d="M18.76,10.05c-1.28,1.39-2.98,2.79-4.11,4.27,1.62-1.44,3.75-3.54,4.24-3.5.49.04-2.05,2.13-3.23,3.36q.19-.13.37-.26c-.19.13-.37.26-.48.44.37-.26,1.03-.83,1.3-.92l-.22.35c1-.62,2.55-2.1,3.55-2.71-4.55,3.33-9.7,9.12-14.4,14-.64.7-1.26,1.39-1.86,2.08-.29.34-.59.69-.89,1.03l-.22.26c-.07.08-.07.1-.11.15-.06.08-.11.16-.11.27,0,.1.03.18.05.29l.06.65c.04.43.08.86.13,1.29l.03.32c.01.09.02.26.03.25.02.06.04.1.07.15.04.08.09.14.2.13.06.01.15-.01.23,0,.52.01,1.1.02,1.58.03h.35s.15-.02.15-.02h.03s.07-.02.1-.05c.03-.03.04-.06.06-.09l.47-.52c.63-.71,1.24-1.42,1.84-2.14,2.65-2.98,5.49-5.6,8.42-8.68.58-.61,1.66-1.19.28.38-1.12,1.33-2.3,2.62-3.52,3.88.06-.23.69-.78.9-1.12-.95.88-1.72,1.62-2.59,2.54l1.75-1.84c-1.46,1.53-3.1,3.2-4.66,4.91-.58.61-1.37.89-2.01,1.93,2.19-2.07,4.46-4.2,6.62-6.42v.02c.96-.99,1.83-1.89,2.75-2.85-.28.31-.56.63-.83.87,1.43-1.32,2.78-2.68,4.13-4.04-3.48,4.15-7.87,8.28-11.58,12.31,1.21-.97,2.44-2.63,3.55-3.42-.88.89-1.76,1.79-2.65,2.69-.45.45-.9.9-1.35,1.35l-.68.68-.27.26c-.07.07-.14.14-.23.18.1-.06.16-.17.23-.26-.16.17-.4.25-.63.2h-.52s-.62,0-.62,0c-.38,0-.77,0-1.15.01-.23,0-.46.03-.68-.02-.07-.03-.14-.08-.19-.14.05.06.11.11.19.14.19.05.4.03.6.05l.95.03c.36,0,.72.02,1.08.03h.41c.11.02.22.02.32-.03-.08.06-.19.08-.29.08-.13,0-.25,0-.38.01-.36,0-.73,0-1.15-.01.22.04.5.07.8.09.27.02.54.04.81.06.33.03.51-.23.75-.46l.89-.9c-.43.45-.95,1.01-1.2,1.3-.18.18-.43.16-.65.18l-.87.06c.41.02.82.03,1.23.05.18,0,.36-.09.48-.23l.43-.42c.64-.63,1.27-1.26,1.9-1.88l-2,2.12c-.13.13-.25.26-.39.37-.14.11-.33.15-.5.14l-1.18-.03c-.75-.02-1.51-.03-2.27-.05h.16c-.1,0-.21,0-.31-.04-.25-.09-.44-.35-.44-.62v-.81c0-.51-.05-1.15-.11-1.7v-.29c.03.18.07.27.09-.08,0-.2.02-.39.03-.57v-.48c.05-.35.33-.51.59-.81.56-.59,1.15-1.2,1.81-1.77.35-.3.76-.75,1.21-1.25.15-.11.2-.19.24-.27l.29-.32c.24-.25.49-.51.72-.78-.23.25-.47.51-.72.78l-.27.29c.04-.09.08-.18.22-.32-.86.86-1.74,1.73-2.63,2.62l-1.3,1.31c-.22.18-.31.47-.28.75v.92c-.03-.16-.06-.35-.08-.46.03.25.06.5.08.75.01.77.03,1.54.04,2.33-.02-.2-.05-.39-.1-.56v.8c-.01.27.13.53.36.66.23.15.52.09.78.1h.81s1.76-.02,1.76-.02c.29-.02.54.03.79-.05.25-.09.4-.33.58-.51,1.58-1.55,3.14-3.09,4.69-4.61-.9.77-1.79,1.61-2.68,2.49,2.28-2.42,4.59-4.83,6.98-7.13-.32.52-.83,1.18-.96,1.57.08.04.84-.7.45-.22-1.41,1.79-2.7,2.81-3,3.8-.03.21,2.07-1.29,1.56-.64-.45.52-1.27,1.43-2.18,2.4-.28.27-.55.55-.84.84-.04.03-.08.11-.14.21-.99,1.04-1.94,2.03-2.49,2.55-.1.09-.34.34-.51.49-.19.16-.39.3-.62.4-.25.09-.47.11-.64.09-.28.08-.63.09-.9.11-.8-.02-1.58-.04-2.36-.06-.36-.03-.72-.03-1.04-.09-.33-.07-.59-.16-.86-.32,0,.03.06.11-.06.08-.31-.17-.59-.44-.78-.75-.2-.31-.29-.62-.34-1-.05-.38-.02-.79-.02-1.18v-.78c.04-.37.1-.71.18-1.01-.07-.25-.11-.57-.13-.95,0-.32-.04-.68.04-1.02.08-.35.25-.68.5-.96.13-.14.27-.28.41-.42l.24-.24.48-.48c.32-.32.63-.63.9-.92h0c.56-.57,1.13-1.14,1.7-1.71.11-.08.22-.15.33-.21.11-.17.25-.33.31-.41.48-.44.9-.79,1.33-1.14.05-.09.12-.28.27-.43.3-.3.59-.59.87-.88.34-.33.68-.66,1.02-.99,1.17-1.12,2.33-2.21,3.49-3.28.06-.01.1,0,.14.03.13-.21.4-.43.54-.61-.02.04-.03.07,0,.08.46-.56.62-.59,1.1-1.03.1-.11.17-.23.26-.34l.16-.14c.65-.39,1.12-.96,1.69-1.53l1.82-1.64c.48-.44.74-.53,1.11-.79Z"/>
        <path class="cls-1" d="M1.49,26.42l1.69-1.54c-.58.58-1.04,1.14-1.69,1.54Z"/>
        <path class="cls-1" d="M14.27,27.77c.27-.16.54-.36.83-.6-1.36,1.39-2.71,2.77-4.09,4.17h0c1.07-1.17,2.78-2.68,3.27-3.57Z"/>
        <path class="cls-1" d="M.08,29.04c0-.06-.02-.12-.03-.19,0,0,0-.01,0-.01.01.06.02.12.03.2Z"/>
        <path class="cls-1" d="M15.69,23.97l.13-.13c-.32.36-.64.71-.96,1.06.24-.3.53-.61.83-.93Z"/>
        <path class="cls-1" d="M19.34,20.36l2-2.12c.45-.43.89-.85,1.34-1.28.46-.43.86-.79,1.39-1.25-1.56,1.54-3.14,3.09-4.73,4.66Z"/>
        <path class="cls-1" d="M16.95,25.16c.3-.25.62-.52.93-.79-.29.29-.58.57-.87.86.03-.08-.04-.06-.07-.07Z"/>
        <path class="cls-1" d="M12.98,26.9l.2-.21c-.15.19-.31.39-.46.59.06-.09.17-.25.26-.38Z"/>
        <path class="cls-1" d="M20.11,22.2c-.22.21-.43.42-.64.62.11-.14.22-.28.31-.43.1-.04.21-.1.33-.19Z"/>
        <path class="cls-1" d="M23.34,18.86c.29-.29.57-.56.84-.84-.32.35-.66.7-.98,1.05.05-.1.1-.18.14-.21Z"/>
      </g>
      <g>
        <path class="cls-1" d="M26.35,4.71c-.68.78-1.43,1.51-2.08,2.19l.78-.82c-.39.41-.75.73-1.21,1.09.06-.18.37-.4.36-.55.97-.98,2.06-1.86,3.1-2.73-.19.57-.69.54-.95.81Z"/>
        <path class="cls-1" d="M22.67,8.16c.1-.1.19-.2.28-.29-.09.11-.18.21-.28.29Z"/>
        <path class="cls-1" d="M32.43,4.73c.05.15.06.31.07.46-.04-.15-.04-.31-.07-.46Z"/>
        <path class="cls-1" d="M27.15,3.01c.04-.07.09-.12.14-.17.46-.31,1.01-.48,1.56-.48-.62.01-1.16.37-1.7.65Z"/>
        <path class="cls-1" d="M26.52,3.29c-.45.47-.95.9-1.47,1.25.5-.37.99-.8,1.47-1.25Z"/>
        <path class="cls-1" d="M31.25,9.76s.02.04.02.06c0,.02-.02.04-.02.06-.21.16-.42.32-.63.48.04-.05.05-.13.1-.17.23-.18.35-.14.53-.42Z"/>
        <path class="cls-1" d="M32.4,4.56h-.01s-.06-.16-.06-.16c0,0,0-.01,0-.02.03.06.05.12.07.18Z"/>
        <path class="cls-1" d="M31.49,9.54s.07.05.11.06l-.35.27s.01-.04.01-.05c.05-.09.19-.17.23-.28Z"/>
        <path class="cls-1" d="M34.1,6.2c.02-.14-.05-.28-.06-.34.1-.35.17-.71.17-1.15-.03-.06-.05-.2-.12-.33.02-.08.04-.17.04-.27.19.94.12,1.95-.25,2.87.09-.25.15-.52.22-.79Z"/>
        <path class="cls-1" d="M21.74,7.9c.64.55,1.17,1.4,1.91,1.82-.58-.78-1.48-1.76-1.32-2.13.17-.37.96.91,1.5,1.43q-.04-.1-.08-.2c.04.1.08.2.18.23-.08-.2-.31-.52-.3-.69l.19.06c-.16-.56-.79-1.28-.95-1.84.42.91,1.07,1.79,1.84,2.64.37.41.83.88,1.19,1.23.28.27.57.53.84.76.17-.18.33-.36.49-.54l.23-.25.31-.32c.56-.63,1.07-1.28,1.53-1.93.23-.33.45-.65.67-.98.2-.31.48-.71.48-.85.05-.14.26-.4.34-.64.07-.44-.07-.9-.37-1.15-.25-.3-.53-.56-.87-.7-.34-.15-.79-.17-1.15.04-.11.07-.59-.07-.19-.42.34-.31.87-.44,1.34-.33-.08.1-.29,0-.4.08.34.08.58.19.86.33-.19-.09-.39-.16-.6-.19.52.07,1.03.42,1.38.9.11.21-.18.47.13.69.05-.74-.5-1.63-1.37-1.81h0c-.38-.08-.74-.08-1.1.03.11-.05.22-.09.33-.09-.28-.02-.56.04-.82.16-.13.06-.25.14-.36.22-.11.09-.22.19-.39.36.2-.27.29-.42.46-.58.16-.15.35-.28.56-.37.42-.19.92-.24,1.38-.13.94.2,1.68.96,1.96,1.83.03-.28-.11-.57-.29-.81-.18-.24-.38-.44-.49-.68.71.56,1.08,1.5.94,2.39,0-.07-.02-.13-.04-.2-.14.52-.23,1.09-.59,1.5-.03.04-.06.07-.1.1.04-.03.07-.06.1-.1.33-.36.55-.82.63-1.31.02.23-.03.48-.15.74.13-.12.24-.33.3-.56.06-.31.06-.63.01-.94.09.47.12.96.06,1.43.29-.64.28-1.42.04-2.1.16.36.26.76.28,1.16-.04.68-.28,1.34-.71,1.85l.04-.07-.09.12c-.16.2-.36.38-.58.58-.18.19-.34.4-.48.62l-.09.09c.03-.08.04-.14-.09-.04-.56.39-.96,1.03-1.62,1.47-.17.11-.36.32-.55.55-.08.04-.1.08-.1.12l-.12.14c-.09.09-.18.18-.26.3.09-.09.18-.2.26-.3l.12-.12s-.01.11-.07.17c.79-.73,1.64-1.48,2.44-2.28-.03.07-.07.15-.09.2.06-.1.12-.2.18-.29.26-.26.51-.52.76-.79-.06.09-.11.18-.15.28.8-.64,1.25-1.61,1.2-2.6.05-.92-.32-1.87-1.02-2.51.31.42.59.85.74,1.34-.55-1.26-1.9-2.03-3.28-1.97.23-.16.59-.26.79-.39,0-.1-.51-.15-.21-.18.56-.09,1.06.06,1.44.2.39.15.69.27,1.03.25.08-.02-.08-.34-.27-.63-.19-.27-.38-.53-.13-.44.41.16,1.11.58,1.67,1.25.15.2.28.43.42.66,0,.03.06.07.12.12.47.84.6,1.76.56,2.26-.01.18-.03.37-.05.55-.04.09-.08.17-.13.22.02.12.03.23.01.35-.12.47-.32.91-.55,1.32-.16.21-.34.4-.53.58.03.01.08,0,.08.06-.09.12-.19.22-.29.33-.11.11-.2.21-.27.26l-.45.41c-.15.09-.29.15-.45.19-.13.5-.98,1.08-1.46,1.6h0c-.26.25-.52.49-.78.74-.06.02-.12.04-.19.05-.04.1-.18.24-.21.3-.38.31-.7.55-1.01.76-.04.07-.12.26-.23.38-.23.21-.45.43-.67.65-.08.07-.16.15-.24.22-.17-.18-.34-.36-.52-.55-.4-.44-.81-.88-1.23-1.34-.18-.2-.35-.4-.53-.6l-.33-.41s.03-.07.06-.11c-.12-.04-.19-.18-.28-.23.02,0,.04,0,.06-.02-.28-.18-.25-.29-.43-.52-.05-.04-.12-.06-.17-.09l-.06-.08c-.1-.37-.37-.55-.63-.81l-.67-.88c-.18-.23-.17-.39-.25-.59Z"/>
        <path class="cls-1" d="M30.54,10.41c-.27.2-.55.41-.83.61.27-.25.46-.52.83-.61Z"/>
        <path class="cls-1" d="M31.09.61c-.15-.16-.35-.28-.58-.39,1.27.38,2.37,1.23,3.04,2.39h0c-.28-.45-.68-.97-1.14-1.36-.46-.39-.97-.64-1.32-.64Z"/>
        <path class="cls-1" d="M31.26,9.82s0,.04-.01.05h0s0-.04.02-.05Z"/>
        <path class="cls-1" d="M28.82,1.83h-.08c.21-.04.42-.05.64-.05-.17.02-.36.02-.56.05Z"/>
        <path class="cls-1" d="M26.7,2.64l-.9.95c-.42.37-.84.72-1.29,1.02.72-.66,1.43-1.31,2.18-1.97Z"/>
        <path class="cls-1" d="M28.68.1c-.27-.02-.55-.01-.83,0,.27-.05.55-.1.83-.11-.05.03,0,.07,0,.1Z"/>
        <path class="cls-1" d="M30.59,2.06l-.12-.05c.12.02.23.04.35.08-.05,0-.15-.03-.22-.03Z"/>
        <path class="cls-1" d="M25.88.94c.17-.12.36-.22.53-.32-.1.08-.19.16-.27.26-.08,0-.17.02-.27.06Z"/>
        <path class="cls-1" d="M24.17,2.58c-.13.13-.26.25-.39.36.14-.16.29-.32.43-.47-.01.06-.02.1-.04.11Z"/>
      </g>
    </g>
  </g>
</svg>