<?xml version="1.0" encoding="UTF-8"?>
<svg id="Calque_2" data-name="Calque 2" xmlns="http://www.w3.org/2000/svg" viewBox="0 0 31.94 31.7">
  <defs>
    <style>
      .cls-1 {
        fill: #fff;
        stroke-width: 0px;
      }
    </style>
  </defs>
  <g id="Calque_1-2" data-name="Calque 1">
    <g id="Terre">
      <g>
        <path class="cls-1" d="M7.74,28.66c-2.91-1.61-5.12-4.34-6.36-7.09.52,1.09,1.11,2.17,1.86,3.11-1.08-1.45-1.82-2.83-2.31-4.61.26.5.62,1.63.88,1.83,1.86,3.94,5.37,7.15,9.52,8.46-1.73-.27-2.58-1.08-3.6-1.69Z"/>
        <path class="cls-1" d="M.3,15.26c.02.44.05.87.07,1.29-.04-.45-.07-.89-.07-1.29Z"/>
        <path class="cls-1" d="M29.87,18.74c.12-.46.17-.93.23-1.38-.04.46-.1.93-.23,1.38Z"/>
        <path class="cls-1" d="M13.25,30.04c.27.02.52.04.77.07,1.92.25,3.93.14,5.88-.37-2.1.57-4.5.81-6.65.3Z"/>
        <path class="cls-1" d="M11.28,29.31c-1.87-.58-3.61-1.63-4.93-2.91,1.34,1.26,3.04,2.29,4.93,2.91Z"/>
        <path class="cls-1" d="M25.4,6.3s-.05,0-.09-.02c-.04-.03-.08-.06-.11-.08-.21-.28-.49-.5-.73-.76-.24-.26-.51-.48-.79-.7.15.09.3.16.45.26.55.56.64.7,1.27,1.3Z"/>
        <path class="cls-1" d="M29.75,19.25v.05c-.04.16-.06.32-.12.46,0,.02-.02.03-.03.05.06-.18.1-.38.15-.57Z"/>
        <path class="cls-1" d="M25.98,6.98s-.05.08-.04.15c-.22-.33-.5-.61-.74-.92l.11.08c.2.18.45.5.68.7Z"/>
        <path class="cls-1" d="M28.58,15.33c-.01.25.06.47.08.59-.06.65-.24,1.27-.39,2.01,0,.12-.07.36-.08.59-.07.13-.13.26-.2.41.48-1.58.68-3.29.52-5.04.04.47.06.95.07,1.44Z"/>
        <path class="cls-1" d="M1.75,14.91c-.02-1.22.26-2.51.63-3.75.44-1.22.93-2.4,1.5-3.45-.84,1.12-1.53,2.66-1.94,3.98-.43,1.31-.6,2.4-.8,2.6-.1.1-.14-.1-.14-.49.03-.39.12-.97.26-1.63.31-1.32,1-2.85,1.52-3.86q-.17.25-.33.51c.17-.25.32-.52.43-.76-.36.49-.95,1.52-1.15,1.81.04-.18.07-.37.11-.55-.21.34-.42.77-.66,1.26-.21.49-.38,1.04-.56,1.59-.12.56-.28,1.13-.38,1.66-.08.53-.16,1.03-.25,1.44.23-2,.75-4.13,1.76-6.15,1-2.02,2.44-3.94,4.28-5.49,1.85-1.54,4.11-2.67,6.49-3.24,2.39-.56,4.9-.49,7.19.09,5.17,1.23,9.29,4.91,11.25,9.35.2.41.41,1.17.61,2.01.15.85.3,1.79.3,2.58.14,1.39,0,2.79-.2,4.17-.29,1.37-.63,2.74-1.23,4.01-2.53,5.44-8.25,9.05-14.62,9.1-1.29-.05-2.93-.49.11-.47,2.52-.16,5-.84,7.24-2.02-.21.22-1.32.72-1.83.96,1.78-.61,3.17-1.38,4.61-2.55-.97.77-1.98,1.49-3.1,2.02,2.79-1.35,5.4-3.79,6.96-6.79.52-1.09,1.38-1.97,1.53-3.76-1.16,4.28-4.22,8.04-8.17,10.12l.02-.02c-1.75.96-3.51,1.48-5.41,1.73.59-.11,1.19-.2,1.7-.33-2.73.59-5.54.42-8.16-.34,3.74.94,7.98.54,11.55-1.33,3.58-1.84,6.37-5.18,7.47-8.87-.45.98-.9,2.15-1.55,3.18-.6,1.06-1.37,1.97-2.1,2.57,2.44-2.49,3.96-5.86,4.28-9.43,0,.27,0,.53-.02.79.43-2.21.09-4.65-.62-6.77l-.2-.57.2.57c.62,1.97.82,4.01.64,5.98.02-.91.01-1.87-.1-3.02.02.31,0,.69,0,1.11,0,.41.02.86-.04,1.3-.03.58-.05,1.17-.17,1.74-.05.29-.09.58-.14.86l-.22.84c.45-1.73.57-3.52.32-5.11.1,2.39-.29,4.88-1.3,7.06.48-1.22.88-2.48,1.02-3.79.35-2.16.23-4.44-.43-6.6.04.08.05.16.08.25-.04-.17-.11-.33-.16-.49-.27-.84-.63-1.65-1.04-2.44-.21-.34-.43-.67-.65-1-.23-.32-.5-.6-.75-.9l-.24-.31c.17.18.29.24,0-.14-1.25-1.65-3.14-2.93-5.21-4.05-.27-.16-.61-.29-.99-.43-.38-.13-.79-.28-1.23-.36-.23-.09-.36-.1-.48-.11-.19-.04-.38-.09-.58-.12-.47-.07-.95-.14-1.42-.18.46.06.93.12,1.42.18.18.02.35.08.52.12-.13,0-.26,0-.52-.05,3.22.68,6.29,2.51,8.48,5.14-.17-.14-.37-.31-.47-.4.25.23.5.45.71.71.33.44.68.87.95,1.35l.44.7.37.74c-.16-.29-.32-.55-.48-.77,1.46,2.77,2.11,6,1.67,9.14-.21,1.47-.69,2.89-1.35,4.19-.64,1.32-1.49,2.53-2.49,3.57,1.13-1.08,2.14-2.43,2.83-3.98-.88,2.06-2.24,3.93-3.95,5.39-1.7,1.48-3.78,2.49-5.96,3,.76-.3,1.74-.8,2.12-1.15-.05-.03-1.38.39-.63.08,2.63-1.28,4.3-2.65,4.77-3.8.01-.06-.13.02-.34.16-.24.13-.53.3-.81.45-.54.33-1.07.47-.7.16.6-.55,1.69-1.54,2.53-2.86.27-.36.5-.77.76-1.18.03-.05.05-.15.08-.28.76-1.51,1.15-3.08,1.27-3.96.06-.32.13-.65.14-.98.03-.17.08-.32.12-.43-.03-.21-.02-.42-.05-.62-.02-.44-.01-.88-.05-1.32-.06-.43-.1-.87-.18-1.29-.09-.47-.13-.96-.27-1.42-.02.02-.04.1-.1.03-.33-1.03-.79-2.02-1.37-2.93-.18-.4-.42-.74-.56-1.08-.46-.39-1.13-1.1-1.93-1.8-.81-.68-1.75-1.36-2.61-1.75h0c-.43-.2-.85-.42-1.31-.56l-.67-.25-.7-.18c-.15-.07-.29-.13-.42-.2-.24-.01-.5-.03-.62-.03-.75-.18-1.41-.24-2.07-.34-.12.01-.35.12-.6.14-.26.01-.51.02-.75.03-.25.03-.48.07-.72.11-.56.05-1.11.2-1.68.33-1.89.48-3.63,1.4-5.12,2.61-.07.02-.11,0-.15-.03-.18.25-.54.48-.69.71.02-.05.03-.08.01-.09-.54.71-.75.74-1.25,1.37-.11.15-.17.31-.27.45-.06.07-.1.14-.15.21-.65.66-1.04,1.51-1.41,2.45-.2.47-.41.93-.54,1.43l-.23.73-.15.75c-.14.61-.26,1.12-.39,1.68Z"/>
        <path class="cls-1" d="M23.48,4.58c-.71-.58-1.5-1.07-2.32-1.49.9.42,1.72.81,2.32,1.49Z"/>
        <path class="cls-1" d="M23.24,25.76c-.32.16-.7.3-1.08.49,1-.53,1.86-1.28,2.68-2.05.78-.82,1.48-1.72,2.05-2.71h0c-.45.8-1.09,1.74-1.83,2.46-.7.76-1.43,1.36-1.83,1.81Z"/>
        <path class="cls-1" d="M25.31,6.28l-.11-.08h0s.07.04.11.08Z"/>
        <path class="cls-1" d="M19.77,29.21l-.24.06c.61-.15,1.19-.42,1.78-.64-.46.19-.97.44-1.54.58Z"/>
        <path class="cls-1" d="M13.07,29.42c-1.25-.25-2.5-.6-3.65-1.18-1.47-.75-2.76-1.77-3.77-2.92,1,1.01,2.14,1.88,3.38,2.59,1.25.7,2.62,1.19,4.04,1.5Z"/>
        <path class="cls-1" d="M19.27,27.55c-.46.08-.92.18-1.4.19.47-.04.92-.18,1.38-.28-.08.05,0,.07.02.1Z"/>
        <path class="cls-1" d="M24.42,26.79l-.31.23c.24-.22.49-.43.74-.65-.1.09-.28.27-.43.42Z"/>
        <path class="cls-1" d="M14.3,27.75c.34.07.68.06,1.02.1-.2,0-.41.02-.61.04-.11-.05-.25-.08-.41-.14Z"/>
        <path class="cls-1" d="M9.29,26.04c-.2-.12-.4-.25-.59-.37-.18-.14-.35-.28-.53-.41.43.34.91.62,1.38.89-.12-.04-.22-.07-.27-.11Z"/>
      </g>
      <g>
        <path class="cls-1" d="M26.24,19.32c.08.83.46,1.63,1.03,2.12-.23-.2-.42-.43-.58-.69.26.4.43.65.85,1.06-.24-.07-.39-.3-.54-.28-.42-.42-.69-.98-.77-1.55-.02-.14-.03-.29-.03-.43,0-.14.02-.25.01-.56-.02-.53-.14-1.06-.37-1.55.64.66.37,1.38.39,1.88Z"/>
        <path class="cls-1" d="M28.79,22.99c-.12-.1-.24-.19-.36-.28.13.09.26.18.36.28Z"/>
        <path class="cls-1" d="M16.76,15.83c-.14-.1-.27-.22-.38-.35.13.12.25.24.38.35Z"/>
        <path class="cls-1" d="M24.78,17.19c-.09-.06-.17-.14-.26-.2-.57-.58-1.41-.94-2.25-.97.9-.01,2,.35,2.51,1.16Z"/>
        <path class="cls-1" d="M25.05,18.04c.18.35.27.74.27,1.13,0,.37-.03.69,0,1.03-.04-.34-.03-.66-.02-1.03,0-.38-.08-.77-.24-1.13Z"/>
        <path class="cls-1" d="M16.22,9.99s0-.04.02-.07c.03-.02.05-.04.07-.07.45-.19.93-.28,1.4-.27-.12.02-.22.07-.33.09-.5.06-.67,0-1.16.32Z"/>
        <path class="cls-1" d="M16.92,15.95h.02s.15.09.15.09v.02c-.05-.03-.11-.07-.17-.11Z"/>
        <path class="cls-1" d="M15.71,10.32s-.07-.06-.12-.05c.23-.16.46-.3.72-.41-.03.02-.05.04-.07.06-.14.11-.41.23-.53.4Z"/>
        <path class="cls-1" d="M14.44,15.48c.07.15.22.24.27.3.15.39.35.79.69,1.18.07.04.2.15.34.22.05.09.11.17.18.25-.91-.67-1.57-1.71-1.76-2.88.07.31.16.62.28.93Z"/>
        <path class="cls-1" d="M25.54,4.02c-.55.91-1.17,1.03-2.08,1.18.28.03.54.08.78.05.25-.02.5-.1.72-.2.43-.2.74-.52.94-.45.18.05.03.35-.43.73-.45.36-1.15.51-1.61.5.12.04.12.04.25.06-.13-.03-.26-.06-.35-.02.23.1.75.08.93.14-.07.05-.14.11-.22.15.39.06.96-.08,1.45-.41.54-.41.74-.61,1.06-.76-.33.21-.52.39-1.02.77-.45.31-.97.51-1.52.58-.6.07-.97-.03-1.39-.03-.47-.02-.73-.04-1.04.07-.61.19-1.07.78-1.16,1.4-.05.3.02.64,0,1.24-.05.58-.27,1.14-.63,1.59-.38.51-.91.91-1.52,1.13-.15.06-.31.1-.47.13l-.24.04-.12.02-.04.02c-.11.03-.21.09-.29.16-.34.28-.33.73-.13.91.02.07.03.39.02.66,0,.16,0,.27.02.39.17.36.55.61.89.55.33,0,.61-.02.89-.02.49,0,.98,0,1.47.02.49.01.99.03,1.5.04.09,0,.35.01.55.03.21.03.43.05.64.11.43.09.84.26,1.23.47.32.17.6.5.61.65,0,.16-.18.08-.89-.27-.6-.26-1.25-.38-1.89-.37-.52.02-.89.04-1.34.04.1-.12.51-.05.71-.13-.64-.07-1.17-.1-1.8-.09l1.26-.03c-.53,0-1.07.01-1.64.02-.28,0-.56.01-.85.02h-.29c-.07,0-.14,0-.21,0-.23-.06-.18-.43-.53-.38.11.14.25.26.41.35.08.05.17.08.26.11.1.03.16.04.39.06.76.05,1.53.09,2.3.08h0c.35,0,.67,0,.99,0h.25s.35.02.35.02c.23.03.47.06.7.13-.29-.06-.6-.09-.86-.12,1.39.17,2.61,1.01,3.22,2.2-.53-.78-1.3-1.37-2.19-1.65-.43-.14-.95-.2-1.34-.18h-1.06c-.71,0-1.42,0-2.12,0-.39,0-.62,0-.85-.04-.24-.04-.46-.13-.67-.24.17.23.5.34.81.37.26.02.76,0,1.07.12-.29,0-.66,0-.9-.01-.24-.02-.47-.07-.68-.16-.43-.19-.8-.53-1.01-.95.05.05.09.1.15.14-.11-.27-.22-.52-.28-.8-.03-.14-.05-.27-.06-.43,0-.2,0-.4,0-.6,0-.08.01-.1.02-.15,0,.05-.02.06-.02.15l-.03.54c0,.18-.02.27,0,.41.02.25.09.51.21.74-.16-.18-.26-.43-.28-.73-.06.17-.03.43.05.67.14.3.35.58.6.79-.4-.32-.74-.73-.94-1.2.09.76.66,1.44,1.36,1.79-.4-.16-.78-.42-1.05-.76-.21-.3-.36-.65-.43-1.01-.08-.35-.04-.72-.03-1.15v.09s0-.19,0-.19c0-.29.07-.54.19-.79.1-.22.2-.44.35-.66.03-.03.06-.06.1-.08-.04.08-.05.13.08.05.28-.15.57-.28.91-.33.14-.02.43-.02.65-.07.24-.05.48-.1.72-.19.26-.09.55-.32.78-.64.09-.06.11-.12.11-.18.05-.07.08-.15.12-.22.1-.18.18-.37.21-.56-.05.19-.12.38-.21.56-.04.06-.07.13-.12.2,0-.06,0-.13.06-.22-.35.58-.96,1.01-1.64,1.14-.17.03-.34.05-.51.05-.14,0-.28.01-.41.04-.27.06-.53.18-.75.35.03-.06.1-.15.12-.18-.08.08-.16.17-.22.27-.26.24-.45.57-.52.91,0-.11.01-.21,0-.31-.11.24-.17.5-.18.77,0,.28,0,.59.01.86.03.54.25,1.06.6,1.47.29.41.7.74,1.17.94.47.21,1.01.2,1.55.22-.6-.1-1.17-.14-1.67-.4.35.14.71.19,1.09.18.41,0,.82,0,1.23-.01.83,0,1.64.02,2.47.08-.31.13-.71.23-.9.4.01.08.54.11.23.16-1.12.24-1.93.03-2.38.5-.09.13,1.17.58.76.68-.36.04-.89.09-1.66.11-.29-.02-.6-.07-.9-.15-.04-.02-.11,0-.2,0-1.1-.29-1.94-1.04-2.26-1.52-.13-.18-.24-.36-.34-.55-.04-.11-.05-.21-.04-.3-.09-.1-.17-.21-.23-.34-.19-.54-.27-1.12-.25-1.65.04-.2.09-.42.12-.6-.03,0-.07.04-.1,0,0-.69.24-1.52.68-2.11.21-.23.44-.4.68-.49.2-.36.78-.78,1.51-.93.34-.08.87-.07.82-.07.08,0,.16-.02.22-.06h0c.13-.06.25-.14.34-.26.03,0,.07,0,.12,0-.02-.06,0-.09-.01-.12.08-.09.16-.18.23-.29-.02-.03-.1-.04-.11-.17,0-.25,0-.47.01-.71.03-.35.12-.71.26-1.05.46-1.15,1.48-1.96,2.59-2.21.04.02.06.06.08.1.15-.1.4-.1.55-.15-.03.02-.04.04-.04.06.52-.12.54,0,.87.04.07,0,.14-.04.21-.06h.11c.16.11.4.14.51.15.11,0,.23-.03.34-.07.25-.03.5-.13.72-.31.2-.19.39-.24.58-.35Z"/>
        <path class="cls-1" d="M17.88,9.58c.17.04.33.05.51,0-.16.08-.34.19-.51,0Z"/>
        <path class="cls-1" d="M20.42,18.19c.15.08.32.14.5.17l-1.44-.02h-.72c-.09,0-.33-.01-.51-.03-.19-.02-.39-.05-.58-.09h0c.3.05.67.09,1,.09.22,0,.45.01.67.02.44,0,.84-.02,1.09-.15Z"/>
        <path class="cls-1" d="M16.23,9.92s.04-.04.07-.06h0s-.04.04-.07.06Z"/>
        <path class="cls-1" d="M22.26,16.56h.09c-.24.02-.48.04-.71.05.19-.03.4-.04.61-.05Z"/>
        <path class="cls-1" d="M24.41,17.65c.3.35.53.78.61,1.25.03.59-.02,1.24.11,1.85-.18-.53-.22-1.14-.21-1.66-.02-.51-.2-1.02-.51-1.44Z"/>
        <path class="cls-1" d="M22.27,18.29c.15.04.17.09.24.14-.08-.02-.09-.03-.25-.04.04-.03,0-.07,0-.1Z"/>
        <path class="cls-1" d="M20.28,16.66h.14c-.12.02-.24.05-.37.08.06-.02.14-.05.23-.08Z"/>
        <path class="cls-1" d="M22.91,18.73s-.06-.07-.09-.11c.03,0,.07,0,.11,0-.02.05-.02.09-.02.12Z"/>
        <path class="cls-1" d="M23.2,19.4c0,.3.03.58.06.86-.03-.17-.06-.34-.08-.51-.01-.09-.01-.17-.02-.26,0-.1-.01-.18-.01-.17.03,0,.06.04.05.09Z"/>
      </g>
      <g>
        <path class="cls-1" d="M16.88,26.35c.07.53.06.87.07,1.3,0,.41.01.8.02,1.18l-.03-.91c.01.45-.02.84-.09,1.3-.09-.14-.02-.44-.13-.51,0-.55.03-1.11.09-1.66.03-.26.05-.59.06-.92,0-.33-.01-.66-.06-.98.37.46.05.85.07,1.2Z"/>
        <path class="cls-1" d="M16.73,30.45c0-.11,0-.22,0-.33.01.11.02.23,0,.33Z"/>
        <path class="cls-1" d="M11.44,21.07c-.14-.02-.27-.04-.38-.06.13,0,.25.03.38.06Z"/>
        <path class="cls-1" d="M15.97,24.84c-.04-.06-.08-.12-.12-.19-.14-.53-.38-1.04-.67-1.54.32.53.73,1.09.79,1.73Z"/>
        <path class="cls-1" d="M15.88,25.47c.12.53.11,1.1-.02,1.58.1-.49.11-1.04.02-1.58Z"/>
        <path class="cls-1" d="M7.09,21.65s-.02.03-.05.04c-.02,0-.04,0-.06,0-.23-.13-.44-.28-.65-.44.06.02.13.02.19.04.23.16.24.28.56.35Z"/>
        <path class="cls-1" d="M11.58,21.1h.02s.09,0,.13.01h.01c-.07,0-.12,0-.16-.01Z"/>
        <path class="cls-1" d="M7.39,21.79s-.02.08-.01.12c-.13-.07-.26-.14-.39-.21.02,0,.04,0,.06,0,.1.01.23.11.35.1Z"/>
        <path class="cls-1" d="M10.35,22.61c.05,0,.11-.07.14-.09.15.08.3.16.41.23.03-.02.08,0,.14-.03.02.04.04.08.07.11-.34-.1-.69-.19-1.08-.23.1,0,.21,0,.31.01Z"/>
        <path class="cls-1" d="M.59,14.39c.51.45.89,1.17,1.51,1.49-.43-.66-1.13-1.47-.93-1.81.19-.34.76.74,1.19,1.17q-.03-.09-.05-.17c.03.09.05.17.13.19-.05-.17-.21-.45-.18-.6l.16.04c-.08-.49-.56-1.09-.64-1.58.71,2.06,2.92,3.83,4.62,5.5.92.75,2.11.86,2.98.59.08-.01.22,0,.37,0,.2.02.44.04.65.06.87-.01,1.75.13,2.62.34,1.84.61,3.14,2.14,4,3.95.17.38.01.99-.44.16-.43-.66-.9-1.26-1.42-1.82.15-.01.35.3.51.39-.29-.5-.62-.86-1.06-1.23.29.25.58.49.84.78-.65-.7-1.49-1.37-2.47-1.74-.34-.14-.54-.63-1.15-.51,1.3.46,2.42,1.32,3.33,2.3h-.01c.43.43.72.89,1.02,1.39-.11-.15-.22-.29-.29-.44.38.76.68,1.53.83,2.34-.45-1.07-1.01-2.12-1.82-2.99-.78-.88-1.83-1.55-2.92-1.83.53.36,1.39.51,1.71,1.02-.82-.58-1.77-.98-2.79-1.19.08,0,.16,0,.23-.02-.31-.13-.65-.17-.99-.17-.35,0-.53.02-.79-.03l-.13-.03s.09.02.13.03c.23.05.42.07.68.1.29.03.58.05.87.12-.27,0-.54,0-.88-.05.18.09.43.13.68.19.33.05.66.11.97.22-.49-.13-1.01-.15-1.46-.07.67.1,1.35.25,1.95.54-.34-.12-.7-.2-1.06-.26-.59-.17-1.24-.17-1.77-.25h.06s-.13-.01-.13-.01c-.22-.03-.43-.08-.64-.14-.19-.04-.39-.05-.6-.06l-.09-.03c.07-.01.11-.03,0-.1-.42-.28-1.01-.39-1.38-.88-.09-.13-.26-.24-.44-.38-.02-.06-.06-.07-.1-.07l-.12-.1c-.09-.09-.18-.18-.28-.25.09.09.19.17.28.25.03.03.07.06.1.1-.04,0-.09,0-.14-.05.55.63,1.25,1.17,2.08,1.47-.07,0-.13.01-.18.02.09,0,.18.01.27.02.27.09.54.15.82.19-.09,0-.17.02-.25.04.78.25,1.61.09,2.5.23.8.21,1.53.58,2.16,1.05-.3-.32-.68-.6-1.1-.79,1.18.4,2.24,1.23,2.84,2.33-.24-.11-.49-.29-.71-.28-.05.06.14.37-.03.23-.65-.44-.96-.91-1.47-.7-.09.08.19.88-.06.81-.17-.09-.45-.25-.76-.39-.08-.06-.17-.1-.27-.15,0-.01-.04,0-.08.02-.35-.13-.68-.21-.87-.28-.07-.02-.14-.04-.21-.06-.03-.03-.06-.07-.08-.12-.05.03-.1.04-.15.06-.21-.03-.33-.06-.72-.08-.18-.06-.37-.12-.53-.17,0,.03.02.07-.01.1-.41-.06-.81-.16-1.19-.28-.15-.08-.27-.19-.37-.3-.51.11-1.37-.49-1.93-.9h0c-.28-.21-.55-.45-.8-.71-.02-.06-.04-.12-.04-.17-.08-.02-.14-.07-.18-.08-.13-.19-.23-.37-.32-.55-.04-.01-.15,0-.2-.05-.1-.12-.2-.22-.3-.32-.11-.13-.22-.26-.33-.39-.37-.45-.71-.91-1.05-1.37.01-.04.04-.07.07-.1-.1-.03-.15-.14-.23-.18.02,0,.04,0,.05-.02-.23-.14-.19-.24-.32-.44-.04-.04-.1-.04-.15-.07l-.04-.06c-.04-.32-.27-.47-.47-.68l-.5-.74c-.13-.19-.11-.34-.16-.51Z"/>
        <path class="cls-1" d="M6.27,21.2c-.27-.21-.51-.43-.74-.68.27.23.56.35.74.68Z"/>
        <path class="cls-1" d="M12.77,23.61c0,.11.03.2.07.3-.33-.36-.72-.64-1.16-.86h0c.39.12.75.57,1.1.56Z"/>
        <path class="cls-1" d="M7.05,21.69s-.04,0-.06,0h0s.04,0,.06,0Z"/>
        <path class="cls-1" d="M14.74,23.41l.04.06c-.12-.13-.24-.26-.34-.38.11.09.21.2.31.32Z"/>
        <path class="cls-1" d="M15.44,25.08c.11.33.19.66.25,1,0,.44-.04.88-.15,1.3.05-.79.09-1.53-.1-2.3Z"/>
        <path class="cls-1" d="M13.32,24.4c.03.1.04.22.06.32-.05-.09-.08-.18-.14-.27.04,0,.06-.04.08-.06Z"/>
        <path class="cls-1" d="M13.72,22.42l.08.07c-.08-.04-.16-.07-.25-.11.04.01.11.03.17.05Z"/>
        <path class="cls-1" d="M13.61,25.44c-.02-.07-.03-.14-.04-.21.03.03.07.06.11.09-.03.04-.05.08-.07.12Z"/>
        <path class="cls-1" d="M13.84,26.52c0,.11,0,.17,0,.32,0-.19-.03-.25-.04-.38.03.02.06.04.05.06Z"/>
      </g>
    </g>
  </g>
</svg>