<?xml version="1.0" encoding="UTF-8"?>
<svg id="Calque_2" data-name="Calque 2" xmlns="http://www.w3.org/2000/svg" viewBox="0 0 24.76 31.74">
  <defs>
    <style>
      .cls-1 {
        fill: #fff;
        stroke-width: 0px;
      }
    </style>
  </defs>
  <g id="Calque_1-2" data-name="Calque 1">
    <g id="Utilisateur">
      <g>
        <path class="cls-1" d="M23.31,25.63c.7,1.11,1.15,2.38,1.43,3.55-.14-.46-.23-.94-.41-1.38.22.68.37,1.28.4,2.02-.12-.2-.12-.68-.28-.76-.38-1.68-1-3.34-1.93-4.79.64.38.53.98.79,1.37Z"/>
        <path class="cls-1" d="M24.76,31.74c-.01-.17-.02-.34-.03-.51.02.18.04.35.03.51Z"/>
        <path class="cls-1" d="M13.89,20.53c-.18-.02-.37,0-.54-.02.18-.02.36-.02.54.02Z"/>
        <path class="cls-1" d="M21.51,24.16c-.08-.06-.16-.12-.24-.19-.24-.29-.49-.59-.77-.85-.27-.28-.55-.55-.86-.8.68.52,1.41,1.1,1.87,1.84Z"/>
        <path class="cls-1" d="M21.82,24.96c.47.6.82,1.31,1.01,2.01-.21-.69-.56-1.37-1.01-2.01Z"/>
        <path class="cls-1" d="M8.9,22.5s0,.04,0,.06c-.02.01-.03.03-.04.04-.26.05-.5.17-.76.24.05-.04.09-.1.15-.13.28-.09.37-.04.65-.21Z"/>
        <path class="cls-1" d="M14.09,20.55h.02s.19,0,.19,0c0,0,.01,0,.02.01-.08,0-.15,0-.23-.01Z"/>
        <path class="cls-1" d="M9.22,22.4s.04.08.07.1l-.43.11s.03-.03.03-.04c.08-.06.24-.07.33-.16Z"/>
        <path class="cls-1" d="M12.55,22.16c.09,0,.18-.08.22-.1.24.07.48.14.75.19.05-.02.14,0,.23-.03.05.04.1.08.15.12-.3-.07-.61-.09-.93-.11-.32-.04-.64-.04-.97-.03.18-.01.35-.03.54-.03Z"/>
        <path class="cls-1" d="M1.74,31.6c-.04-.95.33-1.97.36-2.9-.49.98-.61,2.49-.99,2.65-.19.08-.18-.32-.11-.84.12-.52.27-1.15.4-1.58q-.07.1-.14.21c.07-.11.14-.21.12-.32-.14.21-.33.64-.46.75l-.05-.23c-.19.28-.34.71-.49,1.16-.11.45-.22.9-.38,1.23.45-1.58.9-3.34,1.73-5.05.8-1.71,1.98-3.37,3.45-4.52,1.57-1.37,3.29-2.46,5.15-3.15.18-.05.49-.11.83-.15.34-.03.72-.02,1.04-.03.56-.07,1.11-.03,1.68-.05.56.05,1.13.04,1.69.12,1.2.17,2.3.66,3.36,1.23,1.04.62,2,1.38,2.93,2.25.36.38.54,1.11-.36.3-.82-.59-1.62-1.2-2.49-1.7.16-.03.54.26.77.33-.58-.47-1.1-.83-1.78-1.12.46.19.89.42,1.31.68-1.05-.65-2.32-1.21-3.64-1.47-.47-.13-.84-.56-1.58-.39,1.74.34,3.41,1.06,4.92,1.97h-.01c.34.2.67.4.96.63.3.23.6.44.88.7-.18-.15-.38-.29-.54-.43.8.77,1.56,1.55,2.18,2.44-1.07-1.1-2.26-2.15-3.62-2.98-1.35-.83-2.88-1.4-4.39-1.57.8.29,1.96.37,2.56.86-1.27-.52-2.63-.83-4.03-.93.11,0,.21-.02.31-.03-.44-.1-.9-.12-1.35-.07-.46.02-.91.09-1.35.15l-.24.02c.08,0,.16-.02.24-.02.4-.04.8-.09,1.2-.08.4,0,.79-.02,1.18.03-.36.01-.74.04-1.19.04.25.08.6.07.95.12.46.04.92.03,1.37.13-.35-.06-.7-.05-1.04-.04-.34,0-.67.03-.98.11.94.02,1.9.14,2.81.35-.51-.05-1.01-.16-1.53-.15-.43-.04-.86-.1-1.29-.07-.43,0-.87.01-1.31.08l.1-.02-.2.03c-.34.03-.68.1-1.02.19-.3.08-.59.2-.85.37l-.14.05c.08-.07.11-.12-.07-.07-.4.07-.78.26-1.16.47-.39.19-.76.44-1.2.62-.24.08-.48.31-.75.54-.09.04-.12.08-.14.13l-.17.15c-.14.13-.28.26-.39.4.12-.12.25-.26.39-.4l.16-.13c-.02.05-.04.11-.12.18,1.01-.79,2.2-1.42,3.45-1.88-.07.06-.15.12-.2.16.12-.07.23-.14.34-.21.4-.17.82-.25,1.23-.4-.12.05-.23.11-.32.18,1.19-.28,2.42-.44,3.65-.37,1.15.15,2.27.42,3.3.89-.52-.33-1.14-.55-1.77-.73,1.72.31,3.39,1.06,4.7,2.22-.34-.08-.72-.27-.98-.22-.03.07.39.41.11.26-1.07-.42-1.71-.94-2.31-.66-.1.07.76.99.38.91-.29-.11-.81-.26-1.37-.43-.16-.05-.33-.1-.5-.15-.02-.01-.06,0-.12.02-.3-.08-.61-.11-.88-.15-.27-.05-.5-.08-.66-.1-.13-.02-.25-.03-.37-.05-.06-.03-.12-.07-.16-.11-.08.03-.16.04-.23.07-.34,0-.67,0-.99,0-.19-.01-.39-.03-.55-.04,0,.03.04.06.01.1-.41.03-.8.15-1.2.23-.17,0-.33,0-.48-.02-.33.39-1.34.62-1.91,1.06h0c-.32.18-.6.4-.9.61-.06.02-.13.03-.19.03-.05.09-.11.16-.13.2-.24.17-.46.29-.69.42-.02.05-.01.17-.07.24-.14.14-.26.28-.38.41-.16.14-.28.32-.43.48-.49.55-.9,1.16-1.28,1.78-.04,0-.08,0-.12-.02,0,.12-.11.25-.11.36,0-.02-.02-.04-.04-.05-.05.34-.17.36-.31.64-.02.07,0,.14-.01.21l-.04.09c-.26.28-.31.64-.38,1.02-.09.38-.24.75-.29,1.14-.05.31-.18.42-.27.64Z"/>
        <path class="cls-1" d="M8,22.88c-.34.1-.64.27-.97.41.33-.18.57-.45.97-.41Z"/>
        <path class="cls-1" d="M16.95,23.16c.09.12.19.24.3.36-.72-.43-1.49-.77-2.32-.98h0c.69.1,1.52.65,2.02.61Z"/>
        <path class="cls-1" d="M8.89,22.56s-.02.03-.03.04h0s.02-.03.04-.04Z"/>
        <path class="cls-1" d="M19.31,22.74l.08.06c-.21-.14-.42-.27-.62-.4.18.08.36.21.54.34Z"/>
        <path class="cls-1" d="M21.14,24.61c.3.39.65.76.9,1.19.32.55.54,1.15.68,1.73-.4-1.02-.92-2.01-1.58-2.92Z"/>
        <path class="cls-1" d="M18.27,24.13c.12.14.24.26.34.42-.12-.13-.27-.23-.4-.34.04,0,.05-.05.06-.08Z"/>
        <path class="cls-1" d="M17.52,21.74l.14.06c-.12-.03-.25-.06-.38-.09.06,0,.15.02.24.03Z"/>
        <path class="cls-1" d="M19.5,25.54c-.08-.1-.16-.2-.23-.3.06.04.13.08.21.12,0,.06,0,.12.03.19Z"/>
        <path class="cls-1" d="M20.66,27.14c.1.15.15.31.21.46-.09-.18-.19-.36-.31-.52.05.02.09.04.1.07Z"/>
      </g>
      <g>
        <path class="cls-1" d="M16.52,1.91c1.46.77,2.57,2.14,3.19,3.51-.26-.55-.56-1.08-.94-1.55.55.72.9,1.42,1.11,2.31-.17-.23-.32-.81-.5-.88-.91-1.93-2.58-3.56-4.64-4.29.92.01,1.28.59,1.78.89Z"/>
        <path class="cls-1" d="M20.13,8.57c-.01-.22-.03-.43-.04-.63.02.22.04.44.04.63Z"/>
        <path class="cls-1" d="M6.05,6.98c-.05.21-.06.43-.09.64,0-.21.03-.43.09-.64Z"/>
        <path class="cls-1" d="M13.73,1.54c-.14,0-.26,0-.37,0-.91-.13-1.86-.1-2.8.12,1-.26,2.16-.43,3.17-.12Z"/>
        <path class="cls-1" d="M14.63,2.01c.87.26,1.68.78,2.25,1.42-.59-.62-1.37-1.12-2.25-1.42Z"/>
        <path class="cls-1" d="M8.65,12.18s.04-.02.06-.01c.02.01.04.02.06.02.18.22.36.44.57.63-.06-.03-.14-.04-.2-.08-.21-.24-.2-.34-.49-.55Z"/>
        <path class="cls-1" d="M6.11,6.74v-.03c0-.07.02-.15.04-.22,0,0,0-.01.02-.02-.02.1-.04.18-.06.26Z"/>
        <path class="cls-1" d="M8.42,11.9s.06-.06.07-.1c.08.14.18.25.27.39-.02,0-.04-.01-.06-.02-.09-.06-.18-.21-.29-.26Z"/>
        <path class="cls-1" d="M7.58,8.55c0-.1-.08-.18-.1-.23.06-.25.16-.49.24-.77,0-.05.01-.14,0-.24.05-.04.09-.09.13-.14-.19.6-.28,1.26-.24,1.94-.02-.18-.03-.37-.03-.56Z"/>
        <path class="cls-1" d="M18.7,8.73c.03.54-.12,1.11-.29,1.64-.19.48-.33.82-.61,1.54.41-.47.74-1.15.97-1.73.23-.58.37-1.07.56-1.16.2-.09.19.39.03,1-.16.62-.53,1.31-.77,1.79q.1-.11.19-.22c-.1.11-.19.22-.22.35.2-.21.52-.68.68-.79v.28c.26-.29.53-.8.73-1.34.19-.54.32-1.11.47-1.52-.43,1.99-1.42,4.11-3.22,5.61-.89.74-1.97,1.3-3.12,1.59-1.15.29-2.37.28-3.49,0-2.52-.53-4.69-2.18-5.88-4.41-.23-.42-.48-1.55-.46-2.35-.15-1.42.09-2.89.61-4.26C6.13,1.85,9.19.04,12.5,0c.68.02,1.49.42-.06.47-1.27.14-2.51.51-3.64,1.1.08-.16.65-.39.9-.55-.91.28-1.64.66-2.36,1.26.49-.4,1-.76,1.57-1.04-1.41.7-2.75,1.94-3.51,3.48-.26.55-.87.94-.82,1.9.66-2.18,2.26-4,4.23-5.05h0c.87-.47,1.76-.73,2.72-.86-.3.06-.56.12-.85.18,1.38-.24,2.77-.15,4.07.24-1.88-.36-3.93-.15-5.69.77-1.75.9-3.13,2.53-3.63,4.34.48-.92,1-2.26,1.83-2.75-1.17,1.2-1.93,2.82-2.11,4.55,0-.13-.02-.26-.01-.39-.28,1.07-.05,2.27.28,3.31l.09.28c-.03-.1-.06-.19-.09-.28-.28-.97-.36-1.96-.26-2.92.01.44.02.91.06,1.46.04-.31.04-.74.1-1.16.02-.56.1-1.12.27-1.65-.21.83-.24,1.69-.07,2.44,0-1.13.18-2.3.68-3.31-.22.57-.4,1.17-.45,1.78-.18,1.01-.15,2.08.15,3.09-.02-.04-.03-.08-.04-.11.02.08.05.15.08.23.12.4.29.78.48,1.15.2.32.43.61.71.86l.11.15c-.1-.07-.17-.09-.04.1.55.82,1.5,1.34,2.44,1.94.25.16.63.29,1.05.37.11.06.17.05.23.04.09.01.18.04.27.04.22.03.45.06.67.07-.21-.02-.43-.04-.67-.07-.08-.01-.17-.04-.25-.05.06-.02.13-.03.25-.01-1.51-.33-2.93-1.21-3.96-2.42.09.06.19.12.25.16-.13-.1-.25-.19-.36-.3-.32-.4-.61-.83-.85-1.3.09.13.17.25.27.34-.67-1.29-.99-2.78-.8-4.25.24-1.37.91-2.62,1.85-3.57-.57.46-1.06,1.08-1.4,1.79.78-1.95,2.57-3.52,4.64-3.91-.34.21-.77.49-.91.73.04.05.64-.12.32.05-1.11.68-1.91,1.2-1.93,1.88.02.09,1.29-.36,1.03-.02-.22.24-.63.64-.95,1.17-.11.14-.2.3-.31.45-.02.02-.01.07,0,.12-.28.59-.44,1.2-.5,1.54-.03.13-.07.25-.07.38-.03.07-.07.12-.11.17.03.08.04.17.07.25-.02.35,0,.69.06,1.03.02.19,0,.39.04.58.03-.01.05-.05.1-.03.12.41.3.81.53,1.17.05.17.12.32.14.5.48.22,1.15,1.08,1.88,1.36h0c.34.16.69.31,1.06.4.06.04.11.09.16.14.1-.02.2-.02.26-.03.3.1.56.15.83.23.05-.02.14-.12.24-.12.21,0,.4-.01.59-.06.23-.01.45-.07.68-.11.77-.17,1.49-.5,2.14-.97.04,0,.07.04.11.06.05-.13.22-.2.27-.31,0,.03,0,.05.02.06.19-.33.33-.29.55-.55.04-.06.05-.14.09-.21.03-.03.05-.06.07-.09.36-.22.5-.6.66-1,.2-.38.37-.79.47-1.22.1-.34.2-.47.3-.72Z"/>
        <path class="cls-1" d="M9.42,12.89c.27.26.58.48.9.67-.36-.17-.73-.3-.9-.67Z"/>
        <path class="cls-1" d="M9.62,4.48c.15-.03.32-.04.48-.1-.75.42-1.38,1.05-1.82,1.81h0c.31-.67,1.13-1.27,1.35-1.71Z"/>
        <path class="cls-1" d="M8.71,12.17s.04.01.06.02h0s-.04,0-.06-.02Z"/>
        <path class="cls-1" d="M10.7,2.18l.11-.03c-.28.08-.54.21-.8.32.2-.1.44-.22.69-.29Z"/>
        <path class="cls-1" d="M13.76,2.14c.57.11,1.14.25,1.67.51.66.36,1.24.85,1.65,1.41-.88-.92-2.02-1.62-3.32-1.92Z"/>
        <path class="cls-1" d="M11.18,3.84c.18,0,.37-.02.55,0-.18,0-.35.06-.53.09.02-.04-.01-.07-.03-.1Z"/>
        <path class="cls-1" d="M8.6,3.33l.14-.11c-.1.11-.2.22-.31.33.04-.05.11-.14.17-.23Z"/>
        <path class="cls-1" d="M13.08,3.89c-.13-.03-.26-.03-.38-.05.08-.01.16-.03.24-.06.04.05.09.08.15.12Z"/>
        <path class="cls-1" d="M14.96,4.52c.15.09.29.19.41.3-.16-.12-.35-.22-.53-.32.05,0,.1,0,.11.01Z"/>
      </g>
    </g>
  </g>
</svg>