<?xml version="1.0" encoding="UTF-8"?>
<svg id="Calque_2" data-name="Calque 2" xmlns="http://www.w3.org/2000/svg" viewBox="0 0 28.94 23.43">
  <defs>
    <style>
      .cls-1 {
        fill: #fff;
        stroke-width: 0px;
      }
    </style>
  </defs>
  <g id="Calque_1-2" data-name="Calque 1">
    <g id="Validé">
      <g>
        <path class="cls-1" d="M2.2,11.09s.05.07.07.1c-.07-.04-.15-.11-.23-.2.75.97,2.02,1.96,2.92,2.5.27.26.55.43.64.4.08-.04-.07-.28-.34-.54-.05-.06-.12-.13-.15-.18-.31-.46-.73-.97-1.21-1.5l.26.34c-.14-.16-.28-.31-.45-.47l.03.09c-.45-.57-1.2-1.2-1.68-1.42-.48-.22-.5.07-.05.63l.2.25Z"/>
        <path class="cls-1" d="M2.85,12.36c-.26-.32-.53-.64-.8-.98l-.04-.08-.07.12h.01c.36.18.86.58,1.31.95l.17.13c.09.06.15.08.19.08.08-.01-.02-.18-.21-.37l-.22-.22c-.51-.57-1.4-1.39-1.87-1.52-.11-.03-.09.08-.11.14-.08.04.08.3.36.56.28.26.57.44.64.39l.13.15-.13-.08c.13.02.4.24.62.39l.3.25-.03-.3-.17-.12s.02.05.02.05c-.32-.22-.63-.43-.96-.68l-.44-.31c-.13-.07-.16-.02-.07.12l.14.19-.06-.09c.4.42.74.78,1.14,1.21.06.06.14.13.19.14.04.01.03-.03-.03-.1Z"/>
        <g>
          <path class="cls-1" d="M1.41,11.08c-.05-.07-.11-.14-.2-.22-.03-.01-.04-.02-.05-.02.03.04.07.09.1.14.07.1.13.13.15.1Z"/>
          <path class="cls-1" d="M1.16,10.83s-.04-.06-.04-.06l.02.05s.01,0,.01,0c0,0,0,0,0,0Z"/>
          <path class="cls-1" d="M16.45,10.89c1.24-1.17,2.47-2.33,3.68-3.48.04-.04.07-.08.06-.09,0,0-.05.01-.08.05-1.22,1.15-2.44,2.3-3.68,3.47-.04.04-.07.08-.07.09,0,.01.04,0,.08-.04Z"/>
          <path class="cls-1" d="M26.34,2.94s-.01.04.02.02c.03-.02.08-.06.1-.1.02-.03,0-.04-.02-.02-.04.02-.08.07-.1.1Z"/>
          <path class="cls-1" d="M26.77,3.9c-.16.18-.3.35-.42.51-.02.03-.05.06-.08.08.02,0,0,.05-.05.12-1.08,1.3-2.32,2.61-3.53,3.92,0,.02,0,.05-.02.09-.05.12-.21.31-.4.49l-.15.13c-.58.53-1.14,1.04-1.73,1.58-.1.13-.22.27-.36.41-.46.54-.92,1.06-1.34,1.54.04-.02.07-.03.08-.01.02.04-.07.18-.2.3l-.2.2c.2-.18.4-.36.6-.54.02-.02.05-.04.08-.07.21-.21.42-.42.64-.63,1.87-1.88,3.53-3.74,5.16-5.61.02-.03.07-.08.1-.09.02,0,.03,0,0,.04-.96,1.25-1.72,2.4-2.88,3.73-1.38,1.59-2.75,3.14-4.21,4.73-1.61,1.57-3.02,3.1-4.6,4.76-.19.2-.37.39-.56.58-.37.37-.73.73-1.09,1.1-.74.74-1.46,1.47-2.18,2.19-2.06-1.87-4.05-3.67-6.09-5.51-.86-.74-1.5-1.58-1.44-1.87.04-.17.33-.11.74.13l-.2-.19-.3-.32c-.29-.3-.5-.59-.61-.8l-.15-.29c-.16-.43-.53-1-.64-1.39h.11s-.04-.08-.04-.08c-.15-.22-.23-.4-.22-.5l.08-.06c.12-.05.28-.04.5.03.02-.04.07-.05.13-.04-.06-.19-.06-.33.13-.32-.06-.09-.02-.11.09-.04.04.02.08.06.12.09h0c-.03-.06-.04-.08-.07-.15-.07-.08-.11-.13-.11-.13q-.19-.2-.37-.38c-.13-.17-.2-.29-.2-.29q-.05-.29.02-.32h.05c-.12-.13-.13-.14-.16-.18-.03-.05-.05-.08-.05-.08t0-.07s.01-.03.01-.03q.11.04.12.03s.06.02.06.02c.1.07.14.1.16.11.12.26.12.26.12.26h.07v.09l.02-.06.08.11-.09-.13q.22.22.32.31c.09.09.18.16.19.17,0-.02,0-.03,0-.03q.23.24.47.48l.04.07s.08.05.13.1l.12.12.03.02h0s.08.05.12.08c.02.02.03.02.03.02h0c.08.06.2.14.52.36.06.07.13.14.2.21l-.05-.07s.03-.04.01-.06c-.47-.55-1.03-1.1-1.57-1.66-.11-.09-.19-.2-.18-.23,0-.04.1,0,.21.1,1.3.9,2.7,2.23,3.77,3.44.31.31.61.61.9.9l-.03-.06.22.25.03.03-.14-.22-.11-.13c-.71-.69-1.3-1.38-1.96-2.08-.35-.38-.63-.72-.96-1.09-.09-.09-.14-.16-.11-.18.03-.01.13.05.22.14,1.23,1.06,2.57,2.35,3.36,3.4.22.2.41.41.56.6h0s-.09-.16-.09-.16c.15.16.21.28.34.43v-.11c.2.2.4.39.59.58l.3.29c.08.08.07.07.11.11.1.12.2.24.31.42l.03.03h.06c.08-.12.14-.24.21-.32l-.1.07c.06-.11.11-.19.18-.25l.07-.06s.01,0,.06-.04l.16-.14c.21-.18.42-.36.62-.51.41-.32.79-.57,1.06-.7,1.48-1.49,2.94-2.97,4.45-4.49.08-.08.16-.13.19-.13.02,0-.01.08-.09.15-1.02,1.12-2.08,2.22-3.15,3.32.94-.87,1.89-1.74,2.84-2.65l.35-.36c.12-.12.24-.23.36-.34,1.2-1.17,2.35-2.28,3.53-3.52.97-1.04,1.84-1.97,2.87-3.07,1.39-1.51,2.64-2.89,4.08-4.3.19-.19.4-.34.46-.31.07.02-.03.2-.22.39-2.88,3.08-5.67,6.14-8.84,9.2-.34.33-.68.65-1.01.98.01,0,.02,0,.03,0,.02.02.01.08-.02.15.38-.35.77-.71,1.17-1.09,1.01-1.09,2.02-2.18,3.18-3.26.79-.74,1.55-1.38,2.31-2.04.88-.92,1.78-1.85,2.65-2.77.03-.04.08-.07.1-.08.02,0,.01.02-.02.06-.58.67-1.19,1.35-1.8,2.03.13-.07.23-.1.26-.05.03.05-.01.16-.11.31l.45-.43c.09-.09.18-.14.2-.12.02.02-.04.11-.13.2l-1.82,1.77c-.71.74-1.42,1.46-2.12,2.19.13-.07.23-.11.3-.11h0s.33-.33.33-.33c1.94-2.12,3.98-4.24,6.11-6.29.04-.04.08-.07.09-.06,0,0-.01.05-.05.08-.64.63-1.27,1.25-1.91,1.87h0s.05-.02.02.02c-.02.03-.07.08-.1.1-.04.02-.04,0-.02-.02-1.17,1.17-2.3,2.36-3.41,3.56,1.07-1.06,2.14-2.13,3.23-3.16l.32-.38s.08-.07.1-.07c.02,0,0,.03-.03.07l-.09.11c.21-.2.4-.31.45-.26.04.06-.1.27-.31.47-.57.57-1.12,1.12-1.68,1.68l-.17.19-.16.2c.89-.83,1.79-1.67,2.69-2.5.07-.07.15-.12.17-.11.02.02-.03.09-.1.16-1.47,1.57-2.97,3.14-4.5,4.7-.44.58-.89,1.16-1.33,1.74l.2-.19c1.7-1.66,2.93-3.28,4.53-4.93.04-.04.08-.07.09-.07.01,0,0,.04-.05.08-.77.81-1.43,1.6-2.18,2.43-.62.69-1.21,1.34-1.76,1.99,1.23-1.25,2.34-2.51,3.54-3.77.05-.06.11-.11.15-.13,0,0,0-.02.02-.04.13-.18.28-.36.44-.54.03-.04.07-.07.1-.08.02,0,.01.02-.02.06ZM4.96,14.92s-.02-.03-.02-.04c.03.04.06.08.1.12l.09.22s-.08-.15-.17-.3ZM2.74,13.37h0c-.03-.07-.05-.12-.05-.12.02.05.04.09.05.12ZM13.99,13.77c-.66.64-1.33,1.27-2.02,1.86l.46-.48c.5-.45,1.02-.91,1.55-1.38ZM3.88,13.44c.14.2.24.37.33.54.13.1.25.21.37.32.32.31.63.61.95.93-.02-.06.06.01.1.04l.13.1c-.32-.33-.64-.66-.98-1.01-.3-.31-.63-.63-.9-.93ZM1.4,11.34l-.02-.04.1.02s-.03,0-.08.02ZM1.24,11.32l.04.05s-.04-.02-.04-.05ZM1.65,11.78s-.03-.06-.05-.08q.04.08.05.08ZM.95,13.18l.35-.03h-.36s0,.03,0,.03Z"/>
        </g>
      </g>
    </g>
  </g>
</svg>