<?xml version="1.0" encoding="UTF-8"?>
<svg id="Calque_2" data-name="Calque 2" xmlns="http://www.w3.org/2000/svg" viewBox="0 0 33.03 25.11">
  <defs>
    <style>
      .cls-1 {
        fill: #fff;
        stroke-width: 0px;
      }
    </style>
  </defs>
  <g id="Calque_1-2" data-name="Calque 1">
    <g id="Voir">
      <g>
        <path class="cls-1" d="M8.76,22.51c-2.61-1.27-4.68-3.43-6.18-5.52l.95,1.23c.35.39.69.78,1.05,1.16-1.07-1.14-1.86-2.2-2.63-3.57.33.35.82,1.25,1.08,1.37,1.11,1.51,2.38,2.93,3.9,4.08,1.51,1.15,3.23,2.03,5.04,2.62-.75-.11-1.33-.33-1.83-.56-.48-.29-.89-.59-1.37-.81Z"/>
        <path class="cls-1" d="M.25,11.97c.14.4.27.72.42,1.07-.16-.36-.31-.69-.42-1.07Z"/>
        <path class="cls-1" d="M29.56,14.83c.21-.35.41-.71.6-1.06-.17.36-.38.72-.6,1.06Z"/>
        <path class="cls-1" d="M13.64,23.47c.22.02.44.06.67.05.42.03.84.07,1.27.1l.64.05.64-.03c.43-.02.86-.04,1.3-.06.43-.08.86-.16,1.29-.24-1.86.48-3.95.52-5.81.13Z"/>
        <path class="cls-1" d="M11.92,22.84c-1.65-.44-3.18-1.33-4.42-2.33,1.26.98,2.75,1.85,4.42,2.33Z"/>
        <path class="cls-1" d="M24.89,5.65s-.04.01-.09,0c-.04-.03-.08-.05-.11-.06-.44-.45-.96-.8-1.43-1.21.13.08.27.13.4.23.53.45.6.58,1.23,1.05Z"/>
        <path class="cls-1" d="M29.32,15.22v.04c-.08.12-.16.24-.24.35-.01.01-.02.02-.03.04.09-.15.18-.29.27-.43Z"/>
        <path class="cls-1" d="M25.48,6.18s-.04.08-.03.14c-.25-.25-.51-.49-.76-.74l.11.05c.2.13.45.41.68.54Z"/>
        <path class="cls-1" d="M29.3,11.81s.08.03.02.2c-.32.5-.65.98-1.05,1.56-.04.1-.16.29-.24.5-.1.09-.2.19-.3.29.35-.53.7-1.06,1.02-1.62.18-.33.37-.66.55-1-.01-.03-.02-.06-.06-.15.05.08.07.11.09.15-.01.03-.02.05-.04.07Z"/>
        <path class="cls-1" d="M1.73,11.59c.85-1.97,2.44-3.9,3.69-5.56-1.86,1.64-3.57,4.63-4.04,4.81-.25.09.11-.71.75-1.68.64-.97,1.55-2.1,2.2-2.85q-.2.18-.39.35c.2-.18.39-.35.51-.56-.4.35-1.1,1.09-1.36,1.27l.21-.43c-1.09.91-2.46,3.01-3.28,4.27.94-1.55,1.98-2.98,3.23-4.48,1.26-1.46,2.72-2.9,4.45-4.08,1.72-1.18,3.74-2.08,5.86-2.43,2.11-.36,4.28-.28,6.29.23,2.25.54,4.29,1.57,6.06,2.8,1.78,1.23,3.32,2.67,4.66,4.2.24.3.63.82,1.01,1.44.2.3.38.64.56.96.27.51.54,1.02.77,1.54l.13.26c-.18.45-.35.89-.56,1.34l-.26.55-.19.38c-.25.52-.52,1.01-.8,1.51-.57.99-1.17,1.95-1.85,2.88-1.51,1.99-3.41,3.71-5.73,4.94-2.3,1.24-5.01,1.91-7.79,1.87-1.11-.06-2.53-.52.11-.46,2.2-.12,4.41-.61,6.42-1.54-.17.26-1.2.54-1.64.78.4-.12.78-.24,1.14-.36.36-.13.69-.31,1.04-.46.7-.29,1.31-.71,1.98-1.15-.45.29-.89.6-1.36.87l-1.45.73c2.49-1.09,4.85-2.97,6.65-5.18.64-.81,1.53-1.31,2.1-2.7-2.1,3.02-4.9,5.83-8.47,7.47v-.02c-.37.21-.77.35-1.17.49-.4.13-.78.29-1.18.39l-1.21.25c-.2.04-.4.09-.61.12l-.62.05c.52-.03,1.04-.15,1.5-.24-2.44.35-4.83.22-7.14-.38,1.67.28,3.36.46,5.09.3,1.74-.07,3.46-.59,5.07-1.28,3.21-1.47,5.8-3.98,7.59-6.7-1.18,1.4-2.64,3.41-4.06,4.25,2.32-1.92,4.17-4.34,5.65-7.02-.09.2-.18.4-.27.62.19-.3.37-.6.54-.92.23-.43.44-.9.63-1.36-.37-.8-.81-1.55-1.1-2.01-.33-.52-.67-1.04-1.02-1.53l-.29-.42.29.42c.73,1.09,1.25,1.93,2.01,3.54-.14.31-.27.62-.42.91l-.21.43-.17.32c.11-.25.22-.49.34-.74.13-.3.26-.6.39-.92-.2-.42-.42-.85-.65-1.29.18.43.36.85.56,1.3-.17.36-.35.73-.54,1.09-.48.95-.96,1.78-1.53,2.61.37-.57.7-1.15,1-1.74.15-.31.28-.57.43-.9.16-.36.3-.71.42-1.05-.1-.18-.2-.35-.29-.52l.24.53c-.5,1.09-.95,1.87-1.46,2.7-.51.82-1.06,1.61-1.66,2.35.68-.91,1.31-1.86,1.85-2.86.21-.33.38-.67.58-1.01.19-.36.39-.78.57-1.18-.56-1.19-1.12-2.12-1.77-3.08l.13.18-.26-.36c-.43-.62-.89-1.24-1.4-1.82-.45-.53-.96-.97-1.48-1.4-.08-.08-.16-.16-.25-.24.18.12.29.16,0-.13-1.23-1.31-2.94-2.29-4.75-3.25-.46-.3-1.19-.46-1.94-.7-.19-.1-.31-.1-.42-.09l-.51-.08c-.41-.07-.82-.18-1.23-.19.4.03.81.13,1.23.19l.46.08c-.11,0-.23.02-.46-.02,2.83.58,5.43,2.2,7.62,4.18-.16-.1-.35-.23-.46-.29.23.17.48.33.7.53.69.66,1.35,1.36,1.97,2.09-.19-.22-.39-.39-.58-.54.64.73,1.21,1.52,1.77,2.32.54.81,1.05,1.62,1.54,2.61-.16.39-.35.79-.52,1.16-.18.35-.35.7-.55,1.04-1.32,2.21-2.96,4.19-4.89,5.82,1.08-.82,2.15-1.81,3.05-2.96-1.17,1.55-2.54,2.97-4.14,4.11-1.59,1.14-3.44,1.94-5.36,2.28.67-.23,1.54-.66,1.88-.96-.06-.07-1.21.3-.56.02,2.32-1.05,3.89-2.04,4.38-3.06.03-.11-.57.18-1.08.41-.54.19-.99.31-.65.04.59-.4,1.57-1.26,2.54-2.27.28-.3.57-.61.87-.92.04-.04.08-.13.13-.24.97-1.19,1.76-2.45,2.18-3.14.17-.25.31-.52.46-.78.1-.12.19-.24.27-.29-.01-.05-.02-.09-.02-.13l.04-.07-.04-.11-.08-.17c-.14-.24-.31-.57-.49-.85-.2-.39-.4-.79-.64-1.16-.02.02-.01.11-.08.05-.56-.82-1.19-1.58-1.84-2.32-.25-.31-.47-.61-.64-.89-.23-.15-.53-.34-.85-.59-.31-.26-.67-.53-1.06-.81-.19-.14-.38-.29-.57-.43-.2-.13-.41-.25-.61-.38-.2-.12-.4-.25-.59-.37-.2-.1-.4-.19-.59-.27h0c-.74-.38-1.54-.62-2.33-.88-.13-.05-.25-.11-.37-.16-.21,0-.43-.04-.54-.04-.64-.21-1.22-.23-1.79-.35-.11.02-.3.08-.52.08-.44.03-.87.06-1.28.09-.49,0-.97.15-1.46.22-1.64.34-3.21,1-4.63,1.91-.06,0-.1-.02-.13-.05-.18.21-.5.4-.67.56.03-.04.04-.07.02-.08-.57.53-.72.59-1.28,1.03-.12.1-.19.25-.29.37l-.17.16c-.7.45-1.18,1.12-1.72,1.84-.59.69-1.11,1.44-1.61,2.21-.38.62-.61.81-.9,1.22Z"/>
        <path class="cls-1" d="M23.07,4.24l-1.01-.68-1.07-.57c.39.19.77.34,1.13.53.34.22.66.45.94.73Z"/>
        <path class="cls-1" d="M22.45,19.79c-.38.13-.69.24-.99.34,1.76-.87,3.33-2.17,4.71-3.74h0c-1.06,1.34-2.98,2.71-3.73,3.4Z"/>
        <path class="cls-1" d="M24.8,5.64l-.11-.05h0s.07.03.11.05Z"/>
        <path class="cls-1" d="M19.35,22.82l-.21.04c.27-.07.54-.12.8-.21l.77-.29c-.4.17-.85.38-1.35.46Z"/>
        <path class="cls-1" d="M13.49,22.85c-1.11-.16-2.18-.49-3.22-.91-.64-.33-1.29-.63-1.85-1.06-.59-.37-1.1-.84-1.58-1.3,1.87,1.62,4.16,2.79,6.65,3.27Z"/>
        <path class="cls-1" d="M18.92,21.14c-.4.04-.8.1-1.21.11.4-.04.79-.15,1.19-.21-.07.04,0,.07.02.1Z"/>
        <path class="cls-1" d="M23.51,20.92l-.28.18c.22-.17.45-.35.68-.53-.09.08-.26.23-.4.35Z"/>
        <path class="cls-1" d="M14.59,21.17c.3.03.6.06.9.08-.18,0-.36.02-.54.04-.09-.05-.22-.09-.36-.12Z"/>
        <path class="cls-1" d="M10.17,19.82c-.37-.17-.68-.43-1.01-.63.41.23.81.52,1.25.7-.11-.02-.2-.03-.24-.06Z"/>
      </g>
      <g>
        <path class="cls-1" d="M19.7,6.12c1.29.67,2.26,1.87,2.81,3.07-.23-.48-.49-.94-.83-1.35.48.63.79,1.25.97,2.03-.16-.2-.28-.7-.45-.76-.8-1.69-2.24-3.13-4.05-3.78.82-.02,1.12.53,1.56.79Z"/>
        <path class="cls-1" d="M22.84,11.97c-.01-.19-.02-.37-.03-.55.02.19.04.38.03.55Z"/>
        <path class="cls-1" d="M10.65,10.6c-.04.18-.05.37-.07.54,0-.18.02-.37.07-.54Z"/>
        <path class="cls-1" d="M17.23,5.88c-.11,0-.21,0-.32,0-.79-.12-1.61-.1-2.43.09.87-.22,1.87-.38,2.75-.09Z"/>
        <path class="cls-1" d="M18,6.32c.75.23,1.45.68,1.92,1.24-.49-.54-1.17-.98-1.92-1.24Z"/>
        <path class="cls-1" d="M13.02,14.92s.03-.02.06-.02c.02,0,.03.01.05.01.14.18.28.37.46.53-.05-.02-.12-.02-.17-.06-.17-.21-.15-.3-.39-.46Z"/>
        <path class="cls-1" d="M10.69,10.4v-.02c0-.06.01-.13.03-.19v-.02c0,.09-.02.16-.03.23Z"/>
        <path class="cls-1" d="M12.83,14.69s.06-.06.08-.1c.06.11.15.21.22.32-.02,0-.03,0-.05-.01-.08-.05-.14-.17-.24-.21Z"/>
        <path class="cls-1" d="M12.2,11.95c0-.08-.08-.15-.1-.19.06-.2.16-.39.22-.62-.01-.04,0-.11-.02-.2.04-.03.08-.07.12-.11-.16.48-.23,1.01-.2,1.56-.02-.15-.02-.3-.02-.45Z"/>
        <path class="cls-1" d="M21.4,12.1c.03.45-.1.93-.25,1.39-.18.45-.35.88-.5,1.31.75-.79,1.03-2.29,1.38-2.44.2-.08.19.34.05.87-.15.53-.47,1.13-.67,1.53q.09-.09.18-.18c-.09.09-.17.19-.19.3.19-.17.47-.58.62-.67v.25c.26-.25.5-.68.69-1.15.18-.47.3-.97.45-1.33-.43,1.75-1.32,3.57-2.88,4.87-.78.64-1.71,1.13-2.71,1.39-1,.25-2.06.25-3.04.01-2.2-.45-4.13-1.85-5.23-3.8-.21-.37-.42-1.37-.41-2.08-.14-1.26.06-2.56.51-3.78,1.1-2.58,3.84-4.18,6.77-4.22.61.02,1.32.42-.05.47-1.12.14-2.21.47-3.2.99.06-.16.57-.34.78-.5-.81.24-1.45.57-2.09,1.1.43-.35.88-.68,1.38-.92-1.25.62-2.43,1.71-3.09,3.08-.23.48-.81.82-.74,1.67.6-1.92,2.02-3.51,3.75-4.43,0,0,0,0,0,.01.77-.43,1.55-.65,2.39-.77-.27.06-.49.1-.75.16,1.22-.2,2.43-.12,3.57.23-1.66-.29-3.44-.1-4.97.7-1.53.78-2.74,2.2-3.17,3.79.44-.79.87-1.98,1.61-2.38-1.02,1.04-1.68,2.44-1.84,3.95,0-.11-.02-.22-.02-.34-.26.93-.05,1.98.23,2.88l.08.25c-.03-.08-.05-.17-.08-.25-.24-.85-.3-1.72-.21-2.55.02.39.02.79.06,1.27.04-.27.05-.64.1-1.01.02-.48.09-.97.24-1.43-.18.72-.2,1.47-.04,2.11,0-.98.17-1.99.6-2.86-.19.5-.34,1.01-.38,1.53-.16.87-.14,1.79.12,2.67-.02-.03-.02-.07-.04-.1.02.07.04.13.07.2.1.34.25.67.41,1,.17.28.38.52.62.73l.1.12c-.09-.06-.15-.07-.04.09.47.72,1.3,1.15,2.1,1.68.21.14.55.25.91.32.09.05.15.05.2.03.08.01.16.03.24.04.19.02.39.06.58.05-.18-.02-.37-.03-.58-.05-.07,0-.14-.03-.21-.04.06-.02.11-.04.22-.02-1.3-.29-2.52-1.05-3.4-2.09.08.05.17.1.23.13-.11-.08-.22-.16-.32-.25-.28-.35-.53-.72-.73-1.11.08.11.16.21.24.28-.57-1.11-.85-2.39-.7-3.66.22-1.17.8-2.25,1.61-3.06-.5.38-.93.91-1.22,1.53.67-1.68,2.21-3.05,4-3.37-.29.2-.65.45-.76.68.04.06.55-.08.28.06-.92.61-1.62,1.02-1.58,1.65.04.09,1.13-.23.93.07-.18.2-.5.54-.75.97-.09.11-.17.24-.25.37-.02.01,0,.06,0,.11-.22.48-.35.97-.4,1.24-.03.1-.06.2-.07.31-.03.05-.06.1-.11.13.03.07.04.14.07.2-.02.28,0,.56.04.84,0,.16-.02.32,0,.48.03-.01.06-.05.1-.03.1.34.24.66.42.95.04.15.08.27.09.42.43.15.95.87,1.55,1.1h0c.27.13.56.25.87.33.04.04.09.08.12.13.09-.02.17-.02.21-.04.21.06.44.14.68.21.04-.02.11-.11.2-.12.17,0,.33,0,.49-.05.19,0,.37-.05.56-.09.63-.13,1.23-.39,1.77-.77.04.01.07.04.1.07.04-.11.18-.17.22-.26,0,.02,0,.04.02.06.15-.28.28-.24.47-.45.04-.05.04-.12.06-.18.02-.02.04-.05.06-.07.33-.17.44-.49.57-.82.17-.32.33-.66.42-1.02.09-.28.2-.39.29-.6Z"/>
        <path class="cls-1" d="M13.64,15.5c.22.22.47.4.73.57-.3-.14-.6-.24-.73-.57Z"/>
        <path class="cls-1" d="M13.84,8.65c.13,0,.27-.01.4-.05-.61.33-1.11.84-1.47,1.45h0c.25-.54.92-1,1.07-1.4Z"/>
        <path class="cls-1" d="M13.07,14.9s.03,0,.05.01h0s-.03,0-.05-.01Z"/>
        <path class="cls-1" d="M14.63,6.49l.1-.02c-.24.07-.46.19-.69.28.17-.09.37-.2.59-.26Z"/>
        <path class="cls-1" d="M17.24,6.47c.49.09.98.21,1.43.43.56.31,1.05.73,1.39,1.22-.74-.79-1.71-1.39-2.82-1.65Z"/>
        <path class="cls-1" d="M15.11,8.16c.15,0,.3,0,.45.03-.14,0-.28.05-.42.07.02-.03-.01-.07-.03-.1Z"/>
        <path class="cls-1" d="M12.84,7.49l.12-.09c-.08.09-.17.19-.25.29.03-.05.09-.13.14-.2Z"/>
        <path class="cls-1" d="M16.64,8.24c-.1-.03-.2-.03-.31-.05.06-.01.12-.03.19-.07.03.04.07.08.12.12Z"/>
        <path class="cls-1" d="M18.13,8.74c.12.07.23.15.33.25-.13-.1-.28-.17-.42-.25.05,0,.09-.01.1,0Z"/>
      </g>
    </g>
  </g>
</svg>